<?xml version="1.0" encoding="utf-8" standalone="no"?>
<!DOCTYPE svg PUBLIC "-//W3C//DTD SVG 1.1//EN"
  "http://www.w3.org/Graphics/SVG/1.1/DTD/svg11.dtd">
<svg xmlns:xlink="http://www.w3.org/1999/xlink" width="382.63176pt" height="378.652185pt" viewBox="0 0 382.63176 378.652185" xmlns="http://www.w3.org/2000/svg" version="1.1">
 <metadata>
  <rdf:RDF xmlns:dc="http://purl.org/dc/elements/1.1/" xmlns:cc="http://creativecommons.org/ns#" xmlns:rdf="http://www.w3.org/1999/02/22-rdf-syntax-ns#">
   <cc:Work>
    <dc:type rdf:resource="http://purl.org/dc/dcmitype/StillImage"/>
    <dc:date>2025-01-27T12:51:16.554106</dc:date>
    <dc:format>image/svg+xml</dc:format>
    <dc:creator>
     <cc:Agent>
      <dc:title>Matplotlib v3.9.2, https://matplotlib.org/</dc:title>
     </cc:Agent>
    </dc:creator>
   </cc:Work>
  </rdf:RDF>
 </metadata>
 <defs>
  <style type="text/css">*{stroke-linejoin: round; stroke-linecap: butt}</style>
 </defs>
 <g id="figure_1">
  <g id="patch_1">
   <path d="M 0 378.652185 
L 382.63176 378.652185 
L 382.63176 -0 
L 0 -0 
z
" style="fill: #ffffff"/>
  </g>
  <g id="axes_1">
   <g id="patch_2">
    <path d="M 31.0125 157.52688 
L 375.43176 157.52688 
L 375.43176 19.2 
L 31.0125 19.2 
z
" style="fill: #ffffff"/>
   </g>
   <g id="line2d_1">
    <path d="M 31.0125 135.141073 
L 375.43176 135.141073 
" clip-path="url(#pf72e302612)" style="fill: none; stroke: #808080; stroke-width: 0.5; stroke-linecap: square"/>
   </g>
   <g id="patch_3">
    <path d="M 48.233463 135.141073 
L 82.675389 135.141073 
L 82.675389 106.188763 
L 48.233463 106.188763 
z
" clip-path="url(#pf72e302612)" style="fill: #ef476f"/>
   </g>
   <g id="patch_4">
    <path d="M 117.117315 135.141073 
L 151.559241 135.141073 
L 151.559241 135.141073 
L 117.117315 135.141073 
z
" clip-path="url(#pf72e302612)" style="fill: #ef476f"/>
   </g>
   <g id="patch_5">
    <path d="M 186.001167 135.141073 
L 220.443093 135.141073 
L 220.443093 148.534495 
L 186.001167 148.534495 
z
" clip-path="url(#pf72e302612)" style="fill: #ef476f"/>
   </g>
   <g id="patch_6">
    <path d="M 254.885019 135.141073 
L 289.326945 135.141073 
L 289.326945 135.141073 
L 254.885019 135.141073 
z
" clip-path="url(#pf72e302612)" style="fill: #ef476f"/>
   </g>
   <g id="patch_7">
    <path d="M 323.768871 135.141073 
L 358.210797 135.141073 
L 358.210797 148.534495 
L 323.768871 148.534495 
z
" clip-path="url(#pf72e302612)" style="fill: #ef476f"/>
   </g>
   <g id="patch_8">
    <path d="M 48.233463 135.141073 
L 82.675389 135.141073 
L 82.675389 135.141073 
L 48.233463 135.141073 
z
" clip-path="url(#pf72e302612)" style="fill: #f78c6b"/>
   </g>
   <g id="patch_9">
    <path d="M 117.117315 135.141073 
L 151.559241 135.141073 
L 151.559241 142.79777 
L 117.117315 142.79777 
z
" clip-path="url(#pf72e302612)" style="fill: #f78c6b"/>
   </g>
   <g id="patch_10">
    <path d="M 186.001167 148.534495 
L 220.443093 148.534495 
L 220.443093 148.534495 
L 186.001167 148.534495 
z
" clip-path="url(#pf72e302612)" style="fill: #f78c6b"/>
   </g>
   <g id="patch_11">
    <path d="M 254.885019 135.141073 
L 289.326945 135.141073 
L 289.326945 142.79777 
L 254.885019 142.79777 
z
" clip-path="url(#pf72e302612)" style="fill: #f78c6b"/>
   </g>
   <g id="patch_12">
    <path d="M 323.768871 148.534495 
L 358.210797 148.534495 
L 358.210797 148.534495 
L 323.768871 148.534495 
z
" clip-path="url(#pf72e302612)" style="fill: #f78c6b"/>
   </g>
   <g id="patch_13">
    <path d="M 48.233463 135.141073 
L 82.675389 135.141073 
L 82.675389 135.141073 
L 48.233463 135.141073 
z
" clip-path="url(#pf72e302612)" style="fill: #ffd166"/>
   </g>
   <g id="patch_14">
    <path d="M 117.117315 135.141073 
L 151.559241 135.141073 
L 151.559241 133.561998 
L 117.117315 133.561998 
z
" clip-path="url(#pf72e302612)" style="fill: #ffd166"/>
   </g>
   <g id="patch_15">
    <path d="M 186.001167 148.534495 
L 220.443093 148.534495 
L 220.443093 148.534495 
L 186.001167 148.534495 
z
" clip-path="url(#pf72e302612)" style="fill: #ffd166"/>
   </g>
   <g id="patch_16">
    <path d="M 254.885019 135.141073 
L 289.326945 135.141073 
L 289.326945 133.561998 
L 254.885019 133.561998 
z
" clip-path="url(#pf72e302612)" style="fill: #ffd166"/>
   </g>
   <g id="patch_17">
    <path d="M 323.768871 148.534495 
L 358.210797 148.534495 
L 358.210797 148.534495 
L 323.768871 148.534495 
z
" clip-path="url(#pf72e302612)" style="fill: #ffd166"/>
   </g>
   <g id="patch_18">
    <path d="M 48.233463 106.188763 
L 82.675389 106.188763 
L 82.675389 57.686182 
L 48.233463 57.686182 
z
" clip-path="url(#pf72e302612)" style="fill: #06d6a0"/>
   </g>
   <g id="patch_19">
    <path d="M 117.117315 133.561998 
L 151.559241 133.561998 
L 151.559241 122.828018 
L 117.117315 122.828018 
z
" clip-path="url(#pf72e302612)" style="fill: #06d6a0"/>
   </g>
   <g id="patch_20">
    <path d="M 186.001167 135.141073 
L 220.443093 135.141073 
L 220.443093 124.461306 
L 186.001167 124.461306 
z
" clip-path="url(#pf72e302612)" style="fill: #06d6a0"/>
   </g>
   <g id="patch_21">
    <path d="M 254.885019 142.79777 
L 289.326945 142.79777 
L 289.326945 149.145979 
L 254.885019 149.145979 
z
" clip-path="url(#pf72e302612)" style="fill: #06d6a0"/>
   </g>
   <g id="patch_22">
    <path d="M 323.768871 148.534495 
L 358.210797 148.534495 
L 358.210797 154.850643 
L 323.768871 154.850643 
z
" clip-path="url(#pf72e302612)" style="fill: #06d6a0"/>
   </g>
   <g id="patch_23">
    <path d="M 48.233463 57.686182 
L 82.675389 57.686182 
L 82.675389 43.657743 
L 48.233463 43.657743 
z
" clip-path="url(#pf72e302612)" style="fill: #118ab2"/>
   </g>
   <g id="patch_24">
    <path d="M 117.117315 122.828018 
L 151.559241 122.828018 
L 151.559241 119.380604 
L 117.117315 119.380604 
z
" clip-path="url(#pf72e302612)" style="fill: #118ab2"/>
   </g>
   <g id="patch_25">
    <path d="M 186.001167 124.461306 
L 220.443093 124.461306 
L 220.443093 104.016208 
L 186.001167 104.016208 
z
" clip-path="url(#pf72e302612)" style="fill: #118ab2"/>
   </g>
   <g id="patch_26">
    <path d="M 254.885019 133.561998 
L 289.326945 133.561998 
L 289.326945 130.127748 
L 254.885019 130.127748 
z
" clip-path="url(#pf72e302612)" style="fill: #118ab2"/>
   </g>
   <g id="patch_27">
    <path d="M 323.768871 135.141073 
L 358.210797 135.141073 
L 358.210797 114.695976 
L 323.768871 114.695976 
z
" clip-path="url(#pf72e302612)" style="fill: #118ab2"/>
   </g>
   <g id="patch_28">
    <path d="M 48.233463 135.141073 
L 82.675389 135.141073 
L 82.675389 135.141073 
L 48.233463 135.141073 
z
" clip-path="url(#pf72e302612)" style="fill: #073b4c"/>
   </g>
   <g id="patch_29">
    <path d="M 117.117315 142.79777 
L 151.559241 142.79777 
L 151.559241 142.79777 
L 117.117315 142.79777 
z
" clip-path="url(#pf72e302612)" style="fill: #073b4c"/>
   </g>
   <g id="patch_30">
    <path d="M 186.001167 148.534495 
L 220.443093 148.534495 
L 220.443093 148.534495 
L 186.001167 148.534495 
z
" clip-path="url(#pf72e302612)" style="fill: #073b4c"/>
   </g>
   <g id="patch_31">
    <path d="M 254.885019 149.145979 
L 289.326945 149.145979 
L 289.326945 149.145979 
L 254.885019 149.145979 
z
" clip-path="url(#pf72e302612)" style="fill: #073b4c"/>
   </g>
   <g id="patch_32">
    <path d="M 323.768871 154.850643 
L 358.210797 154.850643 
L 358.210797 154.850643 
L 323.768871 154.850643 
z
" clip-path="url(#pf72e302612)" style="fill: #073b4c"/>
   </g>
   <g id="LineCollection_1">
    <path d="M 65.454426 61.655932 
L 65.454426 25.659554 
" clip-path="url(#pf72e302612)" style="fill: none; stroke: #000000; stroke-width: 0.75"/>
    <path d="M 134.338278 133.006849 
L 134.338278 121.067752 
" clip-path="url(#pf72e302612)" style="fill: none; stroke: #000000; stroke-width: 0.75"/>
    <path d="M 203.22213 117.708108 
L 203.22213 117.111153 
" clip-path="url(#pf72e302612)" style="fill: none; stroke: #000000; stroke-width: 0.75"/>
    <path d="M 272.105982 150.102202 
L 272.105982 138.163105 
" clip-path="url(#pf72e302612)" style="fill: none; stroke: #000000; stroke-width: 0.75"/>
    <path d="M 340.989834 134.704023 
L 340.989834 134.107068 
" clip-path="url(#pf72e302612)" style="fill: none; stroke: #000000; stroke-width: 0.75"/>
   </g>
   <g id="line2d_2">
    <defs>
     <path id="m817198af02" d="M 3 0 
L -3 -0 
" style="stroke: #000000; stroke-width: 0.75"/>
    </defs>
    <g clip-path="url(#pf72e302612)">
     <use xlink:href="#m817198af02" x="65.454426" y="61.655932" style="stroke: #000000; stroke-width: 0.75"/>
     <use xlink:href="#m817198af02" x="134.338278" y="133.006849" style="stroke: #000000; stroke-width: 0.75"/>
     <use xlink:href="#m817198af02" x="203.22213" y="117.708108" style="stroke: #000000; stroke-width: 0.75"/>
     <use xlink:href="#m817198af02" x="272.105982" y="150.102202" style="stroke: #000000; stroke-width: 0.75"/>
     <use xlink:href="#m817198af02" x="340.989834" y="134.704023" style="stroke: #000000; stroke-width: 0.75"/>
    </g>
   </g>
   <g id="line2d_3">
    <g clip-path="url(#pf72e302612)">
     <use xlink:href="#m817198af02" x="65.454426" y="25.659554" style="stroke: #000000; stroke-width: 0.75"/>
     <use xlink:href="#m817198af02" x="134.338278" y="121.067752" style="stroke: #000000; stroke-width: 0.75"/>
     <use xlink:href="#m817198af02" x="203.22213" y="117.111153" style="stroke: #000000; stroke-width: 0.75"/>
     <use xlink:href="#m817198af02" x="272.105982" y="138.163105" style="stroke: #000000; stroke-width: 0.75"/>
     <use xlink:href="#m817198af02" x="340.989834" y="134.107068" style="stroke: #000000; stroke-width: 0.75"/>
    </g>
   </g>
   <g id="matplotlib.axis_1"/>
   <g id="matplotlib.axis_2">
    <g id="ytick_1">
     <g id="line2d_4">
      <defs>
       <path id="m4f8315b37f" d="M 0 0 
L -3.5 0 
" style="stroke: #000000; stroke-width: 0.8"/>
      </defs>
      <g>
       <use xlink:href="#m4f8315b37f" x="31.0125" y="135.141073" style="stroke: #000000; stroke-width: 0.8"/>
      </g>
     </g>
     <g id="text_1">
      <!-- 0 -->
      <g transform="translate(19.52 138.141073) scale(0.08 -0.08)">
       <defs>
        <path id="Roboto-Regular-30" d="M 3231 1941 
Q 3231 925 2884 431 
Q 2538 -63 1800 -63 
Q 1072 -63 722 420 
Q 372 903 359 1863 
L 359 2634 
Q 359 3638 706 4125 
Q 1053 4613 1794 4613 
Q 2528 4613 2875 4142 
Q 3222 3672 3231 2691 
L 3231 1941 
z
M 2653 2731 
Q 2653 3466 2447 3802 
Q 2241 4138 1794 4138 
Q 1350 4138 1147 3803 
Q 944 3469 938 2775 
L 938 1850 
Q 938 1113 1152 761 
Q 1366 409 1800 409 
Q 2228 409 2436 740 
Q 2644 1072 2653 1784 
L 2653 2731 
z
" transform="scale(0.015625)"/>
       </defs>
       <use xlink:href="#Roboto-Regular-30"/>
      </g>
     </g>
    </g>
    <g id="ytick_2">
     <g id="line2d_5">
      <g>
       <use xlink:href="#m4f8315b37f" x="31.0125" y="105.293331" style="stroke: #000000; stroke-width: 0.8"/>
      </g>
     </g>
     <g id="text_2">
      <!-- 2 -->
      <g transform="translate(19.52 108.293331) scale(0.08 -0.08)">
       <defs>
        <path id="Roboto-Regular-32" d="M 3359 0 
L 378 0 
L 378 416 
L 1953 2166 
Q 2303 2563 2436 2811 
Q 2569 3059 2569 3325 
Q 2569 3681 2353 3909 
Q 2138 4138 1778 4138 
Q 1347 4138 1108 3892 
Q 869 3647 869 3209 
L 291 3209 
Q 291 3838 695 4225 
Q 1100 4613 1778 4613 
Q 2413 4613 2781 4280 
Q 3150 3947 3150 3394 
Q 3150 2722 2294 1794 
L 1075 472 
L 3359 472 
L 3359 0 
z
" transform="scale(0.015625)"/>
       </defs>
       <use xlink:href="#Roboto-Regular-32"/>
      </g>
     </g>
    </g>
    <g id="ytick_3">
     <g id="line2d_6">
      <g>
       <use xlink:href="#m4f8315b37f" x="31.0125" y="75.445589" style="stroke: #000000; stroke-width: 0.8"/>
      </g>
     </g>
     <g id="text_3">
      <!-- 4 -->
      <g transform="translate(19.52 78.445589) scale(0.08 -0.08)">
       <defs>
        <path id="Roboto-Regular-34" d="M 2819 1528 
L 3450 1528 
L 3450 1056 
L 2819 1056 
L 2819 0 
L 2238 0 
L 2238 1056 
L 166 1056 
L 166 1397 
L 2203 4550 
L 2819 4550 
L 2819 1528 
z
M 822 1528 
L 2238 1528 
L 2238 3759 
L 2169 3634 
L 822 1528 
z
" transform="scale(0.015625)"/>
       </defs>
       <use xlink:href="#Roboto-Regular-34"/>
      </g>
     </g>
    </g>
    <g id="ytick_4">
     <g id="line2d_7">
      <g>
       <use xlink:href="#m4f8315b37f" x="31.0125" y="45.597846" style="stroke: #000000; stroke-width: 0.8"/>
      </g>
     </g>
     <g id="text_4">
      <!-- 6 -->
      <g transform="translate(19.52 48.597846) scale(0.08 -0.08)">
       <defs>
        <path id="Roboto-Regular-36" d="M 2647 4553 
L 2647 4063 
L 2541 4063 
Q 1866 4050 1466 3662 
Q 1066 3275 1003 2572 
Q 1363 2984 1984 2984 
Q 2578 2984 2933 2565 
Q 3288 2147 3288 1484 
Q 3288 781 2905 359 
Q 2522 -63 1878 -63 
Q 1225 -63 819 439 
Q 413 941 413 1731 
L 413 1953 
Q 413 3209 948 3873 
Q 1484 4538 2544 4553 
L 2647 4553 
z
M 1888 2503 
Q 1591 2503 1341 2325 
Q 1091 2147 994 1878 
L 994 1666 
Q 994 1103 1247 759 
Q 1500 416 1878 416 
Q 2269 416 2492 703 
Q 2716 991 2716 1456 
Q 2716 1925 2489 2214 
Q 2263 2503 1888 2503 
z
" transform="scale(0.015625)"/>
       </defs>
       <use xlink:href="#Roboto-Regular-36"/>
      </g>
     </g>
    </g>
    <g id="text_5">
     <!-- Climate change impact (kg CO$_\mathdefault{2}$e per kg) -->
     <g transform="translate(13.68 159.52344) rotate(-90) scale(0.08 -0.08)">
      <defs>
       <path id="Roboto-Regular-43" d="M 3875 1444 
Q 3791 722 3342 329 
Q 2894 -63 2150 -63 
Q 1344 -63 858 515 
Q 372 1094 372 2063 
L 372 2500 
Q 372 3134 598 3615 
Q 825 4097 1240 4355 
Q 1656 4613 2203 4613 
Q 2928 4613 3365 4208 
Q 3803 3803 3875 3088 
L 3272 3088 
Q 3194 3631 2933 3875 
Q 2672 4119 2203 4119 
Q 1628 4119 1301 3694 
Q 975 3269 975 2484 
L 975 2044 
Q 975 1303 1284 865 
Q 1594 428 2150 428 
Q 2650 428 2917 654 
Q 3184 881 3272 1444 
L 3875 1444 
z
" transform="scale(0.015625)"/>
       <path id="Roboto-Regular-6c" d="M 1066 0 
L 488 0 
L 488 4800 
L 1066 4800 
L 1066 0 
z
" transform="scale(0.015625)"/>
       <path id="Roboto-Regular-69" d="M 1066 0 
L 488 0 
L 488 3381 
L 1066 3381 
L 1066 0 
z
M 441 4278 
Q 441 4419 527 4516 
Q 613 4613 781 4613 
Q 950 4613 1037 4516 
Q 1125 4419 1125 4278 
Q 1125 4138 1037 4044 
Q 950 3950 781 3950 
Q 613 3950 527 4044 
Q 441 4138 441 4278 
z
" transform="scale(0.015625)"/>
       <path id="Roboto-Regular-6d" d="M 981 3381 
L 997 3006 
Q 1369 3444 2000 3444 
Q 2709 3444 2966 2900 
Q 3134 3144 3404 3294 
Q 3675 3444 4044 3444 
Q 5156 3444 5175 2266 
L 5175 0 
L 4597 0 
L 4597 2231 
Q 4597 2594 4431 2773 
Q 4266 2953 3875 2953 
Q 3553 2953 3340 2761 
Q 3128 2569 3094 2244 
L 3094 0 
L 2513 0 
L 2513 2216 
Q 2513 2953 1791 2953 
Q 1222 2953 1013 2469 
L 1013 0 
L 434 0 
L 434 3381 
L 981 3381 
z
" transform="scale(0.015625)"/>
       <path id="Roboto-Regular-61" d="M 2525 0 
Q 2475 100 2444 356 
Q 2041 -63 1481 -63 
Q 981 -63 661 220 
Q 341 503 341 938 
Q 341 1466 742 1758 
Q 1144 2050 1872 2050 
L 2434 2050 
L 2434 2316 
Q 2434 2619 2253 2798 
Q 2072 2978 1719 2978 
Q 1409 2978 1200 2822 
Q 991 2666 991 2444 
L 409 2444 
Q 409 2697 589 2933 
Q 769 3169 1076 3306 
Q 1384 3444 1753 3444 
Q 2338 3444 2669 3151 
Q 3000 2859 3013 2347 
L 3013 791 
Q 3013 325 3131 50 
L 3131 0 
L 2525 0 
z
M 1566 441 
Q 1838 441 2081 581 
Q 2325 722 2434 947 
L 2434 1641 
L 1981 1641 
Q 919 1641 919 1019 
Q 919 747 1100 594 
Q 1281 441 1566 441 
z
" transform="scale(0.015625)"/>
       <path id="Roboto-Regular-74" d="M 1222 4200 
L 1222 3381 
L 1853 3381 
L 1853 2934 
L 1222 2934 
L 1222 838 
Q 1222 634 1306 532 
Q 1391 431 1594 431 
Q 1694 431 1869 469 
L 1869 0 
Q 1641 -63 1425 -63 
Q 1038 -63 841 171 
Q 644 406 644 838 
L 644 2934 
L 28 2934 
L 28 3381 
L 644 3381 
L 644 4200 
L 1222 4200 
z
" transform="scale(0.015625)"/>
       <path id="Roboto-Regular-65" d="M 1841 -63 
Q 1153 -63 722 389 
Q 291 841 291 1597 
L 291 1703 
Q 291 2206 483 2601 
Q 675 2997 1020 3220 
Q 1366 3444 1769 3444 
Q 2428 3444 2793 3009 
Q 3159 2575 3159 1766 
L 3159 1525 
L 869 1525 
Q 881 1025 1161 717 
Q 1441 409 1872 409 
Q 2178 409 2390 534 
Q 2603 659 2763 866 
L 3116 591 
Q 2691 -63 1841 -63 
z
M 1769 2969 
Q 1419 2969 1181 2714 
Q 944 2459 888 2000 
L 2581 2000 
L 2581 2044 
Q 2556 2484 2343 2726 
Q 2131 2969 1769 2969 
z
" transform="scale(0.015625)"/>
       <path id="Roboto-Regular-20" transform="scale(0.015625)"/>
       <path id="Roboto-Regular-63" d="M 1794 409 
Q 2103 409 2334 596 
Q 2566 784 2591 1066 
L 3138 1066 
Q 3122 775 2937 512 
Q 2753 250 2445 93 
Q 2138 -63 1794 -63 
Q 1103 -63 695 398 
Q 288 859 288 1659 
L 288 1756 
Q 288 2250 469 2634 
Q 650 3019 989 3231 
Q 1328 3444 1791 3444 
Q 2359 3444 2736 3103 
Q 3113 2763 3138 2219 
L 2591 2219 
Q 2566 2547 2342 2758 
Q 2119 2969 1791 2969 
Q 1350 2969 1108 2651 
Q 866 2334 866 1734 
L 866 1625 
Q 866 1041 1106 725 
Q 1347 409 1794 409 
z
" transform="scale(0.015625)"/>
       <path id="Roboto-Regular-68" d="M 1016 2972 
Q 1400 3444 2016 3444 
Q 3088 3444 3097 2234 
L 3097 0 
L 2519 0 
L 2519 2238 
Q 2516 2603 2352 2778 
Q 2188 2953 1841 2953 
Q 1559 2953 1346 2803 
Q 1134 2653 1016 2409 
L 1016 0 
L 438 0 
L 438 4800 
L 1016 4800 
L 1016 2972 
z
" transform="scale(0.015625)"/>
       <path id="Roboto-Regular-6e" d="M 984 3381 
L 1003 2956 
Q 1391 3444 2016 3444 
Q 3088 3444 3097 2234 
L 3097 0 
L 2519 0 
L 2519 2238 
Q 2516 2603 2352 2778 
Q 2188 2953 1841 2953 
Q 1559 2953 1346 2803 
Q 1134 2653 1016 2409 
L 1016 0 
L 438 0 
L 438 3381 
L 984 3381 
z
" transform="scale(0.015625)"/>
       <path id="Roboto-Regular-67" d="M 300 1719 
Q 300 2509 665 2976 
Q 1031 3444 1634 3444 
Q 2253 3444 2600 3006 
L 2628 3381 
L 3156 3381 
L 3156 81 
Q 3156 -575 2767 -953 
Q 2378 -1331 1722 -1331 
Q 1356 -1331 1006 -1175 
Q 656 -1019 472 -747 
L 772 -400 
Q 1144 -859 1681 -859 
Q 2103 -859 2339 -621 
Q 2575 -384 2575 47 
L 2575 338 
Q 2228 -63 1628 -63 
Q 1034 -63 667 415 
Q 300 894 300 1719 
z
M 881 1653 
Q 881 1081 1115 754 
Q 1350 428 1772 428 
Q 2319 428 2575 925 
L 2575 2469 
Q 2309 2953 1778 2953 
Q 1356 2953 1118 2625 
Q 881 2297 881 1653 
z
" transform="scale(0.015625)"/>
       <path id="Roboto-Regular-70" d="M 3294 1653 
Q 3294 881 2941 409 
Q 2588 -63 1984 -63 
Q 1369 -63 1016 328 
L 1016 -1300 
L 438 -1300 
L 438 3381 
L 966 3381 
L 994 3006 
Q 1347 3444 1975 3444 
Q 2584 3444 2939 2984 
Q 3294 2525 3294 1706 
L 3294 1653 
z
M 2716 1719 
Q 2716 2291 2472 2622 
Q 2228 2953 1803 2953 
Q 1278 2953 1016 2488 
L 1016 872 
Q 1275 409 1809 409 
Q 2225 409 2470 739 
Q 2716 1069 2716 1719 
z
" transform="scale(0.015625)"/>
       <path id="Roboto-Regular-28" d="M 416 1847 
Q 416 2553 605 3203 
Q 794 3853 1169 4384 
Q 1544 4916 1947 5134 
L 2066 4753 
Q 1609 4403 1317 3684 
Q 1025 2966 997 2075 
L 994 1809 
Q 994 603 1434 -284 
Q 1700 -816 2066 -1116 
L 1947 -1469 
Q 1531 -1238 1153 -694 
Q 416 369 416 1847 
z
" transform="scale(0.015625)"/>
       <path id="Roboto-Regular-6b" d="M 1381 1566 
L 1019 1188 
L 1019 0 
L 441 0 
L 441 4800 
L 1019 4800 
L 1019 1897 
L 1328 2269 
L 2381 3381 
L 3084 3381 
L 1769 1969 
L 3238 0 
L 2559 0 
L 1381 1566 
z
" transform="scale(0.015625)"/>
       <path id="Roboto-Regular-4f" d="M 4028 2128 
Q 4028 1459 3803 961 
Q 3578 463 3165 200 
Q 2753 -63 2203 -63 
Q 1666 -63 1250 201 
Q 834 466 604 955 
Q 375 1444 369 2088 
L 369 2416 
Q 369 3072 597 3575 
Q 825 4078 1242 4345 
Q 1659 4613 2197 4613 
Q 2744 4613 3161 4348 
Q 3578 4084 3803 3582 
Q 4028 3081 4028 2416 
L 4028 2128 
z
M 3431 2422 
Q 3431 3231 3106 3664 
Q 2781 4097 2197 4097 
Q 1628 4097 1301 3664 
Q 975 3231 966 2463 
L 966 2128 
Q 966 1344 1295 895 
Q 1625 447 2203 447 
Q 2784 447 3103 870 
Q 3422 1294 3431 2084 
L 3431 2422 
z
" transform="scale(0.015625)"/>
       <path id="Roboto-Regular-72" d="M 2072 2863 
Q 1941 2884 1788 2884 
Q 1219 2884 1016 2400 
L 1016 0 
L 438 0 
L 438 3381 
L 1000 3381 
L 1009 2991 
Q 1294 3444 1816 3444 
Q 1984 3444 2072 3400 
L 2072 2863 
z
" transform="scale(0.015625)"/>
       <path id="Roboto-Regular-29" d="M 1772 1816 
Q 1772 1119 1589 480 
Q 1406 -159 1029 -700 
Q 653 -1241 241 -1469 
L 119 -1116 
Q 600 -747 892 29 
Q 1184 806 1191 1753 
L 1191 1853 
Q 1191 2509 1053 3073 
Q 916 3638 670 4084 
Q 425 4531 119 4781 
L 241 5134 
Q 653 4906 1026 4372 
Q 1400 3838 1586 3194 
Q 1772 2550 1772 1816 
z
" transform="scale(0.015625)"/>
      </defs>
      <use xlink:href="#Roboto-Regular-43" transform="translate(0 0.78125)"/>
      <use xlink:href="#Roboto-Regular-6c" transform="translate(65.087891 0.78125)"/>
      <use xlink:href="#Roboto-Regular-69" transform="translate(89.355469 0.78125)"/>
      <use xlink:href="#Roboto-Regular-6d" transform="translate(113.623047 0.78125)"/>
      <use xlink:href="#Roboto-Regular-61" transform="translate(201.269531 0.78125)"/>
      <use xlink:href="#Roboto-Regular-74" transform="translate(255.664062 0.78125)"/>
      <use xlink:href="#Roboto-Regular-65" transform="translate(288.330078 0.78125)"/>
      <use xlink:href="#Roboto-Regular-20" transform="translate(341.308594 0.78125)"/>
      <use xlink:href="#Roboto-Regular-63" transform="translate(366.064453 0.78125)"/>
      <use xlink:href="#Roboto-Regular-68" transform="translate(418.408203 0.78125)"/>
      <use xlink:href="#Roboto-Regular-61" transform="translate(473.486328 0.78125)"/>
      <use xlink:href="#Roboto-Regular-6e" transform="translate(527.880859 0.78125)"/>
      <use xlink:href="#Roboto-Regular-67" transform="translate(583.056641 0.78125)"/>
      <use xlink:href="#Roboto-Regular-65" transform="translate(639.160156 0.78125)"/>
      <use xlink:href="#Roboto-Regular-20" transform="translate(692.138672 0.78125)"/>
      <use xlink:href="#Roboto-Regular-69" transform="translate(716.894531 0.78125)"/>
      <use xlink:href="#Roboto-Regular-6d" transform="translate(741.162109 0.78125)"/>
      <use xlink:href="#Roboto-Regular-70" transform="translate(828.808594 0.78125)"/>
      <use xlink:href="#Roboto-Regular-61" transform="translate(884.912109 0.78125)"/>
      <use xlink:href="#Roboto-Regular-63" transform="translate(939.306641 0.78125)"/>
      <use xlink:href="#Roboto-Regular-74" transform="translate(991.650391 0.78125)"/>
      <use xlink:href="#Roboto-Regular-20" transform="translate(1024.316406 0.78125)"/>
      <use xlink:href="#Roboto-Regular-28" transform="translate(1049.072266 0.78125)"/>
      <use xlink:href="#Roboto-Regular-6b" transform="translate(1083.251953 0.78125)"/>
      <use xlink:href="#Roboto-Regular-67" transform="translate(1133.935547 0.78125)"/>
      <use xlink:href="#Roboto-Regular-20" transform="translate(1190.039062 0.78125)"/>
      <use xlink:href="#Roboto-Regular-43" transform="translate(1214.794922 0.78125)"/>
      <use xlink:href="#Roboto-Regular-4f" transform="translate(1279.882812 0.78125)"/>
      <use xlink:href="#Roboto-Regular-32" transform="translate(1349.589844 -15.625) scale(0.7)"/>
      <use xlink:href="#Roboto-Regular-65" transform="translate(1391.630859 0.78125)"/>
      <use xlink:href="#Roboto-Regular-20" transform="translate(1444.609375 0.78125)"/>
      <use xlink:href="#Roboto-Regular-70" transform="translate(1469.365234 0.78125)"/>
      <use xlink:href="#Roboto-Regular-65" transform="translate(1525.46875 0.78125)"/>
      <use xlink:href="#Roboto-Regular-72" transform="translate(1578.447266 0.78125)"/>
      <use xlink:href="#Roboto-Regular-20" transform="translate(1612.285156 0.78125)"/>
      <use xlink:href="#Roboto-Regular-6b" transform="translate(1637.041016 0.78125)"/>
      <use xlink:href="#Roboto-Regular-67" transform="translate(1687.724609 0.78125)"/>
      <use xlink:href="#Roboto-Regular-29" transform="translate(1743.828125 0.78125)"/>
     </g>
    </g>
   </g>
   <g id="PathCollection_1">
    <defs>
     <path id="m4e251f6635" d="M 0 2.236068 
C 0.593012 2.236068 1.161816 2.000462 1.581139 1.581139 
C 2.000462 1.161816 2.236068 0.593012 2.236068 0 
C 2.236068 -0.593012 2.000462 -1.161816 1.581139 -1.581139 
C 1.161816 -2.000462 0.593012 -2.236068 0 -2.236068 
C -0.593012 -2.236068 -1.161816 -2.000462 -1.581139 -1.581139 
C -2.000462 -1.161816 -2.236068 -0.593012 -2.236068 0 
C -2.236068 0.593012 -2.000462 1.161816 -1.581139 1.581139 
C -1.161816 2.000462 -0.593012 2.236068 0 2.236068 
z
" style="stroke: #000000"/>
    </defs>
    <g clip-path="url(#pf72e302612)">
     <use xlink:href="#m4e251f6635" x="65.454426" y="43.657743" style="fill: #ffffff; stroke: #000000"/>
     <use xlink:href="#m4e251f6635" x="134.338278" y="127.0373" style="fill: #ffffff; stroke: #000000"/>
     <use xlink:href="#m4e251f6635" x="203.22213" y="117.409631" style="fill: #ffffff; stroke: #000000"/>
     <use xlink:href="#m4e251f6635" x="272.105982" y="144.132653" style="fill: #ffffff; stroke: #000000"/>
     <use xlink:href="#m4e251f6635" x="340.989834" y="134.405545" style="fill: #ffffff; stroke: #000000"/>
    </g>
   </g>
   <g id="PathCollection_2">
    <defs>
     <path id="m670650e59e" d="M 0 3.162278 
L 3.162278 0 
L 0 -3.162278 
L -3.162278 0 
z
" style="stroke: #ffffff"/>
    </defs>
    <g clip-path="url(#pf72e302612)">
     <use xlink:href="#m670650e59e" x="65.454426" y="53.903876" style="fill: #8763c9; stroke: #ffffff"/>
     <use xlink:href="#m670650e59e" x="134.338278" y="131.46196" style="fill: #8763c9; stroke: #ffffff"/>
     <use xlink:href="#m670650e59e" x="203.22213" y="126.044843" style="fill: #8763c9; stroke: #ffffff"/>
     <use xlink:href="#m670650e59e" x="272.105982" y="136.094181" style="fill: #8763c9; stroke: #ffffff"/>
     <use xlink:href="#m670650e59e" x="340.989834" y="135.075611" style="fill: #8763c9; stroke: #ffffff"/>
    </g>
   </g>
   <g id="line2d_8">
    <path d="M 99.896352 157.52688 
L 99.896352 19.2 
" clip-path="url(#pf72e302612)" style="fill: none; stroke-dasharray: 1.85,0.8; stroke-dashoffset: 0; stroke: #808080; stroke-width: 0.5"/>
   </g>
   <g id="line2d_9">
    <path d="M 237.664056 157.52688 
L 237.664056 19.2 
" clip-path="url(#pf72e302612)" style="fill: none; stroke-dasharray: 1.85,0.8; stroke-dashoffset: 0; stroke: #808080; stroke-width: 0.5"/>
   </g>
   <g id="patch_33">
    <path d="M 31.0125 157.52688 
L 31.0125 19.2 
" style="fill: none; stroke: #000000; stroke-width: 0.8; stroke-linejoin: miter; stroke-linecap: square"/>
   </g>
   <g id="patch_34">
    <path d="M 375.43176 157.52688 
L 375.43176 19.2 
" style="fill: none; stroke: #000000; stroke-width: 0.8; stroke-linejoin: miter; stroke-linecap: square"/>
   </g>
   <g id="patch_35">
    <path d="M 31.0125 157.52688 
L 375.43176 157.52688 
" style="fill: none; stroke: #000000; stroke-width: 0.8; stroke-linejoin: miter; stroke-linecap: square"/>
   </g>
   <g id="patch_36">
    <path d="M 31.0125 19.2 
L 375.43176 19.2 
" style="fill: none; stroke: #000000; stroke-width: 0.8; stroke-linejoin: miter; stroke-linecap: square"/>
   </g>
   <g id="text_6">
    <!-- a -->
    <g transform="translate(11.647162 13.2) scale(0.08 -0.08)">
     <defs>
      <path id="Roboto-Bold-61" d="M 2306 0 
Q 2244 122 2216 303 
Q 1888 -63 1363 -63 
Q 866 -63 539 225 
Q 213 513 213 950 
Q 213 1488 611 1775 
Q 1009 2063 1763 2066 
L 2178 2066 
L 2178 2259 
Q 2178 2494 2058 2634 
Q 1938 2775 1678 2775 
Q 1450 2775 1320 2665 
Q 1191 2556 1191 2366 
L 288 2366 
Q 288 2659 469 2909 
Q 650 3159 981 3301 
Q 1313 3444 1725 3444 
Q 2350 3444 2717 3130 
Q 3084 2816 3084 2247 
L 3084 781 
Q 3088 300 3219 53 
L 3219 0 
L 2306 0 
z
M 1559 628 
Q 1759 628 1928 717 
Q 2097 806 2178 956 
L 2178 1538 
L 1841 1538 
Q 1163 1538 1119 1069 
L 1116 1016 
Q 1116 847 1234 737 
Q 1353 628 1559 628 
z
" transform="scale(0.015625)"/>
     </defs>
     <use xlink:href="#Roboto-Bold-61"/>
    </g>
   </g>
   <g id="legend_1"/>
  </g>
  <g id="axes_2">
   <g id="patch_37">
    <path d="M 31.0125 316.49376 
L 375.43176 316.49376 
L 375.43176 178.16688 
L 31.0125 178.16688 
z
" style="fill: #ffffff"/>
   </g>
   <g id="patch_38">
    <path d="M 48.233463 316.49376 
L 82.675389 316.49376 
L 82.675389 311.447117 
L 48.233463 311.447117 
z
" clip-path="url(#p13155fd6b2)" style="fill: #ef476f"/>
   </g>
   <g id="patch_39">
    <path d="M 117.117315 316.49376 
L 151.559241 316.49376 
L 151.559241 316.49376 
L 117.117315 316.49376 
z
" clip-path="url(#p13155fd6b2)" style="fill: #ef476f"/>
   </g>
   <g id="patch_40">
    <path d="M 186.001167 316.49376 
L 220.443093 316.49376 
L 220.443093 313.082572 
L 186.001167 313.082572 
z
" clip-path="url(#p13155fd6b2)" style="fill: #ef476f"/>
   </g>
   <g id="patch_41">
    <path d="M 254.885019 316.49376 
L 289.326945 316.49376 
L 289.326945 316.49376 
L 254.885019 316.49376 
z
" clip-path="url(#p13155fd6b2)" style="fill: #ef476f"/>
   </g>
   <g id="patch_42">
    <path d="M 323.768871 316.49376 
L 358.210797 316.49376 
L 358.210797 313.082572 
L 323.768871 313.082572 
z
" clip-path="url(#p13155fd6b2)" style="fill: #ef476f"/>
   </g>
   <g id="patch_43">
    <path d="M 48.233463 316.49376 
L 82.675389 316.49376 
L 82.675389 316.49376 
L 48.233463 316.49376 
z
" clip-path="url(#p13155fd6b2)" style="fill: #f78c6b"/>
   </g>
   <g id="patch_44">
    <path d="M 117.117315 316.49376 
L 151.559241 316.49376 
L 151.559241 311.6823 
L 117.117315 311.6823 
z
" clip-path="url(#p13155fd6b2)" style="fill: #f78c6b"/>
   </g>
   <g id="patch_45">
    <path d="M 186.001167 316.49376 
L 220.443093 316.49376 
L 220.443093 316.49376 
L 186.001167 316.49376 
z
" clip-path="url(#p13155fd6b2)" style="fill: #f78c6b"/>
   </g>
   <g id="patch_46">
    <path d="M 254.885019 316.49376 
L 289.326945 316.49376 
L 289.326945 311.6823 
L 254.885019 311.6823 
z
" clip-path="url(#p13155fd6b2)" style="fill: #f78c6b"/>
   </g>
   <g id="patch_47">
    <path d="M 323.768871 316.49376 
L 358.210797 316.49376 
L 358.210797 316.49376 
L 323.768871 316.49376 
z
" clip-path="url(#p13155fd6b2)" style="fill: #f78c6b"/>
   </g>
   <g id="patch_48">
    <path d="M 48.233463 316.49376 
L 82.675389 316.49376 
L 82.675389 316.49376 
L 48.233463 316.49376 
z
" clip-path="url(#p13155fd6b2)" style="fill: #ffd166"/>
   </g>
   <g id="patch_49">
    <path d="M 117.117315 311.6823 
L 151.559241 311.6823 
L 151.559241 297.253727 
L 117.117315 297.253727 
z
" clip-path="url(#p13155fd6b2)" style="fill: #ffd166"/>
   </g>
   <g id="patch_50">
    <path d="M 186.001167 316.49376 
L 220.443093 316.49376 
L 220.443093 316.49376 
L 186.001167 316.49376 
z
" clip-path="url(#p13155fd6b2)" style="fill: #ffd166"/>
   </g>
   <g id="patch_51">
    <path d="M 254.885019 311.6823 
L 289.326945 311.6823 
L 289.326945 297.253727 
L 254.885019 297.253727 
z
" clip-path="url(#p13155fd6b2)" style="fill: #ffd166"/>
   </g>
   <g id="patch_52">
    <path d="M 323.768871 316.49376 
L 358.210797 316.49376 
L 358.210797 316.49376 
L 323.768871 316.49376 
z
" clip-path="url(#p13155fd6b2)" style="fill: #ffd166"/>
   </g>
   <g id="patch_53">
    <path d="M 48.233463 311.447117 
L 82.675389 311.447117 
L 82.675389 286.621988 
L 48.233463 286.621988 
z
" clip-path="url(#p13155fd6b2)" style="fill: #06d6a0"/>
   </g>
   <g id="patch_54">
    <path d="M 117.117315 297.253727 
L 151.559241 297.253727 
L 151.559241 272.239445 
L 117.117315 272.239445 
z
" clip-path="url(#p13155fd6b2)" style="fill: #06d6a0"/>
   </g>
   <g id="patch_55">
    <path d="M 186.001167 313.082572 
L 220.443093 313.082572 
L 220.443093 288.419075 
L 186.001167 288.419075 
z
" clip-path="url(#p13155fd6b2)" style="fill: #06d6a0"/>
   </g>
   <g id="patch_56">
    <path d="M 254.885019 297.253727 
L 289.326945 297.253727 
L 289.326945 246.954321 
L 254.885019 246.954321 
z
" clip-path="url(#p13155fd6b2)" style="fill: #06d6a0"/>
   </g>
   <g id="patch_57">
    <path d="M 323.768871 313.082572 
L 358.210797 313.082572 
L 358.210797 263.488535 
L 323.768871 263.488535 
z
" clip-path="url(#p13155fd6b2)" style="fill: #06d6a0"/>
   </g>
   <g id="patch_58">
    <path d="M 48.233463 286.621988 
L 82.675389 286.621988 
L 82.675389 283.452707 
L 48.233463 283.452707 
z
" clip-path="url(#p13155fd6b2)" style="fill: #118ab2"/>
   </g>
   <g id="patch_59">
    <path d="M 117.117315 272.239445 
L 151.559241 272.239445 
L 151.559241 265.984049 
L 117.117315 265.984049 
z
" clip-path="url(#p13155fd6b2)" style="fill: #118ab2"/>
   </g>
   <g id="patch_60">
    <path d="M 186.001167 288.419075 
L 220.443093 288.419075 
L 220.443093 280.027584 
L 186.001167 280.027584 
z
" clip-path="url(#p13155fd6b2)" style="fill: #118ab2"/>
   </g>
   <g id="patch_61">
    <path d="M 254.885019 246.954321 
L 289.326945 246.954321 
L 289.326945 240.698924 
L 254.885019 240.698924 
z
" clip-path="url(#p13155fd6b2)" style="fill: #118ab2"/>
   </g>
   <g id="patch_62">
    <path d="M 323.768871 263.488535 
L 358.210797 263.488535 
L 358.210797 255.097043 
L 323.768871 255.097043 
z
" clip-path="url(#p13155fd6b2)" style="fill: #118ab2"/>
   </g>
   <g id="patch_63">
    <path d="M 48.233463 283.452707 
L 82.675389 283.452707 
L 82.675389 280.147263 
L 48.233463 280.147263 
z
" clip-path="url(#p13155fd6b2)" style="fill: #073b4c"/>
   </g>
   <g id="patch_64">
    <path d="M 117.117315 265.984049 
L 151.559241 265.984049 
L 151.559241 259.927716 
L 117.117315 259.927716 
z
" clip-path="url(#p13155fd6b2)" style="fill: #073b4c"/>
   </g>
   <g id="patch_65">
    <path d="M 186.001167 280.027584 
L 220.443093 280.027584 
L 220.443093 275.693877 
L 186.001167 275.693877 
z
" clip-path="url(#p13155fd6b2)" style="fill: #073b4c"/>
   </g>
   <g id="patch_66">
    <path d="M 254.885019 240.698924 
L 289.326945 240.698924 
L 289.326945 234.642592 
L 254.885019 234.642592 
z
" clip-path="url(#p13155fd6b2)" style="fill: #073b4c"/>
   </g>
   <g id="patch_67">
    <path d="M 323.768871 255.097043 
L 358.210797 255.097043 
L 358.210797 250.763336 
L 323.768871 250.763336 
z
" clip-path="url(#p13155fd6b2)" style="fill: #073b4c"/>
   </g>
   <g id="LineCollection_2">
    <path d="M 65.454426 283.242862 
L 65.454426 278.171592 
" clip-path="url(#p13155fd6b2)" style="fill: none; stroke: #000000; stroke-width: 0.75"/>
    <path d="M 134.338278 262.675699 
L 134.338278 227.450332 
" clip-path="url(#p13155fd6b2)" style="fill: none; stroke: #000000; stroke-width: 0.75"/>
    <path d="M 203.22213 276.556415 
L 203.22213 271.917439 
" clip-path="url(#p13155fd6b2)" style="fill: none; stroke: #000000; stroke-width: 0.75"/>
    <path d="M 272.105982 250.932722 
L 272.105982 184.753874 
" clip-path="url(#p13155fd6b2)" style="fill: none; stroke: #000000; stroke-width: 0.75"/>
    <path d="M 340.989834 264.978114 
L 340.989834 229.819732 
" clip-path="url(#p13155fd6b2)" style="fill: none; stroke: #000000; stroke-width: 0.75"/>
   </g>
   <g id="line2d_10">
    <g clip-path="url(#p13155fd6b2)">
     <use xlink:href="#m817198af02" x="65.454426" y="283.242862" style="stroke: #000000; stroke-width: 0.75"/>
     <use xlink:href="#m817198af02" x="134.338278" y="262.675699" style="stroke: #000000; stroke-width: 0.75"/>
     <use xlink:href="#m817198af02" x="203.22213" y="276.556415" style="stroke: #000000; stroke-width: 0.75"/>
     <use xlink:href="#m817198af02" x="272.105982" y="250.932722" style="stroke: #000000; stroke-width: 0.75"/>
     <use xlink:href="#m817198af02" x="340.989834" y="264.978114" style="stroke: #000000; stroke-width: 0.75"/>
    </g>
   </g>
   <g id="line2d_11">
    <g clip-path="url(#p13155fd6b2)">
     <use xlink:href="#m817198af02" x="65.454426" y="278.171592" style="stroke: #000000; stroke-width: 0.75"/>
     <use xlink:href="#m817198af02" x="134.338278" y="227.450332" style="stroke: #000000; stroke-width: 0.75"/>
     <use xlink:href="#m817198af02" x="203.22213" y="271.917439" style="stroke: #000000; stroke-width: 0.75"/>
     <use xlink:href="#m817198af02" x="272.105982" y="184.753874" style="stroke: #000000; stroke-width: 0.75"/>
     <use xlink:href="#m817198af02" x="340.989834" y="229.819732" style="stroke: #000000; stroke-width: 0.75"/>
    </g>
   </g>
   <g id="matplotlib.axis_3">
    <g id="xtick_1">
     <g id="line2d_12">
      <defs>
       <path id="m639e50cfeb" d="M 0 0 
L 0 3.5 
" style="stroke: #000000; stroke-width: 0.8"/>
      </defs>
      <g>
       <use xlink:href="#m639e50cfeb" x="65.454426" y="316.49376" style="stroke: #000000; stroke-width: 0.8"/>
      </g>
     </g>
     <g id="text_7">
      <!-- Fossil -->
      <g transform="translate(54.895676 329.49376) scale(0.08 -0.08)">
       <defs>
        <path id="Roboto-Regular-46" d="M 3038 2009 
L 1128 2009 
L 1128 0 
L 528 0 
L 528 4550 
L 3347 4550 
L 3347 4056 
L 1128 4056 
L 1128 2500 
L 3038 2500 
L 3038 2009 
z
" transform="scale(0.015625)"/>
        <path id="Roboto-Regular-6f" d="M 284 1722 
Q 284 2219 479 2616 
Q 675 3013 1023 3228 
Q 1372 3444 1819 3444 
Q 2509 3444 2936 2966 
Q 3363 2488 3363 1694 
L 3363 1653 
Q 3363 1159 3173 767 
Q 2984 375 2632 156 
Q 2281 -63 1825 -63 
Q 1138 -63 711 415 
Q 284 894 284 1681 
L 284 1722 
z
M 866 1653 
Q 866 1091 1127 750 
Q 1388 409 1825 409 
Q 2266 409 2525 754 
Q 2784 1100 2784 1722 
Q 2784 2278 2520 2623 
Q 2256 2969 1819 2969 
Q 1391 2969 1128 2628 
Q 866 2288 866 1653 
z
" transform="scale(0.015625)"/>
        <path id="Roboto-Regular-73" d="M 2406 897 
Q 2406 1131 2229 1261 
Q 2053 1391 1614 1484 
Q 1175 1578 917 1709 
Q 659 1841 536 2022 
Q 413 2203 413 2453 
Q 413 2869 764 3156 
Q 1116 3444 1663 3444 
Q 2238 3444 2595 3147 
Q 2953 2850 2953 2388 
L 2372 2388 
Q 2372 2625 2170 2797 
Q 1969 2969 1663 2969 
Q 1347 2969 1169 2831 
Q 991 2694 991 2472 
Q 991 2263 1156 2156 
Q 1322 2050 1755 1953 
Q 2188 1856 2456 1722 
Q 2725 1588 2854 1398 
Q 2984 1209 2984 938 
Q 2984 484 2621 210 
Q 2259 -63 1681 -63 
Q 1275 -63 962 81 
Q 650 225 473 483 
Q 297 741 297 1041 
L 875 1041 
Q 891 750 1108 579 
Q 1325 409 1681 409 
Q 2009 409 2207 542 
Q 2406 675 2406 897 
z
" transform="scale(0.015625)"/>
       </defs>
       <use xlink:href="#Roboto-Regular-46"/>
       <use xlink:href="#Roboto-Regular-6f" x="55.273438"/>
       <use xlink:href="#Roboto-Regular-73" x="112.304688"/>
       <use xlink:href="#Roboto-Regular-73" x="163.867188"/>
       <use xlink:href="#Roboto-Regular-69" x="215.429688"/>
       <use xlink:href="#Roboto-Regular-6c" x="239.697266"/>
      </g>
     </g>
    </g>
    <g id="xtick_2">
     <g id="line2d_13">
      <g>
       <use xlink:href="#m639e50cfeb" x="134.338278" y="316.49376" style="stroke: #000000; stroke-width: 0.8"/>
      </g>
     </g>
     <g id="text_8">
      <!-- DAC CO$_\mathdefault{2}$ + wind H$_\mathdefault{2}$  -->
      <g transform="translate(99.178278 329.49376) scale(0.08 -0.08)">
       <defs>
        <path id="Roboto-Regular-44" d="M 528 0 
L 528 4550 
L 1813 4550 
Q 2406 4550 2862 4287 
Q 3319 4025 3567 3540 
Q 3816 3056 3819 2428 
L 3819 2138 
Q 3819 1494 3570 1009 
Q 3322 525 2861 265 
Q 2400 6 1788 0 
L 528 0 
z
M 1128 4056 
L 1128 491 
L 1759 491 
Q 2453 491 2839 922 
Q 3225 1353 3225 2150 
L 3225 2416 
Q 3225 3191 2861 3620 
Q 2497 4050 1828 4056 
L 1128 4056 
z
" transform="scale(0.015625)"/>
        <path id="Roboto-Regular-41" d="M 3041 1188 
L 1134 1188 
L 706 0 
L 88 0 
L 1825 4550 
L 2350 4550 
L 4091 0 
L 3475 0 
L 3041 1188 
z
M 1316 1681 
L 2863 1681 
L 2088 3809 
L 1316 1681 
z
" transform="scale(0.015625)"/>
        <path id="Roboto-Regular-2b" d="M 2094 2441 
L 3363 2441 
L 3363 1894 
L 2094 1894 
L 2094 456 
L 1513 456 
L 1513 1894 
L 244 1894 
L 244 2441 
L 1513 2441 
L 1513 3769 
L 2094 3769 
L 2094 2441 
z
" transform="scale(0.015625)"/>
        <path id="Roboto-Regular-77" d="M 3431 797 
L 4081 3381 
L 4659 3381 
L 3675 0 
L 3206 0 
L 2384 2563 
L 1584 0 
L 1116 0 
L 134 3381 
L 709 3381 
L 1375 850 
L 2163 3381 
L 2628 3381 
L 3431 797 
z
" transform="scale(0.015625)"/>
        <path id="Roboto-Regular-64" d="M 297 1719 
Q 297 2497 665 2970 
Q 1034 3444 1631 3444 
Q 2225 3444 2572 3038 
L 2572 4800 
L 3150 4800 
L 3150 0 
L 2619 0 
L 2591 363 
Q 2244 -63 1625 -63 
Q 1038 -63 667 418 
Q 297 900 297 1675 
L 297 1719 
z
M 875 1653 
Q 875 1078 1112 753 
Q 1350 428 1769 428 
Q 2319 428 2572 922 
L 2572 2475 
Q 2313 2953 1775 2953 
Q 1350 2953 1112 2625 
Q 875 2297 875 1653 
z
" transform="scale(0.015625)"/>
        <path id="Roboto-Regular-48" d="M 4025 0 
L 3422 0 
L 3422 2103 
L 1128 2103 
L 1128 0 
L 528 0 
L 528 4550 
L 1128 4550 
L 1128 2594 
L 3422 2594 
L 3422 4550 
L 4025 4550 
L 4025 0 
z
" transform="scale(0.015625)"/>
       </defs>
       <use xlink:href="#Roboto-Regular-44"/>
       <use xlink:href="#Roboto-Regular-41" transform="translate(65.576172 0)"/>
       <use xlink:href="#Roboto-Regular-43" transform="translate(130.810547 0)"/>
       <use xlink:href="#Roboto-Regular-20" transform="translate(195.898438 0)"/>
       <use xlink:href="#Roboto-Regular-43" transform="translate(220.654297 0)"/>
       <use xlink:href="#Roboto-Regular-4f" transform="translate(285.742188 0)"/>
       <use xlink:href="#Roboto-Regular-32" transform="translate(355.449219 -16.40625) scale(0.7)"/>
       <use xlink:href="#Roboto-Regular-20" transform="translate(397.490234 0)"/>
       <use xlink:href="#Roboto-Regular-2b" transform="translate(422.246094 0)"/>
       <use xlink:href="#Roboto-Regular-20" transform="translate(478.935547 0)"/>
       <use xlink:href="#Roboto-Regular-77" transform="translate(503.691406 0)"/>
       <use xlink:href="#Roboto-Regular-69" transform="translate(578.837891 0)"/>
       <use xlink:href="#Roboto-Regular-6e" transform="translate(603.105469 0)"/>
       <use xlink:href="#Roboto-Regular-64" transform="translate(658.28125 0)"/>
       <use xlink:href="#Roboto-Regular-20" transform="translate(714.677734 0)"/>
       <use xlink:href="#Roboto-Regular-48" transform="translate(739.433594 0)"/>
       <use xlink:href="#Roboto-Regular-32" transform="translate(811.679688 -16.40625) scale(0.7)"/>
       <use xlink:href="#Roboto-Regular-20" transform="translate(853.720703 0)"/>
      </g>
      <!-- + fossil C$_\mathdefault{2}$H$_\mathdefault{4}$ -->
      <g transform="translate(111.458278 338.31876) scale(0.08 -0.08)">
       <defs>
        <path id="Roboto-Regular-66" d="M 722 0 
L 722 2934 
L 188 2934 
L 188 3381 
L 722 3381 
L 722 3728 
Q 722 4272 1012 4569 
Q 1303 4866 1834 4866 
Q 2034 4866 2231 4813 
L 2200 4344 
Q 2053 4372 1888 4372 
Q 1606 4372 1453 4208 
Q 1300 4044 1300 3738 
L 1300 3381 
L 2022 3381 
L 2022 2934 
L 1300 2934 
L 1300 0 
L 722 0 
z
" transform="scale(0.015625)"/>
       </defs>
       <use xlink:href="#Roboto-Regular-2b" transform="translate(0 0.96875)"/>
       <use xlink:href="#Roboto-Regular-20" transform="translate(56.689453 0.96875)"/>
       <use xlink:href="#Roboto-Regular-66" transform="translate(81.445312 0.96875)"/>
       <use xlink:href="#Roboto-Regular-6f" transform="translate(116.162109 0.96875)"/>
       <use xlink:href="#Roboto-Regular-73" transform="translate(173.193359 0.96875)"/>
       <use xlink:href="#Roboto-Regular-73" transform="translate(224.755859 0.96875)"/>
       <use xlink:href="#Roboto-Regular-69" transform="translate(276.318359 0.96875)"/>
       <use xlink:href="#Roboto-Regular-6c" transform="translate(300.585938 0.96875)"/>
       <use xlink:href="#Roboto-Regular-20" transform="translate(324.853516 0.96875)"/>
       <use xlink:href="#Roboto-Regular-43" transform="translate(349.609375 0.96875)"/>
       <use xlink:href="#Roboto-Regular-32" transform="translate(415.654297 -15.4375) scale(0.7)"/>
       <use xlink:href="#Roboto-Regular-48" transform="translate(457.695312 0.96875)"/>
       <use xlink:href="#Roboto-Regular-34" transform="translate(529.941406 -15.4375) scale(0.7)"/>
      </g>
     </g>
    </g>
    <g id="xtick_3">
     <g id="line2d_14">
      <g>
       <use xlink:href="#m639e50cfeb" x="203.22213" y="316.49376" style="stroke: #000000; stroke-width: 0.8"/>
      </g>
     </g>
     <g id="text_9">
      <!-- Biogas  -->
      <g transform="translate(190.007755 329.45501) scale(0.08 -0.08)">
       <defs>
        <path id="Roboto-Regular-42" d="M 528 0 
L 528 4550 
L 2016 4550 
Q 2756 4550 3129 4244 
Q 3503 3938 3503 3338 
Q 3503 3019 3322 2773 
Q 3141 2528 2828 2394 
Q 3197 2291 3411 2002 
Q 3625 1713 3625 1313 
Q 3625 700 3228 350 
Q 2831 0 2106 0 
L 528 0 
z
M 1128 2128 
L 1128 491 
L 2119 491 
Q 2538 491 2780 708 
Q 3022 925 3022 1306 
Q 3022 2128 2128 2128 
L 1128 2128 
z
M 1128 2609 
L 2034 2609 
Q 2428 2609 2664 2806 
Q 2900 3003 2900 3341 
Q 2900 3716 2681 3886 
Q 2463 4056 2016 4056 
L 1128 4056 
L 1128 2609 
z
" transform="scale(0.015625)"/>
       </defs>
       <use xlink:href="#Roboto-Regular-42"/>
       <use xlink:href="#Roboto-Regular-69" x="62.255859"/>
       <use xlink:href="#Roboto-Regular-6f" x="86.523438"/>
       <use xlink:href="#Roboto-Regular-67" x="143.554688"/>
       <use xlink:href="#Roboto-Regular-61" x="199.658203"/>
       <use xlink:href="#Roboto-Regular-73" x="254.052734"/>
       <use xlink:href="#Roboto-Regular-20" x="305.615234"/>
      </g>
      <!-- + fossil C$_\mathdefault{2}$H$_\mathdefault{4}$ -->
      <g transform="translate(180.34213 338.31876) scale(0.08 -0.08)">
       <use xlink:href="#Roboto-Regular-2b" transform="translate(0 0.96875)"/>
       <use xlink:href="#Roboto-Regular-20" transform="translate(56.689453 0.96875)"/>
       <use xlink:href="#Roboto-Regular-66" transform="translate(81.445312 0.96875)"/>
       <use xlink:href="#Roboto-Regular-6f" transform="translate(116.162109 0.96875)"/>
       <use xlink:href="#Roboto-Regular-73" transform="translate(173.193359 0.96875)"/>
       <use xlink:href="#Roboto-Regular-73" transform="translate(224.755859 0.96875)"/>
       <use xlink:href="#Roboto-Regular-69" transform="translate(276.318359 0.96875)"/>
       <use xlink:href="#Roboto-Regular-6c" transform="translate(300.585938 0.96875)"/>
       <use xlink:href="#Roboto-Regular-20" transform="translate(324.853516 0.96875)"/>
       <use xlink:href="#Roboto-Regular-43" transform="translate(349.609375 0.96875)"/>
       <use xlink:href="#Roboto-Regular-32" transform="translate(415.654297 -15.4375) scale(0.7)"/>
       <use xlink:href="#Roboto-Regular-48" transform="translate(457.695312 0.96875)"/>
       <use xlink:href="#Roboto-Regular-34" transform="translate(529.941406 -15.4375) scale(0.7)"/>
      </g>
     </g>
    </g>
    <g id="xtick_4">
     <g id="line2d_15">
      <g>
       <use xlink:href="#m639e50cfeb" x="272.105982" y="316.49376" style="stroke: #000000; stroke-width: 0.8"/>
      </g>
     </g>
     <g id="text_10">
      <!-- DAC CO$_\mathdefault{2}$ + wind H$_\mathdefault{2}$  -->
      <g transform="translate(236.945982 329.49376) scale(0.08 -0.08)">
       <use xlink:href="#Roboto-Regular-44"/>
       <use xlink:href="#Roboto-Regular-41" transform="translate(65.576172 0)"/>
       <use xlink:href="#Roboto-Regular-43" transform="translate(130.810547 0)"/>
       <use xlink:href="#Roboto-Regular-20" transform="translate(195.898438 0)"/>
       <use xlink:href="#Roboto-Regular-43" transform="translate(220.654297 0)"/>
       <use xlink:href="#Roboto-Regular-4f" transform="translate(285.742188 0)"/>
       <use xlink:href="#Roboto-Regular-32" transform="translate(355.449219 -16.40625) scale(0.7)"/>
       <use xlink:href="#Roboto-Regular-20" transform="translate(397.490234 0)"/>
       <use xlink:href="#Roboto-Regular-2b" transform="translate(422.246094 0)"/>
       <use xlink:href="#Roboto-Regular-20" transform="translate(478.935547 0)"/>
       <use xlink:href="#Roboto-Regular-77" transform="translate(503.691406 0)"/>
       <use xlink:href="#Roboto-Regular-69" transform="translate(578.837891 0)"/>
       <use xlink:href="#Roboto-Regular-6e" transform="translate(603.105469 0)"/>
       <use xlink:href="#Roboto-Regular-64" transform="translate(658.28125 0)"/>
       <use xlink:href="#Roboto-Regular-20" transform="translate(714.677734 0)"/>
       <use xlink:href="#Roboto-Regular-48" transform="translate(739.433594 0)"/>
       <use xlink:href="#Roboto-Regular-32" transform="translate(811.679688 -16.40625) scale(0.7)"/>
       <use xlink:href="#Roboto-Regular-20" transform="translate(853.720703 0)"/>
      </g>
      <!-- + green C$_\mathdefault{2}$H$_\mathdefault{4}$ -->
      <g transform="translate(248.905982 338.31876) scale(0.08 -0.08)">
       <use xlink:href="#Roboto-Regular-2b" transform="translate(0 0.921875)"/>
       <use xlink:href="#Roboto-Regular-20" transform="translate(56.689453 0.921875)"/>
       <use xlink:href="#Roboto-Regular-67" transform="translate(81.445312 0.921875)"/>
       <use xlink:href="#Roboto-Regular-72" transform="translate(137.548828 0.921875)"/>
       <use xlink:href="#Roboto-Regular-65" transform="translate(171.386719 0.921875)"/>
       <use xlink:href="#Roboto-Regular-65" transform="translate(224.365234 0.921875)"/>
       <use xlink:href="#Roboto-Regular-6e" transform="translate(277.34375 0.921875)"/>
       <use xlink:href="#Roboto-Regular-20" transform="translate(332.519531 0.921875)"/>
       <use xlink:href="#Roboto-Regular-43" transform="translate(357.275391 0.921875)"/>
       <use xlink:href="#Roboto-Regular-32" transform="translate(423.320312 -15.484375) scale(0.7)"/>
       <use xlink:href="#Roboto-Regular-48" transform="translate(465.361328 0.921875)"/>
       <use xlink:href="#Roboto-Regular-34" transform="translate(537.607422 -15.484375) scale(0.7)"/>
      </g>
     </g>
    </g>
    <g id="xtick_5">
     <g id="line2d_16">
      <g>
       <use xlink:href="#m639e50cfeb" x="340.989834" y="316.49376" style="stroke: #000000; stroke-width: 0.8"/>
      </g>
     </g>
     <g id="text_11">
      <!-- Biogas  -->
      <g transform="translate(327.775459 329.45501) scale(0.08 -0.08)">
       <use xlink:href="#Roboto-Regular-42"/>
       <use xlink:href="#Roboto-Regular-69" x="62.255859"/>
       <use xlink:href="#Roboto-Regular-6f" x="86.523438"/>
       <use xlink:href="#Roboto-Regular-67" x="143.554688"/>
       <use xlink:href="#Roboto-Regular-61" x="199.658203"/>
       <use xlink:href="#Roboto-Regular-73" x="254.052734"/>
       <use xlink:href="#Roboto-Regular-20" x="305.615234"/>
      </g>
      <!-- + green C$_\mathdefault{2}$H$_\mathdefault{4}$ -->
      <g transform="translate(317.789834 338.31876) scale(0.08 -0.08)">
       <use xlink:href="#Roboto-Regular-2b" transform="translate(0 0.921875)"/>
       <use xlink:href="#Roboto-Regular-20" transform="translate(56.689453 0.921875)"/>
       <use xlink:href="#Roboto-Regular-67" transform="translate(81.445312 0.921875)"/>
       <use xlink:href="#Roboto-Regular-72" transform="translate(137.548828 0.921875)"/>
       <use xlink:href="#Roboto-Regular-65" transform="translate(171.386719 0.921875)"/>
       <use xlink:href="#Roboto-Regular-65" transform="translate(224.365234 0.921875)"/>
       <use xlink:href="#Roboto-Regular-6e" transform="translate(277.34375 0.921875)"/>
       <use xlink:href="#Roboto-Regular-20" transform="translate(332.519531 0.921875)"/>
       <use xlink:href="#Roboto-Regular-43" transform="translate(357.275391 0.921875)"/>
       <use xlink:href="#Roboto-Regular-32" transform="translate(423.320312 -15.484375) scale(0.7)"/>
       <use xlink:href="#Roboto-Regular-48" transform="translate(465.361328 0.921875)"/>
       <use xlink:href="#Roboto-Regular-34" transform="translate(537.607422 -15.484375) scale(0.7)"/>
      </g>
     </g>
    </g>
   </g>
   <g id="matplotlib.axis_4">
    <g id="ytick_5">
     <g id="line2d_17">
      <g>
       <use xlink:href="#m4f8315b37f" x="31.0125" y="316.49376" style="stroke: #000000; stroke-width: 0.8"/>
      </g>
     </g>
     <g id="text_12">
      <!-- 0 -->
      <g transform="translate(19.52 319.49376) scale(0.08 -0.08)">
       <use xlink:href="#Roboto-Regular-30"/>
      </g>
     </g>
    </g>
    <g id="ytick_6">
     <g id="line2d_18">
      <g>
       <use xlink:href="#m4f8315b37f" x="31.0125" y="285.716692" style="stroke: #000000; stroke-width: 0.8"/>
      </g>
     </g>
     <g id="text_13">
      <!-- 1 -->
      <g transform="translate(19.52 288.716692) scale(0.08 -0.08)">
       <defs>
        <path id="Roboto-Regular-31" d="M 2278 0 
L 1697 0 
L 1697 3853 
L 531 3425 
L 531 3950 
L 2188 4572 
L 2278 4572 
L 2278 0 
z
" transform="scale(0.015625)"/>
       </defs>
       <use xlink:href="#Roboto-Regular-31"/>
      </g>
     </g>
    </g>
    <g id="ytick_7">
     <g id="line2d_19">
      <g>
       <use xlink:href="#m4f8315b37f" x="31.0125" y="254.939624" style="stroke: #000000; stroke-width: 0.8"/>
      </g>
     </g>
     <g id="text_14">
      <!-- 2 -->
      <g transform="translate(19.52 257.939624) scale(0.08 -0.08)">
       <use xlink:href="#Roboto-Regular-32"/>
      </g>
     </g>
    </g>
    <g id="ytick_8">
     <g id="line2d_20">
      <g>
       <use xlink:href="#m4f8315b37f" x="31.0125" y="224.162557" style="stroke: #000000; stroke-width: 0.8"/>
      </g>
     </g>
     <g id="text_15">
      <!-- 3 -->
      <g transform="translate(19.52 227.162557) scale(0.08 -0.08)">
       <defs>
        <path id="Roboto-Regular-33" d="M 1219 2556 
L 1653 2556 
Q 2063 2563 2297 2772 
Q 2531 2981 2531 3338 
Q 2531 4138 1734 4138 
Q 1359 4138 1136 3923 
Q 913 3709 913 3356 
L 334 3356 
Q 334 3897 729 4255 
Q 1125 4613 1734 4613 
Q 2378 4613 2743 4272 
Q 3109 3931 3109 3325 
Q 3109 3028 2917 2750 
Q 2725 2472 2394 2334 
Q 2769 2216 2973 1941 
Q 3178 1666 3178 1269 
Q 3178 656 2778 296 
Q 2378 -63 1737 -63 
Q 1097 -63 695 284 
Q 294 631 294 1200 
L 875 1200 
Q 875 841 1109 625 
Q 1344 409 1738 409 
Q 2156 409 2378 628 
Q 2600 847 2600 1256 
Q 2600 1653 2356 1865 
Q 2113 2078 1653 2084 
L 1219 2084 
L 1219 2556 
z
" transform="scale(0.015625)"/>
       </defs>
       <use xlink:href="#Roboto-Regular-33"/>
      </g>
     </g>
    </g>
    <g id="ytick_9">
     <g id="line2d_21">
      <g>
       <use xlink:href="#m4f8315b37f" x="31.0125" y="193.385489" style="stroke: #000000; stroke-width: 0.8"/>
      </g>
     </g>
     <g id="text_16">
      <!-- 4 -->
      <g transform="translate(19.52 196.385489) scale(0.08 -0.08)">
       <use xlink:href="#Roboto-Regular-34"/>
      </g>
     </g>
    </g>
    <g id="text_17">
     <!-- Production cost (USD per kg) -->
     <g transform="translate(13.68375 298.850945) rotate(-90) scale(0.08 -0.08)">
      <defs>
       <path id="Roboto-Regular-50" d="M 1128 1781 
L 1128 0 
L 528 0 
L 528 4550 
L 2206 4550 
Q 2953 4550 3376 4169 
Q 3800 3788 3800 3159 
Q 3800 2497 3386 2139 
Q 2972 1781 2200 1781 
L 1128 1781 
z
M 1128 2272 
L 2206 2272 
Q 2688 2272 2944 2498 
Q 3200 2725 3200 3153 
Q 3200 3559 2944 3803 
Q 2688 4047 2241 4056 
L 1128 4056 
L 1128 2272 
z
" transform="scale(0.015625)"/>
       <path id="Roboto-Regular-75" d="M 2525 334 
Q 2188 -63 1534 -63 
Q 994 -63 711 251 
Q 428 566 425 1181 
L 425 3381 
L 1003 3381 
L 1003 1197 
Q 1003 428 1628 428 
Q 2291 428 2509 922 
L 2509 3381 
L 3088 3381 
L 3088 0 
L 2538 0 
L 2525 334 
z
" transform="scale(0.015625)"/>
       <path id="Roboto-Regular-55" d="M 3731 4550 
L 3731 1456 
Q 3728 813 3326 403 
Q 2925 -6 2238 -56 
L 2078 -63 
Q 1331 -63 887 340 
Q 444 744 438 1450 
L 438 4550 
L 1031 4550 
L 1031 1469 
Q 1031 975 1303 701 
Q 1575 428 2078 428 
Q 2588 428 2858 700 
Q 3128 972 3128 1466 
L 3128 4550 
L 3731 4550 
z
" transform="scale(0.015625)"/>
       <path id="Roboto-Regular-53" d="M 1869 2028 
Q 1097 2250 745 2573 
Q 394 2897 394 3372 
Q 394 3909 823 4261 
Q 1253 4613 1941 4613 
Q 2409 4613 2776 4431 
Q 3144 4250 3345 3931 
Q 3547 3613 3547 3234 
L 2944 3234 
Q 2944 3647 2681 3883 
Q 2419 4119 1941 4119 
Q 1497 4119 1248 3923 
Q 1000 3728 1000 3381 
Q 1000 3103 1236 2911 
Q 1472 2719 2039 2559 
Q 2606 2400 2926 2208 
Q 3247 2016 3401 1759 
Q 3556 1503 3556 1156 
Q 3556 603 3125 270 
Q 2694 -63 1972 -63 
Q 1503 -63 1097 117 
Q 691 297 470 609 
Q 250 922 250 1319 
L 853 1319 
Q 853 906 1158 667 
Q 1463 428 1972 428 
Q 2447 428 2700 622 
Q 2953 816 2953 1150 
Q 2953 1484 2718 1667 
Q 2484 1850 1869 2028 
z
" transform="scale(0.015625)"/>
      </defs>
      <use xlink:href="#Roboto-Regular-50"/>
      <use xlink:href="#Roboto-Regular-72" x="63.085938"/>
      <use xlink:href="#Roboto-Regular-6f" x="96.923828"/>
      <use xlink:href="#Roboto-Regular-64" x="153.955078"/>
      <use xlink:href="#Roboto-Regular-75" x="210.351562"/>
      <use xlink:href="#Roboto-Regular-63" x="265.478516"/>
      <use xlink:href="#Roboto-Regular-74" x="317.822266"/>
      <use xlink:href="#Roboto-Regular-69" x="350.488281"/>
      <use xlink:href="#Roboto-Regular-6f" x="374.755859"/>
      <use xlink:href="#Roboto-Regular-6e" x="431.787109"/>
      <use xlink:href="#Roboto-Regular-20" x="486.962891"/>
      <use xlink:href="#Roboto-Regular-63" x="511.71875"/>
      <use xlink:href="#Roboto-Regular-6f" x="564.0625"/>
      <use xlink:href="#Roboto-Regular-73" x="621.09375"/>
      <use xlink:href="#Roboto-Regular-74" x="672.65625"/>
      <use xlink:href="#Roboto-Regular-20" x="705.322266"/>
      <use xlink:href="#Roboto-Regular-28" x="730.078125"/>
      <use xlink:href="#Roboto-Regular-55" x="764.257812"/>
      <use xlink:href="#Roboto-Regular-53" x="829.101562"/>
      <use xlink:href="#Roboto-Regular-44" x="888.427734"/>
      <use xlink:href="#Roboto-Regular-20" x="954.003906"/>
      <use xlink:href="#Roboto-Regular-70" x="978.759766"/>
      <use xlink:href="#Roboto-Regular-65" x="1034.863281"/>
      <use xlink:href="#Roboto-Regular-72" x="1087.841797"/>
      <use xlink:href="#Roboto-Regular-20" x="1121.679688"/>
      <use xlink:href="#Roboto-Regular-6b" x="1146.435547"/>
      <use xlink:href="#Roboto-Regular-67" x="1197.119141"/>
      <use xlink:href="#Roboto-Regular-29" x="1253.222656"/>
     </g>
    </g>
   </g>
   <g id="PathCollection_3">
    <g clip-path="url(#p13155fd6b2)">
     <use xlink:href="#m4e251f6635" x="65.454426" y="280.147263" style="fill: #ffffff; stroke: #000000"/>
     <use xlink:href="#m4e251f6635" x="134.338278" y="259.927716" style="fill: #ffffff; stroke: #000000"/>
     <use xlink:href="#m4e251f6635" x="203.22213" y="275.693877" style="fill: #ffffff; stroke: #000000"/>
     <use xlink:href="#m4e251f6635" x="272.105982" y="234.642592" style="fill: #ffffff; stroke: #000000"/>
     <use xlink:href="#m4e251f6635" x="340.989834" y="250.763336" style="fill: #ffffff; stroke: #000000"/>
    </g>
   </g>
   <g id="line2d_22">
    <path d="M 31.0125 316.49376 
L 375.43176 316.49376 
" clip-path="url(#p13155fd6b2)" style="fill: none; stroke: #808080; stroke-width: 0.5; stroke-linecap: square"/>
   </g>
   <g id="line2d_23">
    <path d="M 99.896352 316.49376 
L 99.896352 178.16688 
" clip-path="url(#p13155fd6b2)" style="fill: none; stroke-dasharray: 1.85,0.8; stroke-dashoffset: 0; stroke: #808080; stroke-width: 0.5"/>
   </g>
   <g id="line2d_24">
    <path d="M 237.664056 316.49376 
L 237.664056 178.16688 
" clip-path="url(#p13155fd6b2)" style="fill: none; stroke-dasharray: 1.85,0.8; stroke-dashoffset: 0; stroke: #808080; stroke-width: 0.5"/>
   </g>
   <g id="patch_68">
    <path d="M 31.0125 316.49376 
L 31.0125 178.16688 
" style="fill: none; stroke: #000000; stroke-width: 0.8; stroke-linejoin: miter; stroke-linecap: square"/>
   </g>
   <g id="patch_69">
    <path d="M 375.43176 316.49376 
L 375.43176 178.16688 
" style="fill: none; stroke: #000000; stroke-width: 0.8; stroke-linejoin: miter; stroke-linecap: square"/>
   </g>
   <g id="patch_70">
    <path d="M 31.0125 316.49376 
L 375.43176 316.49376 
" style="fill: none; stroke: #000000; stroke-width: 0.8; stroke-linejoin: miter; stroke-linecap: square"/>
   </g>
   <g id="patch_71">
    <path d="M 31.0125 178.16688 
L 375.43176 178.16688 
" style="fill: none; stroke: #000000; stroke-width: 0.8; stroke-linejoin: miter; stroke-linecap: square"/>
   </g>
   <g id="text_18">
    <!-- b -->
    <g transform="translate(11.539662 172.16688) scale(0.08 -0.08)">
     <defs>
      <path id="Roboto-Bold-62" d="M 3394 1659 
Q 3394 847 3047 392 
Q 2700 -63 2078 -63 
Q 1528 -63 1200 359 
L 1159 0 
L 347 0 
L 347 4800 
L 1250 4800 
L 1250 3078 
Q 1563 3444 2072 3444 
Q 2691 3444 3042 2989 
Q 3394 2534 3394 1709 
L 3394 1659 
z
M 2491 1725 
Q 2491 2238 2328 2473 
Q 2166 2709 1844 2709 
Q 1413 2709 1250 2356 
L 1250 1022 
Q 1416 666 1850 666 
Q 2288 666 2425 1097 
Q 2491 1303 2491 1725 
z
" transform="scale(0.015625)"/>
     </defs>
     <use xlink:href="#Roboto-Bold-62"/>
    </g>
   </g>
   <g id="legend_2"/>
  </g>
  <g id="legend_3">
   <g id="line2d_25">
    <path d="M 38.696505 352.037185 
L 46.696505 352.037185 
L 54.696505 352.037185 
" style="fill: none; stroke: #ffffff; stroke-width: 1.5; stroke-linecap: square"/>
    <defs>
     <path id="m4d61ba139a" d="M 0 3.5 
C 0.928211 3.5 1.81853 3.131218 2.474874 2.474874 
C 3.131218 1.81853 3.5 0.928211 3.5 0 
C 3.5 -0.928211 3.131218 -1.81853 2.474874 -2.474874 
C 1.81853 -3.131218 0.928211 -3.5 0 -3.5 
C -0.928211 -3.5 -1.81853 -3.131218 -2.474874 -2.474874 
C -3.131218 -1.81853 -3.5 -0.928211 -3.5 0 
C -3.5 0.928211 -3.131218 1.81853 -2.474874 2.474874 
C -1.81853 3.131218 -0.928211 3.5 0 3.5 
z
" style="stroke: #ffffff"/>
    </defs>
    <g>
     <use xlink:href="#m4d61ba139a" x="46.696505" y="352.037185" style="fill: #ef476f; stroke: #ffffff"/>
    </g>
   </g>
   <g id="text_19">
    <!-- Natural gas or biogas -->
    <g transform="translate(55.496505 354.837185) scale(0.08 -0.08)">
     <defs>
      <path id="Roboto-Regular-4e" d="M 4025 0 
L 3422 0 
L 1131 3506 
L 1131 0 
L 528 0 
L 528 4550 
L 1131 4550 
L 3428 1028 
L 3428 4550 
L 4025 4550 
L 4025 0 
z
" transform="scale(0.015625)"/>
      <path id="Roboto-Regular-62" d="M 3300 1653 
Q 3300 878 2944 407 
Q 2588 -63 1988 -63 
Q 1347 -63 997 391 
L 969 0 
L 438 0 
L 438 4800 
L 1016 4800 
L 1016 3009 
Q 1366 3444 1981 3444 
Q 2597 3444 2948 2978 
Q 3300 2513 3300 1703 
L 3300 1653 
z
M 2722 1719 
Q 2722 2309 2494 2631 
Q 2266 2953 1838 2953 
Q 1266 2953 1016 2422 
L 1016 959 
Q 1281 428 1844 428 
Q 2259 428 2490 750 
Q 2722 1072 2722 1719 
z
" transform="scale(0.015625)"/>
     </defs>
     <use xlink:href="#Roboto-Regular-4e"/>
     <use xlink:href="#Roboto-Regular-61" x="71.289062"/>
     <use xlink:href="#Roboto-Regular-74" x="125.683594"/>
     <use xlink:href="#Roboto-Regular-75" x="158.349609"/>
     <use xlink:href="#Roboto-Regular-72" x="213.476562"/>
     <use xlink:href="#Roboto-Regular-61" x="247.314453"/>
     <use xlink:href="#Roboto-Regular-6c" x="301.708984"/>
     <use xlink:href="#Roboto-Regular-20" x="325.976562"/>
     <use xlink:href="#Roboto-Regular-67" x="350.732422"/>
     <use xlink:href="#Roboto-Regular-61" x="406.835938"/>
     <use xlink:href="#Roboto-Regular-73" x="461.230469"/>
     <use xlink:href="#Roboto-Regular-20" x="512.792969"/>
     <use xlink:href="#Roboto-Regular-6f" x="537.548828"/>
     <use xlink:href="#Roboto-Regular-72" x="594.580078"/>
     <use xlink:href="#Roboto-Regular-20" x="628.417969"/>
     <use xlink:href="#Roboto-Regular-62" x="653.173828"/>
     <use xlink:href="#Roboto-Regular-69" x="709.277344"/>
     <use xlink:href="#Roboto-Regular-6f" x="733.544922"/>
     <use xlink:href="#Roboto-Regular-67" x="790.576172"/>
     <use xlink:href="#Roboto-Regular-61" x="846.679688"/>
     <use xlink:href="#Roboto-Regular-73" x="901.074219"/>
    </g>
   </g>
   <g id="line2d_26">
    <path d="M 38.696505 363.700935 
L 46.696505 363.700935 
L 54.696505 363.700935 
" style="fill: none; stroke: #ffffff; stroke-width: 1.5; stroke-linecap: square"/>
    <defs>
     <path id="mcff54fc7ce" d="M 0 3.5 
C 0.928211 3.5 1.81853 3.131218 2.474874 2.474874 
C 3.131218 1.81853 3.5 0.928211 3.5 0 
C 3.5 -0.928211 3.131218 -1.81853 2.474874 -2.474874 
C 1.81853 -3.131218 0.928211 -3.5 0 -3.5 
C -0.928211 -3.5 -1.81853 -3.131218 -2.474874 -2.474874 
C -3.131218 -1.81853 -3.5 -0.928211 -3.5 0 
C -3.5 0.928211 -3.131218 1.81853 -2.474874 2.474874 
C -1.81853 3.131218 -0.928211 3.5 0 3.5 
z
" style="stroke: #ffffff"/>
    </defs>
    <g>
     <use xlink:href="#mcff54fc7ce" x="46.696505" y="363.700935" style="fill: #f78c6b; stroke: #ffffff"/>
    </g>
   </g>
   <g id="text_20">
    <!-- Carbon dioxide -->
    <g transform="translate(55.496505 366.500935) scale(0.08 -0.08)">
     <defs>
      <path id="Roboto-Regular-78" d="M 1572 2147 
L 2322 3381 
L 2997 3381 
L 1891 1709 
L 3031 0 
L 2363 0 
L 1581 1266 
L 800 0 
L 128 0 
L 1269 1709 
L 163 3381 
L 831 3381 
L 1572 2147 
z
" transform="scale(0.015625)"/>
     </defs>
     <use xlink:href="#Roboto-Regular-43"/>
     <use xlink:href="#Roboto-Regular-61" x="65.087891"/>
     <use xlink:href="#Roboto-Regular-72" x="119.482422"/>
     <use xlink:href="#Roboto-Regular-62" x="153.320312"/>
     <use xlink:href="#Roboto-Regular-6f" x="209.423828"/>
     <use xlink:href="#Roboto-Regular-6e" x="266.455078"/>
     <use xlink:href="#Roboto-Regular-20" x="321.630859"/>
     <use xlink:href="#Roboto-Regular-64" x="346.386719"/>
     <use xlink:href="#Roboto-Regular-69" x="402.783203"/>
     <use xlink:href="#Roboto-Regular-6f" x="427.050781"/>
     <use xlink:href="#Roboto-Regular-78" x="484.082031"/>
     <use xlink:href="#Roboto-Regular-69" x="533.642578"/>
     <use xlink:href="#Roboto-Regular-64" x="557.910156"/>
     <use xlink:href="#Roboto-Regular-65" x="614.306641"/>
    </g>
   </g>
   <g id="line2d_27">
    <path d="M 147.707755 352.037185 
L 155.707755 352.037185 
L 163.707755 352.037185 
" style="fill: none; stroke: #ffffff; stroke-width: 1.5; stroke-linecap: square"/>
    <defs>
     <path id="mc2f0a32cbb" d="M 0 3.5 
C 0.928211 3.5 1.81853 3.131218 2.474874 2.474874 
C 3.131218 1.81853 3.5 0.928211 3.5 0 
C 3.5 -0.928211 3.131218 -1.81853 2.474874 -2.474874 
C 1.81853 -3.131218 0.928211 -3.5 0 -3.5 
C -0.928211 -3.5 -1.81853 -3.131218 -2.474874 -2.474874 
C -3.131218 -1.81853 -3.5 -0.928211 -3.5 0 
C -3.5 0.928211 -3.131218 1.81853 -2.474874 2.474874 
C -1.81853 3.131218 -0.928211 3.5 0 3.5 
z
" style="stroke: #ffffff"/>
    </defs>
    <g>
     <use xlink:href="#mc2f0a32cbb" x="155.707755" y="352.037185" style="fill: #ffd166; stroke: #ffffff"/>
    </g>
   </g>
   <g id="text_21">
    <!-- Hydrogen -->
    <g transform="translate(164.507755 354.837185) scale(0.08 -0.08)">
     <defs>
      <path id="Roboto-Regular-79" d="M 1544 847 
L 2331 3381 
L 2950 3381 
L 1591 -522 
Q 1275 -1366 588 -1366 
L 478 -1356 
L 263 -1316 
L 263 -847 
L 419 -859 
Q 713 -859 877 -740 
Q 1041 -622 1147 -306 
L 1275 38 
L 69 3381 
L 700 3381 
L 1544 847 
z
" transform="scale(0.015625)"/>
     </defs>
     <use xlink:href="#Roboto-Regular-48"/>
     <use xlink:href="#Roboto-Regular-79" x="71.289062"/>
     <use xlink:href="#Roboto-Regular-64" x="118.603516"/>
     <use xlink:href="#Roboto-Regular-72" x="175"/>
     <use xlink:href="#Roboto-Regular-6f" x="208.837891"/>
     <use xlink:href="#Roboto-Regular-67" x="265.869141"/>
     <use xlink:href="#Roboto-Regular-65" x="321.972656"/>
     <use xlink:href="#Roboto-Regular-6e" x="374.951172"/>
    </g>
   </g>
   <g id="line2d_28">
    <path d="M 147.707755 363.744685 
L 155.707755 363.744685 
L 163.707755 363.744685 
" style="fill: none; stroke: #ffffff; stroke-width: 1.5; stroke-linecap: square"/>
    <defs>
     <path id="m1dd22e193a" d="M 0 3.5 
C 0.928211 3.5 1.81853 3.131218 2.474874 2.474874 
C 3.131218 1.81853 3.5 0.928211 3.5 0 
C 3.5 -0.928211 3.131218 -1.81853 2.474874 -2.474874 
C 1.81853 -3.131218 0.928211 -3.5 0 -3.5 
C -0.928211 -3.5 -1.81853 -3.131218 -2.474874 -2.474874 
C -3.131218 -1.81853 -3.5 -0.928211 -3.5 0 
C -3.5 0.928211 -3.131218 1.81853 -2.474874 2.474874 
C -1.81853 3.131218 -0.928211 3.5 0 3.5 
z
" style="stroke: #ffffff"/>
    </defs>
    <g>
     <use xlink:href="#m1dd22e193a" x="155.707755" y="363.744685" style="fill: #06d6a0; stroke: #ffffff"/>
    </g>
   </g>
   <g id="text_22">
    <!-- Ethylene -->
    <g transform="translate(164.507755 366.544685) scale(0.08 -0.08)">
     <defs>
      <path id="Roboto-Regular-45" d="M 3100 2103 
L 1128 2103 
L 1128 491 
L 3419 491 
L 3419 0 
L 528 0 
L 528 4550 
L 3388 4550 
L 3388 4056 
L 1128 4056 
L 1128 2594 
L 3100 2594 
L 3100 2103 
z
" transform="scale(0.015625)"/>
     </defs>
     <use xlink:href="#Roboto-Regular-45"/>
     <use xlink:href="#Roboto-Regular-74" x="56.835938"/>
     <use xlink:href="#Roboto-Regular-68" x="89.501953"/>
     <use xlink:href="#Roboto-Regular-79" x="144.580078"/>
     <use xlink:href="#Roboto-Regular-6c" x="191.894531"/>
     <use xlink:href="#Roboto-Regular-65" x="216.162109"/>
     <use xlink:href="#Roboto-Regular-6e" x="269.140625"/>
     <use xlink:href="#Roboto-Regular-65" x="324.316406"/>
    </g>
   </g>
   <g id="line2d_29">
    <path d="M 214.919005 352.037185 
L 222.919005 352.037185 
L 230.919005 352.037185 
" style="fill: none; stroke: #ffffff; stroke-width: 1.5; stroke-linecap: square"/>
    <defs>
     <path id="mc37f263b50" d="M 0 3.5 
C 0.928211 3.5 1.81853 3.131218 2.474874 2.474874 
C 3.131218 1.81853 3.5 0.928211 3.5 0 
C 3.5 -0.928211 3.131218 -1.81853 2.474874 -2.474874 
C 1.81853 -3.131218 0.928211 -3.5 0 -3.5 
C -0.928211 -3.5 -1.81853 -3.131218 -2.474874 -2.474874 
C -3.131218 -1.81853 -3.5 -0.928211 -3.5 0 
C -3.5 0.928211 -3.131218 1.81853 -2.474874 2.474874 
C -1.81853 3.131218 -0.928211 3.5 0 3.5 
z
" style="stroke: #ffffff"/>
    </defs>
    <g>
     <use xlink:href="#mc37f263b50" x="222.919005" y="352.037185" style="fill: #118ab2; stroke: #ffffff"/>
    </g>
   </g>
   <g id="text_23">
    <!-- Utilities -->
    <g transform="translate(231.719005 354.837185) scale(0.08 -0.08)">
     <use xlink:href="#Roboto-Regular-55"/>
     <use xlink:href="#Roboto-Regular-74" x="64.84375"/>
     <use xlink:href="#Roboto-Regular-69" x="97.509766"/>
     <use xlink:href="#Roboto-Regular-6c" x="121.777344"/>
     <use xlink:href="#Roboto-Regular-69" x="146.044922"/>
     <use xlink:href="#Roboto-Regular-74" x="170.3125"/>
     <use xlink:href="#Roboto-Regular-69" x="202.978516"/>
     <use xlink:href="#Roboto-Regular-65" x="227.246094"/>
     <use xlink:href="#Roboto-Regular-73" x="280.224609"/>
    </g>
   </g>
   <g id="line2d_30">
    <path d="M 214.919005 363.662185 
L 222.919005 363.662185 
L 230.919005 363.662185 
" style="fill: none; stroke: #ffffff; stroke-width: 1.5; stroke-linecap: square"/>
    <defs>
     <path id="m1506c7b6fb" d="M 0 3.5 
C 0.928211 3.5 1.81853 3.131218 2.474874 2.474874 
C 3.131218 1.81853 3.5 0.928211 3.5 0 
C 3.5 -0.928211 3.131218 -1.81853 2.474874 -2.474874 
C 1.81853 -3.131218 0.928211 -3.5 0 -3.5 
C -0.928211 -3.5 -1.81853 -3.131218 -2.474874 -2.474874 
C -3.131218 -1.81853 -3.5 -0.928211 -3.5 0 
C -3.5 0.928211 -3.131218 1.81853 -2.474874 2.474874 
C -1.81853 3.131218 -0.928211 3.5 0 3.5 
z
" style="stroke: #ffffff"/>
    </defs>
    <g>
     <use xlink:href="#m1506c7b6fb" x="222.919005" y="363.662185" style="fill: #073b4c; stroke: #ffffff"/>
    </g>
   </g>
   <g id="text_24">
    <!-- CAPEX -->
    <g transform="translate(231.719005 366.462185) scale(0.08 -0.08)">
     <defs>
      <path id="Roboto-Regular-58" d="M 2013 2806 
L 3103 4550 
L 3809 4550 
L 2372 2294 
L 3844 0 
L 3131 0 
L 2013 1775 
L 888 0 
L 178 0 
L 1653 2294 
L 213 4550 
L 916 4550 
L 2013 2806 
z
" transform="scale(0.015625)"/>
     </defs>
     <use xlink:href="#Roboto-Regular-43"/>
     <use xlink:href="#Roboto-Regular-41" x="65.087891"/>
     <use xlink:href="#Roboto-Regular-50" x="130.322266"/>
     <use xlink:href="#Roboto-Regular-45" x="193.408203"/>
     <use xlink:href="#Roboto-Regular-58" x="250.244141"/>
    </g>
   </g>
   <g id="line2d_31">
    <path d="M 274.262755 352.037185 
L 282.262755 352.037185 
L 290.262755 352.037185 
" style="fill: none"/>
    <defs>
     <path id="m14d1615150" d="M 0 2.5 
C 0.663008 2.5 1.29895 2.236584 1.767767 1.767767 
C 2.236584 1.29895 2.5 0.663008 2.5 0 
C 2.5 -0.663008 2.236584 -1.29895 1.767767 -1.767767 
C 1.29895 -2.236584 0.663008 -2.5 0 -2.5 
C -0.663008 -2.5 -1.29895 -2.236584 -1.767767 -1.767767 
C -2.236584 -1.29895 -2.5 -0.663008 -2.5 0 
C -2.5 0.663008 -2.236584 1.29895 -1.767767 1.767767 
C -1.29895 2.236584 -0.663008 2.5 0 2.5 
z
" style="stroke: #000000"/>
    </defs>
    <g>
     <use xlink:href="#m14d1615150" x="282.262755" y="352.037185" style="fill: #ffffff; stroke: #000000"/>
    </g>
   </g>
   <g id="text_25">
    <!-- Current impact -->
    <g transform="translate(291.062755 354.837185) scale(0.08 -0.08)">
     <use xlink:href="#Roboto-Regular-43"/>
     <use xlink:href="#Roboto-Regular-75" x="65.087891"/>
     <use xlink:href="#Roboto-Regular-72" x="120.214844"/>
     <use xlink:href="#Roboto-Regular-72" x="154.052734"/>
     <use xlink:href="#Roboto-Regular-65" x="187.890625"/>
     <use xlink:href="#Roboto-Regular-6e" x="240.869141"/>
     <use xlink:href="#Roboto-Regular-74" x="296.044922"/>
     <use xlink:href="#Roboto-Regular-20" x="328.710938"/>
     <use xlink:href="#Roboto-Regular-69" x="353.466797"/>
     <use xlink:href="#Roboto-Regular-6d" x="377.734375"/>
     <use xlink:href="#Roboto-Regular-70" x="465.380859"/>
     <use xlink:href="#Roboto-Regular-61" x="521.484375"/>
     <use xlink:href="#Roboto-Regular-63" x="575.878906"/>
     <use xlink:href="#Roboto-Regular-74" x="628.222656"/>
    </g>
   </g>
   <g id="line2d_32">
    <path d="M 274.262755 363.662185 
L 282.262755 363.662185 
L 290.262755 363.662185 
" style="fill: none"/>
    <defs>
     <path id="m74e5cfb2a3" d="M 0 3.535534 
L 3.535534 0 
L 0 -3.535534 
L -3.535534 0 
z
" style="stroke: #ffffff; stroke-linejoin: miter"/>
    </defs>
    <g>
     <use xlink:href="#m74e5cfb2a3" x="282.262755" y="363.662185" style="fill: #8763c9; stroke: #ffffff; stroke-linejoin: miter"/>
    </g>
   </g>
   <g id="text_26">
    <!-- Future impact -->
    <g transform="translate(291.062755 366.462185) scale(0.08 -0.08)">
     <use xlink:href="#Roboto-Regular-46"/>
     <use xlink:href="#Roboto-Regular-75" x="55.273438"/>
     <use xlink:href="#Roboto-Regular-74" x="110.400391"/>
     <use xlink:href="#Roboto-Regular-75" x="143.066406"/>
     <use xlink:href="#Roboto-Regular-72" x="198.193359"/>
     <use xlink:href="#Roboto-Regular-65" x="232.03125"/>
     <use xlink:href="#Roboto-Regular-20" x="285.009766"/>
     <use xlink:href="#Roboto-Regular-69" x="309.765625"/>
     <use xlink:href="#Roboto-Regular-6d" x="334.033203"/>
     <use xlink:href="#Roboto-Regular-70" x="421.679688"/>
     <use xlink:href="#Roboto-Regular-61" x="477.783203"/>
     <use xlink:href="#Roboto-Regular-63" x="532.177734"/>
     <use xlink:href="#Roboto-Regular-74" x="584.521484"/>
    </g>
   </g>
  </g>
 </g>
 <defs>
  <clipPath id="pf72e302612">
   <rect x="31.0125" y="19.2" width="344.41926" height="138.32688"/>
  </clipPath>
  <clipPath id="p13155fd6b2">
   <rect x="31.0125" y="178.16688" width="344.41926" height="138.32688"/>
  </clipPath>
 </defs>
</svg>
