<?xml version="1.0" encoding="utf-8" standalone="no"?>
<!DOCTYPE svg PUBLIC "-//W3C//DTD SVG 1.1//EN"
  "http://www.w3.org/Graphics/SVG/1.1/DTD/svg11.dtd">
<svg xmlns:xlink="http://www.w3.org/1999/xlink" width="1025.95968pt" height="338.55876pt" viewBox="0 0 1025.95968 338.55876" xmlns="http://www.w3.org/2000/svg" version="1.1">
 <metadata>
  <rdf:RDF xmlns:dc="http://purl.org/dc/elements/1.1/" xmlns:cc="http://creativecommons.org/ns#" xmlns:rdf="http://www.w3.org/1999/02/22-rdf-syntax-ns#">
   <cc:Work>
    <dc:type rdf:resource="http://purl.org/dc/dcmitype/StillImage"/>
    <dc:date>2025-07-09T05:51:51.651441</dc:date>
    <dc:format>image/svg+xml</dc:format>
    <dc:creator>
     <cc:Agent>
      <dc:title>Matplotlib v3.9.2, https://matplotlib.org/</dc:title>
     </cc:Agent>
    </dc:creator>
   </cc:Work>
  </rdf:RDF>
 </metadata>
 <defs>
  <style type="text/css">*{stroke-linejoin: round; stroke-linecap: butt}</style>
 </defs>
 <g id="figure_1">
  <g id="patch_1">
   <path d="M 0 338.55876 
L 1025.95968 338.55876 
L 1025.95968 0 
L 0 0 
z
" style="fill: #ffffff"/>
  </g>
  <g id="axes_1">
   <g id="patch_2">
    <path d="M 43.0625 296.923135 
L 357.32156 296.923135 
L 357.32156 25.584 
L 43.0625 25.584 
z
" style="fill: #ffffff"/>
   </g>
   <g id="patch_3">
    <path d="M 57.347003 296.923135 
L 66.870005 296.923135 
L 66.870005 293.918272 
L 57.347003 293.918272 
z
" clip-path="url(#p0256c131fd)" style="fill: #7cc582; stroke: #414141; stroke-linejoin: miter"/>
   </g>
   <g id="patch_4">
    <path d="M 66.870005 296.923135 
L 76.393006 296.923135 
L 76.393006 296.923135 
L 66.870005 296.923135 
z
" clip-path="url(#p0256c131fd)" style="fill: #7cc582; stroke: #414141; stroke-linejoin: miter"/>
   </g>
   <g id="patch_5">
    <path d="M 76.393006 296.923135 
L 85.916008 296.923135 
L 85.916008 296.923135 
L 76.393006 296.923135 
z
" clip-path="url(#p0256c131fd)" style="fill: #7cc582; stroke: #414141; stroke-linejoin: miter"/>
   </g>
   <g id="patch_6">
    <path d="M 85.916008 296.923135 
L 95.43901 296.923135 
L 95.43901 296.923135 
L 85.916008 296.923135 
z
" clip-path="url(#p0256c131fd)" style="fill: #7cc582; stroke: #414141; stroke-linejoin: miter"/>
   </g>
   <g id="patch_7">
    <path d="M 95.43901 296.923135 
L 104.962012 296.923135 
L 104.962012 296.923135 
L 95.43901 296.923135 
z
" clip-path="url(#p0256c131fd)" style="fill: #7cc582; stroke: #414141; stroke-linejoin: miter"/>
   </g>
   <g id="patch_8">
    <path d="M 104.962012 296.923135 
L 114.485014 296.923135 
L 114.485014 296.923135 
L 104.962012 296.923135 
z
" clip-path="url(#p0256c131fd)" style="fill: #7cc582; stroke: #414141; stroke-linejoin: miter"/>
   </g>
   <g id="patch_9">
    <path d="M 114.485014 296.923135 
L 124.008015 296.923135 
L 124.008015 296.923135 
L 114.485014 296.923135 
z
" clip-path="url(#p0256c131fd)" style="fill: #7cc582; stroke: #414141; stroke-linejoin: miter"/>
   </g>
   <g id="patch_10">
    <path d="M 124.008015 296.923135 
L 133.531017 296.923135 
L 133.531017 296.923135 
L 124.008015 296.923135 
z
" clip-path="url(#p0256c131fd)" style="fill: #7cc582; stroke: #414141; stroke-linejoin: miter"/>
   </g>
   <g id="patch_11">
    <path d="M 133.531017 296.923135 
L 143.054019 296.923135 
L 143.054019 296.923135 
L 133.531017 296.923135 
z
" clip-path="url(#p0256c131fd)" style="fill: #7cc582; stroke: #414141; stroke-linejoin: miter"/>
   </g>
   <g id="patch_12">
    <path d="M 143.054019 296.923135 
L 152.577021 296.923135 
L 152.577021 296.923135 
L 143.054019 296.923135 
z
" clip-path="url(#p0256c131fd)" style="fill: #7cc582; stroke: #414141; stroke-linejoin: miter"/>
   </g>
   <g id="patch_13">
    <path d="M 152.577021 296.923135 
L 162.100023 296.923135 
L 162.100023 296.923135 
L 152.577021 296.923135 
z
" clip-path="url(#p0256c131fd)" style="fill: #7cc582; stroke: #414141; stroke-linejoin: miter"/>
   </g>
   <g id="patch_14">
    <path d="M 162.100023 296.923135 
L 171.623025 296.923135 
L 171.623025 296.923135 
L 162.100023 296.923135 
z
" clip-path="url(#p0256c131fd)" style="fill: #7cc582; stroke: #414141; stroke-linejoin: miter"/>
   </g>
   <g id="patch_15">
    <path d="M 171.623025 296.923135 
L 181.146026 296.923135 
L 181.146026 290.913409 
L 171.623025 290.913409 
z
" clip-path="url(#p0256c131fd)" style="fill: #7cc582; stroke: #414141; stroke-linejoin: miter"/>
   </g>
   <g id="patch_16">
    <path d="M 181.146026 296.923135 
L 190.669028 296.923135 
L 190.669028 296.923135 
L 181.146026 296.923135 
z
" clip-path="url(#p0256c131fd)" style="fill: #7cc582; stroke: #414141; stroke-linejoin: miter"/>
   </g>
   <g id="patch_17">
    <path d="M 190.669028 296.923135 
L 200.19203 296.923135 
L 200.19203 293.918272 
L 190.669028 293.918272 
z
" clip-path="url(#p0256c131fd)" style="fill: #7cc582; stroke: #414141; stroke-linejoin: miter"/>
   </g>
   <g id="patch_18">
    <path d="M 200.19203 296.923135 
L 209.715032 296.923135 
L 209.715032 296.923135 
L 200.19203 296.923135 
z
" clip-path="url(#p0256c131fd)" style="fill: #7cc582; stroke: #414141; stroke-linejoin: miter"/>
   </g>
   <g id="patch_19">
    <path d="M 209.715032 296.923135 
L 219.238034 296.923135 
L 219.238034 281.89882 
L 209.715032 281.89882 
z
" clip-path="url(#p0256c131fd)" style="fill: #7cc582; stroke: #414141; stroke-linejoin: miter"/>
   </g>
   <g id="patch_20">
    <path d="M 219.238034 296.923135 
L 228.761035 296.923135 
L 228.761035 281.89882 
L 219.238034 281.89882 
z
" clip-path="url(#p0256c131fd)" style="fill: #7cc582; stroke: #414141; stroke-linejoin: miter"/>
   </g>
   <g id="patch_21">
    <path d="M 228.761035 296.923135 
L 238.284037 296.923135 
L 238.284037 251.850189 
L 228.761035 251.850189 
z
" clip-path="url(#p0256c131fd)" style="fill: #7cc582; stroke: #414141; stroke-linejoin: miter"/>
   </g>
   <g id="patch_22">
    <path d="M 238.284037 296.923135 
L 247.807039 296.923135 
L 247.807039 242.8356 
L 238.284037 242.8356 
z
" clip-path="url(#p0256c131fd)" style="fill: #7cc582; stroke: #414141; stroke-linejoin: miter"/>
   </g>
   <g id="patch_23">
    <path d="M 247.807039 296.923135 
L 257.330041 296.923135 
L 257.330041 230.816148 
L 247.807039 230.816148 
z
" clip-path="url(#p0256c131fd)" style="fill: #7cc582; stroke: #414141; stroke-linejoin: miter"/>
   </g>
   <g id="patch_24">
    <path d="M 257.330041 296.923135 
L 266.853043 296.923135 
L 266.853043 176.728612 
L 257.330041 176.728612 
z
" clip-path="url(#p0256c131fd)" style="fill: #7cc582; stroke: #414141; stroke-linejoin: miter"/>
   </g>
   <g id="patch_25">
    <path d="M 266.853043 296.923135 
L 276.376045 296.923135 
L 276.376045 158.699434 
L 266.853043 158.699434 
z
" clip-path="url(#p0256c131fd)" style="fill: #7cc582; stroke: #414141; stroke-linejoin: miter"/>
   </g>
   <g id="patch_26">
    <path d="M 276.376045 296.923135 
L 285.899046 296.923135 
L 285.899046 92.592446 
L 276.376045 92.592446 
z
" clip-path="url(#p0256c131fd)" style="fill: #7cc582; stroke: #414141; stroke-linejoin: miter"/>
   </g>
   <g id="patch_27">
    <path d="M 285.899046 296.923135 
L 295.422048 296.923135 
L 295.422048 74.563268 
L 285.899046 74.563268 
z
" clip-path="url(#p0256c131fd)" style="fill: #7cc582; stroke: #414141; stroke-linejoin: miter"/>
   </g>
   <g id="patch_28">
    <path d="M 295.422048 296.923135 
L 304.94505 296.923135 
L 304.94505 38.504911 
L 295.422048 38.504911 
z
" clip-path="url(#p0256c131fd)" style="fill: #7cc582; stroke: #414141; stroke-linejoin: miter"/>
   </g>
   <g id="patch_29">
    <path d="M 304.94505 296.923135 
L 314.468052 296.923135 
L 314.468052 101.607036 
L 304.94505 101.607036 
z
" clip-path="url(#p0256c131fd)" style="fill: #7cc582; stroke: #414141; stroke-linejoin: miter"/>
   </g>
   <g id="patch_30">
    <path d="M 314.468052 296.923135 
L 323.991054 296.923135 
L 323.991054 200.767517 
L 314.468052 200.767517 
z
" clip-path="url(#p0256c131fd)" style="fill: #7cc582; stroke: #414141; stroke-linejoin: miter"/>
   </g>
   <g id="patch_31">
    <path d="M 323.991054 296.923135 
L 333.514055 296.923135 
L 333.514055 248.845326 
L 323.991054 248.845326 
z
" clip-path="url(#p0256c131fd)" style="fill: #7cc582; stroke: #414141; stroke-linejoin: miter"/>
   </g>
   <g id="patch_32">
    <path d="M 333.514055 296.923135 
L 343.037057 296.923135 
L 343.037057 284.903683 
L 333.514055 284.903683 
z
" clip-path="url(#p0256c131fd)" style="fill: #7cc582; stroke: #414141; stroke-linejoin: miter"/>
   </g>
   <g id="matplotlib.axis_1">
    <g id="xtick_1">
     <g id="line2d_1">
      <defs>
       <path id="md3b4e44d29" d="M 0 0 
L 0 3.5 
" style="stroke: #000000; stroke-width: 0.8"/>
      </defs>
      <g>
       <use xlink:href="#md3b4e44d29" x="69.314484" y="296.923135" style="stroke: #000000; stroke-width: 0.8"/>
      </g>
     </g>
     <g id="text_1">
      <!-- −2.5 -->
      <g transform="translate(58.898859 312.923135) scale(0.12 -0.12)">
       <defs>
        <path id="FiraSans-Regular-2212" d="M 397 1882 
L 397 2374 
L 2803 2374 
L 2803 1882 
L 397 1882 
z
" transform="scale(0.015625)"/>
        <path id="FiraSans-Regular-32" d="M 1459 4346 
Q 1843 4346 2134 4192 
Q 2426 4038 2586 3772 
Q 2746 3507 2746 3174 
Q 2746 2784 2570 2425 
Q 2394 2067 2029 1651 
Q 1664 1235 922 493 
L 2848 493 
L 2778 0 
L 250 0 
L 250 467 
Q 1107 1357 1465 1769 
Q 1824 2182 1977 2489 
Q 2131 2797 2131 3149 
Q 2131 3482 1939 3670 
Q 1747 3859 1427 3859 
Q 1165 3859 966 3750 
Q 768 3642 544 3392 
L 160 3699 
Q 422 4026 742 4186 
Q 1062 4346 1459 4346 
z
" transform="scale(0.015625)"/>
        <path id="FiraSans-Regular-2e" d="M 762 813 
Q 954 813 1082 685 
Q 1210 557 1210 371 
Q 1210 186 1082 54 
Q 954 -77 762 -77 
Q 576 -77 448 54 
Q 320 186 320 371 
Q 320 557 448 685 
Q 576 813 762 813 
z
" transform="scale(0.015625)"/>
        <path id="FiraSans-Regular-35" d="M 2688 3821 
L 1018 3821 
L 1018 2560 
Q 1344 2726 1702 2726 
Q 2253 2726 2585 2364 
Q 2918 2003 2918 1370 
Q 2918 947 2732 617 
Q 2547 288 2211 105 
Q 1875 -77 1434 -77 
Q 1043 -77 736 60 
Q 429 198 166 467 
L 512 806 
Q 717 602 934 502 
Q 1152 403 1427 403 
Q 1837 403 2070 659 
Q 2304 915 2304 1382 
Q 2304 1850 2093 2061 
Q 1882 2272 1523 2272 
Q 1357 2272 1216 2237 
Q 1075 2202 915 2125 
L 454 2125 
L 454 4282 
L 2771 4282 
L 2688 3821 
z
" transform="scale(0.015625)"/>
       </defs>
       <use xlink:href="#FiraSans-Regular-2212"/>
       <use xlink:href="#FiraSans-Regular-32" x="49.999985"/>
       <use xlink:href="#FiraSans-Regular-2e" x="99.499969"/>
       <use xlink:href="#FiraSans-Regular-35" x="123.499954"/>
      </g>
     </g>
    </g>
    <g id="xtick_2">
     <g id="line2d_2">
      <g>
       <use xlink:href="#md3b4e44d29" x="124.967112" y="296.923135" style="stroke: #000000; stroke-width: 0.8"/>
      </g>
     </g>
     <g id="text_2">
      <!-- −2.0 -->
      <g transform="translate(114.209299 312.923135) scale(0.12 -0.12)">
       <defs>
        <path id="FiraSans-Regular-30" d="M 1786 4346 
Q 2496 4346 2857 3779 
Q 3219 3213 3219 2138 
Q 3219 1062 2857 492 
Q 2496 -77 1786 -77 
Q 1075 -77 713 492 
Q 352 1062 352 2138 
Q 352 3213 713 3779 
Q 1075 4346 1786 4346 
z
M 1786 3878 
Q 1370 3878 1168 3468 
Q 966 3059 966 2138 
Q 966 1216 1168 803 
Q 1370 390 1786 390 
Q 2195 390 2400 803 
Q 2605 1216 2605 2138 
Q 2605 3053 2400 3465 
Q 2195 3878 1786 3878 
z
" transform="scale(0.015625)"/>
       </defs>
       <use xlink:href="#FiraSans-Regular-2212"/>
       <use xlink:href="#FiraSans-Regular-32" x="49.999985"/>
       <use xlink:href="#FiraSans-Regular-2e" x="99.499969"/>
       <use xlink:href="#FiraSans-Regular-30" x="123.499954"/>
      </g>
     </g>
    </g>
    <g id="xtick_3">
     <g id="line2d_3">
      <g>
       <use xlink:href="#md3b4e44d29" x="180.619739" y="296.923135" style="stroke: #000000; stroke-width: 0.8"/>
      </g>
     </g>
     <g id="text_3">
      <!-- −1.5 -->
      <g transform="translate(170.576302 312.923135) scale(0.12 -0.12)">
       <defs>
        <path id="FiraSans-Regular-31" d="M 2067 4282 
L 2067 0 
L 1478 0 
L 1478 3654 
L 480 3046 
L 224 3462 
L 1549 4282 
L 2067 4282 
z
" transform="scale(0.015625)"/>
       </defs>
       <use xlink:href="#FiraSans-Regular-2212"/>
       <use xlink:href="#FiraSans-Regular-31" x="49.999985"/>
       <use xlink:href="#FiraSans-Regular-2e" x="93.299973"/>
       <use xlink:href="#FiraSans-Regular-35" x="117.299957"/>
      </g>
     </g>
    </g>
    <g id="xtick_4">
     <g id="line2d_4">
      <g>
       <use xlink:href="#md3b4e44d29" x="236.272367" y="296.923135" style="stroke: #000000; stroke-width: 0.8"/>
      </g>
     </g>
     <g id="text_4">
      <!-- −1.0 -->
      <g transform="translate(225.886742 312.923135) scale(0.12 -0.12)">
       <use xlink:href="#FiraSans-Regular-2212"/>
       <use xlink:href="#FiraSans-Regular-31" x="49.999985"/>
       <use xlink:href="#FiraSans-Regular-2e" x="93.299973"/>
       <use xlink:href="#FiraSans-Regular-30" x="117.299957"/>
      </g>
     </g>
    </g>
    <g id="xtick_5">
     <g id="line2d_5">
      <g>
       <use xlink:href="#md3b4e44d29" x="291.924995" y="296.923135" style="stroke: #000000; stroke-width: 0.8"/>
      </g>
     </g>
     <g id="text_5">
      <!-- −0.5 -->
      <g transform="translate(281.131557 312.923135) scale(0.12 -0.12)">
       <use xlink:href="#FiraSans-Regular-2212"/>
       <use xlink:href="#FiraSans-Regular-30" x="49.999985"/>
       <use xlink:href="#FiraSans-Regular-2e" x="105.799973"/>
       <use xlink:href="#FiraSans-Regular-35" x="129.799957"/>
      </g>
     </g>
    </g>
    <g id="xtick_6">
     <g id="line2d_6">
      <g>
       <use xlink:href="#md3b4e44d29" x="347.577622" y="296.923135" style="stroke: #000000; stroke-width: 0.8"/>
      </g>
     </g>
     <g id="text_6">
      <!-- 0.0 -->
      <g transform="translate(339.441997 312.923135) scale(0.12 -0.12)">
       <use xlink:href="#FiraSans-Regular-30"/>
       <use xlink:href="#FiraSans-Regular-2e" x="55.799988"/>
       <use xlink:href="#FiraSans-Regular-30" x="79.799973"/>
      </g>
     </g>
    </g>
    <g id="text_7">
     <!-- (A - B) -->
     <g transform="translate(183.619842 328.803135) scale(0.12 -0.12)">
      <defs>
       <path id="FiraSans-Regular-28" d="M 1818 5152 
Q 1485 4659 1289 4272 
Q 1094 3885 982 3392 
Q 870 2899 870 2240 
Q 870 1587 982 1094 
Q 1094 602 1289 208 
Q 1485 -186 1818 -672 
L 1446 -928 
Q 1024 -326 797 61 
Q 570 448 413 989 
Q 256 1530 256 2240 
Q 256 2950 413 3491 
Q 570 4032 797 4419 
Q 1024 4806 1446 5408 
L 1818 5152 
z
" transform="scale(0.015625)"/>
       <path id="FiraSans-Regular-41" d="M 2989 0 
L 2656 1107 
L 986 1107 
L 653 0 
L 38 0 
L 1453 4410 
L 2221 4410 
L 3629 0 
L 2989 0 
z
M 1133 1600 
L 2509 1600 
L 1824 3904 
L 1133 1600 
z
" transform="scale(0.015625)"/>
       <path id="FiraSans-Regular-20" transform="scale(0.015625)"/>
       <path id="FiraSans-Regular-2d" d="M 384 1754 
L 384 2253 
L 2195 2253 
L 2195 1754 
L 384 1754 
z
" transform="scale(0.015625)"/>
       <path id="FiraSans-Regular-42" d="M 2586 2330 
Q 3040 2253 3321 2009 
Q 3603 1766 3603 1254 
Q 3603 0 1856 0 
L 640 0 
L 640 4410 
L 1683 4410 
Q 2522 4410 2966 4134 
Q 3411 3859 3411 3296 
Q 3411 2912 3171 2656 
Q 2931 2400 2586 2330 
z
M 1248 3930 
L 1248 2541 
L 1914 2541 
Q 2298 2541 2544 2726 
Q 2790 2912 2790 3251 
Q 2790 3635 2531 3782 
Q 2272 3930 1747 3930 
L 1248 3930 
z
M 1856 486 
Q 2394 486 2678 646 
Q 2963 806 2963 1254 
Q 2963 1690 2688 1882 
Q 2413 2074 1971 2074 
L 1248 2074 
L 1248 486 
L 1856 486 
z
" transform="scale(0.015625)"/>
       <path id="FiraSans-Regular-29" d="M 627 5408 
Q 1050 4806 1277 4419 
Q 1504 4032 1661 3491 
Q 1818 2950 1818 2240 
Q 1818 1530 1661 989 
Q 1504 448 1277 61 
Q 1050 -326 627 -928 
L 256 -672 
Q 589 -186 784 208 
Q 979 602 1091 1094 
Q 1203 1587 1203 2240 
Q 1203 2899 1091 3392 
Q 979 3885 784 4272 
Q 589 4659 256 5152 
L 627 5408 
z
" transform="scale(0.015625)"/>
      </defs>
      <use xlink:href="#FiraSans-Regular-28"/>
      <use xlink:href="#FiraSans-Regular-41" x="32.399994"/>
      <use xlink:href="#FiraSans-Regular-20" x="89.699982"/>
      <use xlink:href="#FiraSans-Regular-2d" x="116.199966"/>
      <use xlink:href="#FiraSans-Regular-20" x="156.499954"/>
      <use xlink:href="#FiraSans-Regular-42" x="182.999939"/>
      <use xlink:href="#FiraSans-Regular-29" x="243.799927"/>
     </g>
    </g>
    <g id="text_8">
     <!-- 1e−5 -->
     <g transform="translate(333.574685 327.47876) scale(0.12 -0.12)">
      <defs>
       <path id="FiraSans-Regular-65" d="M 3155 1786 
Q 3155 1638 3142 1485 
L 992 1485 
Q 1030 928 1273 665 
Q 1517 403 1901 403 
Q 2144 403 2349 473 
Q 2554 544 2778 698 
L 3034 346 
Q 2496 -77 1856 -77 
Q 1152 -77 758 384 
Q 365 845 365 1651 
Q 365 2176 534 2582 
Q 704 2989 1021 3219 
Q 1338 3450 1766 3450 
Q 2438 3450 2796 3008 
Q 3155 2566 3155 1786 
z
M 2573 1958 
Q 2573 2458 2374 2720 
Q 2176 2982 1779 2982 
Q 1056 2982 992 1920 
L 2573 1920 
L 2573 1958 
z
" transform="scale(0.015625)"/>
      </defs>
      <use xlink:href="#FiraSans-Regular-31"/>
      <use xlink:href="#FiraSans-Regular-65" x="43.299988"/>
      <use xlink:href="#FiraSans-Regular-2212" x="97.799973"/>
      <use xlink:href="#FiraSans-Regular-35" x="147.799957"/>
     </g>
    </g>
   </g>
   <g id="matplotlib.axis_2">
    <g id="ytick_1">
     <g id="line2d_7">
      <defs>
       <path id="m79d5cd0559" d="M 0 0 
L -3.5 0 
" style="stroke: #000000; stroke-width: 0.8"/>
      </defs>
      <g>
       <use xlink:href="#m79d5cd0559" x="43.0625" y="296.923135" style="stroke: #000000; stroke-width: 0.8"/>
      </g>
     </g>
     <g id="text_9">
      <!-- 0 -->
      <g transform="translate(29.366875 301.423135) scale(0.12 -0.12)">
       <use xlink:href="#FiraSans-Regular-30"/>
      </g>
     </g>
    </g>
    <g id="ytick_2">
     <g id="line2d_8">
      <g>
       <use xlink:href="#m79d5cd0559" x="43.0625" y="236.825874" style="stroke: #000000; stroke-width: 0.8"/>
      </g>
     </g>
     <g id="text_10">
      <!-- 20 -->
      <g transform="translate(23.426875 241.325874) scale(0.12 -0.12)">
       <use xlink:href="#FiraSans-Regular-32"/>
       <use xlink:href="#FiraSans-Regular-30" x="49.499985"/>
      </g>
     </g>
    </g>
    <g id="ytick_3">
     <g id="line2d_9">
      <g>
       <use xlink:href="#m79d5cd0559" x="43.0625" y="176.728612" style="stroke: #000000; stroke-width: 0.8"/>
      </g>
     </g>
     <g id="text_11">
      <!-- 40 -->
      <g transform="translate(22.9825 181.228612) scale(0.12 -0.12)">
       <defs>
        <path id="FiraSans-Regular-34" d="M 3213 1523 
L 3213 1056 
L 2656 1056 
L 2656 0 
L 2086 0 
L 2086 1056 
L 256 1056 
L 256 1478 
L 1542 4346 
L 2035 4141 
L 877 1523 
L 2093 1523 
L 2144 2675 
L 2656 2675 
L 2656 1523 
L 3213 1523 
z
" transform="scale(0.015625)"/>
       </defs>
       <use xlink:href="#FiraSans-Regular-34"/>
       <use xlink:href="#FiraSans-Regular-30" x="53.199997"/>
      </g>
     </g>
    </g>
    <g id="ytick_4">
     <g id="line2d_10">
      <g>
       <use xlink:href="#m79d5cd0559" x="43.0625" y="116.631351" style="stroke: #000000; stroke-width: 0.8"/>
      </g>
     </g>
     <g id="text_12">
      <!-- 60 -->
      <g transform="translate(22.97125 121.131351) scale(0.12 -0.12)">
       <defs>
        <path id="FiraSans-Regular-36" d="M 1971 2816 
Q 2298 2816 2566 2662 
Q 2835 2509 2995 2201 
Q 3155 1894 3155 1453 
Q 3155 998 2972 649 
Q 2790 301 2480 112 
Q 2170 -77 1792 -77 
Q 1043 -77 697 476 
Q 352 1030 352 2010 
Q 352 2707 547 3235 
Q 742 3763 1107 4054 
Q 1472 4346 1971 4346 
Q 2458 4346 2854 4083 
L 2624 3693 
Q 2323 3878 1965 3878 
Q 1504 3878 1235 3436 
Q 966 2995 941 2253 
Q 1338 2816 1971 2816 
z
M 1792 390 
Q 2163 390 2361 672 
Q 2560 954 2560 1434 
Q 2560 2349 1869 2349 
Q 1587 2349 1350 2192 
Q 1114 2035 947 1760 
Q 966 1056 1168 723 
Q 1370 390 1792 390 
z
" transform="scale(0.015625)"/>
       </defs>
       <use xlink:href="#FiraSans-Regular-36"/>
       <use xlink:href="#FiraSans-Regular-30" x="53.299988"/>
      </g>
     </g>
    </g>
    <g id="ytick_5">
     <g id="line2d_11">
      <g>
       <use xlink:href="#m79d5cd0559" x="43.0625" y="56.53409" style="stroke: #000000; stroke-width: 0.8"/>
      </g>
     </g>
     <g id="text_13">
      <!-- 80 -->
      <g transform="translate(22.755625 61.03409) scale(0.12 -0.12)">
       <defs>
        <path id="FiraSans-Regular-38" d="M 2336 2298 
Q 3238 1933 3238 1146 
Q 3238 794 3049 515 
Q 2861 237 2521 80 
Q 2182 -77 1754 -77 
Q 1318 -77 985 76 
Q 653 230 470 505 
Q 288 781 288 1133 
Q 288 1530 502 1798 
Q 717 2067 1133 2246 
Q 794 2419 630 2665 
Q 467 2912 467 3245 
Q 467 3590 649 3840 
Q 832 4090 1129 4218 
Q 1427 4346 1766 4346 
Q 2099 4346 2396 4224 
Q 2694 4102 2880 3856 
Q 3066 3610 3066 3264 
Q 3066 2944 2886 2713 
Q 2707 2483 2336 2298 
z
M 1766 3904 
Q 1434 3904 1238 3731 
Q 1043 3558 1043 3238 
Q 1043 2931 1232 2771 
Q 1421 2611 1837 2477 
L 1946 2438 
Q 2234 2605 2362 2790 
Q 2490 2976 2490 3245 
Q 2490 3546 2301 3725 
Q 2112 3904 1766 3904 
z
M 1760 390 
Q 2157 390 2390 595 
Q 2624 800 2624 1139 
Q 2624 1370 2534 1526 
Q 2445 1683 2246 1801 
Q 2048 1920 1690 2042 
L 1530 2099 
Q 1210 1946 1056 1712 
Q 902 1478 902 1133 
Q 902 781 1132 585 
Q 1363 390 1760 390 
z
" transform="scale(0.015625)"/>
       </defs>
       <use xlink:href="#FiraSans-Regular-38"/>
       <use xlink:href="#FiraSans-Regular-30" x="55.099991"/>
      </g>
     </g>
    </g>
    <g id="text_14">
     <!-- Frequency -->
     <g transform="translate(16.2 189.470442) rotate(-90) scale(0.12 -0.12)">
      <defs>
       <path id="FiraSans-Regular-46" d="M 640 0 
L 640 4410 
L 2982 4410 
L 2912 3923 
L 1248 3923 
L 1248 2419 
L 2688 2419 
L 2688 1939 
L 1248 1939 
L 1248 0 
L 640 0 
z
" transform="scale(0.015625)"/>
       <path id="FiraSans-Regular-72" d="M 2074 3450 
Q 2253 3450 2406 3411 
L 2298 2835 
Q 2144 2874 2003 2874 
Q 1690 2874 1498 2643 
Q 1306 2413 1197 1926 
L 1197 0 
L 608 0 
L 608 3373 
L 1114 3373 
L 1171 2688 
Q 1306 3066 1536 3258 
Q 1766 3450 2074 3450 
z
" transform="scale(0.015625)"/>
       <path id="FiraSans-Regular-71" d="M 3219 3373 
L 3219 -1363 
L 2630 -1293 
L 2630 448 
Q 2464 198 2217 60 
Q 1971 -77 1670 -77 
Q 1069 -77 733 396 
Q 397 870 397 1670 
Q 397 2189 557 2592 
Q 717 2995 1017 3222 
Q 1318 3450 1722 3450 
Q 2259 3450 2669 2995 
L 2714 3373 
L 3219 3373 
z
M 1798 390 
Q 2067 390 2259 515 
Q 2451 640 2630 890 
L 2630 2541 
Q 2464 2758 2275 2870 
Q 2086 2982 1850 2982 
Q 1459 2982 1244 2656 
Q 1030 2330 1030 1683 
Q 1030 1030 1228 710 
Q 1427 390 1798 390 
z
" transform="scale(0.015625)"/>
       <path id="FiraSans-Regular-75" d="M 3117 0 
L 2611 0 
L 2566 525 
Q 2374 211 2124 67 
Q 1875 -77 1517 -77 
Q 1075 -77 825 192 
Q 576 461 576 954 
L 576 3373 
L 1165 3373 
L 1165 1018 
Q 1165 672 1286 528 
Q 1408 384 1683 384 
Q 2176 384 2528 966 
L 2528 3373 
L 3117 3373 
L 3117 0 
z
" transform="scale(0.015625)"/>
       <path id="FiraSans-Regular-6e" d="M 2195 3450 
Q 2656 3450 2915 3174 
Q 3174 2899 3174 2419 
L 3174 0 
L 2586 0 
L 2586 2336 
Q 2586 2694 2451 2841 
Q 2317 2989 2054 2989 
Q 1786 2989 1581 2835 
Q 1376 2682 1197 2394 
L 1197 0 
L 608 0 
L 608 3373 
L 1114 3373 
L 1165 2874 
Q 1344 3142 1609 3296 
Q 1875 3450 2195 3450 
z
" transform="scale(0.015625)"/>
       <path id="FiraSans-Regular-63" d="M 1837 3450 
Q 2138 3450 2387 3363 
Q 2637 3277 2867 3085 
L 2586 2714 
Q 2406 2842 2236 2902 
Q 2067 2963 1862 2963 
Q 1453 2963 1225 2636 
Q 998 2310 998 1670 
Q 998 1030 1222 726 
Q 1446 422 1862 422 
Q 2061 422 2227 483 
Q 2394 544 2598 678 
L 2867 294 
Q 2406 -77 1837 -77 
Q 1152 -77 758 384 
Q 365 845 365 1658 
Q 365 2195 544 2598 
Q 723 3002 1052 3226 
Q 1382 3450 1837 3450 
z
" transform="scale(0.015625)"/>
       <path id="FiraSans-Regular-79" d="M 1958 -19 
Q 1760 -608 1405 -950 
Q 1050 -1293 390 -1363 
L 326 -902 
Q 659 -845 857 -736 
Q 1056 -627 1174 -457 
Q 1293 -288 1395 0 
L 1197 0 
L 64 3373 
L 691 3373 
L 1594 429 
L 2477 3373 
L 3085 3373 
L 1958 -19 
z
" transform="scale(0.015625)"/>
      </defs>
      <use xlink:href="#FiraSans-Regular-46"/>
      <use xlink:href="#FiraSans-Regular-72" x="49.099991"/>
      <use xlink:href="#FiraSans-Regular-65" x="87.699982"/>
      <use xlink:href="#FiraSans-Regular-71" x="142.199966"/>
      <use xlink:href="#FiraSans-Regular-75" x="201.999954"/>
      <use xlink:href="#FiraSans-Regular-65" x="260.199951"/>
      <use xlink:href="#FiraSans-Regular-6e" x="314.699936"/>
      <use xlink:href="#FiraSans-Regular-63" x="373.299927"/>
      <use xlink:href="#FiraSans-Regular-79" x="421.099915"/>
     </g>
    </g>
   </g>
   <g id="line2d_12">
    <path d="M 285.304841 296.923135 
L 285.304841 25.584 
" clip-path="url(#p0256c131fd)" style="fill: none; stroke-dasharray: 3.7,1.6; stroke-dashoffset: 0; stroke: #414141"/>
   </g>
   <g id="patch_33">
    <path d="M 43.0625 296.923135 
L 43.0625 25.584 
" style="fill: none; stroke: #000000; stroke-width: 0.8; stroke-linejoin: miter; stroke-linecap: square"/>
   </g>
   <g id="patch_34">
    <path d="M 357.32156 296.923135 
L 357.32156 25.584 
" style="fill: none; stroke: #000000; stroke-width: 0.8; stroke-linejoin: miter; stroke-linecap: square"/>
   </g>
   <g id="patch_35">
    <path d="M 43.0625 296.923135 
L 357.32156 296.923135 
" style="fill: none; stroke: #000000; stroke-width: 0.8; stroke-linejoin: miter; stroke-linecap: square"/>
   </g>
   <g id="patch_36">
    <path d="M 43.0625 25.584 
L 357.32156 25.584 
" style="fill: none; stroke: #000000; stroke-width: 0.8; stroke-linejoin: miter; stroke-linecap: square"/>
   </g>
   <g id="text_15">
    <!-- Human health (DALY kg$^\mathdefault{-1}$) -->
    <g transform="translate(116.67203 19.584) scale(0.144 -0.144)">
     <defs>
      <path id="FiraSans-Regular-48" d="M 3104 0 
L 3104 2067 
L 1248 2067 
L 1248 0 
L 640 0 
L 640 4410 
L 1248 4410 
L 1248 2566 
L 3104 2566 
L 3104 4410 
L 3712 4410 
L 3712 0 
L 3104 0 
z
" transform="scale(0.015625)"/>
      <path id="FiraSans-Regular-6d" d="M 3994 3450 
Q 4410 3450 4659 3171 
Q 4909 2893 4909 2419 
L 4909 0 
L 4320 0 
L 4320 2336 
Q 4320 2989 3846 2989 
Q 3597 2989 3424 2845 
Q 3251 2701 3053 2394 
L 3053 0 
L 2464 0 
L 2464 2336 
Q 2464 2989 1990 2989 
Q 1734 2989 1561 2841 
Q 1389 2694 1197 2394 
L 1197 0 
L 608 0 
L 608 3373 
L 1114 3373 
L 1165 2880 
Q 1542 3450 2138 3450 
Q 2451 3450 2672 3290 
Q 2893 3130 2989 2842 
Q 3187 3136 3427 3293 
Q 3667 3450 3994 3450 
z
" transform="scale(0.015625)"/>
      <path id="FiraSans-Regular-61" d="M 2880 787 
Q 2880 582 2950 483 
Q 3021 384 3162 333 
L 3027 -77 
Q 2765 -45 2605 70 
Q 2445 186 2368 429 
Q 2029 -77 1363 -77 
Q 864 -77 576 204 
Q 288 486 288 941 
Q 288 1478 675 1766 
Q 1062 2054 1773 2054 
L 2291 2054 
L 2291 2304 
Q 2291 2662 2118 2816 
Q 1946 2970 1587 2970 
Q 1216 2970 678 2790 
L 531 3219 
Q 1158 3450 1696 3450 
Q 2291 3450 2585 3158 
Q 2880 2867 2880 2330 
L 2880 787 
z
M 1498 365 
Q 2003 365 2291 890 
L 2291 1664 
L 1850 1664 
Q 915 1664 915 973 
Q 915 672 1062 518 
Q 1210 365 1498 365 
z
" transform="scale(0.015625)"/>
      <path id="FiraSans-Regular-68" d="M 2195 3450 
Q 2656 3450 2915 3174 
Q 3174 2899 3174 2419 
L 3174 0 
L 2586 0 
L 2586 2336 
Q 2586 2694 2448 2841 
Q 2310 2989 2048 2989 
Q 1786 2989 1581 2835 
Q 1376 2682 1197 2400 
L 1197 0 
L 608 0 
L 608 4723 
L 1197 4787 
L 1197 2906 
Q 1594 3450 2195 3450 
z
" transform="scale(0.015625)"/>
      <path id="FiraSans-Regular-6c" d="M 1280 -77 
Q 954 -77 765 118 
Q 576 314 576 666 
L 576 4730 
L 1165 4800 
L 1165 678 
Q 1165 538 1213 474 
Q 1261 410 1376 410 
Q 1498 410 1594 448 
L 1747 38 
Q 1536 -77 1280 -77 
z
" transform="scale(0.015625)"/>
      <path id="FiraSans-Regular-74" d="M 2310 154 
Q 1978 -77 1555 -77 
Q 1126 -77 886 169 
Q 646 416 646 883 
L 646 2918 
L 58 2918 
L 58 3373 
L 646 3373 
L 646 4134 
L 1235 4205 
L 1235 3373 
L 2035 3373 
L 1971 2918 
L 1235 2918 
L 1235 909 
Q 1235 646 1328 528 
Q 1421 410 1638 410 
Q 1837 410 2086 544 
L 2310 154 
z
" transform="scale(0.015625)"/>
      <path id="FiraSans-Regular-44" d="M 1562 4410 
Q 2560 4410 3165 3946 
Q 3770 3482 3770 2227 
Q 3770 1005 3165 502 
Q 2560 0 1696 0 
L 640 0 
L 640 4410 
L 1562 4410 
z
M 1248 3923 
L 1248 480 
L 1741 480 
Q 2355 480 2739 857 
Q 3123 1235 3123 2227 
Q 3123 2925 2924 3299 
Q 2726 3674 2419 3798 
Q 2112 3923 1696 3923 
L 1248 3923 
z
" transform="scale(0.015625)"/>
      <path id="FiraSans-Regular-4c" d="M 1248 4410 
L 1248 531 
L 3059 531 
L 2989 0 
L 640 0 
L 640 4410 
L 1248 4410 
z
" transform="scale(0.015625)"/>
      <path id="FiraSans-Regular-59" d="M 3488 4410 
L 2067 1696 
L 2067 0 
L 1453 0 
L 1453 1690 
L 32 4410 
L 704 4410 
L 1779 2227 
L 2854 4410 
L 3488 4410 
z
" transform="scale(0.015625)"/>
      <path id="FiraSans-Regular-6b" d="M 1197 4800 
L 1197 0 
L 608 0 
L 608 4730 
L 1197 4800 
z
M 3136 3373 
L 1894 1882 
L 3277 0 
L 2573 0 
L 1235 1843 
L 2477 3373 
L 3136 3373 
z
" transform="scale(0.015625)"/>
      <path id="FiraSans-Regular-67" d="M 3328 3219 
Q 3136 3155 2905 3136 
Q 2675 3117 2342 3117 
Q 2938 2848 2938 2266 
Q 2938 1760 2592 1440 
Q 2246 1120 1651 1120 
Q 1421 1120 1222 1184 
Q 1146 1133 1101 1046 
Q 1056 960 1056 870 
Q 1056 595 1498 595 
L 2035 595 
Q 2374 595 2636 473 
Q 2899 352 3043 141 
Q 3187 -70 3187 -339 
Q 3187 -832 2784 -1097 
Q 2381 -1363 1606 -1363 
Q 1062 -1363 745 -1251 
Q 429 -1139 294 -915 
Q 160 -691 160 -339 
L 691 -339 
Q 691 -544 768 -662 
Q 845 -781 1043 -841 
Q 1242 -902 1606 -902 
Q 2138 -902 2365 -771 
Q 2592 -640 2592 -378 
Q 2592 -141 2413 -19 
Q 2234 102 1914 102 
L 1382 102 
Q 954 102 733 284 
Q 512 467 512 742 
Q 512 909 608 1062 
Q 704 1216 883 1338 
Q 589 1491 451 1718 
Q 314 1946 314 2272 
Q 314 2611 483 2880 
Q 653 3149 950 3299 
Q 1248 3450 1613 3450 
Q 2010 3443 2278 3478 
Q 2547 3514 2723 3574 
Q 2899 3635 3155 3750 
L 3328 3219 
z
M 1613 3027 
Q 1280 3027 1097 2819 
Q 915 2611 915 2272 
Q 915 1926 1100 1718 
Q 1286 1510 1626 1510 
Q 1971 1510 2153 1712 
Q 2336 1914 2336 2278 
Q 2336 3027 1613 3027 
z
" transform="scale(0.015625)"/>
     </defs>
     <use xlink:href="#FiraSans-Regular-48" transform="translate(0 0.884375)"/>
     <use xlink:href="#FiraSans-Regular-75" transform="translate(67.999985 0.884375)"/>
     <use xlink:href="#FiraSans-Regular-6d" transform="translate(126.199982 0.884375)"/>
     <use xlink:href="#FiraSans-Regular-61" transform="translate(211.899963 0.884375)"/>
     <use xlink:href="#FiraSans-Regular-6e" transform="translate(266.299957 0.884375)"/>
     <use xlink:href="#FiraSans-Regular-20" transform="translate(324.899948 0.884375)"/>
     <use xlink:href="#FiraSans-Regular-68" transform="translate(351.399933 0.884375)"/>
     <use xlink:href="#FiraSans-Regular-65" transform="translate(409.999924 0.884375)"/>
     <use xlink:href="#FiraSans-Regular-61" transform="translate(464.499908 0.884375)"/>
     <use xlink:href="#FiraSans-Regular-6c" transform="translate(518.899902 0.884375)"/>
     <use xlink:href="#FiraSans-Regular-74" transform="translate(548.19989 0.884375)"/>
     <use xlink:href="#FiraSans-Regular-68" transform="translate(584.299881 0.884375)"/>
     <use xlink:href="#FiraSans-Regular-20" transform="translate(642.899872 0.884375)"/>
     <use xlink:href="#FiraSans-Regular-28" transform="translate(669.399857 0.884375)"/>
     <use xlink:href="#FiraSans-Regular-44" transform="translate(701.79985 0.884375)"/>
     <use xlink:href="#FiraSans-Regular-41" transform="translate(766.199844 0.884375)"/>
     <use xlink:href="#FiraSans-Regular-4c" transform="translate(823.499832 0.884375)"/>
     <use xlink:href="#FiraSans-Regular-59" transform="translate(873.29982 0.884375)"/>
     <use xlink:href="#FiraSans-Regular-20" transform="translate(928.299805 0.884375)"/>
     <use xlink:href="#FiraSans-Regular-6b" transform="translate(954.799789 0.884375)"/>
     <use xlink:href="#FiraSans-Regular-67" transform="translate(1005.999786 0.884375)"/>
     <use xlink:href="#FiraSans-Regular-2212" transform="translate(1058.956802 39.165625) scale(0.7)"/>
     <use xlink:href="#FiraSans-Regular-31" transform="translate(1093.956792 39.165625) scale(0.7)"/>
     <use xlink:href="#FiraSans-Regular-29" transform="translate(1127.001158 0.884375)"/>
    </g>
   </g>
  </g>
  <g id="axes_2">
   <g id="patch_37">
    <path d="M 373.78156 296.923135 
L 688.04062 296.923135 
L 688.04062 25.584 
L 373.78156 25.584 
z
" style="fill: #ffffff"/>
   </g>
   <g id="patch_38">
    <path d="M 388.066063 296.923135 
L 397.589065 296.923135 
L 397.589065 293.918272 
L 388.066063 293.918272 
z
" clip-path="url(#pde3e98b60f)" style="fill: #7cc582; stroke: #414141; stroke-linejoin: miter"/>
   </g>
   <g id="patch_39">
    <path d="M 397.589065 296.923135 
L 407.112066 296.923135 
L 407.112066 287.908546 
L 397.589065 287.908546 
z
" clip-path="url(#pde3e98b60f)" style="fill: #7cc582; stroke: #414141; stroke-linejoin: miter"/>
   </g>
   <g id="patch_40">
    <path d="M 407.112066 296.923135 
L 416.635068 296.923135 
L 416.635068 293.918272 
L 407.112066 293.918272 
z
" clip-path="url(#pde3e98b60f)" style="fill: #7cc582; stroke: #414141; stroke-linejoin: miter"/>
   </g>
   <g id="patch_41">
    <path d="M 416.635068 296.923135 
L 426.15807 296.923135 
L 426.15807 284.903683 
L 416.635068 284.903683 
z
" clip-path="url(#pde3e98b60f)" style="fill: #7cc582; stroke: #414141; stroke-linejoin: miter"/>
   </g>
   <g id="patch_42">
    <path d="M 426.15807 296.923135 
L 435.681072 296.923135 
L 435.681072 293.918272 
L 426.15807 293.918272 
z
" clip-path="url(#pde3e98b60f)" style="fill: #7cc582; stroke: #414141; stroke-linejoin: miter"/>
   </g>
   <g id="patch_43">
    <path d="M 435.681072 296.923135 
L 445.204074 296.923135 
L 445.204074 287.908546 
L 435.681072 287.908546 
z
" clip-path="url(#pde3e98b60f)" style="fill: #7cc582; stroke: #414141; stroke-linejoin: miter"/>
   </g>
   <g id="patch_44">
    <path d="M 445.204074 296.923135 
L 454.727075 296.923135 
L 454.727075 290.913409 
L 445.204074 290.913409 
z
" clip-path="url(#pde3e98b60f)" style="fill: #7cc582; stroke: #414141; stroke-linejoin: miter"/>
   </g>
   <g id="patch_45">
    <path d="M 454.727075 296.923135 
L 464.250077 296.923135 
L 464.250077 290.913409 
L 454.727075 290.913409 
z
" clip-path="url(#pde3e98b60f)" style="fill: #7cc582; stroke: #414141; stroke-linejoin: miter"/>
   </g>
   <g id="patch_46">
    <path d="M 464.250077 296.923135 
L 473.773079 296.923135 
L 473.773079 287.908546 
L 464.250077 287.908546 
z
" clip-path="url(#pde3e98b60f)" style="fill: #7cc582; stroke: #414141; stroke-linejoin: miter"/>
   </g>
   <g id="patch_47">
    <path d="M 473.773079 296.923135 
L 483.296081 296.923135 
L 483.296081 290.913409 
L 473.773079 290.913409 
z
" clip-path="url(#pde3e98b60f)" style="fill: #7cc582; stroke: #414141; stroke-linejoin: miter"/>
   </g>
   <g id="patch_48">
    <path d="M 483.296081 296.923135 
L 492.819083 296.923135 
L 492.819083 257.859915 
L 483.296081 257.859915 
z
" clip-path="url(#pde3e98b60f)" style="fill: #7cc582; stroke: #414141; stroke-linejoin: miter"/>
   </g>
   <g id="patch_49">
    <path d="M 492.819083 296.923135 
L 502.342085 296.923135 
L 502.342085 266.874504 
L 492.819083 266.874504 
z
" clip-path="url(#pde3e98b60f)" style="fill: #7cc582; stroke: #414141; stroke-linejoin: miter"/>
   </g>
   <g id="patch_50">
    <path d="M 502.342085 296.923135 
L 511.865086 296.923135 
L 511.865086 260.864778 
L 502.342085 260.864778 
z
" clip-path="url(#pde3e98b60f)" style="fill: #7cc582; stroke: #414141; stroke-linejoin: miter"/>
   </g>
   <g id="patch_51">
    <path d="M 511.865086 296.923135 
L 521.388088 296.923135 
L 521.388088 248.845326 
L 511.865086 248.845326 
z
" clip-path="url(#pde3e98b60f)" style="fill: #7cc582; stroke: #414141; stroke-linejoin: miter"/>
   </g>
   <g id="patch_52">
    <path d="M 521.388088 296.923135 
L 530.91109 296.923135 
L 530.91109 251.850189 
L 521.388088 251.850189 
z
" clip-path="url(#pde3e98b60f)" style="fill: #7cc582; stroke: #414141; stroke-linejoin: miter"/>
   </g>
   <g id="patch_53">
    <path d="M 530.91109 296.923135 
L 540.434092 296.923135 
L 540.434092 233.821011 
L 530.91109 233.821011 
z
" clip-path="url(#pde3e98b60f)" style="fill: #7cc582; stroke: #414141; stroke-linejoin: miter"/>
   </g>
   <g id="patch_54">
    <path d="M 540.434092 296.923135 
L 549.957094 296.923135 
L 549.957094 191.752928 
L 540.434092 191.752928 
z
" clip-path="url(#pde3e98b60f)" style="fill: #7cc582; stroke: #414141; stroke-linejoin: miter"/>
   </g>
   <g id="patch_55">
    <path d="M 549.957094 296.923135 
L 559.480095 296.923135 
L 559.480095 212.786969 
L 549.957094 212.786969 
z
" clip-path="url(#pde3e98b60f)" style="fill: #7cc582; stroke: #414141; stroke-linejoin: miter"/>
   </g>
   <g id="patch_56">
    <path d="M 559.480095 296.923135 
L 569.003097 296.923135 
L 569.003097 155.694571 
L 559.480095 155.694571 
z
" clip-path="url(#pde3e98b60f)" style="fill: #7cc582; stroke: #414141; stroke-linejoin: miter"/>
   </g>
   <g id="patch_57">
    <path d="M 569.003097 296.923135 
L 578.526099 296.923135 
L 578.526099 194.757791 
L 569.003097 194.757791 
z
" clip-path="url(#pde3e98b60f)" style="fill: #7cc582; stroke: #414141; stroke-linejoin: miter"/>
   </g>
   <g id="patch_58">
    <path d="M 578.526099 296.923135 
L 588.049101 296.923135 
L 588.049101 179.733475 
L 578.526099 179.733475 
z
" clip-path="url(#pde3e98b60f)" style="fill: #7cc582; stroke: #414141; stroke-linejoin: miter"/>
   </g>
   <g id="patch_59">
    <path d="M 588.049101 296.923135 
L 597.572103 296.923135 
L 597.572103 191.752928 
L 588.049101 191.752928 
z
" clip-path="url(#pde3e98b60f)" style="fill: #7cc582; stroke: #414141; stroke-linejoin: miter"/>
   </g>
   <g id="patch_60">
    <path d="M 597.572103 296.923135 
L 607.095105 296.923135 
L 607.095105 164.70916 
L 597.572103 164.70916 
z
" clip-path="url(#pde3e98b60f)" style="fill: #7cc582; stroke: #414141; stroke-linejoin: miter"/>
   </g>
   <g id="patch_61">
    <path d="M 607.095105 296.923135 
L 616.618106 296.923135 
L 616.618106 182.738338 
L 607.095105 182.738338 
z
" clip-path="url(#pde3e98b60f)" style="fill: #7cc582; stroke: #414141; stroke-linejoin: miter"/>
   </g>
   <g id="patch_62">
    <path d="M 616.618106 296.923135 
L 626.141108 296.923135 
L 626.141108 206.777243 
L 616.618106 206.777243 
z
" clip-path="url(#pde3e98b60f)" style="fill: #7cc582; stroke: #414141; stroke-linejoin: miter"/>
   </g>
   <g id="patch_63">
    <path d="M 626.141108 296.923135 
L 635.66411 296.923135 
L 635.66411 227.811284 
L 626.141108 227.811284 
z
" clip-path="url(#pde3e98b60f)" style="fill: #7cc582; stroke: #414141; stroke-linejoin: miter"/>
   </g>
   <g id="patch_64">
    <path d="M 635.66411 296.923135 
L 645.187112 296.923135 
L 645.187112 236.825874 
L 635.66411 236.825874 
z
" clip-path="url(#pde3e98b60f)" style="fill: #7cc582; stroke: #414141; stroke-linejoin: miter"/>
   </g>
   <g id="patch_65">
    <path d="M 645.187112 296.923135 
L 654.710114 296.923135 
L 654.710114 284.903683 
L 645.187112 284.903683 
z
" clip-path="url(#pde3e98b60f)" style="fill: #7cc582; stroke: #414141; stroke-linejoin: miter"/>
   </g>
   <g id="patch_66">
    <path d="M 654.710114 296.923135 
L 664.233115 296.923135 
L 664.233115 275.889094 
L 654.710114 275.889094 
z
" clip-path="url(#pde3e98b60f)" style="fill: #7cc582; stroke: #414141; stroke-linejoin: miter"/>
   </g>
   <g id="patch_67">
    <path d="M 664.233115 296.923135 
L 673.756117 296.923135 
L 673.756117 275.889094 
L 664.233115 275.889094 
z
" clip-path="url(#pde3e98b60f)" style="fill: #7cc582; stroke: #414141; stroke-linejoin: miter"/>
   </g>
   <g id="matplotlib.axis_3">
    <g id="xtick_7">
     <g id="line2d_13">
      <g>
       <use xlink:href="#md3b4e44d29" x="386.352775" y="296.923135" style="stroke: #000000; stroke-width: 0.8"/>
      </g>
     </g>
     <g id="text_16">
      <!-- −3.5 -->
      <g transform="translate(375.912775 312.923135) scale(0.12 -0.12)">
       <defs>
        <path id="FiraSans-Regular-33" d="M 1440 4346 
Q 1837 4346 2121 4198 
Q 2406 4051 2556 3801 
Q 2707 3552 2707 3258 
Q 2707 2867 2480 2614 
Q 2253 2362 1875 2272 
Q 2304 2234 2573 1965 
Q 2842 1696 2842 1235 
Q 2842 864 2662 563 
Q 2483 262 2150 92 
Q 1818 -77 1382 -77 
Q 992 -77 665 67 
Q 339 211 96 499 
L 448 826 
Q 659 608 880 505 
Q 1101 403 1363 403 
Q 1766 403 1996 630 
Q 2227 858 2227 1242 
Q 2227 1664 2009 1837 
Q 1792 2010 1376 2010 
L 1056 2010 
L 1126 2464 
L 1344 2464 
Q 1677 2464 1897 2662 
Q 2118 2861 2118 3219 
Q 2118 3520 1926 3696 
Q 1734 3872 1408 3872 
Q 1158 3872 950 3782 
Q 742 3693 525 3488 
L 218 3840 
Q 762 4346 1440 4346 
z
" transform="scale(0.015625)"/>
       </defs>
       <use xlink:href="#FiraSans-Regular-2212"/>
       <use xlink:href="#FiraSans-Regular-33" x="49.999985"/>
       <use xlink:href="#FiraSans-Regular-2e" x="99.899979"/>
       <use xlink:href="#FiraSans-Regular-35" x="123.899963"/>
      </g>
     </g>
    </g>
    <g id="xtick_8">
     <g id="line2d_14">
      <g>
       <use xlink:href="#md3b4e44d29" x="433.327034" y="296.923135" style="stroke: #000000; stroke-width: 0.8"/>
      </g>
     </g>
     <g id="text_17">
      <!-- −3.0 -->
      <g transform="translate(422.544847 312.923135) scale(0.12 -0.12)">
       <use xlink:href="#FiraSans-Regular-2212"/>
       <use xlink:href="#FiraSans-Regular-33" x="49.999985"/>
       <use xlink:href="#FiraSans-Regular-2e" x="99.899979"/>
       <use xlink:href="#FiraSans-Regular-30" x="123.899963"/>
      </g>
     </g>
    </g>
    <g id="xtick_9">
     <g id="line2d_15">
      <g>
       <use xlink:href="#md3b4e44d29" x="480.301293" y="296.923135" style="stroke: #000000; stroke-width: 0.8"/>
      </g>
     </g>
     <g id="text_18">
      <!-- −2.5 -->
      <g transform="translate(469.885668 312.923135) scale(0.12 -0.12)">
       <use xlink:href="#FiraSans-Regular-2212"/>
       <use xlink:href="#FiraSans-Regular-32" x="49.999985"/>
       <use xlink:href="#FiraSans-Regular-2e" x="99.499969"/>
       <use xlink:href="#FiraSans-Regular-35" x="123.499954"/>
      </g>
     </g>
    </g>
    <g id="xtick_10">
     <g id="line2d_16">
      <g>
       <use xlink:href="#md3b4e44d29" x="527.275552" y="296.923135" style="stroke: #000000; stroke-width: 0.8"/>
      </g>
     </g>
     <g id="text_19">
      <!-- −2.0 -->
      <g transform="translate(516.51774 312.923135) scale(0.12 -0.12)">
       <use xlink:href="#FiraSans-Regular-2212"/>
       <use xlink:href="#FiraSans-Regular-32" x="49.999985"/>
       <use xlink:href="#FiraSans-Regular-2e" x="99.499969"/>
       <use xlink:href="#FiraSans-Regular-30" x="123.499954"/>
      </g>
     </g>
    </g>
    <g id="xtick_11">
     <g id="line2d_17">
      <g>
       <use xlink:href="#md3b4e44d29" x="574.249812" y="296.923135" style="stroke: #000000; stroke-width: 0.8"/>
      </g>
     </g>
     <g id="text_20">
      <!-- −1.5 -->
      <g transform="translate(564.206374 312.923135) scale(0.12 -0.12)">
       <use xlink:href="#FiraSans-Regular-2212"/>
       <use xlink:href="#FiraSans-Regular-31" x="49.999985"/>
       <use xlink:href="#FiraSans-Regular-2e" x="93.299973"/>
       <use xlink:href="#FiraSans-Regular-35" x="117.299957"/>
      </g>
     </g>
    </g>
    <g id="xtick_12">
     <g id="line2d_18">
      <g>
       <use xlink:href="#md3b4e44d29" x="621.224071" y="296.923135" style="stroke: #000000; stroke-width: 0.8"/>
      </g>
     </g>
     <g id="text_21">
      <!-- −1.0 -->
      <g transform="translate(610.838446 312.923135) scale(0.12 -0.12)">
       <use xlink:href="#FiraSans-Regular-2212"/>
       <use xlink:href="#FiraSans-Regular-31" x="49.999985"/>
       <use xlink:href="#FiraSans-Regular-2e" x="93.299973"/>
       <use xlink:href="#FiraSans-Regular-30" x="117.299957"/>
      </g>
     </g>
    </g>
    <g id="xtick_13">
     <g id="line2d_19">
      <g>
       <use xlink:href="#md3b4e44d29" x="668.19833" y="296.923135" style="stroke: #000000; stroke-width: 0.8"/>
      </g>
     </g>
     <g id="text_22">
      <!-- −0.5 -->
      <g transform="translate(657.404892 312.923135) scale(0.12 -0.12)">
       <use xlink:href="#FiraSans-Regular-2212"/>
       <use xlink:href="#FiraSans-Regular-30" x="49.999985"/>
       <use xlink:href="#FiraSans-Regular-2e" x="105.799973"/>
       <use xlink:href="#FiraSans-Regular-35" x="129.799957"/>
      </g>
     </g>
    </g>
    <g id="text_23">
     <!-- (A - B) -->
     <g transform="translate(514.338902 328.803135) scale(0.12 -0.12)">
      <use xlink:href="#FiraSans-Regular-28"/>
      <use xlink:href="#FiraSans-Regular-41" x="32.399994"/>
      <use xlink:href="#FiraSans-Regular-20" x="89.699982"/>
      <use xlink:href="#FiraSans-Regular-2d" x="116.199966"/>
      <use xlink:href="#FiraSans-Regular-20" x="156.499954"/>
      <use xlink:href="#FiraSans-Regular-42" x="182.999939"/>
      <use xlink:href="#FiraSans-Regular-29" x="243.799927"/>
     </g>
    </g>
    <g id="text_24">
     <!-- 1e−8 -->
     <g transform="translate(663.693745 327.47876) scale(0.12 -0.12)">
      <use xlink:href="#FiraSans-Regular-31"/>
      <use xlink:href="#FiraSans-Regular-65" x="43.299988"/>
      <use xlink:href="#FiraSans-Regular-2212" x="97.799973"/>
      <use xlink:href="#FiraSans-Regular-38" x="147.799957"/>
     </g>
    </g>
   </g>
   <g id="matplotlib.axis_4">
    <g id="ytick_6">
     <g id="line2d_20">
      <g>
       <use xlink:href="#m79d5cd0559" x="373.78156" y="296.923135" style="stroke: #000000; stroke-width: 0.8"/>
      </g>
     </g>
    </g>
    <g id="ytick_7">
     <g id="line2d_21">
      <g>
       <use xlink:href="#m79d5cd0559" x="373.78156" y="236.825874" style="stroke: #000000; stroke-width: 0.8"/>
      </g>
     </g>
    </g>
    <g id="ytick_8">
     <g id="line2d_22">
      <g>
       <use xlink:href="#m79d5cd0559" x="373.78156" y="176.728612" style="stroke: #000000; stroke-width: 0.8"/>
      </g>
     </g>
    </g>
    <g id="ytick_9">
     <g id="line2d_23">
      <g>
       <use xlink:href="#m79d5cd0559" x="373.78156" y="116.631351" style="stroke: #000000; stroke-width: 0.8"/>
      </g>
     </g>
    </g>
    <g id="ytick_10">
     <g id="line2d_24">
      <g>
       <use xlink:href="#m79d5cd0559" x="373.78156" y="56.53409" style="stroke: #000000; stroke-width: 0.8"/>
      </g>
     </g>
    </g>
   </g>
   <g id="line2d_25">
    <path d="M 572.439384 296.923135 
L 572.439384 25.584 
" clip-path="url(#pde3e98b60f)" style="fill: none; stroke-dasharray: 3.7,1.6; stroke-dashoffset: 0; stroke: #414141"/>
   </g>
   <g id="patch_68">
    <path d="M 373.78156 296.923135 
L 373.78156 25.584 
" style="fill: none; stroke: #000000; stroke-width: 0.8; stroke-linejoin: miter; stroke-linecap: square"/>
   </g>
   <g id="patch_69">
    <path d="M 688.04062 296.923135 
L 688.04062 25.584 
" style="fill: none; stroke: #000000; stroke-width: 0.8; stroke-linejoin: miter; stroke-linecap: square"/>
   </g>
   <g id="patch_70">
    <path d="M 373.78156 296.923135 
L 688.04062 296.923135 
" style="fill: none; stroke: #000000; stroke-width: 0.8; stroke-linejoin: miter; stroke-linecap: square"/>
   </g>
   <g id="patch_71">
    <path d="M 373.78156 25.584 
L 688.04062 25.584 
" style="fill: none; stroke: #000000; stroke-width: 0.8; stroke-linejoin: miter; stroke-linecap: square"/>
   </g>
   <g id="text_25">
    <!-- Ecosystem quality (species.yr kg$^\mathdefault{-1}$) -->
    <g transform="translate(418.59109 19.584) scale(0.144 -0.144)">
     <defs>
      <path id="FiraSans-Regular-45" d="M 3027 4410 
L 2957 3923 
L 1248 3923 
L 1248 2483 
L 2733 2483 
L 2733 1997 
L 1248 1997 
L 1248 486 
L 3078 486 
L 3078 0 
L 640 0 
L 640 4410 
L 3027 4410 
z
" transform="scale(0.015625)"/>
      <path id="FiraSans-Regular-6f" d="M 1875 3450 
Q 2586 3450 2979 2976 
Q 3373 2502 3373 1690 
Q 3373 1165 3193 765 
Q 3014 365 2675 144 
Q 2336 -77 1869 -77 
Q 1158 -77 761 396 
Q 365 870 365 1683 
Q 365 2208 544 2608 
Q 723 3008 1062 3229 
Q 1402 3450 1875 3450 
z
M 1875 2976 
Q 998 2976 998 1683 
Q 998 397 1869 397 
Q 2739 397 2739 1690 
Q 2739 2976 1875 2976 
z
" transform="scale(0.015625)"/>
      <path id="FiraSans-Regular-73" d="M 1523 3450 
Q 1869 3450 2144 3354 
Q 2419 3258 2669 3066 
L 2419 2694 
Q 2189 2842 1981 2912 
Q 1773 2982 1542 2982 
Q 1254 2982 1088 2864 
Q 922 2746 922 2541 
Q 922 2336 1078 2221 
Q 1235 2106 1645 1997 
Q 2208 1856 2486 1613 
Q 2765 1370 2765 947 
Q 2765 448 2377 185 
Q 1990 -77 1434 -77 
Q 666 -77 160 365 
L 474 723 
Q 902 397 1421 397 
Q 1754 397 1949 534 
Q 2144 672 2144 909 
Q 2144 1082 2073 1187 
Q 2003 1293 1830 1373 
Q 1658 1453 1325 1542 
Q 787 1683 547 1920 
Q 307 2157 307 2522 
Q 307 2784 464 2998 
Q 621 3213 899 3331 
Q 1178 3450 1523 3450 
z
" transform="scale(0.015625)"/>
      <path id="FiraSans-Regular-69" d="M 1197 3373 
L 1197 0 
L 608 0 
L 608 3373 
L 1197 3373 
z
M 896 4992 
Q 1082 4992 1197 4877 
Q 1312 4762 1312 4589 
Q 1312 4416 1197 4304 
Q 1082 4192 896 4192 
Q 717 4192 601 4304 
Q 486 4416 486 4589 
Q 486 4762 601 4877 
Q 717 4992 896 4992 
z
" transform="scale(0.015625)"/>
      <path id="FiraSans-Regular-70" d="M 2157 3450 
Q 2803 3450 3104 2989 
Q 3405 2528 3405 1690 
Q 3405 896 3059 409 
Q 2714 -77 2080 -77 
Q 1517 -77 1197 307 
L 1197 -1293 
L 608 -1363 
L 608 3373 
L 1114 3373 
L 1158 2918 
Q 1344 3174 1606 3312 
Q 1869 3450 2157 3450 
z
M 1939 403 
Q 2771 403 2771 1690 
Q 2771 2982 2010 2982 
Q 1760 2982 1555 2835 
Q 1350 2688 1197 2458 
L 1197 813 
Q 1325 614 1517 508 
Q 1709 403 1939 403 
z
" transform="scale(0.015625)"/>
     </defs>
     <use xlink:href="#FiraSans-Regular-45" transform="translate(0 0.884375)"/>
     <use xlink:href="#FiraSans-Regular-63" transform="translate(53.499985 0.884375)"/>
     <use xlink:href="#FiraSans-Regular-6f" transform="translate(101.299973 0.884375)"/>
     <use xlink:href="#FiraSans-Regular-73" transform="translate(159.699966 0.884375)"/>
     <use xlink:href="#FiraSans-Regular-79" transform="translate(206.399963 0.884375)"/>
     <use xlink:href="#FiraSans-Regular-73" transform="translate(255.59996 0.884375)"/>
     <use xlink:href="#FiraSans-Regular-74" transform="translate(302.299957 0.884375)"/>
     <use xlink:href="#FiraSans-Regular-65" transform="translate(338.399948 0.884375)"/>
     <use xlink:href="#FiraSans-Regular-6d" transform="translate(392.899933 0.884375)"/>
     <use xlink:href="#FiraSans-Regular-20" transform="translate(478.599915 0.884375)"/>
     <use xlink:href="#FiraSans-Regular-71" transform="translate(505.099899 0.884375)"/>
     <use xlink:href="#FiraSans-Regular-75" transform="translate(564.899887 0.884375)"/>
     <use xlink:href="#FiraSans-Regular-61" transform="translate(623.099884 0.884375)"/>
     <use xlink:href="#FiraSans-Regular-6c" transform="translate(677.499878 0.884375)"/>
     <use xlink:href="#FiraSans-Regular-69" transform="translate(706.799866 0.884375)"/>
     <use xlink:href="#FiraSans-Regular-74" transform="translate(734.999863 0.884375)"/>
     <use xlink:href="#FiraSans-Regular-79" transform="translate(771.099854 0.884375)"/>
     <use xlink:href="#FiraSans-Regular-20" transform="translate(820.29985 0.884375)"/>
     <use xlink:href="#FiraSans-Regular-28" transform="translate(846.799835 0.884375)"/>
     <use xlink:href="#FiraSans-Regular-73" transform="translate(879.199829 0.884375)"/>
     <use xlink:href="#FiraSans-Regular-70" transform="translate(925.899826 0.884375)"/>
     <use xlink:href="#FiraSans-Regular-65" transform="translate(985.29982 0.884375)"/>
     <use xlink:href="#FiraSans-Regular-63" transform="translate(1039.799805 0.884375)"/>
     <use xlink:href="#FiraSans-Regular-69" transform="translate(1087.599792 0.884375)"/>
     <use xlink:href="#FiraSans-Regular-65" transform="translate(1115.799789 0.884375)"/>
     <use xlink:href="#FiraSans-Regular-73" transform="translate(1170.299774 0.884375)"/>
     <use xlink:href="#FiraSans-Regular-2e" transform="translate(1216.999771 0.884375)"/>
     <use xlink:href="#FiraSans-Regular-79" transform="translate(1240.999756 0.884375)"/>
     <use xlink:href="#FiraSans-Regular-72" transform="translate(1290.199753 0.884375)"/>
     <use xlink:href="#FiraSans-Regular-20" transform="translate(1328.799744 0.884375)"/>
     <use xlink:href="#FiraSans-Regular-6b" transform="translate(1355.299728 0.884375)"/>
     <use xlink:href="#FiraSans-Regular-67" transform="translate(1406.499725 0.884375)"/>
     <use xlink:href="#FiraSans-Regular-2212" transform="translate(1459.456741 39.165625) scale(0.7)"/>
     <use xlink:href="#FiraSans-Regular-31" transform="translate(1494.456731 39.165625) scale(0.7)"/>
     <use xlink:href="#FiraSans-Regular-29" transform="translate(1527.501097 0.884375)"/>
    </g>
   </g>
  </g>
  <g id="axes_3">
   <g id="patch_72">
    <path d="M 704.50062 296.923135 
L 1018.75968 296.923135 
L 1018.75968 25.584 
L 704.50062 25.584 
z
" style="fill: #ffffff"/>
   </g>
   <g id="patch_73">
    <path d="M 718.785123 296.923135 
L 728.308125 296.923135 
L 728.308125 293.918272 
L 718.785123 293.918272 
z
" clip-path="url(#pba4c743f7c)" style="fill: #7cc582; stroke: #414141; stroke-linejoin: miter"/>
   </g>
   <g id="patch_74">
    <path d="M 728.308125 296.923135 
L 737.831126 296.923135 
L 737.831126 293.918272 
L 728.308125 293.918272 
z
" clip-path="url(#pba4c743f7c)" style="fill: #7cc582; stroke: #414141; stroke-linejoin: miter"/>
   </g>
   <g id="patch_75">
    <path d="M 737.831126 296.923135 
L 747.354128 296.923135 
L 747.354128 296.923135 
L 737.831126 296.923135 
z
" clip-path="url(#pba4c743f7c)" style="fill: #7cc582; stroke: #414141; stroke-linejoin: miter"/>
   </g>
   <g id="patch_76">
    <path d="M 747.354128 296.923135 
L 756.87713 296.923135 
L 756.87713 296.923135 
L 747.354128 296.923135 
z
" clip-path="url(#pba4c743f7c)" style="fill: #7cc582; stroke: #414141; stroke-linejoin: miter"/>
   </g>
   <g id="patch_77">
    <path d="M 756.87713 296.923135 
L 766.400132 296.923135 
L 766.400132 293.918272 
L 756.87713 293.918272 
z
" clip-path="url(#pba4c743f7c)" style="fill: #7cc582; stroke: #414141; stroke-linejoin: miter"/>
   </g>
   <g id="patch_78">
    <path d="M 766.400132 296.923135 
L 775.923134 296.923135 
L 775.923134 293.918272 
L 766.400132 293.918272 
z
" clip-path="url(#pba4c743f7c)" style="fill: #7cc582; stroke: #414141; stroke-linejoin: miter"/>
   </g>
   <g id="patch_79">
    <path d="M 775.923134 296.923135 
L 785.446135 296.923135 
L 785.446135 293.918272 
L 775.923134 293.918272 
z
" clip-path="url(#pba4c743f7c)" style="fill: #7cc582; stroke: #414141; stroke-linejoin: miter"/>
   </g>
   <g id="patch_80">
    <path d="M 785.446135 296.923135 
L 794.969137 296.923135 
L 794.969137 293.918272 
L 785.446135 293.918272 
z
" clip-path="url(#pba4c743f7c)" style="fill: #7cc582; stroke: #414141; stroke-linejoin: miter"/>
   </g>
   <g id="patch_81">
    <path d="M 794.969137 296.923135 
L 804.492139 296.923135 
L 804.492139 287.908546 
L 794.969137 287.908546 
z
" clip-path="url(#pba4c743f7c)" style="fill: #7cc582; stroke: #414141; stroke-linejoin: miter"/>
   </g>
   <g id="patch_82">
    <path d="M 804.492139 296.923135 
L 814.015141 296.923135 
L 814.015141 290.913409 
L 804.492139 290.913409 
z
" clip-path="url(#pba4c743f7c)" style="fill: #7cc582; stroke: #414141; stroke-linejoin: miter"/>
   </g>
   <g id="patch_83">
    <path d="M 814.015141 296.923135 
L 823.538143 296.923135 
L 823.538143 284.903683 
L 814.015141 284.903683 
z
" clip-path="url(#pba4c743f7c)" style="fill: #7cc582; stroke: #414141; stroke-linejoin: miter"/>
   </g>
   <g id="patch_84">
    <path d="M 823.538143 296.923135 
L 833.061145 296.923135 
L 833.061145 287.908546 
L 823.538143 287.908546 
z
" clip-path="url(#pba4c743f7c)" style="fill: #7cc582; stroke: #414141; stroke-linejoin: miter"/>
   </g>
   <g id="patch_85">
    <path d="M 833.061145 296.923135 
L 842.584146 296.923135 
L 842.584146 278.893957 
L 833.061145 278.893957 
z
" clip-path="url(#pba4c743f7c)" style="fill: #7cc582; stroke: #414141; stroke-linejoin: miter"/>
   </g>
   <g id="patch_86">
    <path d="M 842.584146 296.923135 
L 852.107148 296.923135 
L 852.107148 245.840463 
L 842.584146 245.840463 
z
" clip-path="url(#pba4c743f7c)" style="fill: #7cc582; stroke: #414141; stroke-linejoin: miter"/>
   </g>
   <g id="patch_87">
    <path d="M 852.107148 296.923135 
L 861.63015 296.923135 
L 861.63015 260.864778 
L 852.107148 260.864778 
z
" clip-path="url(#pba4c743f7c)" style="fill: #7cc582; stroke: #414141; stroke-linejoin: miter"/>
   </g>
   <g id="patch_88">
    <path d="M 861.63015 296.923135 
L 871.153152 296.923135 
L 871.153152 254.855052 
L 861.63015 254.855052 
z
" clip-path="url(#pba4c743f7c)" style="fill: #7cc582; stroke: #414141; stroke-linejoin: miter"/>
   </g>
   <g id="patch_89">
    <path d="M 871.153152 296.923135 
L 880.676154 296.923135 
L 880.676154 200.767517 
L 871.153152 200.767517 
z
" clip-path="url(#pba4c743f7c)" style="fill: #7cc582; stroke: #414141; stroke-linejoin: miter"/>
   </g>
   <g id="patch_90">
    <path d="M 880.676154 296.923135 
L 890.199155 296.923135 
L 890.199155 224.806421 
L 880.676154 224.806421 
z
" clip-path="url(#pba4c743f7c)" style="fill: #7cc582; stroke: #414141; stroke-linejoin: miter"/>
   </g>
   <g id="patch_91">
    <path d="M 890.199155 296.923135 
L 899.722157 296.923135 
L 899.722157 179.733475 
L 890.199155 179.733475 
z
" clip-path="url(#pba4c743f7c)" style="fill: #7cc582; stroke: #414141; stroke-linejoin: miter"/>
   </g>
   <g id="patch_92">
    <path d="M 899.722157 296.923135 
L 909.245159 296.923135 
L 909.245159 185.743202 
L 899.722157 185.743202 
z
" clip-path="url(#pba4c743f7c)" style="fill: #7cc582; stroke: #414141; stroke-linejoin: miter"/>
   </g>
   <g id="patch_93">
    <path d="M 909.245159 296.923135 
L 918.768161 296.923135 
L 918.768161 146.679982 
L 909.245159 146.679982 
z
" clip-path="url(#pba4c743f7c)" style="fill: #7cc582; stroke: #414141; stroke-linejoin: miter"/>
   </g>
   <g id="patch_94">
    <path d="M 918.768161 296.923135 
L 928.291163 296.923135 
L 928.291163 194.757791 
L 918.768161 194.757791 
z
" clip-path="url(#pba4c743f7c)" style="fill: #7cc582; stroke: #414141; stroke-linejoin: miter"/>
   </g>
   <g id="patch_95">
    <path d="M 928.291163 296.923135 
L 937.814165 296.923135 
L 937.814165 182.738338 
L 928.291163 182.738338 
z
" clip-path="url(#pba4c743f7c)" style="fill: #7cc582; stroke: #414141; stroke-linejoin: miter"/>
   </g>
   <g id="patch_96">
    <path d="M 937.814165 296.923135 
L 947.337166 296.923135 
L 947.337166 140.670255 
L 937.814165 140.670255 
z
" clip-path="url(#pba4c743f7c)" style="fill: #7cc582; stroke: #414141; stroke-linejoin: miter"/>
   </g>
   <g id="patch_97">
    <path d="M 947.337166 296.923135 
L 956.860168 296.923135 
L 956.860168 161.704297 
L 947.337166 161.704297 
z
" clip-path="url(#pba4c743f7c)" style="fill: #7cc582; stroke: #414141; stroke-linejoin: miter"/>
   </g>
   <g id="patch_98">
    <path d="M 956.860168 296.923135 
L 966.38317 296.923135 
L 966.38317 191.752928 
L 956.860168 191.752928 
z
" clip-path="url(#pba4c743f7c)" style="fill: #7cc582; stroke: #414141; stroke-linejoin: miter"/>
   </g>
   <g id="patch_99">
    <path d="M 966.38317 296.923135 
L 975.906172 296.923135 
L 975.906172 245.840463 
L 966.38317 245.840463 
z
" clip-path="url(#pba4c743f7c)" style="fill: #7cc582; stroke: #414141; stroke-linejoin: miter"/>
   </g>
   <g id="patch_100">
    <path d="M 975.906172 296.923135 
L 985.429174 296.923135 
L 985.429174 257.859915 
L 975.906172 257.859915 
z
" clip-path="url(#pba4c743f7c)" style="fill: #7cc582; stroke: #414141; stroke-linejoin: miter"/>
   </g>
   <g id="patch_101">
    <path d="M 985.429174 296.923135 
L 994.952175 296.923135 
L 994.952175 266.874504 
L 985.429174 266.874504 
z
" clip-path="url(#pba4c743f7c)" style="fill: #7cc582; stroke: #414141; stroke-linejoin: miter"/>
   </g>
   <g id="patch_102">
    <path d="M 994.952175 296.923135 
L 1004.475177 296.923135 
L 1004.475177 275.889094 
L 994.952175 275.889094 
z
" clip-path="url(#pba4c743f7c)" style="fill: #7cc582; stroke: #414141; stroke-linejoin: miter"/>
   </g>
   <g id="matplotlib.axis_5">
    <g id="xtick_14">
     <g id="line2d_26">
      <g>
       <use xlink:href="#md3b4e44d29" x="723.298986" y="296.923135" style="stroke: #000000; stroke-width: 0.8"/>
      </g>
     </g>
     <g id="text_26">
      <!-- −1.50 -->
      <g transform="translate(709.907736 312.923135) scale(0.12 -0.12)">
       <use xlink:href="#FiraSans-Regular-2212"/>
       <use xlink:href="#FiraSans-Regular-31" x="49.999985"/>
       <use xlink:href="#FiraSans-Regular-2e" x="93.299973"/>
       <use xlink:href="#FiraSans-Regular-35" x="117.299957"/>
       <use xlink:href="#FiraSans-Regular-30" x="167.399948"/>
      </g>
     </g>
    </g>
    <g id="xtick_15">
     <g id="line2d_27">
      <g>
       <use xlink:href="#md3b4e44d29" x="770.259484" y="296.923135" style="stroke: #000000; stroke-width: 0.8"/>
      </g>
     </g>
     <g id="text_27">
      <!-- −1.25 -->
      <g transform="translate(757.246046 312.923135) scale(0.12 -0.12)">
       <use xlink:href="#FiraSans-Regular-2212"/>
       <use xlink:href="#FiraSans-Regular-31" x="49.999985"/>
       <use xlink:href="#FiraSans-Regular-2e" x="93.299973"/>
       <use xlink:href="#FiraSans-Regular-32" x="117.299957"/>
       <use xlink:href="#FiraSans-Regular-35" x="166.799942"/>
      </g>
     </g>
    </g>
    <g id="xtick_16">
     <g id="line2d_28">
      <g>
       <use xlink:href="#md3b4e44d29" x="817.219981" y="296.923135" style="stroke: #000000; stroke-width: 0.8"/>
      </g>
     </g>
     <g id="text_28">
      <!-- −1.00 -->
      <g transform="translate(803.486543 312.923135) scale(0.12 -0.12)">
       <use xlink:href="#FiraSans-Regular-2212"/>
       <use xlink:href="#FiraSans-Regular-31" x="49.999985"/>
       <use xlink:href="#FiraSans-Regular-2e" x="93.299973"/>
       <use xlink:href="#FiraSans-Regular-30" x="117.299957"/>
       <use xlink:href="#FiraSans-Regular-30" x="173.099945"/>
      </g>
     </g>
    </g>
    <g id="xtick_17">
     <g id="line2d_29">
      <g>
       <use xlink:href="#md3b4e44d29" x="864.180478" y="296.923135" style="stroke: #000000; stroke-width: 0.8"/>
      </g>
     </g>
     <g id="text_29">
      <!-- −0.75 -->
      <g transform="translate(850.722666 312.923135) scale(0.12 -0.12)">
       <defs>
        <path id="FiraSans-Regular-37" d="M 2650 4282 
L 2650 3840 
L 1050 -64 
L 512 115 
L 2054 3802 
L 160 3802 
L 160 4282 
L 2650 4282 
z
" transform="scale(0.015625)"/>
       </defs>
       <use xlink:href="#FiraSans-Regular-2212"/>
       <use xlink:href="#FiraSans-Regular-30" x="49.999985"/>
       <use xlink:href="#FiraSans-Regular-2e" x="105.799973"/>
       <use xlink:href="#FiraSans-Regular-37" x="129.799957"/>
       <use xlink:href="#FiraSans-Regular-35" x="174.199951"/>
      </g>
     </g>
    </g>
    <g id="xtick_18">
     <g id="line2d_30">
      <g>
       <use xlink:href="#md3b4e44d29" x="911.140976" y="296.923135" style="stroke: #000000; stroke-width: 0.8"/>
      </g>
     </g>
     <g id="text_30">
      <!-- −0.50 -->
      <g transform="translate(896.999726 312.923135) scale(0.12 -0.12)">
       <use xlink:href="#FiraSans-Regular-2212"/>
       <use xlink:href="#FiraSans-Regular-30" x="49.999985"/>
       <use xlink:href="#FiraSans-Regular-2e" x="105.799973"/>
       <use xlink:href="#FiraSans-Regular-35" x="129.799957"/>
       <use xlink:href="#FiraSans-Regular-30" x="179.899948"/>
      </g>
     </g>
    </g>
    <g id="xtick_19">
     <g id="line2d_31">
      <g>
       <use xlink:href="#md3b4e44d29" x="958.101473" y="296.923135" style="stroke: #000000; stroke-width: 0.8"/>
      </g>
     </g>
     <g id="text_31">
      <!-- −0.25 -->
      <g transform="translate(944.338035 312.923135) scale(0.12 -0.12)">
       <use xlink:href="#FiraSans-Regular-2212"/>
       <use xlink:href="#FiraSans-Regular-30" x="49.999985"/>
       <use xlink:href="#FiraSans-Regular-2e" x="105.799973"/>
       <use xlink:href="#FiraSans-Regular-32" x="129.799957"/>
       <use xlink:href="#FiraSans-Regular-35" x="179.299942"/>
      </g>
     </g>
    </g>
    <g id="xtick_20">
     <g id="line2d_32">
      <g>
       <use xlink:href="#md3b4e44d29" x="1005.06197" y="296.923135" style="stroke: #000000; stroke-width: 0.8"/>
      </g>
     </g>
     <g id="text_32">
      <!-- 0.00 -->
      <g transform="translate(993.578533 312.923135) scale(0.12 -0.12)">
       <use xlink:href="#FiraSans-Regular-30"/>
       <use xlink:href="#FiraSans-Regular-2e" x="55.799988"/>
       <use xlink:href="#FiraSans-Regular-30" x="79.799973"/>
       <use xlink:href="#FiraSans-Regular-30" x="135.59996"/>
      </g>
     </g>
    </g>
    <g id="text_33">
     <!-- (A - B) -->
     <g transform="translate(845.057962 328.803135) scale(0.12 -0.12)">
      <use xlink:href="#FiraSans-Regular-28"/>
      <use xlink:href="#FiraSans-Regular-41" x="32.399994"/>
      <use xlink:href="#FiraSans-Regular-20" x="89.699982"/>
      <use xlink:href="#FiraSans-Regular-2d" x="116.199966"/>
      <use xlink:href="#FiraSans-Regular-20" x="156.499954"/>
      <use xlink:href="#FiraSans-Regular-42" x="182.999939"/>
      <use xlink:href="#FiraSans-Regular-29" x="243.799927"/>
     </g>
    </g>
   </g>
   <g id="matplotlib.axis_6">
    <g id="ytick_11">
     <g id="line2d_33">
      <g>
       <use xlink:href="#m79d5cd0559" x="704.50062" y="296.923135" style="stroke: #000000; stroke-width: 0.8"/>
      </g>
     </g>
    </g>
    <g id="ytick_12">
     <g id="line2d_34">
      <g>
       <use xlink:href="#m79d5cd0559" x="704.50062" y="236.825874" style="stroke: #000000; stroke-width: 0.8"/>
      </g>
     </g>
    </g>
    <g id="ytick_13">
     <g id="line2d_35">
      <g>
       <use xlink:href="#m79d5cd0559" x="704.50062" y="176.728612" style="stroke: #000000; stroke-width: 0.8"/>
      </g>
     </g>
    </g>
    <g id="ytick_14">
     <g id="line2d_36">
      <g>
       <use xlink:href="#m79d5cd0559" x="704.50062" y="116.631351" style="stroke: #000000; stroke-width: 0.8"/>
      </g>
     </g>
    </g>
    <g id="ytick_15">
     <g id="line2d_37">
      <g>
       <use xlink:href="#m79d5cd0559" x="704.50062" y="56.53409" style="stroke: #000000; stroke-width: 0.8"/>
      </g>
     </g>
    </g>
   </g>
   <g id="line2d_38">
    <path d="M 915.990876 296.923135 
L 915.990876 25.584 
" clip-path="url(#pba4c743f7c)" style="fill: none; stroke-dasharray: 3.7,1.6; stroke-dashoffset: 0; stroke: #414141"/>
   </g>
   <g id="patch_103">
    <path d="M 704.50062 296.923135 
L 704.50062 25.584 
" style="fill: none; stroke: #000000; stroke-width: 0.8; stroke-linejoin: miter; stroke-linecap: square"/>
   </g>
   <g id="patch_104">
    <path d="M 1018.75968 296.923135 
L 1018.75968 25.584 
" style="fill: none; stroke: #000000; stroke-width: 0.8; stroke-linejoin: miter; stroke-linecap: square"/>
   </g>
   <g id="patch_105">
    <path d="M 704.50062 296.923135 
L 1018.75968 296.923135 
" style="fill: none; stroke: #000000; stroke-width: 0.8; stroke-linejoin: miter; stroke-linecap: square"/>
   </g>
   <g id="patch_106">
    <path d="M 704.50062 25.584 
L 1018.75968 25.584 
" style="fill: none; stroke: #000000; stroke-width: 0.8; stroke-linejoin: miter; stroke-linecap: square"/>
   </g>
   <g id="text_34">
    <!-- Natural resources (USD 2013 kg$^\mathdefault{-1}$) -->
    <g transform="translate(752.91015 19.584) scale(0.144 -0.144)">
     <defs>
      <path id="FiraSans-Regular-4e" d="M 3731 0 
L 2918 0 
L 1126 3744 
Q 1165 3302 1187 2928 
Q 1210 2554 1210 2022 
L 1210 0 
L 640 0 
L 640 4410 
L 1434 4410 
L 3245 659 
Q 3226 826 3194 1242 
Q 3162 1658 3162 2003 
L 3162 4410 
L 3731 4410 
L 3731 0 
z
" transform="scale(0.015625)"/>
      <path id="FiraSans-Regular-55" d="M 3661 1414 
Q 3661 973 3478 637 
Q 3296 301 2947 112 
Q 2598 -77 2112 -77 
Q 1376 -77 976 329 
Q 576 736 576 1414 
L 576 4410 
L 1184 4410 
L 1184 1459 
Q 1184 947 1414 691 
Q 1645 435 2112 435 
Q 2586 435 2816 688 
Q 3046 941 3046 1459 
L 3046 4410 
L 3661 4410 
L 3661 1414 
z
" transform="scale(0.015625)"/>
      <path id="FiraSans-Regular-53" d="M 1728 4486 
Q 2170 4486 2483 4361 
Q 2797 4237 3091 3974 
L 2758 3603 
Q 2509 3802 2269 3894 
Q 2029 3987 1754 3987 
Q 1408 3987 1184 3827 
Q 960 3667 960 3360 
Q 960 3168 1037 3037 
Q 1114 2906 1322 2797 
Q 1530 2688 1926 2566 
Q 2342 2438 2617 2291 
Q 2893 2144 3062 1885 
Q 3232 1626 3232 1229 
Q 3232 845 3043 550 
Q 2854 256 2499 89 
Q 2144 -77 1658 -77 
Q 742 -77 160 493 
L 493 864 
Q 762 646 1037 534 
Q 1312 422 1651 422 
Q 2061 422 2329 624 
Q 2598 826 2598 1210 
Q 2598 1427 2515 1571 
Q 2432 1715 2230 1830 
Q 2029 1946 1645 2061 
Q 966 2266 652 2554 
Q 339 2842 339 3334 
Q 339 3667 515 3929 
Q 691 4192 1008 4339 
Q 1325 4486 1728 4486 
z
" transform="scale(0.015625)"/>
     </defs>
     <use xlink:href="#FiraSans-Regular-4e" transform="translate(0 0.884375)"/>
     <use xlink:href="#FiraSans-Regular-61" transform="translate(68.299988 0.884375)"/>
     <use xlink:href="#FiraSans-Regular-74" transform="translate(122.699982 0.884375)"/>
     <use xlink:href="#FiraSans-Regular-75" transform="translate(158.799973 0.884375)"/>
     <use xlink:href="#FiraSans-Regular-72" transform="translate(216.999969 0.884375)"/>
     <use xlink:href="#FiraSans-Regular-61" transform="translate(255.59996 0.884375)"/>
     <use xlink:href="#FiraSans-Regular-6c" transform="translate(309.999954 0.884375)"/>
     <use xlink:href="#FiraSans-Regular-20" transform="translate(339.299942 0.884375)"/>
     <use xlink:href="#FiraSans-Regular-72" transform="translate(365.799927 0.884375)"/>
     <use xlink:href="#FiraSans-Regular-65" transform="translate(404.399918 0.884375)"/>
     <use xlink:href="#FiraSans-Regular-73" transform="translate(458.899902 0.884375)"/>
     <use xlink:href="#FiraSans-Regular-6f" transform="translate(505.599899 0.884375)"/>
     <use xlink:href="#FiraSans-Regular-75" transform="translate(563.999893 0.884375)"/>
     <use xlink:href="#FiraSans-Regular-72" transform="translate(622.19989 0.884375)"/>
     <use xlink:href="#FiraSans-Regular-63" transform="translate(660.799881 0.884375)"/>
     <use xlink:href="#FiraSans-Regular-65" transform="translate(708.599869 0.884375)"/>
     <use xlink:href="#FiraSans-Regular-73" transform="translate(763.099854 0.884375)"/>
     <use xlink:href="#FiraSans-Regular-20" transform="translate(809.79985 0.884375)"/>
     <use xlink:href="#FiraSans-Regular-28" transform="translate(836.299835 0.884375)"/>
     <use xlink:href="#FiraSans-Regular-55" transform="translate(868.699829 0.884375)"/>
     <use xlink:href="#FiraSans-Regular-53" transform="translate(934.899826 0.884375)"/>
     <use xlink:href="#FiraSans-Regular-44" transform="translate(989.399811 0.884375)"/>
     <use xlink:href="#FiraSans-Regular-20" transform="translate(1053.799805 0.884375)"/>
     <use xlink:href="#FiraSans-Regular-32" transform="translate(1080.299789 0.884375)"/>
     <use xlink:href="#FiraSans-Regular-30" transform="translate(1129.799774 0.884375)"/>
     <use xlink:href="#FiraSans-Regular-31" transform="translate(1185.599762 0.884375)"/>
     <use xlink:href="#FiraSans-Regular-33" transform="translate(1228.89975 0.884375)"/>
     <use xlink:href="#FiraSans-Regular-20" transform="translate(1278.799744 0.884375)"/>
     <use xlink:href="#FiraSans-Regular-6b" transform="translate(1305.299728 0.884375)"/>
     <use xlink:href="#FiraSans-Regular-67" transform="translate(1356.499725 0.884375)"/>
     <use xlink:href="#FiraSans-Regular-2212" transform="translate(1409.456741 39.165625) scale(0.7)"/>
     <use xlink:href="#FiraSans-Regular-31" transform="translate(1444.456731 39.165625) scale(0.7)"/>
     <use xlink:href="#FiraSans-Regular-29" transform="translate(1477.501097 0.884375)"/>
    </g>
   </g>
  </g>
 </g>
 <defs>
  <clipPath id="p0256c131fd">
   <rect x="43.0625" y="25.584" width="314.25906" height="271.339135"/>
  </clipPath>
  <clipPath id="pde3e98b60f">
   <rect x="373.78156" y="25.584" width="314.25906" height="271.339135"/>
  </clipPath>
  <clipPath id="pba4c743f7c">
   <rect x="704.50062" y="25.584" width="314.25906" height="271.339135"/>
  </clipPath>
 </defs>
</svg>
