<?xml version="1.0" encoding="utf-8" standalone="no"?>
<!DOCTYPE svg PUBLIC "-//W3C//DTD SVG 1.1//EN"
  "http://www.w3.org/Graphics/SVG/1.1/DTD/svg11.dtd">
<svg xmlns:xlink="http://www.w3.org/1999/xlink" width="513.69984pt" height="205.007256pt" viewBox="0 0 513.69984 205.007256" xmlns="http://www.w3.org/2000/svg" version="1.1">
 <metadata>
  <rdf:RDF xmlns:dc="http://purl.org/dc/elements/1.1/" xmlns:cc="http://creativecommons.org/ns#" xmlns:rdf="http://www.w3.org/1999/02/22-rdf-syntax-ns#">
   <cc:Work>
    <dc:type rdf:resource="http://purl.org/dc/dcmitype/StillImage"/>
    <dc:date>2026-01-16T17:26:08.033185</dc:date>
    <dc:format>image/svg+xml</dc:format>
    <dc:creator>
     <cc:Agent>
      <dc:title>Matplotlib v3.9.2, https://matplotlib.org/</dc:title>
     </cc:Agent>
    </dc:creator>
   </cc:Work>
  </rdf:RDF>
 </metadata>
 <defs>
  <style type="text/css">*{stroke-linejoin: round; stroke-linecap: butt}</style>
 </defs>
 <g id="figure_1">
  <g id="patch_1">
   <path d="M 0 205.007256 
L 513.69984 205.007256 
L 513.69984 0 
L 0 0 
z
" style="fill: #ffffff"/>
  </g>
  <g id="axes_1">
   <g id="patch_2">
    <path d="M 36.545938 170.130537 
L 184.383905 170.130537 
L 184.383905 7.2 
L 36.545938 7.2 
z
" style="fill: #ffffff"/>
   </g>
   <g id="patch_3">
    <path d="M 43.265845 170.130537 
L 47.745784 170.130537 
L 47.745784 168.326212 
L 43.265845 168.326212 
z
" clip-path="url(#pa935ad37eb)" style="fill: #7cc582; stroke: #414141; stroke-linejoin: miter"/>
   </g>
   <g id="patch_4">
    <path d="M 47.745784 170.130537 
L 52.225722 170.130537 
L 52.225722 170.130537 
L 47.745784 170.130537 
z
" clip-path="url(#pa935ad37eb)" style="fill: #7cc582; stroke: #414141; stroke-linejoin: miter"/>
   </g>
   <g id="patch_5">
    <path d="M 52.225722 170.130537 
L 56.70566 170.130537 
L 56.70566 170.130537 
L 52.225722 170.130537 
z
" clip-path="url(#pa935ad37eb)" style="fill: #7cc582; stroke: #414141; stroke-linejoin: miter"/>
   </g>
   <g id="patch_6">
    <path d="M 56.70566 170.130537 
L 61.185599 170.130537 
L 61.185599 170.130537 
L 56.70566 170.130537 
z
" clip-path="url(#pa935ad37eb)" style="fill: #7cc582; stroke: #414141; stroke-linejoin: miter"/>
   </g>
   <g id="patch_7">
    <path d="M 61.185599 170.130537 
L 65.665537 170.130537 
L 65.665537 170.130537 
L 61.185599 170.130537 
z
" clip-path="url(#pa935ad37eb)" style="fill: #7cc582; stroke: #414141; stroke-linejoin: miter"/>
   </g>
   <g id="patch_8">
    <path d="M 65.665537 170.130537 
L 70.145476 170.130537 
L 70.145476 170.130537 
L 65.665537 170.130537 
z
" clip-path="url(#pa935ad37eb)" style="fill: #7cc582; stroke: #414141; stroke-linejoin: miter"/>
   </g>
   <g id="patch_9">
    <path d="M 70.145476 170.130537 
L 74.625414 170.130537 
L 74.625414 170.130537 
L 70.145476 170.130537 
z
" clip-path="url(#pa935ad37eb)" style="fill: #7cc582; stroke: #414141; stroke-linejoin: miter"/>
   </g>
   <g id="patch_10">
    <path d="M 74.625414 170.130537 
L 79.105352 170.130537 
L 79.105352 170.130537 
L 74.625414 170.130537 
z
" clip-path="url(#pa935ad37eb)" style="fill: #7cc582; stroke: #414141; stroke-linejoin: miter"/>
   </g>
   <g id="patch_11">
    <path d="M 79.105352 170.130537 
L 83.585291 170.130537 
L 83.585291 170.130537 
L 79.105352 170.130537 
z
" clip-path="url(#pa935ad37eb)" style="fill: #7cc582; stroke: #414141; stroke-linejoin: miter"/>
   </g>
   <g id="patch_12">
    <path d="M 83.585291 170.130537 
L 88.065229 170.130537 
L 88.065229 170.130537 
L 83.585291 170.130537 
z
" clip-path="url(#pa935ad37eb)" style="fill: #7cc582; stroke: #414141; stroke-linejoin: miter"/>
   </g>
   <g id="patch_13">
    <path d="M 88.065229 170.130537 
L 92.545168 170.130537 
L 92.545168 170.130537 
L 88.065229 170.130537 
z
" clip-path="url(#pa935ad37eb)" style="fill: #7cc582; stroke: #414141; stroke-linejoin: miter"/>
   </g>
   <g id="patch_14">
    <path d="M 92.545168 170.130537 
L 97.025106 170.130537 
L 97.025106 170.130537 
L 92.545168 170.130537 
z
" clip-path="url(#pa935ad37eb)" style="fill: #7cc582; stroke: #414141; stroke-linejoin: miter"/>
   </g>
   <g id="patch_15">
    <path d="M 97.025106 170.130537 
L 101.505044 170.130537 
L 101.505044 166.521887 
L 97.025106 166.521887 
z
" clip-path="url(#pa935ad37eb)" style="fill: #7cc582; stroke: #414141; stroke-linejoin: miter"/>
   </g>
   <g id="patch_16">
    <path d="M 101.505044 170.130537 
L 105.984983 170.130537 
L 105.984983 170.130537 
L 101.505044 170.130537 
z
" clip-path="url(#pa935ad37eb)" style="fill: #7cc582; stroke: #414141; stroke-linejoin: miter"/>
   </g>
   <g id="patch_17">
    <path d="M 105.984983 170.130537 
L 110.464921 170.130537 
L 110.464921 168.326212 
L 105.984983 168.326212 
z
" clip-path="url(#pa935ad37eb)" style="fill: #7cc582; stroke: #414141; stroke-linejoin: miter"/>
   </g>
   <g id="patch_18">
    <path d="M 110.464921 170.130537 
L 114.94486 170.130537 
L 114.94486 170.130537 
L 110.464921 170.130537 
z
" clip-path="url(#pa935ad37eb)" style="fill: #7cc582; stroke: #414141; stroke-linejoin: miter"/>
   </g>
   <g id="patch_19">
    <path d="M 114.94486 170.130537 
L 119.424798 170.130537 
L 119.424798 161.108913 
L 114.94486 161.108913 
z
" clip-path="url(#pa935ad37eb)" style="fill: #7cc582; stroke: #414141; stroke-linejoin: miter"/>
   </g>
   <g id="patch_20">
    <path d="M 119.424798 170.130537 
L 123.904736 170.130537 
L 123.904736 161.108913 
L 119.424798 161.108913 
z
" clip-path="url(#pa935ad37eb)" style="fill: #7cc582; stroke: #414141; stroke-linejoin: miter"/>
   </g>
   <g id="patch_21">
    <path d="M 123.904736 170.130537 
L 128.384675 170.130537 
L 128.384675 143.065664 
L 123.904736 143.065664 
z
" clip-path="url(#pa935ad37eb)" style="fill: #7cc582; stroke: #414141; stroke-linejoin: miter"/>
   </g>
   <g id="patch_22">
    <path d="M 128.384675 170.130537 
L 132.864613 170.130537 
L 132.864613 137.652689 
L 128.384675 137.652689 
z
" clip-path="url(#pa935ad37eb)" style="fill: #7cc582; stroke: #414141; stroke-linejoin: miter"/>
   </g>
   <g id="patch_23">
    <path d="M 132.864613 170.130537 
L 137.344552 170.130537 
L 137.344552 130.43539 
L 132.864613 130.43539 
z
" clip-path="url(#pa935ad37eb)" style="fill: #7cc582; stroke: #414141; stroke-linejoin: miter"/>
   </g>
   <g id="patch_24">
    <path d="M 137.344552 170.130537 
L 141.82449 170.130537 
L 141.82449 97.957542 
L 137.344552 97.957542 
z
" clip-path="url(#pa935ad37eb)" style="fill: #7cc582; stroke: #414141; stroke-linejoin: miter"/>
   </g>
   <g id="patch_25">
    <path d="M 141.82449 170.130537 
L 146.304429 170.130537 
L 146.304429 87.131592 
L 141.82449 87.131592 
z
" clip-path="url(#pa935ad37eb)" style="fill: #7cc582; stroke: #414141; stroke-linejoin: miter"/>
   </g>
   <g id="patch_26">
    <path d="M 146.304429 170.130537 
L 150.784367 170.130537 
L 150.784367 47.436445 
L 146.304429 47.436445 
z
" clip-path="url(#pa935ad37eb)" style="fill: #7cc582; stroke: #414141; stroke-linejoin: miter"/>
   </g>
   <g id="patch_27">
    <path d="M 150.784367 170.130537 
L 155.264305 170.130537 
L 155.264305 36.610496 
L 150.784367 36.610496 
z
" clip-path="url(#pa935ad37eb)" style="fill: #7cc582; stroke: #414141; stroke-linejoin: miter"/>
   </g>
   <g id="patch_28">
    <path d="M 155.264305 170.130537 
L 159.744244 170.130537 
L 159.744244 14.958597 
L 155.264305 14.958597 
z
" clip-path="url(#pa935ad37eb)" style="fill: #7cc582; stroke: #414141; stroke-linejoin: miter"/>
   </g>
   <g id="patch_29">
    <path d="M 159.744244 170.130537 
L 164.224182 170.130537 
L 164.224182 52.84942 
L 159.744244 52.84942 
z
" clip-path="url(#pa935ad37eb)" style="fill: #7cc582; stroke: #414141; stroke-linejoin: miter"/>
   </g>
   <g id="patch_30">
    <path d="M 164.224182 170.130537 
L 168.704121 170.130537 
L 168.704121 112.392141 
L 164.224182 112.392141 
z
" clip-path="url(#pa935ad37eb)" style="fill: #7cc582; stroke: #414141; stroke-linejoin: miter"/>
   </g>
   <g id="patch_31">
    <path d="M 168.704121 170.130537 
L 173.184059 170.130537 
L 173.184059 141.261339 
L 168.704121 141.261339 
z
" clip-path="url(#pa935ad37eb)" style="fill: #7cc582; stroke: #414141; stroke-linejoin: miter"/>
   </g>
   <g id="patch_32">
    <path d="M 173.184059 170.130537 
L 177.663997 170.130537 
L 177.663997 162.913238 
L 173.184059 162.913238 
z
" clip-path="url(#pa935ad37eb)" style="fill: #7cc582; stroke: #414141; stroke-linejoin: miter"/>
   </g>
   <g id="matplotlib.axis_1">
    <g id="xtick_1">
     <g id="line2d_1">
      <defs>
       <path id="m40a1444781" d="M 0 0 
L 0 3.5 
" style="stroke: #000000; stroke-width: 0.8"/>
      </defs>
      <g>
       <use xlink:href="#m40a1444781" x="75.076605" y="170.130537" style="stroke: #000000; stroke-width: 0.8"/>
      </g>
     </g>
     <g id="text_1">
      <!-- −2 -->
      <g transform="translate(69.945902 183.572568) scale(0.09 -0.09)">
       <defs>
        <path id="ArialMT-2212" d="M 3381 1997 
L 356 1997 
L 356 2522 
L 3381 2522 
L 3381 1997 
z
" transform="scale(0.015625)"/>
        <path id="ArialMT-32" d="M 3222 541 
L 3222 0 
L 194 0 
Q 188 203 259 391 
Q 375 700 629 1000 
Q 884 1300 1366 1694 
Q 2113 2306 2375 2664 
Q 2638 3022 2638 3341 
Q 2638 3675 2398 3904 
Q 2159 4134 1775 4134 
Q 1369 4134 1125 3890 
Q 881 3647 878 3216 
L 300 3275 
Q 359 3922 746 4261 
Q 1134 4600 1788 4600 
Q 2447 4600 2831 4234 
Q 3216 3869 3216 3328 
Q 3216 3053 3103 2787 
Q 2991 2522 2730 2228 
Q 2469 1934 1863 1422 
Q 1356 997 1212 845 
Q 1069 694 975 541 
L 3222 541 
z
" transform="scale(0.015625)"/>
       </defs>
       <use xlink:href="#ArialMT-2212"/>
       <use xlink:href="#ArialMT-32" x="58.398438"/>
      </g>
     </g>
    </g>
    <g id="xtick_2">
     <g id="line2d_2">
      <g>
       <use xlink:href="#m40a1444781" x="127.438318" y="170.130537" style="stroke: #000000; stroke-width: 0.8"/>
      </g>
     </g>
     <g id="text_2">
      <!-- −1 -->
      <g transform="translate(122.307615 183.572568) scale(0.09 -0.09)">
       <defs>
        <path id="ArialMT-31" d="M 2384 0 
L 1822 0 
L 1822 3584 
Q 1619 3391 1289 3197 
Q 959 3003 697 2906 
L 697 3450 
Q 1169 3672 1522 3987 
Q 1875 4303 2022 4600 
L 2384 4600 
L 2384 0 
z
" transform="scale(0.015625)"/>
       </defs>
       <use xlink:href="#ArialMT-2212"/>
       <use xlink:href="#ArialMT-31" x="58.398438"/>
      </g>
     </g>
    </g>
    <g id="xtick_3">
     <g id="line2d_3">
      <g>
       <use xlink:href="#m40a1444781" x="179.800031" y="170.130537" style="stroke: #000000; stroke-width: 0.8"/>
      </g>
     </g>
     <g id="text_3">
      <!-- 0 -->
      <g transform="translate(177.297609 183.572568) scale(0.09 -0.09)">
       <defs>
        <path id="ArialMT-30" d="M 266 2259 
Q 266 3072 433 3567 
Q 600 4063 929 4331 
Q 1259 4600 1759 4600 
Q 2128 4600 2406 4451 
Q 2684 4303 2865 4023 
Q 3047 3744 3150 3342 
Q 3253 2941 3253 2259 
Q 3253 1453 3087 958 
Q 2922 463 2592 192 
Q 2263 -78 1759 -78 
Q 1097 -78 719 397 
Q 266 969 266 2259 
z
M 844 2259 
Q 844 1131 1108 757 
Q 1372 384 1759 384 
Q 2147 384 2411 759 
Q 2675 1134 2675 2259 
Q 2675 3391 2411 3762 
Q 2147 4134 1753 4134 
Q 1366 4134 1134 3806 
Q 844 3388 844 2259 
z
" transform="scale(0.015625)"/>
       </defs>
       <use xlink:href="#ArialMT-30"/>
      </g>
     </g>
    </g>
    <g id="text_4">
     <!-- (A - B) -->
     <g transform="translate(97.713749 195.913037) scale(0.09 -0.09)">
      <defs>
       <path id="ArialMT-28" d="M 1497 -1347 
Q 1031 -759 709 28 
Q 388 816 388 1659 
Q 388 2403 628 3084 
Q 909 3875 1497 4659 
L 1900 4659 
Q 1522 4009 1400 3731 
Q 1209 3300 1100 2831 
Q 966 2247 966 1656 
Q 966 153 1900 -1347 
L 1497 -1347 
z
" transform="scale(0.015625)"/>
       <path id="ArialMT-41" d="M -9 0 
L 1750 4581 
L 2403 4581 
L 4278 0 
L 3588 0 
L 3053 1388 
L 1138 1388 
L 634 0 
L -9 0 
z
M 1313 1881 
L 2866 1881 
L 2388 3150 
Q 2169 3728 2063 4100 
Q 1975 3659 1816 3225 
L 1313 1881 
z
" transform="scale(0.015625)"/>
       <path id="ArialMT-20" transform="scale(0.015625)"/>
       <path id="ArialMT-2d" d="M 203 1375 
L 203 1941 
L 1931 1941 
L 1931 1375 
L 203 1375 
z
" transform="scale(0.015625)"/>
       <path id="ArialMT-42" d="M 469 0 
L 469 4581 
L 2188 4581 
Q 2713 4581 3030 4442 
Q 3347 4303 3526 4014 
Q 3706 3725 3706 3409 
Q 3706 3116 3547 2856 
Q 3388 2597 3066 2438 
Q 3481 2316 3704 2022 
Q 3928 1728 3928 1328 
Q 3928 1006 3792 729 
Q 3656 453 3456 303 
Q 3256 153 2954 76 
Q 2653 0 2216 0 
L 469 0 
z
M 1075 2656 
L 2066 2656 
Q 2469 2656 2644 2709 
Q 2875 2778 2992 2937 
Q 3109 3097 3109 3338 
Q 3109 3566 3000 3739 
Q 2891 3913 2687 3977 
Q 2484 4041 1991 4041 
L 1075 4041 
L 1075 2656 
z
M 1075 541 
L 2216 541 
Q 2509 541 2628 563 
Q 2838 600 2978 687 
Q 3119 775 3209 942 
Q 3300 1109 3300 1328 
Q 3300 1584 3169 1773 
Q 3038 1963 2805 2039 
Q 2572 2116 2134 2116 
L 1075 2116 
L 1075 541 
z
" transform="scale(0.015625)"/>
       <path id="ArialMT-29" d="M 791 -1347 
L 388 -1347 
Q 1322 153 1322 1656 
Q 1322 2244 1188 2822 
Q 1081 3291 891 3722 
Q 769 4003 388 4659 
L 791 4659 
Q 1378 3875 1659 3084 
Q 1900 2403 1900 1659 
Q 1900 816 1576 28 
Q 1253 -759 791 -1347 
z
" transform="scale(0.015625)"/>
      </defs>
      <use xlink:href="#ArialMT-28"/>
      <use xlink:href="#ArialMT-41" x="33.300781"/>
      <use xlink:href="#ArialMT-20" x="94.5"/>
      <use xlink:href="#ArialMT-2d" x="122.283203"/>
      <use xlink:href="#ArialMT-20" x="155.583984"/>
      <use xlink:href="#ArialMT-42" x="183.367188"/>
      <use xlink:href="#ArialMT-29" x="250.066406"/>
     </g>
    </g>
    <g id="text_5">
     <!-- 1e−5 -->
     <g transform="translate(164.112811 194.80335) scale(0.09 -0.09)">
      <defs>
       <path id="ArialMT-65" d="M 2694 1069 
L 3275 997 
Q 3138 488 2766 206 
Q 2394 -75 1816 -75 
Q 1088 -75 661 373 
Q 234 822 234 1631 
Q 234 2469 665 2931 
Q 1097 3394 1784 3394 
Q 2450 3394 2872 2941 
Q 3294 2488 3294 1666 
Q 3294 1616 3291 1516 
L 816 1516 
Q 847 969 1125 678 
Q 1403 388 1819 388 
Q 2128 388 2347 550 
Q 2566 713 2694 1069 
z
M 847 1978 
L 2700 1978 
Q 2663 2397 2488 2606 
Q 2219 2931 1791 2931 
Q 1403 2931 1139 2672 
Q 875 2413 847 1978 
z
" transform="scale(0.015625)"/>
       <path id="ArialMT-35" d="M 266 1200 
L 856 1250 
Q 922 819 1161 601 
Q 1400 384 1738 384 
Q 2144 384 2425 690 
Q 2706 997 2706 1503 
Q 2706 1984 2436 2262 
Q 2166 2541 1728 2541 
Q 1456 2541 1237 2417 
Q 1019 2294 894 2097 
L 366 2166 
L 809 4519 
L 3088 4519 
L 3088 3981 
L 1259 3981 
L 1013 2750 
Q 1425 3038 1878 3038 
Q 2478 3038 2890 2622 
Q 3303 2206 3303 1553 
Q 3303 931 2941 478 
Q 2500 -78 1738 -78 
Q 1113 -78 717 272 
Q 322 622 266 1200 
z
" transform="scale(0.015625)"/>
      </defs>
      <use xlink:href="#ArialMT-31"/>
      <use xlink:href="#ArialMT-65" x="55.615234"/>
      <use xlink:href="#ArialMT-2212" x="111.230469"/>
      <use xlink:href="#ArialMT-35" x="169.628906"/>
     </g>
    </g>
   </g>
   <g id="matplotlib.axis_2">
    <g id="ytick_1">
     <g id="line2d_4">
      <defs>
       <path id="mcb80fe8ceb" d="M 0 0 
L -3.5 0 
" style="stroke: #000000; stroke-width: 0.8"/>
      </defs>
      <g>
       <use xlink:href="#mcb80fe8ceb" x="36.545938" y="170.130537" style="stroke: #000000; stroke-width: 0.8"/>
      </g>
     </g>
     <g id="text_6">
      <!-- 0 -->
      <g transform="translate(24.541094 173.351553) scale(0.09 -0.09)">
       <use xlink:href="#ArialMT-30"/>
      </g>
     </g>
    </g>
    <g id="ytick_2">
     <g id="line2d_5">
      <g>
       <use xlink:href="#mcb80fe8ceb" x="36.545938" y="134.04404" style="stroke: #000000; stroke-width: 0.8"/>
      </g>
     </g>
     <g id="text_7">
      <!-- 20 -->
      <g transform="translate(19.53625 137.265055) scale(0.09 -0.09)">
       <use xlink:href="#ArialMT-32"/>
       <use xlink:href="#ArialMT-30" x="55.615234"/>
      </g>
     </g>
    </g>
    <g id="ytick_3">
     <g id="line2d_6">
      <g>
       <use xlink:href="#mcb80fe8ceb" x="36.545938" y="97.957542" style="stroke: #000000; stroke-width: 0.8"/>
      </g>
     </g>
     <g id="text_8">
      <!-- 40 -->
      <g transform="translate(19.53625 101.178557) scale(0.09 -0.09)">
       <defs>
        <path id="ArialMT-34" d="M 2069 0 
L 2069 1097 
L 81 1097 
L 81 1613 
L 2172 4581 
L 2631 4581 
L 2631 1613 
L 3250 1613 
L 3250 1097 
L 2631 1097 
L 2631 0 
L 2069 0 
z
M 2069 1613 
L 2069 3678 
L 634 1613 
L 2069 1613 
z
" transform="scale(0.015625)"/>
       </defs>
       <use xlink:href="#ArialMT-34"/>
       <use xlink:href="#ArialMT-30" x="55.615234"/>
      </g>
     </g>
    </g>
    <g id="ytick_4">
     <g id="line2d_7">
      <g>
       <use xlink:href="#mcb80fe8ceb" x="36.545938" y="61.871044" style="stroke: #000000; stroke-width: 0.8"/>
      </g>
     </g>
     <g id="text_9">
      <!-- 60 -->
      <g transform="translate(19.53625 65.09206) scale(0.09 -0.09)">
       <defs>
        <path id="ArialMT-36" d="M 3184 3459 
L 2625 3416 
Q 2550 3747 2413 3897 
Q 2184 4138 1850 4138 
Q 1581 4138 1378 3988 
Q 1113 3794 959 3422 
Q 806 3050 800 2363 
Q 1003 2672 1297 2822 
Q 1591 2972 1913 2972 
Q 2475 2972 2870 2558 
Q 3266 2144 3266 1488 
Q 3266 1056 3080 686 
Q 2894 316 2569 119 
Q 2244 -78 1831 -78 
Q 1128 -78 684 439 
Q 241 956 241 2144 
Q 241 3472 731 4075 
Q 1159 4600 1884 4600 
Q 2425 4600 2770 4297 
Q 3116 3994 3184 3459 
z
M 888 1484 
Q 888 1194 1011 928 
Q 1134 663 1356 523 
Q 1578 384 1822 384 
Q 2178 384 2434 671 
Q 2691 959 2691 1453 
Q 2691 1928 2437 2201 
Q 2184 2475 1800 2475 
Q 1419 2475 1153 2201 
Q 888 1928 888 1484 
z
" transform="scale(0.015625)"/>
       </defs>
       <use xlink:href="#ArialMT-36"/>
       <use xlink:href="#ArialMT-30" x="55.615234"/>
      </g>
     </g>
    </g>
    <g id="ytick_5">
     <g id="line2d_8">
      <g>
       <use xlink:href="#mcb80fe8ceb" x="36.545938" y="25.784546" style="stroke: #000000; stroke-width: 0.8"/>
      </g>
     </g>
     <g id="text_10">
      <!-- 80 -->
      <g transform="translate(19.53625 29.005562) scale(0.09 -0.09)">
       <defs>
        <path id="ArialMT-38" d="M 1131 2484 
Q 781 2613 612 2850 
Q 444 3088 444 3419 
Q 444 3919 803 4259 
Q 1163 4600 1759 4600 
Q 2359 4600 2725 4251 
Q 3091 3903 3091 3403 
Q 3091 3084 2923 2848 
Q 2756 2613 2416 2484 
Q 2838 2347 3058 2040 
Q 3278 1734 3278 1309 
Q 3278 722 2862 322 
Q 2447 -78 1769 -78 
Q 1091 -78 675 323 
Q 259 725 259 1325 
Q 259 1772 486 2073 
Q 713 2375 1131 2484 
z
M 1019 3438 
Q 1019 3113 1228 2906 
Q 1438 2700 1772 2700 
Q 2097 2700 2305 2904 
Q 2513 3109 2513 3406 
Q 2513 3716 2298 3927 
Q 2084 4138 1766 4138 
Q 1444 4138 1231 3931 
Q 1019 3725 1019 3438 
z
M 838 1322 
Q 838 1081 952 856 
Q 1066 631 1291 507 
Q 1516 384 1775 384 
Q 2178 384 2440 643 
Q 2703 903 2703 1303 
Q 2703 1709 2433 1975 
Q 2163 2241 1756 2241 
Q 1359 2241 1098 1978 
Q 838 1716 838 1322 
z
" transform="scale(0.015625)"/>
       </defs>
       <use xlink:href="#ArialMT-38"/>
       <use xlink:href="#ArialMT-30" x="55.615234"/>
      </g>
     </g>
    </g>
    <g id="text_11">
     <!-- Frequency -->
     <g transform="translate(13.642031 109.924253) rotate(-90) scale(0.09 -0.09)">
      <defs>
       <path id="ArialMT-46" d="M 525 0 
L 525 4581 
L 3616 4581 
L 3616 4041 
L 1131 4041 
L 1131 2622 
L 3281 2622 
L 3281 2081 
L 1131 2081 
L 1131 0 
L 525 0 
z
" transform="scale(0.015625)"/>
       <path id="ArialMT-72" d="M 416 0 
L 416 3319 
L 922 3319 
L 922 2816 
Q 1116 3169 1280 3281 
Q 1444 3394 1641 3394 
Q 1925 3394 2219 3213 
L 2025 2691 
Q 1819 2813 1613 2813 
Q 1428 2813 1281 2702 
Q 1134 2591 1072 2394 
Q 978 2094 978 1738 
L 978 0 
L 416 0 
z
" transform="scale(0.015625)"/>
       <path id="ArialMT-71" d="M 2538 -1272 
L 2538 353 
Q 2406 169 2170 47 
Q 1934 -75 1669 -75 
Q 1078 -75 651 397 
Q 225 869 225 1691 
Q 225 2191 398 2587 
Q 572 2984 901 3189 
Q 1231 3394 1625 3394 
Q 2241 3394 2594 2875 
L 2594 3319 
L 3100 3319 
L 3100 -1272 
L 2538 -1272 
z
M 803 1669 
Q 803 1028 1072 708 
Q 1341 388 1716 388 
Q 2075 388 2334 692 
Q 2594 997 2594 1619 
Q 2594 2281 2320 2615 
Q 2047 2950 1678 2950 
Q 1313 2950 1058 2639 
Q 803 2328 803 1669 
z
" transform="scale(0.015625)"/>
       <path id="ArialMT-75" d="M 2597 0 
L 2597 488 
Q 2209 -75 1544 -75 
Q 1250 -75 995 37 
Q 741 150 617 320 
Q 494 491 444 738 
Q 409 903 409 1263 
L 409 3319 
L 972 3319 
L 972 1478 
Q 972 1038 1006 884 
Q 1059 663 1231 536 
Q 1403 409 1656 409 
Q 1909 409 2131 539 
Q 2353 669 2445 892 
Q 2538 1116 2538 1541 
L 2538 3319 
L 3100 3319 
L 3100 0 
L 2597 0 
z
" transform="scale(0.015625)"/>
       <path id="ArialMT-6e" d="M 422 0 
L 422 3319 
L 928 3319 
L 928 2847 
Q 1294 3394 1984 3394 
Q 2284 3394 2536 3286 
Q 2788 3178 2913 3003 
Q 3038 2828 3088 2588 
Q 3119 2431 3119 2041 
L 3119 0 
L 2556 0 
L 2556 2019 
Q 2556 2363 2490 2533 
Q 2425 2703 2258 2804 
Q 2091 2906 1866 2906 
Q 1506 2906 1245 2678 
Q 984 2450 984 1813 
L 984 0 
L 422 0 
z
" transform="scale(0.015625)"/>
       <path id="ArialMT-63" d="M 2588 1216 
L 3141 1144 
Q 3050 572 2676 248 
Q 2303 -75 1759 -75 
Q 1078 -75 664 370 
Q 250 816 250 1647 
Q 250 2184 428 2587 
Q 606 2991 970 3192 
Q 1334 3394 1763 3394 
Q 2303 3394 2647 3120 
Q 2991 2847 3088 2344 
L 2541 2259 
Q 2463 2594 2264 2762 
Q 2066 2931 1784 2931 
Q 1359 2931 1093 2626 
Q 828 2322 828 1663 
Q 828 994 1084 691 
Q 1341 388 1753 388 
Q 2084 388 2306 591 
Q 2528 794 2588 1216 
z
" transform="scale(0.015625)"/>
       <path id="ArialMT-79" d="M 397 -1278 
L 334 -750 
Q 519 -800 656 -800 
Q 844 -800 956 -737 
Q 1069 -675 1141 -563 
Q 1194 -478 1313 -144 
Q 1328 -97 1363 -6 
L 103 3319 
L 709 3319 
L 1400 1397 
Q 1534 1031 1641 628 
Q 1738 1016 1872 1384 
L 2581 3319 
L 3144 3319 
L 1881 -56 
Q 1678 -603 1566 -809 
Q 1416 -1088 1222 -1217 
Q 1028 -1347 759 -1347 
Q 597 -1347 397 -1278 
z
" transform="scale(0.015625)"/>
      </defs>
      <use xlink:href="#ArialMT-46"/>
      <use xlink:href="#ArialMT-72" x="61.083984"/>
      <use xlink:href="#ArialMT-65" x="94.384766"/>
      <use xlink:href="#ArialMT-71" x="150"/>
      <use xlink:href="#ArialMT-75" x="205.615234"/>
      <use xlink:href="#ArialMT-65" x="261.230469"/>
      <use xlink:href="#ArialMT-6e" x="316.845703"/>
      <use xlink:href="#ArialMT-63" x="372.460938"/>
      <use xlink:href="#ArialMT-79" x="422.460938"/>
     </g>
    </g>
   </g>
   <g id="patch_33">
    <path d="M 36.545938 170.130537 
L 36.545938 7.2 
" style="fill: none; stroke: #000000; stroke-width: 0.8; stroke-linejoin: miter; stroke-linecap: square"/>
   </g>
   <g id="patch_34">
    <path d="M 184.383905 170.130537 
L 184.383905 7.2 
" style="fill: none; stroke: #000000; stroke-width: 0.8; stroke-linejoin: miter; stroke-linecap: square"/>
   </g>
   <g id="patch_35">
    <path d="M 36.545938 170.130537 
L 184.383905 170.130537 
" style="fill: none; stroke: #000000; stroke-width: 0.8; stroke-linejoin: miter; stroke-linecap: square"/>
   </g>
   <g id="patch_36">
    <path d="M 36.545938 7.2 
L 184.383905 7.2 
" style="fill: none; stroke: #000000; stroke-width: 0.8; stroke-linejoin: miter; stroke-linecap: square"/>
   </g>
   <g id="text_12">
    <!-- P(A &gt; B): 0.00 -->
    <g transform="translate(42.459456 21.898246) scale(0.09 -0.09)">
     <defs>
      <path id="ArialMT-50" d="M 494 0 
L 494 4581 
L 2222 4581 
Q 2678 4581 2919 4538 
Q 3256 4481 3484 4323 
Q 3713 4166 3852 3881 
Q 3991 3597 3991 3256 
Q 3991 2672 3619 2267 
Q 3247 1863 2275 1863 
L 1100 1863 
L 1100 0 
L 494 0 
z
M 1100 2403 
L 2284 2403 
Q 2872 2403 3119 2622 
Q 3366 2841 3366 3238 
Q 3366 3525 3220 3729 
Q 3075 3934 2838 4000 
Q 2684 4041 2272 4041 
L 1100 4041 
L 1100 2403 
z
" transform="scale(0.015625)"/>
      <path id="ArialMT-3e" d="M 3384 2003 
L 350 706 
L 350 1266 
L 2753 2263 
L 350 3250 
L 350 3809 
L 3384 2528 
L 3384 2003 
z
" transform="scale(0.015625)"/>
      <path id="ArialMT-3a" d="M 578 2678 
L 578 3319 
L 1219 3319 
L 1219 2678 
L 578 2678 
z
M 578 0 
L 578 641 
L 1219 641 
L 1219 0 
L 578 0 
z
" transform="scale(0.015625)"/>
      <path id="ArialMT-2e" d="M 581 0 
L 581 641 
L 1222 641 
L 1222 0 
L 581 0 
z
" transform="scale(0.015625)"/>
     </defs>
     <use xlink:href="#ArialMT-50"/>
     <use xlink:href="#ArialMT-28" x="66.699219"/>
     <use xlink:href="#ArialMT-41" x="100"/>
     <use xlink:href="#ArialMT-20" x="161.199219"/>
     <use xlink:href="#ArialMT-3e" x="188.982422"/>
     <use xlink:href="#ArialMT-20" x="247.380859"/>
     <use xlink:href="#ArialMT-42" x="275.164062"/>
     <use xlink:href="#ArialMT-29" x="341.863281"/>
     <use xlink:href="#ArialMT-3a" x="375.164062"/>
     <use xlink:href="#ArialMT-20" x="402.947266"/>
     <use xlink:href="#ArialMT-30" x="430.730469"/>
     <use xlink:href="#ArialMT-2e" x="486.345703"/>
     <use xlink:href="#ArialMT-30" x="514.128906"/>
     <use xlink:href="#ArialMT-30" x="569.744141"/>
    </g>
   </g>
  </g>
  <g id="axes_2">
   <g id="patch_37">
    <path d="M 197.603905 170.130537 
L 345.441873 170.130537 
L 345.441873 7.2 
L 197.603905 7.2 
z
" style="fill: #ffffff"/>
   </g>
   <g id="patch_38">
    <path d="M 204.323813 170.130537 
L 208.803751 170.130537 
L 208.803751 168.326212 
L 204.323813 168.326212 
z
" clip-path="url(#pf24278e41f)" style="fill: #7cc582; stroke: #414141; stroke-linejoin: miter"/>
   </g>
   <g id="patch_39">
    <path d="M 208.803751 170.130537 
L 213.283689 170.130537 
L 213.283689 164.717563 
L 208.803751 164.717563 
z
" clip-path="url(#pf24278e41f)" style="fill: #7cc582; stroke: #414141; stroke-linejoin: miter"/>
   </g>
   <g id="patch_40">
    <path d="M 213.283689 170.130537 
L 217.763628 170.130537 
L 217.763628 168.326212 
L 213.283689 168.326212 
z
" clip-path="url(#pf24278e41f)" style="fill: #7cc582; stroke: #414141; stroke-linejoin: miter"/>
   </g>
   <g id="patch_41">
    <path d="M 217.763628 170.130537 
L 222.243566 170.130537 
L 222.243566 162.913238 
L 217.763628 162.913238 
z
" clip-path="url(#pf24278e41f)" style="fill: #7cc582; stroke: #414141; stroke-linejoin: miter"/>
   </g>
   <g id="patch_42">
    <path d="M 222.243566 170.130537 
L 226.723505 170.130537 
L 226.723505 168.326212 
L 222.243566 168.326212 
z
" clip-path="url(#pf24278e41f)" style="fill: #7cc582; stroke: #414141; stroke-linejoin: miter"/>
   </g>
   <g id="patch_43">
    <path d="M 226.723505 170.130537 
L 231.203443 170.130537 
L 231.203443 164.717563 
L 226.723505 164.717563 
z
" clip-path="url(#pf24278e41f)" style="fill: #7cc582; stroke: #414141; stroke-linejoin: miter"/>
   </g>
   <g id="patch_44">
    <path d="M 231.203443 170.130537 
L 235.683381 170.130537 
L 235.683381 166.521887 
L 231.203443 166.521887 
z
" clip-path="url(#pf24278e41f)" style="fill: #7cc582; stroke: #414141; stroke-linejoin: miter"/>
   </g>
   <g id="patch_45">
    <path d="M 235.683381 170.130537 
L 240.16332 170.130537 
L 240.16332 166.521887 
L 235.683381 166.521887 
z
" clip-path="url(#pf24278e41f)" style="fill: #7cc582; stroke: #414141; stroke-linejoin: miter"/>
   </g>
   <g id="patch_46">
    <path d="M 240.16332 170.130537 
L 244.643258 170.130537 
L 244.643258 164.717563 
L 240.16332 164.717563 
z
" clip-path="url(#pf24278e41f)" style="fill: #7cc582; stroke: #414141; stroke-linejoin: miter"/>
   </g>
   <g id="patch_47">
    <path d="M 244.643258 170.130537 
L 249.123197 170.130537 
L 249.123197 166.521887 
L 244.643258 166.521887 
z
" clip-path="url(#pf24278e41f)" style="fill: #7cc582; stroke: #414141; stroke-linejoin: miter"/>
   </g>
   <g id="patch_48">
    <path d="M 249.123197 170.130537 
L 253.603135 170.130537 
L 253.603135 146.674314 
L 249.123197 146.674314 
z
" clip-path="url(#pf24278e41f)" style="fill: #7cc582; stroke: #414141; stroke-linejoin: miter"/>
   </g>
   <g id="patch_49">
    <path d="M 253.603135 170.130537 
L 258.083074 170.130537 
L 258.083074 152.087288 
L 253.603135 152.087288 
z
" clip-path="url(#pf24278e41f)" style="fill: #7cc582; stroke: #414141; stroke-linejoin: miter"/>
   </g>
   <g id="patch_50">
    <path d="M 258.083074 170.130537 
L 262.563012 170.130537 
L 262.563012 148.478639 
L 258.083074 148.478639 
z
" clip-path="url(#pf24278e41f)" style="fill: #7cc582; stroke: #414141; stroke-linejoin: miter"/>
   </g>
   <g id="patch_51">
    <path d="M 262.563012 170.130537 
L 267.04295 170.130537 
L 267.04295 141.261339 
L 262.563012 141.261339 
z
" clip-path="url(#pf24278e41f)" style="fill: #7cc582; stroke: #414141; stroke-linejoin: miter"/>
   </g>
   <g id="patch_52">
    <path d="M 267.04295 170.130537 
L 271.522889 170.130537 
L 271.522889 143.065664 
L 267.04295 143.065664 
z
" clip-path="url(#pf24278e41f)" style="fill: #7cc582; stroke: #414141; stroke-linejoin: miter"/>
   </g>
   <g id="patch_53">
    <path d="M 271.522889 170.130537 
L 276.002827 170.130537 
L 276.002827 132.239715 
L 271.522889 132.239715 
z
" clip-path="url(#pf24278e41f)" style="fill: #7cc582; stroke: #414141; stroke-linejoin: miter"/>
   </g>
   <g id="patch_54">
    <path d="M 276.002827 170.130537 
L 280.482766 170.130537 
L 280.482766 106.979166 
L 276.002827 106.979166 
z
" clip-path="url(#pf24278e41f)" style="fill: #7cc582; stroke: #414141; stroke-linejoin: miter"/>
   </g>
   <g id="patch_55">
    <path d="M 280.482766 170.130537 
L 284.962704 170.130537 
L 284.962704 119.60944 
L 280.482766 119.60944 
z
" clip-path="url(#pf24278e41f)" style="fill: #7cc582; stroke: #414141; stroke-linejoin: miter"/>
   </g>
   <g id="patch_56">
    <path d="M 284.962704 170.130537 
L 289.442642 170.130537 
L 289.442642 85.327268 
L 284.962704 85.327268 
z
" clip-path="url(#pf24278e41f)" style="fill: #7cc582; stroke: #414141; stroke-linejoin: miter"/>
   </g>
   <g id="patch_57">
    <path d="M 289.442642 170.130537 
L 293.922581 170.130537 
L 293.922581 108.783491 
L 289.442642 108.783491 
z
" clip-path="url(#pf24278e41f)" style="fill: #7cc582; stroke: #414141; stroke-linejoin: miter"/>
   </g>
   <g id="patch_58">
    <path d="M 293.922581 170.130537 
L 298.402519 170.130537 
L 298.402519 99.761867 
L 293.922581 99.761867 
z
" clip-path="url(#pf24278e41f)" style="fill: #7cc582; stroke: #414141; stroke-linejoin: miter"/>
   </g>
   <g id="patch_59">
    <path d="M 298.402519 170.130537 
L 302.882458 170.130537 
L 302.882458 106.979166 
L 298.402519 106.979166 
z
" clip-path="url(#pf24278e41f)" style="fill: #7cc582; stroke: #414141; stroke-linejoin: miter"/>
   </g>
   <g id="patch_60">
    <path d="M 302.882458 170.130537 
L 307.362396 170.130537 
L 307.362396 90.740242 
L 302.882458 90.740242 
z
" clip-path="url(#pf24278e41f)" style="fill: #7cc582; stroke: #414141; stroke-linejoin: miter"/>
   </g>
   <g id="patch_61">
    <path d="M 307.362396 170.130537 
L 311.842334 170.130537 
L 311.842334 101.566192 
L 307.362396 101.566192 
z
" clip-path="url(#pf24278e41f)" style="fill: #7cc582; stroke: #414141; stroke-linejoin: miter"/>
   </g>
   <g id="patch_62">
    <path d="M 311.842334 170.130537 
L 316.322273 170.130537 
L 316.322273 116.000791 
L 311.842334 116.000791 
z
" clip-path="url(#pf24278e41f)" style="fill: #7cc582; stroke: #414141; stroke-linejoin: miter"/>
   </g>
   <g id="patch_63">
    <path d="M 316.322273 170.130537 
L 320.802211 170.130537 
L 320.802211 128.631065 
L 316.322273 128.631065 
z
" clip-path="url(#pf24278e41f)" style="fill: #7cc582; stroke: #414141; stroke-linejoin: miter"/>
   </g>
   <g id="patch_64">
    <path d="M 320.802211 170.130537 
L 325.28215 170.130537 
L 325.28215 134.04404 
L 320.802211 134.04404 
z
" clip-path="url(#pf24278e41f)" style="fill: #7cc582; stroke: #414141; stroke-linejoin: miter"/>
   </g>
   <g id="patch_65">
    <path d="M 325.28215 170.130537 
L 329.762088 170.130537 
L 329.762088 162.913238 
L 325.28215 162.913238 
z
" clip-path="url(#pf24278e41f)" style="fill: #7cc582; stroke: #414141; stroke-linejoin: miter"/>
   </g>
   <g id="patch_66">
    <path d="M 329.762088 170.130537 
L 334.242026 170.130537 
L 334.242026 157.500263 
L 329.762088 157.500263 
z
" clip-path="url(#pf24278e41f)" style="fill: #7cc582; stroke: #414141; stroke-linejoin: miter"/>
   </g>
   <g id="patch_67">
    <path d="M 334.242026 170.130537 
L 338.721965 170.130537 
L 338.721965 157.500263 
L 334.242026 157.500263 
z
" clip-path="url(#pf24278e41f)" style="fill: #7cc582; stroke: #414141; stroke-linejoin: miter"/>
   </g>
   <g id="matplotlib.axis_3">
    <g id="xtick_4">
     <g id="line2d_9">
      <g>
       <use xlink:href="#m40a1444781" x="225.616087" y="170.130537" style="stroke: #000000; stroke-width: 0.8"/>
      </g>
     </g>
     <g id="text_13">
      <!-- −3 -->
      <g transform="translate(220.485384 183.572568) scale(0.09 -0.09)">
       <defs>
        <path id="ArialMT-33" d="M 269 1209 
L 831 1284 
Q 928 806 1161 595 
Q 1394 384 1728 384 
Q 2125 384 2398 659 
Q 2672 934 2672 1341 
Q 2672 1728 2419 1979 
Q 2166 2231 1775 2231 
Q 1616 2231 1378 2169 
L 1441 2663 
Q 1497 2656 1531 2656 
Q 1891 2656 2178 2843 
Q 2466 3031 2466 3422 
Q 2466 3731 2256 3934 
Q 2047 4138 1716 4138 
Q 1388 4138 1169 3931 
Q 950 3725 888 3313 
L 325 3413 
Q 428 3978 793 4289 
Q 1159 4600 1703 4600 
Q 2078 4600 2393 4439 
Q 2709 4278 2876 4000 
Q 3044 3722 3044 3409 
Q 3044 3113 2884 2869 
Q 2725 2625 2413 2481 
Q 2819 2388 3044 2092 
Q 3269 1797 3269 1353 
Q 3269 753 2831 336 
Q 2394 -81 1725 -81 
Q 1122 -81 723 278 
Q 325 638 269 1209 
z
" transform="scale(0.015625)"/>
       </defs>
       <use xlink:href="#ArialMT-2212"/>
       <use xlink:href="#ArialMT-33" x="58.398438"/>
      </g>
     </g>
    </g>
    <g id="xtick_5">
     <g id="line2d_10">
      <g>
       <use xlink:href="#m40a1444781" x="269.81261" y="170.130537" style="stroke: #000000; stroke-width: 0.8"/>
      </g>
     </g>
     <g id="text_14">
      <!-- −2 -->
      <g transform="translate(264.681907 183.572568) scale(0.09 -0.09)">
       <use xlink:href="#ArialMT-2212"/>
       <use xlink:href="#ArialMT-32" x="58.398438"/>
      </g>
     </g>
    </g>
    <g id="xtick_6">
     <g id="line2d_11">
      <g>
       <use xlink:href="#m40a1444781" x="314.009134" y="170.130537" style="stroke: #000000; stroke-width: 0.8"/>
      </g>
     </g>
     <g id="text_15">
      <!-- −1 -->
      <g transform="translate(308.878431 183.572568) scale(0.09 -0.09)">
       <use xlink:href="#ArialMT-2212"/>
       <use xlink:href="#ArialMT-31" x="58.398438"/>
      </g>
     </g>
    </g>
    <g id="text_16">
     <!-- (A - B) -->
     <g transform="translate(258.771717 195.913037) scale(0.09 -0.09)">
      <use xlink:href="#ArialMT-28"/>
      <use xlink:href="#ArialMT-41" x="33.300781"/>
      <use xlink:href="#ArialMT-20" x="94.5"/>
      <use xlink:href="#ArialMT-2d" x="122.283203"/>
      <use xlink:href="#ArialMT-20" x="155.583984"/>
      <use xlink:href="#ArialMT-42" x="183.367188"/>
      <use xlink:href="#ArialMT-29" x="250.066406"/>
     </g>
    </g>
    <g id="text_17">
     <!-- 1e−8 -->
     <g transform="translate(325.170779 194.80335) scale(0.09 -0.09)">
      <use xlink:href="#ArialMT-31"/>
      <use xlink:href="#ArialMT-65" x="55.615234"/>
      <use xlink:href="#ArialMT-2212" x="111.230469"/>
      <use xlink:href="#ArialMT-38" x="169.628906"/>
     </g>
    </g>
   </g>
   <g id="matplotlib.axis_4">
    <g id="ytick_6">
     <g id="line2d_12">
      <g>
       <use xlink:href="#mcb80fe8ceb" x="197.603905" y="170.130537" style="stroke: #000000; stroke-width: 0.8"/>
      </g>
     </g>
    </g>
    <g id="ytick_7">
     <g id="line2d_13">
      <g>
       <use xlink:href="#mcb80fe8ceb" x="197.603905" y="134.04404" style="stroke: #000000; stroke-width: 0.8"/>
      </g>
     </g>
    </g>
    <g id="ytick_8">
     <g id="line2d_14">
      <g>
       <use xlink:href="#mcb80fe8ceb" x="197.603905" y="97.957542" style="stroke: #000000; stroke-width: 0.8"/>
      </g>
     </g>
    </g>
    <g id="ytick_9">
     <g id="line2d_15">
      <g>
       <use xlink:href="#mcb80fe8ceb" x="197.603905" y="61.871044" style="stroke: #000000; stroke-width: 0.8"/>
      </g>
     </g>
    </g>
    <g id="ytick_10">
     <g id="line2d_16">
      <g>
       <use xlink:href="#mcb80fe8ceb" x="197.603905" y="25.784546" style="stroke: #000000; stroke-width: 0.8"/>
      </g>
     </g>
    </g>
   </g>
   <g id="patch_68">
    <path d="M 197.603905 170.130537 
L 197.603905 7.2 
" style="fill: none; stroke: #000000; stroke-width: 0.8; stroke-linejoin: miter; stroke-linecap: square"/>
   </g>
   <g id="patch_69">
    <path d="M 345.441873 170.130537 
L 345.441873 7.2 
" style="fill: none; stroke: #000000; stroke-width: 0.8; stroke-linejoin: miter; stroke-linecap: square"/>
   </g>
   <g id="patch_70">
    <path d="M 197.603905 170.130537 
L 345.441873 170.130537 
" style="fill: none; stroke: #000000; stroke-width: 0.8; stroke-linejoin: miter; stroke-linecap: square"/>
   </g>
   <g id="patch_71">
    <path d="M 197.603905 7.2 
L 345.441873 7.2 
" style="fill: none; stroke: #000000; stroke-width: 0.8; stroke-linejoin: miter; stroke-linecap: square"/>
   </g>
   <g id="text_18">
    <!-- P(A &gt; B): 0.00 -->
    <g transform="translate(203.517424 21.898246) scale(0.09 -0.09)">
     <use xlink:href="#ArialMT-50"/>
     <use xlink:href="#ArialMT-28" x="66.699219"/>
     <use xlink:href="#ArialMT-41" x="100"/>
     <use xlink:href="#ArialMT-20" x="161.199219"/>
     <use xlink:href="#ArialMT-3e" x="188.982422"/>
     <use xlink:href="#ArialMT-20" x="247.380859"/>
     <use xlink:href="#ArialMT-42" x="275.164062"/>
     <use xlink:href="#ArialMT-29" x="341.863281"/>
     <use xlink:href="#ArialMT-3a" x="375.164062"/>
     <use xlink:href="#ArialMT-20" x="402.947266"/>
     <use xlink:href="#ArialMT-30" x="430.730469"/>
     <use xlink:href="#ArialMT-2e" x="486.345703"/>
     <use xlink:href="#ArialMT-30" x="514.128906"/>
     <use xlink:href="#ArialMT-30" x="569.744141"/>
    </g>
   </g>
  </g>
  <g id="axes_3">
   <g id="patch_72">
    <path d="M 358.661873 170.130537 
L 506.49984 170.130537 
L 506.49984 7.2 
L 358.661873 7.2 
z
" style="fill: #ffffff"/>
   </g>
   <g id="patch_73">
    <path d="M 365.38178 170.130537 
L 369.861719 170.130537 
L 369.861719 168.326212 
L 365.38178 168.326212 
z
" clip-path="url(#pd07d156669)" style="fill: #7cc582; stroke: #414141; stroke-linejoin: miter"/>
   </g>
   <g id="patch_74">
    <path d="M 369.861719 170.130537 
L 374.341657 170.130537 
L 374.341657 168.326212 
L 369.861719 168.326212 
z
" clip-path="url(#pd07d156669)" style="fill: #7cc582; stroke: #414141; stroke-linejoin: miter"/>
   </g>
   <g id="patch_75">
    <path d="M 374.341657 170.130537 
L 378.821595 170.130537 
L 378.821595 170.130537 
L 374.341657 170.130537 
z
" clip-path="url(#pd07d156669)" style="fill: #7cc582; stroke: #414141; stroke-linejoin: miter"/>
   </g>
   <g id="patch_76">
    <path d="M 378.821595 170.130537 
L 383.301534 170.130537 
L 383.301534 170.130537 
L 378.821595 170.130537 
z
" clip-path="url(#pd07d156669)" style="fill: #7cc582; stroke: #414141; stroke-linejoin: miter"/>
   </g>
   <g id="patch_77">
    <path d="M 383.301534 170.130537 
L 387.781472 170.130537 
L 387.781472 168.326212 
L 383.301534 168.326212 
z
" clip-path="url(#pd07d156669)" style="fill: #7cc582; stroke: #414141; stroke-linejoin: miter"/>
   </g>
   <g id="patch_78">
    <path d="M 387.781472 170.130537 
L 392.261411 170.130537 
L 392.261411 168.326212 
L 387.781472 168.326212 
z
" clip-path="url(#pd07d156669)" style="fill: #7cc582; stroke: #414141; stroke-linejoin: miter"/>
   </g>
   <g id="patch_79">
    <path d="M 392.261411 170.130537 
L 396.741349 170.130537 
L 396.741349 168.326212 
L 392.261411 168.326212 
z
" clip-path="url(#pd07d156669)" style="fill: #7cc582; stroke: #414141; stroke-linejoin: miter"/>
   </g>
   <g id="patch_80">
    <path d="M 396.741349 170.130537 
L 401.221287 170.130537 
L 401.221287 168.326212 
L 396.741349 168.326212 
z
" clip-path="url(#pd07d156669)" style="fill: #7cc582; stroke: #414141; stroke-linejoin: miter"/>
   </g>
   <g id="patch_81">
    <path d="M 401.221287 170.130537 
L 405.701226 170.130537 
L 405.701226 164.717563 
L 401.221287 164.717563 
z
" clip-path="url(#pd07d156669)" style="fill: #7cc582; stroke: #414141; stroke-linejoin: miter"/>
   </g>
   <g id="patch_82">
    <path d="M 405.701226 170.130537 
L 410.181164 170.130537 
L 410.181164 166.521887 
L 405.701226 166.521887 
z
" clip-path="url(#pd07d156669)" style="fill: #7cc582; stroke: #414141; stroke-linejoin: miter"/>
   </g>
   <g id="patch_83">
    <path d="M 410.181164 170.130537 
L 414.661103 170.130537 
L 414.661103 162.913238 
L 410.181164 162.913238 
z
" clip-path="url(#pd07d156669)" style="fill: #7cc582; stroke: #414141; stroke-linejoin: miter"/>
   </g>
   <g id="patch_84">
    <path d="M 414.661103 170.130537 
L 419.141041 170.130537 
L 419.141041 164.717563 
L 414.661103 164.717563 
z
" clip-path="url(#pd07d156669)" style="fill: #7cc582; stroke: #414141; stroke-linejoin: miter"/>
   </g>
   <g id="patch_85">
    <path d="M 419.141041 170.130537 
L 423.620979 170.130537 
L 423.620979 159.304588 
L 419.141041 159.304588 
z
" clip-path="url(#pd07d156669)" style="fill: #7cc582; stroke: #414141; stroke-linejoin: miter"/>
   </g>
   <g id="patch_86">
    <path d="M 423.620979 170.130537 
L 428.100918 170.130537 
L 428.100918 139.457014 
L 423.620979 139.457014 
z
" clip-path="url(#pd07d156669)" style="fill: #7cc582; stroke: #414141; stroke-linejoin: miter"/>
   </g>
   <g id="patch_87">
    <path d="M 428.100918 170.130537 
L 432.580856 170.130537 
L 432.580856 148.478639 
L 428.100918 148.478639 
z
" clip-path="url(#pd07d156669)" style="fill: #7cc582; stroke: #414141; stroke-linejoin: miter"/>
   </g>
   <g id="patch_88">
    <path d="M 432.580856 170.130537 
L 437.060795 170.130537 
L 437.060795 144.869989 
L 432.580856 144.869989 
z
" clip-path="url(#pd07d156669)" style="fill: #7cc582; stroke: #414141; stroke-linejoin: miter"/>
   </g>
   <g id="patch_89">
    <path d="M 437.060795 170.130537 
L 441.540733 170.130537 
L 441.540733 112.392141 
L 437.060795 112.392141 
z
" clip-path="url(#pd07d156669)" style="fill: #7cc582; stroke: #414141; stroke-linejoin: miter"/>
   </g>
   <g id="patch_90">
    <path d="M 441.540733 170.130537 
L 446.020671 170.130537 
L 446.020671 126.82674 
L 441.540733 126.82674 
z
" clip-path="url(#pd07d156669)" style="fill: #7cc582; stroke: #414141; stroke-linejoin: miter"/>
   </g>
   <g id="patch_91">
    <path d="M 446.020671 170.130537 
L 450.50061 170.130537 
L 450.50061 99.761867 
L 446.020671 99.761867 
z
" clip-path="url(#pd07d156669)" style="fill: #7cc582; stroke: #414141; stroke-linejoin: miter"/>
   </g>
   <g id="patch_92">
    <path d="M 450.50061 170.130537 
L 454.980548 170.130537 
L 454.980548 103.370516 
L 450.50061 103.370516 
z
" clip-path="url(#pd07d156669)" style="fill: #7cc582; stroke: #414141; stroke-linejoin: miter"/>
   </g>
   <g id="patch_93">
    <path d="M 454.980548 170.130537 
L 459.460487 170.130537 
L 459.460487 79.914293 
L 454.980548 79.914293 
z
" clip-path="url(#pd07d156669)" style="fill: #7cc582; stroke: #414141; stroke-linejoin: miter"/>
   </g>
   <g id="patch_94">
    <path d="M 459.460487 170.130537 
L 463.940425 170.130537 
L 463.940425 108.783491 
L 459.460487 108.783491 
z
" clip-path="url(#pd07d156669)" style="fill: #7cc582; stroke: #414141; stroke-linejoin: miter"/>
   </g>
   <g id="patch_95">
    <path d="M 463.940425 170.130537 
L 468.420364 170.130537 
L 468.420364 101.566192 
L 463.940425 101.566192 
z
" clip-path="url(#pd07d156669)" style="fill: #7cc582; stroke: #414141; stroke-linejoin: miter"/>
   </g>
   <g id="patch_96">
    <path d="M 468.420364 170.130537 
L 472.900302 170.130537 
L 472.900302 76.305643 
L 468.420364 76.305643 
z
" clip-path="url(#pd07d156669)" style="fill: #7cc582; stroke: #414141; stroke-linejoin: miter"/>
   </g>
   <g id="patch_97">
    <path d="M 472.900302 170.130537 
L 477.38024 170.130537 
L 477.38024 88.935917 
L 472.900302 88.935917 
z
" clip-path="url(#pd07d156669)" style="fill: #7cc582; stroke: #414141; stroke-linejoin: miter"/>
   </g>
   <g id="patch_98">
    <path d="M 477.38024 170.130537 
L 481.860179 170.130537 
L 481.860179 106.979166 
L 477.38024 106.979166 
z
" clip-path="url(#pd07d156669)" style="fill: #7cc582; stroke: #414141; stroke-linejoin: miter"/>
   </g>
   <g id="patch_99">
    <path d="M 481.860179 170.130537 
L 486.340117 170.130537 
L 486.340117 139.457014 
L 481.860179 139.457014 
z
" clip-path="url(#pd07d156669)" style="fill: #7cc582; stroke: #414141; stroke-linejoin: miter"/>
   </g>
   <g id="patch_100">
    <path d="M 486.340117 170.130537 
L 490.820056 170.130537 
L 490.820056 146.674314 
L 486.340117 146.674314 
z
" clip-path="url(#pd07d156669)" style="fill: #7cc582; stroke: #414141; stroke-linejoin: miter"/>
   </g>
   <g id="patch_101">
    <path d="M 490.820056 170.130537 
L 495.299994 170.130537 
L 495.299994 152.087288 
L 490.820056 152.087288 
z
" clip-path="url(#pd07d156669)" style="fill: #7cc582; stroke: #414141; stroke-linejoin: miter"/>
   </g>
   <g id="patch_102">
    <path d="M 495.299994 170.130537 
L 499.779932 170.130537 
L 499.779932 157.500263 
L 495.299994 157.500263 
z
" clip-path="url(#pd07d156669)" style="fill: #7cc582; stroke: #414141; stroke-linejoin: miter"/>
   </g>
   <g id="matplotlib.axis_5">
    <g id="xtick_7">
     <g id="line2d_17">
      <g>
       <use xlink:href="#m40a1444781" x="367.505252" y="170.130537" style="stroke: #000000; stroke-width: 0.8"/>
      </g>
     </g>
     <g id="text_19">
      <!-- −1.5 -->
      <g transform="translate(358.621971 183.572568) scale(0.09 -0.09)">
       <use xlink:href="#ArialMT-2212"/>
       <use xlink:href="#ArialMT-31" x="58.398438"/>
       <use xlink:href="#ArialMT-2e" x="114.013672"/>
       <use xlink:href="#ArialMT-35" x="141.796875"/>
      </g>
     </g>
    </g>
    <g id="xtick_8">
     <g id="line2d_18">
      <g>
       <use xlink:href="#m40a1444781" x="411.688828" y="170.130537" style="stroke: #000000; stroke-width: 0.8"/>
      </g>
     </g>
     <g id="text_20">
      <!-- −1.0 -->
      <g transform="translate(402.805547 183.572568) scale(0.09 -0.09)">
       <use xlink:href="#ArialMT-2212"/>
       <use xlink:href="#ArialMT-31" x="58.398438"/>
       <use xlink:href="#ArialMT-2e" x="114.013672"/>
       <use xlink:href="#ArialMT-30" x="141.796875"/>
      </g>
     </g>
    </g>
    <g id="xtick_9">
     <g id="line2d_19">
      <g>
       <use xlink:href="#m40a1444781" x="455.872404" y="170.130537" style="stroke: #000000; stroke-width: 0.8"/>
      </g>
     </g>
     <g id="text_21">
      <!-- −0.5 -->
      <g transform="translate(446.989123 183.572568) scale(0.09 -0.09)">
       <use xlink:href="#ArialMT-2212"/>
       <use xlink:href="#ArialMT-30" x="58.398438"/>
       <use xlink:href="#ArialMT-2e" x="114.013672"/>
       <use xlink:href="#ArialMT-35" x="141.796875"/>
      </g>
     </g>
    </g>
    <g id="xtick_10">
     <g id="line2d_20">
      <g>
       <use xlink:href="#m40a1444781" x="500.055979" y="170.130537" style="stroke: #000000; stroke-width: 0.8"/>
      </g>
     </g>
     <g id="text_22">
      <!-- 0.0 -->
      <g transform="translate(493.800979 183.572568) scale(0.09 -0.09)">
       <use xlink:href="#ArialMT-30"/>
       <use xlink:href="#ArialMT-2e" x="55.615234"/>
       <use xlink:href="#ArialMT-30" x="83.398438"/>
      </g>
     </g>
    </g>
    <g id="text_23">
     <!-- (A - B) -->
     <g transform="translate(419.829684 195.913037) scale(0.09 -0.09)">
      <use xlink:href="#ArialMT-28"/>
      <use xlink:href="#ArialMT-41" x="33.300781"/>
      <use xlink:href="#ArialMT-20" x="94.5"/>
      <use xlink:href="#ArialMT-2d" x="122.283203"/>
      <use xlink:href="#ArialMT-20" x="155.583984"/>
      <use xlink:href="#ArialMT-42" x="183.367188"/>
      <use xlink:href="#ArialMT-29" x="250.066406"/>
     </g>
    </g>
   </g>
   <g id="matplotlib.axis_6">
    <g id="ytick_11">
     <g id="line2d_21">
      <g>
       <use xlink:href="#mcb80fe8ceb" x="358.661873" y="170.130537" style="stroke: #000000; stroke-width: 0.8"/>
      </g>
     </g>
    </g>
    <g id="ytick_12">
     <g id="line2d_22">
      <g>
       <use xlink:href="#mcb80fe8ceb" x="358.661873" y="134.04404" style="stroke: #000000; stroke-width: 0.8"/>
      </g>
     </g>
    </g>
    <g id="ytick_13">
     <g id="line2d_23">
      <g>
       <use xlink:href="#mcb80fe8ceb" x="358.661873" y="97.957542" style="stroke: #000000; stroke-width: 0.8"/>
      </g>
     </g>
    </g>
    <g id="ytick_14">
     <g id="line2d_24">
      <g>
       <use xlink:href="#mcb80fe8ceb" x="358.661873" y="61.871044" style="stroke: #000000; stroke-width: 0.8"/>
      </g>
     </g>
    </g>
    <g id="ytick_15">
     <g id="line2d_25">
      <g>
       <use xlink:href="#mcb80fe8ceb" x="358.661873" y="25.784546" style="stroke: #000000; stroke-width: 0.8"/>
      </g>
     </g>
    </g>
   </g>
   <g id="patch_103">
    <path d="M 358.661873 170.130537 
L 358.661873 7.2 
" style="fill: none; stroke: #000000; stroke-width: 0.8; stroke-linejoin: miter; stroke-linecap: square"/>
   </g>
   <g id="patch_104">
    <path d="M 506.49984 170.130537 
L 506.49984 7.2 
" style="fill: none; stroke: #000000; stroke-width: 0.8; stroke-linejoin: miter; stroke-linecap: square"/>
   </g>
   <g id="patch_105">
    <path d="M 358.661873 170.130537 
L 506.49984 170.130537 
" style="fill: none; stroke: #000000; stroke-width: 0.8; stroke-linejoin: miter; stroke-linecap: square"/>
   </g>
   <g id="patch_106">
    <path d="M 358.661873 7.2 
L 506.49984 7.2 
" style="fill: none; stroke: #000000; stroke-width: 0.8; stroke-linejoin: miter; stroke-linecap: square"/>
   </g>
   <g id="text_24">
    <!-- P(A &gt; B): 0.00 -->
    <g transform="translate(364.575391 21.898246) scale(0.09 -0.09)">
     <use xlink:href="#ArialMT-50"/>
     <use xlink:href="#ArialMT-28" x="66.699219"/>
     <use xlink:href="#ArialMT-41" x="100"/>
     <use xlink:href="#ArialMT-20" x="161.199219"/>
     <use xlink:href="#ArialMT-3e" x="188.982422"/>
     <use xlink:href="#ArialMT-20" x="247.380859"/>
     <use xlink:href="#ArialMT-42" x="275.164062"/>
     <use xlink:href="#ArialMT-29" x="341.863281"/>
     <use xlink:href="#ArialMT-3a" x="375.164062"/>
     <use xlink:href="#ArialMT-20" x="402.947266"/>
     <use xlink:href="#ArialMT-30" x="430.730469"/>
     <use xlink:href="#ArialMT-2e" x="486.345703"/>
     <use xlink:href="#ArialMT-30" x="514.128906"/>
     <use xlink:href="#ArialMT-30" x="569.744141"/>
    </g>
   </g>
  </g>
 </g>
 <defs>
  <clipPath id="pa935ad37eb">
   <rect x="36.545938" y="7.2" width="147.837968" height="162.930537"/>
  </clipPath>
  <clipPath id="pf24278e41f">
   <rect x="197.603905" y="7.2" width="147.837968" height="162.930537"/>
  </clipPath>
  <clipPath id="pd07d156669">
   <rect x="358.661873" y="7.2" width="147.837967" height="162.930537"/>
  </clipPath>
 </defs>
</svg>
