<?xml version="1.0" encoding="utf-8" standalone="no"?>
<!DOCTYPE svg PUBLIC "-//W3C//DTD SVG 1.1//EN"
  "http://www.w3.org/Graphics/SVG/1.1/DTD/svg11.dtd">
<svg xmlns:xlink="http://www.w3.org/1999/xlink" width="513.69984pt" height="312.123935pt" viewBox="0 0 513.69984 312.123935" xmlns="http://www.w3.org/2000/svg" version="1.1">
 <metadata>
  <rdf:RDF xmlns:dc="http://purl.org/dc/elements/1.1/" xmlns:cc="http://creativecommons.org/ns#" xmlns:rdf="http://www.w3.org/1999/02/22-rdf-syntax-ns#">
   <cc:Work>
    <dc:type rdf:resource="http://purl.org/dc/dcmitype/StillImage"/>
    <dc:date>2025-09-08T18:18:58.656048</dc:date>
    <dc:format>image/svg+xml</dc:format>
    <dc:creator>
     <cc:Agent>
      <dc:title>Matplotlib v3.9.2, https://matplotlib.org/</dc:title>
     </cc:Agent>
    </dc:creator>
   </cc:Work>
  </rdf:RDF>
 </metadata>
 <defs>
  <style type="text/css">*{stroke-linejoin: round; stroke-linecap: butt}</style>
 </defs>
 <g id="figure_1">
  <g id="patch_1">
   <path d="M 0 312.123935 
L 513.69984 312.123935 
L 513.69984 0 
L 0 0 
z
" style="fill: #ffffff"/>
  </g>
  <g id="axes_1">
   <g id="patch_2">
    <path d="M 38.451406 252.486758 
L 506.49984 252.486758 
L 506.49984 7.2 
L 38.451406 7.2 
z
" style="fill: #ffffff"/>
   </g>
   <g id="patch_3">
    <path d="M 62.331428 200.847441 
L 100.539464 200.847441 
L 100.539464 86.688618 
L 62.331428 86.688618 
z
" clip-path="url(#p8b8c8b244c)" style="fill: #808080; opacity: 0.8"/>
   </g>
   <g id="patch_4">
    <path d="M 157.851517 200.847441 
L 196.059552 200.847441 
L 196.059552 200.847441 
L 157.851517 200.847441 
z
" clip-path="url(#p8b8c8b244c)" style="fill: #808080; opacity: 0.8"/>
   </g>
   <g id="patch_5">
    <path d="M 253.371605 200.847441 
L 291.579641 200.847441 
L 291.579641 200.847441 
L 253.371605 200.847441 
z
" clip-path="url(#p8b8c8b244c)" style="fill: #808080; opacity: 0.8"/>
   </g>
   <g id="patch_6">
    <path d="M 348.891694 200.847441 
L 387.099729 200.847441 
L 387.099729 200.847441 
L 348.891694 200.847441 
z
" clip-path="url(#p8b8c8b244c)" style="fill: #808080; opacity: 0.8"/>
   </g>
   <g id="patch_7">
    <path d="M 444.411782 200.847441 
L 482.619818 200.847441 
L 482.619818 200.847441 
L 444.411782 200.847441 
z
" clip-path="url(#p8b8c8b244c)" style="fill: #808080; opacity: 0.8"/>
   </g>
   <g id="patch_8">
    <path d="M 62.331428 200.847441 
L 100.539464 200.847441 
L 100.539464 200.847441 
L 62.331428 200.847441 
z
" clip-path="url(#p8b8c8b244c)" style="fill: #f94144; opacity: 0.8"/>
   </g>
   <g id="patch_9">
    <path d="M 157.851517 200.847441 
L 196.059552 200.847441 
L 196.059552 170.93928 
L 157.851517 170.93928 
z
" clip-path="url(#p8b8c8b244c)" style="fill: #f94144; opacity: 0.8"/>
   </g>
   <g id="patch_10">
    <path d="M 253.371605 200.847441 
L 291.579641 200.847441 
L 291.579641 170.988645 
L 253.371605 170.988645 
z
" clip-path="url(#p8b8c8b244c)" style="fill: #f94144; opacity: 0.8"/>
   </g>
   <g id="patch_11">
    <path d="M 348.891694 200.847441 
L 387.099729 200.847441 
L 387.099729 217.933177 
L 348.891694 217.933177 
z
" clip-path="url(#p8b8c8b244c)" style="fill: #f94144; opacity: 0.8"/>
   </g>
   <g id="patch_12">
    <path d="M 444.411782 200.847441 
L 482.619818 200.847441 
L 482.619818 217.904976 
L 444.411782 217.904976 
z
" clip-path="url(#p8b8c8b244c)" style="fill: #f94144; opacity: 0.8"/>
   </g>
   <g id="patch_13">
    <path d="M 62.331428 200.847441 
L 100.539464 200.847441 
L 100.539464 200.847441 
L 62.331428 200.847441 
z
" clip-path="url(#p8b8c8b244c)" style="fill: #f3722c; opacity: 0.8"/>
   </g>
   <g id="patch_14">
    <path d="M 157.851517 170.93928 
L 196.059552 170.93928 
L 196.059552 165.433032 
L 157.851517 165.433032 
z
" clip-path="url(#p8b8c8b244c)" style="fill: #f3722c; opacity: 0.8"/>
   </g>
   <g id="patch_15">
    <path d="M 253.371605 170.988645 
L 291.579641 170.988645 
L 291.579641 169.118455 
L 253.371605 169.118455 
z
" clip-path="url(#p8b8c8b244c)" style="fill: #f3722c; opacity: 0.8"/>
   </g>
   <g id="patch_16">
    <path d="M 348.891694 200.847441 
L 387.099729 200.847441 
L 387.099729 195.341193 
L 348.891694 195.341193 
z
" clip-path="url(#p8b8c8b244c)" style="fill: #f3722c; opacity: 0.8"/>
   </g>
   <g id="patch_17">
    <path d="M 444.411782 200.847441 
L 482.619818 200.847441 
L 482.619818 198.977251 
L 444.411782 198.977251 
z
" clip-path="url(#p8b8c8b244c)" style="fill: #f3722c; opacity: 0.8"/>
   </g>
   <g id="patch_18">
    <path d="M 62.331428 200.847441 
L 100.539464 200.847441 
L 100.539464 200.847441 
L 62.331428 200.847441 
z
" clip-path="url(#p8b8c8b244c)" style="fill: #f8961e; opacity: 0.8"/>
   </g>
   <g id="patch_19">
    <path d="M 157.851517 200.847441 
L 196.059552 200.847441 
L 196.059552 218.533943 
L 157.851517 218.533943 
z
" clip-path="url(#p8b8c8b244c)" style="fill: #f8961e; opacity: 0.8"/>
   </g>
   <g id="patch_20">
    <path d="M 253.371605 200.847441 
L 291.579641 200.847441 
L 291.579641 202.838262 
L 253.371605 202.838262 
z
" clip-path="url(#p8b8c8b244c)" style="fill: #f8961e; opacity: 0.8"/>
   </g>
   <g id="patch_21">
    <path d="M 348.891694 217.933177 
L 387.099729 217.933177 
L 387.099729 235.619679 
L 348.891694 235.619679 
z
" clip-path="url(#p8b8c8b244c)" style="fill: #f8961e; opacity: 0.8"/>
   </g>
   <g id="patch_22">
    <path d="M 444.411782 217.904976 
L 482.619818 217.904976 
L 482.619818 219.895798 
L 444.411782 219.895798 
z
" clip-path="url(#p8b8c8b244c)" style="fill: #f8961e; opacity: 0.8"/>
   </g>
   <g id="patch_23">
    <path d="M 62.331428 200.847441 
L 100.539464 200.847441 
L 100.539464 200.847441 
L 62.331428 200.847441 
z
" clip-path="url(#p8b8c8b244c)" style="fill: #f9c74f; opacity: 0.8"/>
   </g>
   <g id="patch_24">
    <path d="M 157.851517 218.533943 
L 196.059552 218.533943 
L 196.059552 218.533943 
L 157.851517 218.533943 
z
" clip-path="url(#p8b8c8b244c)" style="fill: #f9c74f; opacity: 0.8"/>
   </g>
   <g id="patch_25">
    <path d="M 253.371605 202.838262 
L 291.579641 202.838262 
L 291.579641 215.046634 
L 253.371605 215.046634 
z
" clip-path="url(#p8b8c8b244c)" style="fill: #f9c74f; opacity: 0.8"/>
   </g>
   <g id="patch_26">
    <path d="M 348.891694 235.619679 
L 387.099729 235.619679 
L 387.099729 235.619679 
L 348.891694 235.619679 
z
" clip-path="url(#p8b8c8b244c)" style="fill: #f9c74f; opacity: 0.8"/>
   </g>
   <g id="patch_27">
    <path d="M 444.411782 219.895798 
L 482.619818 219.895798 
L 482.619818 232.10417 
L 444.411782 232.10417 
z
" clip-path="url(#p8b8c8b244c)" style="fill: #f9c74f; opacity: 0.8"/>
   </g>
   <g id="patch_28">
    <path d="M 62.331428 200.847441 
L 100.539464 200.847441 
L 100.539464 200.847441 
L 62.331428 200.847441 
z
" clip-path="url(#p8b8c8b244c)" style="fill: #90be6d; opacity: 0.8"/>
   </g>
   <g id="patch_29">
    <path d="M 157.851517 165.433032 
L 196.059552 165.433032 
L 196.059552 163.590964 
L 157.851517 163.590964 
z
" clip-path="url(#p8b8c8b244c)" style="fill: #90be6d; opacity: 0.8"/>
   </g>
   <g id="patch_30">
    <path d="M 253.371605 169.118455 
L 291.579641 169.118455 
L 291.579641 165.846378 
L 253.371605 165.846378 
z
" clip-path="url(#p8b8c8b244c)" style="fill: #90be6d; opacity: 0.8"/>
   </g>
   <g id="patch_31">
    <path d="M 348.891694 195.341193 
L 387.099729 195.341193 
L 387.099729 193.499125 
L 348.891694 193.499125 
z
" clip-path="url(#p8b8c8b244c)" style="fill: #90be6d; opacity: 0.8"/>
   </g>
   <g id="patch_32">
    <path d="M 444.411782 198.977251 
L 482.619818 198.977251 
L 482.619818 195.705174 
L 444.411782 195.705174 
z
" clip-path="url(#p8b8c8b244c)" style="fill: #90be6d; opacity: 0.8"/>
   </g>
   <g id="patch_33">
    <path d="M 62.331428 200.847441 
L 100.539464 200.847441 
L 100.539464 200.847441 
L 62.331428 200.847441 
z
" clip-path="url(#p8b8c8b244c)" style="fill: #43aa8b; opacity: 0.8"/>
   </g>
   <g id="patch_34">
    <path d="M 157.851517 163.590964 
L 196.059552 163.590964 
L 196.059552 147.738307 
L 157.851517 147.738307 
z
" clip-path="url(#p8b8c8b244c)" style="fill: #43aa8b; opacity: 0.8"/>
   </g>
   <g id="patch_35">
    <path d="M 253.371605 165.846378 
L 291.579641 165.846378 
L 291.579641 157.868669 
L 253.371605 157.868669 
z
" clip-path="url(#p8b8c8b244c)" style="fill: #43aa8b; opacity: 0.8"/>
   </g>
   <g id="patch_36">
    <path d="M 348.891694 193.499125 
L 387.099729 193.499125 
L 387.099729 177.646467 
L 348.891694 177.646467 
z
" clip-path="url(#p8b8c8b244c)" style="fill: #43aa8b; opacity: 0.8"/>
   </g>
   <g id="patch_37">
    <path d="M 444.411782 195.705174 
L 482.619818 195.705174 
L 482.619818 187.727465 
L 444.411782 187.727465 
z
" clip-path="url(#p8b8c8b244c)" style="fill: #43aa8b; opacity: 0.8"/>
   </g>
   <g id="patch_38">
    <path d="M 62.331428 200.847441 
L 100.539464 200.847441 
L 100.539464 200.847441 
L 62.331428 200.847441 
z
" clip-path="url(#p8b8c8b244c)" style="fill: #4d908e; opacity: 0.8"/>
   </g>
   <g id="patch_39">
    <path d="M 157.851517 147.738307 
L 196.059552 147.738307 
L 196.059552 141.136522 
L 157.851517 141.136522 
z
" clip-path="url(#p8b8c8b244c)" style="fill: #4d908e; opacity: 0.8"/>
   </g>
   <g id="patch_40">
    <path d="M 253.371605 157.868669 
L 291.579641 157.868669 
L 291.579641 156.965484 
L 253.371605 156.965484 
z
" clip-path="url(#p8b8c8b244c)" style="fill: #4d908e; opacity: 0.8"/>
   </g>
   <g id="patch_41">
    <path d="M 348.891694 177.646467 
L 387.099729 177.646467 
L 387.099729 171.044683 
L 348.891694 171.044683 
z
" clip-path="url(#p8b8c8b244c)" style="fill: #4d908e; opacity: 0.8"/>
   </g>
   <g id="patch_42">
    <path d="M 444.411782 187.727465 
L 482.619818 187.727465 
L 482.619818 186.82428 
L 444.411782 186.82428 
z
" clip-path="url(#p8b8c8b244c)" style="fill: #4d908e; opacity: 0.8"/>
   </g>
   <g id="patch_43">
    <path d="M 62.331428 200.847441 
L 100.539464 200.847441 
L 100.539464 200.847441 
L 62.331428 200.847441 
z
" clip-path="url(#p8b8c8b244c)" style="fill: #577590; opacity: 0.8"/>
   </g>
   <g id="patch_44">
    <path d="M 157.851517 141.136522 
L 196.059552 141.136522 
L 196.059552 140.55115 
L 157.851517 140.55115 
z
" clip-path="url(#p8b8c8b244c)" style="fill: #577590; opacity: 0.8"/>
   </g>
   <g id="patch_45">
    <path d="M 253.371605 156.965484 
L 291.579641 156.965484 
L 291.579641 151.786594 
L 253.371605 151.786594 
z
" clip-path="url(#p8b8c8b244c)" style="fill: #577590; opacity: 0.8"/>
   </g>
   <g id="patch_46">
    <path d="M 348.891694 171.044683 
L 387.099729 171.044683 
L 387.099729 170.45931 
L 348.891694 170.45931 
z
" clip-path="url(#p8b8c8b244c)" style="fill: #577590; opacity: 0.8"/>
   </g>
   <g id="patch_47">
    <path d="M 444.411782 186.82428 
L 482.619818 186.82428 
L 482.619818 181.64539 
L 444.411782 181.64539 
z
" clip-path="url(#p8b8c8b244c)" style="fill: #577590; opacity: 0.8"/>
   </g>
   <g id="LineCollection_1">
    <path d="M 81.435446 141.844345 
L 81.435446 31.532891 
" clip-path="url(#p8b8c8b244c)" style="fill: none; stroke: #000000"/>
    <path d="M 176.955535 171.870456 
L 176.955535 144.604848 
" clip-path="url(#p8b8c8b244c)" style="fill: none; stroke: #000000"/>
    <path d="M 272.475623 174.791185 
L 272.475623 157.18039 
" clip-path="url(#p8b8c8b244c)" style="fill: none; stroke: #000000"/>
    <path d="M 367.995712 230.461937 
L 367.995712 180.001161 
" clip-path="url(#p8b8c8b244c)" style="fill: none; stroke: #000000"/>
    <path d="M 463.5158 232.264752 
L 463.5158 193.539486 
" clip-path="url(#p8b8c8b244c)" style="fill: none; stroke: #000000"/>
   </g>
   <g id="line2d_1">
    <defs>
     <path id="m5d605abd71" d="M 5 0 
L -5 -0 
" style="stroke: #000000"/>
    </defs>
    <g clip-path="url(#p8b8c8b244c)">
     <use xlink:href="#m5d605abd71" x="81.435446" y="141.844345" style="stroke: #000000"/>
     <use xlink:href="#m5d605abd71" x="176.955535" y="171.870456" style="stroke: #000000"/>
     <use xlink:href="#m5d605abd71" x="272.475623" y="174.791185" style="stroke: #000000"/>
     <use xlink:href="#m5d605abd71" x="367.995712" y="230.461937" style="stroke: #000000"/>
     <use xlink:href="#m5d605abd71" x="463.5158" y="232.264752" style="stroke: #000000"/>
    </g>
   </g>
   <g id="line2d_2">
    <g clip-path="url(#p8b8c8b244c)">
     <use xlink:href="#m5d605abd71" x="81.435446" y="31.532891" style="stroke: #000000"/>
     <use xlink:href="#m5d605abd71" x="176.955535" y="144.604848" style="stroke: #000000"/>
     <use xlink:href="#m5d605abd71" x="272.475623" y="157.18039" style="stroke: #000000"/>
     <use xlink:href="#m5d605abd71" x="367.995712" y="180.001161" style="stroke: #000000"/>
     <use xlink:href="#m5d605abd71" x="463.5158" y="193.539486" style="stroke: #000000"/>
    </g>
   </g>
   <g id="matplotlib.axis_1">
    <g id="xtick_1">
     <g id="line2d_3">
      <defs>
       <path id="mb7794ef55a" d="M 0 0 
L 0 3.5 
" style="stroke: #000000; stroke-width: 0.8"/>
      </defs>
      <g>
       <use xlink:href="#mb7794ef55a" x="81.435446" y="252.486758" style="stroke: #000000; stroke-width: 0.8"/>
      </g>
     </g>
     <g id="text_1">
      <!-- Fossil -->
      <g transform="translate(69.684821 265.928789) scale(0.09 -0.09)">
       <defs>
        <path id="ArialMT-46" d="M 525 0 
L 525 4581 
L 3616 4581 
L 3616 4041 
L 1131 4041 
L 1131 2622 
L 3281 2622 
L 3281 2081 
L 1131 2081 
L 1131 0 
L 525 0 
z
" transform="scale(0.015625)"/>
        <path id="ArialMT-6f" d="M 213 1659 
Q 213 2581 725 3025 
Q 1153 3394 1769 3394 
Q 2453 3394 2887 2945 
Q 3322 2497 3322 1706 
Q 3322 1066 3130 698 
Q 2938 331 2570 128 
Q 2203 -75 1769 -75 
Q 1072 -75 642 372 
Q 213 819 213 1659 
z
M 791 1659 
Q 791 1022 1069 705 
Q 1347 388 1769 388 
Q 2188 388 2466 706 
Q 2744 1025 2744 1678 
Q 2744 2294 2464 2611 
Q 2184 2928 1769 2928 
Q 1347 2928 1069 2612 
Q 791 2297 791 1659 
z
" transform="scale(0.015625)"/>
        <path id="ArialMT-73" d="M 197 991 
L 753 1078 
Q 800 744 1014 566 
Q 1228 388 1613 388 
Q 2000 388 2187 545 
Q 2375 703 2375 916 
Q 2375 1106 2209 1216 
Q 2094 1291 1634 1406 
Q 1016 1563 777 1677 
Q 538 1791 414 1992 
Q 291 2194 291 2438 
Q 291 2659 392 2848 
Q 494 3038 669 3163 
Q 800 3259 1026 3326 
Q 1253 3394 1513 3394 
Q 1903 3394 2198 3281 
Q 2494 3169 2634 2976 
Q 2775 2784 2828 2463 
L 2278 2388 
Q 2241 2644 2061 2787 
Q 1881 2931 1553 2931 
Q 1166 2931 1000 2803 
Q 834 2675 834 2503 
Q 834 2394 903 2306 
Q 972 2216 1119 2156 
Q 1203 2125 1616 2013 
Q 2213 1853 2448 1751 
Q 2684 1650 2818 1456 
Q 2953 1263 2953 975 
Q 2953 694 2789 445 
Q 2625 197 2315 61 
Q 2006 -75 1616 -75 
Q 969 -75 630 194 
Q 291 463 197 991 
z
" transform="scale(0.015625)"/>
        <path id="ArialMT-69" d="M 425 3934 
L 425 4581 
L 988 4581 
L 988 3934 
L 425 3934 
z
M 425 0 
L 425 3319 
L 988 3319 
L 988 0 
L 425 0 
z
" transform="scale(0.015625)"/>
        <path id="ArialMT-6c" d="M 409 0 
L 409 4581 
L 972 4581 
L 972 0 
L 409 0 
z
" transform="scale(0.015625)"/>
       </defs>
       <use xlink:href="#ArialMT-46"/>
       <use xlink:href="#ArialMT-6f" x="61.083984"/>
       <use xlink:href="#ArialMT-73" x="116.699219"/>
       <use xlink:href="#ArialMT-73" x="166.699219"/>
       <use xlink:href="#ArialMT-69" x="216.699219"/>
       <use xlink:href="#ArialMT-6c" x="238.916016"/>
      </g>
     </g>
    </g>
    <g id="xtick_2">
     <g id="line2d_4">
      <g>
       <use xlink:href="#mb7794ef55a" x="176.955535" y="252.486758" style="stroke: #000000; stroke-width: 0.8"/>
      </g>
     </g>
     <g id="text_2">
      <!-- DAC CO$_\mathdefault{2}$ -->
      <g transform="translate(157.515535 265.928789) scale(0.09 -0.09)">
       <defs>
        <path id="ArialMT-44" d="M 494 0 
L 494 4581 
L 2072 4581 
Q 2606 4581 2888 4516 
Q 3281 4425 3559 4188 
Q 3922 3881 4101 3404 
Q 4281 2928 4281 2316 
Q 4281 1794 4159 1391 
Q 4038 988 3847 723 
Q 3656 459 3429 307 
Q 3203 156 2883 78 
Q 2563 0 2147 0 
L 494 0 
z
M 1100 541 
L 2078 541 
Q 2531 541 2789 625 
Q 3047 709 3200 863 
Q 3416 1078 3536 1442 
Q 3656 1806 3656 2325 
Q 3656 3044 3420 3430 
Q 3184 3816 2847 3947 
Q 2603 4041 2063 4041 
L 1100 4041 
L 1100 541 
z
" transform="scale(0.015625)"/>
        <path id="ArialMT-41" d="M -9 0 
L 1750 4581 
L 2403 4581 
L 4278 0 
L 3588 0 
L 3053 1388 
L 1138 1388 
L 634 0 
L -9 0 
z
M 1313 1881 
L 2866 1881 
L 2388 3150 
Q 2169 3728 2063 4100 
Q 1975 3659 1816 3225 
L 1313 1881 
z
" transform="scale(0.015625)"/>
        <path id="ArialMT-43" d="M 3763 1606 
L 4369 1453 
Q 4178 706 3683 314 
Q 3188 -78 2472 -78 
Q 1731 -78 1267 223 
Q 803 525 561 1097 
Q 319 1669 319 2325 
Q 319 3041 592 3573 
Q 866 4106 1370 4382 
Q 1875 4659 2481 4659 
Q 3169 4659 3637 4309 
Q 4106 3959 4291 3325 
L 3694 3184 
Q 3534 3684 3231 3912 
Q 2928 4141 2469 4141 
Q 1941 4141 1586 3887 
Q 1231 3634 1087 3207 
Q 944 2781 944 2328 
Q 944 1744 1114 1308 
Q 1284 872 1643 656 
Q 2003 441 2422 441 
Q 2931 441 3284 734 
Q 3638 1028 3763 1606 
z
" transform="scale(0.015625)"/>
        <path id="ArialMT-20" transform="scale(0.015625)"/>
        <path id="ArialMT-4f" d="M 309 2231 
Q 309 3372 921 4017 
Q 1534 4663 2503 4663 
Q 3138 4663 3647 4359 
Q 4156 4056 4423 3514 
Q 4691 2972 4691 2284 
Q 4691 1588 4409 1038 
Q 4128 488 3612 205 
Q 3097 -78 2500 -78 
Q 1853 -78 1343 234 
Q 834 547 571 1087 
Q 309 1628 309 2231 
z
M 934 2222 
Q 934 1394 1379 917 
Q 1825 441 2497 441 
Q 3181 441 3623 922 
Q 4066 1403 4066 2288 
Q 4066 2847 3877 3264 
Q 3688 3681 3323 3911 
Q 2959 4141 2506 4141 
Q 1863 4141 1398 3698 
Q 934 3256 934 2222 
z
" transform="scale(0.015625)"/>
        <path id="ArialMT-32" d="M 3222 541 
L 3222 0 
L 194 0 
Q 188 203 259 391 
Q 375 700 629 1000 
Q 884 1300 1366 1694 
Q 2113 2306 2375 2664 
Q 2638 3022 2638 3341 
Q 2638 3675 2398 3904 
Q 2159 4134 1775 4134 
Q 1369 4134 1125 3890 
Q 881 3647 878 3216 
L 300 3275 
Q 359 3922 746 4261 
Q 1134 4600 1788 4600 
Q 2447 4600 2831 4234 
Q 3216 3869 3216 3328 
Q 3216 3053 3103 2787 
Q 2991 2522 2730 2228 
Q 2469 1934 1863 1422 
Q 1356 997 1212 845 
Q 1069 694 975 541 
L 3222 541 
z
" transform="scale(0.015625)"/>
       </defs>
       <use xlink:href="#ArialMT-44" transform="translate(0 0.140625)"/>
       <use xlink:href="#ArialMT-41" transform="translate(72.216797 0.140625)"/>
       <use xlink:href="#ArialMT-43" transform="translate(138.916016 0.140625)"/>
       <use xlink:href="#ArialMT-20" transform="translate(211.132812 0.140625)"/>
       <use xlink:href="#ArialMT-43" transform="translate(238.916016 0.140625)"/>
       <use xlink:href="#ArialMT-4f" transform="translate(311.132812 0.140625)"/>
       <use xlink:href="#ArialMT-32" transform="translate(389.873047 -16.265625) scale(0.7)"/>
      </g>
     </g>
    </g>
    <g id="xtick_3">
     <g id="line2d_5">
      <g>
       <use xlink:href="#mb7794ef55a" x="272.475623" y="252.486758" style="stroke: #000000; stroke-width: 0.8"/>
      </g>
     </g>
     <g id="text_3">
      <!-- Biogas -->
      <g transform="translate(258.716873 265.928789) scale(0.09 -0.09)">
       <defs>
        <path id="ArialMT-42" d="M 469 0 
L 469 4581 
L 2188 4581 
Q 2713 4581 3030 4442 
Q 3347 4303 3526 4014 
Q 3706 3725 3706 3409 
Q 3706 3116 3547 2856 
Q 3388 2597 3066 2438 
Q 3481 2316 3704 2022 
Q 3928 1728 3928 1328 
Q 3928 1006 3792 729 
Q 3656 453 3456 303 
Q 3256 153 2954 76 
Q 2653 0 2216 0 
L 469 0 
z
M 1075 2656 
L 2066 2656 
Q 2469 2656 2644 2709 
Q 2875 2778 2992 2937 
Q 3109 3097 3109 3338 
Q 3109 3566 3000 3739 
Q 2891 3913 2687 3977 
Q 2484 4041 1991 4041 
L 1075 4041 
L 1075 2656 
z
M 1075 541 
L 2216 541 
Q 2509 541 2628 563 
Q 2838 600 2978 687 
Q 3119 775 3209 942 
Q 3300 1109 3300 1328 
Q 3300 1584 3169 1773 
Q 3038 1963 2805 2039 
Q 2572 2116 2134 2116 
L 1075 2116 
L 1075 541 
z
" transform="scale(0.015625)"/>
        <path id="ArialMT-67" d="M 319 -275 
L 866 -356 
Q 900 -609 1056 -725 
Q 1266 -881 1628 -881 
Q 2019 -881 2231 -725 
Q 2444 -569 2519 -288 
Q 2563 -116 2559 434 
Q 2191 0 1641 0 
Q 956 0 581 494 
Q 206 988 206 1678 
Q 206 2153 378 2554 
Q 550 2956 876 3175 
Q 1203 3394 1644 3394 
Q 2231 3394 2613 2919 
L 2613 3319 
L 3131 3319 
L 3131 450 
Q 3131 -325 2973 -648 
Q 2816 -972 2473 -1159 
Q 2131 -1347 1631 -1347 
Q 1038 -1347 672 -1080 
Q 306 -813 319 -275 
z
M 784 1719 
Q 784 1066 1043 766 
Q 1303 466 1694 466 
Q 2081 466 2343 764 
Q 2606 1063 2606 1700 
Q 2606 2309 2336 2618 
Q 2066 2928 1684 2928 
Q 1309 2928 1046 2623 
Q 784 2319 784 1719 
z
" transform="scale(0.015625)"/>
        <path id="ArialMT-61" d="M 2588 409 
Q 2275 144 1986 34 
Q 1697 -75 1366 -75 
Q 819 -75 525 192 
Q 231 459 231 875 
Q 231 1119 342 1320 
Q 453 1522 633 1644 
Q 813 1766 1038 1828 
Q 1203 1872 1538 1913 
Q 2219 1994 2541 2106 
Q 2544 2222 2544 2253 
Q 2544 2597 2384 2738 
Q 2169 2928 1744 2928 
Q 1347 2928 1158 2789 
Q 969 2650 878 2297 
L 328 2372 
Q 403 2725 575 2942 
Q 747 3159 1072 3276 
Q 1397 3394 1825 3394 
Q 2250 3394 2515 3294 
Q 2781 3194 2906 3042 
Q 3031 2891 3081 2659 
Q 3109 2516 3109 2141 
L 3109 1391 
Q 3109 606 3145 398 
Q 3181 191 3288 0 
L 2700 0 
Q 2613 175 2588 409 
z
M 2541 1666 
Q 2234 1541 1622 1453 
Q 1275 1403 1131 1340 
Q 988 1278 909 1158 
Q 831 1038 831 891 
Q 831 666 1001 516 
Q 1172 366 1500 366 
Q 1825 366 2078 508 
Q 2331 650 2450 897 
Q 2541 1088 2541 1459 
L 2541 1666 
z
" transform="scale(0.015625)"/>
       </defs>
       <use xlink:href="#ArialMT-42"/>
       <use xlink:href="#ArialMT-69" x="66.699219"/>
       <use xlink:href="#ArialMT-6f" x="88.916016"/>
       <use xlink:href="#ArialMT-67" x="144.53125"/>
       <use xlink:href="#ArialMT-61" x="200.146484"/>
       <use xlink:href="#ArialMT-73" x="255.761719"/>
      </g>
     </g>
    </g>
    <g id="xtick_4">
     <g id="line2d_6">
      <g>
       <use xlink:href="#mb7794ef55a" x="367.995712" y="252.486758" style="stroke: #000000; stroke-width: 0.8"/>
      </g>
     </g>
     <g id="text_4">
      <!-- DAC CO$_\mathdefault{2}$ -->
      <g transform="translate(348.555712 265.928789) scale(0.09 -0.09)">
       <use xlink:href="#ArialMT-44" transform="translate(0 0.140625)"/>
       <use xlink:href="#ArialMT-41" transform="translate(72.216797 0.140625)"/>
       <use xlink:href="#ArialMT-43" transform="translate(138.916016 0.140625)"/>
       <use xlink:href="#ArialMT-20" transform="translate(211.132812 0.140625)"/>
       <use xlink:href="#ArialMT-43" transform="translate(238.916016 0.140625)"/>
       <use xlink:href="#ArialMT-4f" transform="translate(311.132812 0.140625)"/>
       <use xlink:href="#ArialMT-32" transform="translate(389.873047 -16.265625) scale(0.7)"/>
      </g>
     </g>
    </g>
    <g id="xtick_5">
     <g id="line2d_7">
      <g>
       <use xlink:href="#mb7794ef55a" x="463.5158" y="252.486758" style="stroke: #000000; stroke-width: 0.8"/>
      </g>
     </g>
     <g id="text_5">
      <!-- Biogas -->
      <g transform="translate(449.75705 265.928789) scale(0.09 -0.09)">
       <use xlink:href="#ArialMT-42"/>
       <use xlink:href="#ArialMT-69" x="66.699219"/>
       <use xlink:href="#ArialMT-6f" x="88.916016"/>
       <use xlink:href="#ArialMT-67" x="144.53125"/>
       <use xlink:href="#ArialMT-61" x="200.146484"/>
       <use xlink:href="#ArialMT-73" x="255.761719"/>
      </g>
     </g>
    </g>
   </g>
   <g id="matplotlib.axis_2">
    <g id="ytick_1">
     <g id="line2d_8">
      <defs>
       <path id="mab195a2536" d="M 0 0 
L -3.5 0 
" style="stroke: #000000; stroke-width: 0.8"/>
      </defs>
      <g>
       <use xlink:href="#mab195a2536" x="38.451406" y="252.486758" style="stroke: #000000; stroke-width: 0.8"/>
      </g>
     </g>
     <g id="text_6">
      <!-- −2 -->
      <g transform="translate(21.19 255.707774) scale(0.09 -0.09)">
       <defs>
        <path id="ArialMT-2212" d="M 3381 1997 
L 356 1997 
L 356 2522 
L 3381 2522 
L 3381 1997 
z
" transform="scale(0.015625)"/>
       </defs>
       <use xlink:href="#ArialMT-2212"/>
       <use xlink:href="#ArialMT-32" x="58.398438"/>
      </g>
     </g>
    </g>
    <g id="ytick_2">
     <g id="line2d_9">
      <g>
       <use xlink:href="#mab195a2536" x="38.451406" y="200.847441" style="stroke: #000000; stroke-width: 0.8"/>
      </g>
     </g>
     <g id="text_7">
      <!-- 0 -->
      <g transform="translate(26.446563 204.068456) scale(0.09 -0.09)">
       <defs>
        <path id="ArialMT-30" d="M 266 2259 
Q 266 3072 433 3567 
Q 600 4063 929 4331 
Q 1259 4600 1759 4600 
Q 2128 4600 2406 4451 
Q 2684 4303 2865 4023 
Q 3047 3744 3150 3342 
Q 3253 2941 3253 2259 
Q 3253 1453 3087 958 
Q 2922 463 2592 192 
Q 2263 -78 1759 -78 
Q 1097 -78 719 397 
Q 266 969 266 2259 
z
M 844 2259 
Q 844 1131 1108 757 
Q 1372 384 1759 384 
Q 2147 384 2411 759 
Q 2675 1134 2675 2259 
Q 2675 3391 2411 3762 
Q 2147 4134 1753 4134 
Q 1366 4134 1134 3806 
Q 844 3388 844 2259 
z
" transform="scale(0.015625)"/>
       </defs>
       <use xlink:href="#ArialMT-30"/>
      </g>
     </g>
    </g>
    <g id="ytick_3">
     <g id="line2d_10">
      <g>
       <use xlink:href="#mab195a2536" x="38.451406" y="149.208123" style="stroke: #000000; stroke-width: 0.8"/>
      </g>
     </g>
     <g id="text_8">
      <!-- 2 -->
      <g transform="translate(26.446563 152.429139) scale(0.09 -0.09)">
       <use xlink:href="#ArialMT-32"/>
      </g>
     </g>
    </g>
    <g id="ytick_4">
     <g id="line2d_11">
      <g>
       <use xlink:href="#mab195a2536" x="38.451406" y="97.568806" style="stroke: #000000; stroke-width: 0.8"/>
      </g>
     </g>
     <g id="text_9">
      <!-- 4 -->
      <g transform="translate(26.446563 100.789821) scale(0.09 -0.09)">
       <defs>
        <path id="ArialMT-34" d="M 2069 0 
L 2069 1097 
L 81 1097 
L 81 1613 
L 2172 4581 
L 2631 4581 
L 2631 1613 
L 3250 1613 
L 3250 1097 
L 2631 1097 
L 2631 0 
L 2069 0 
z
M 2069 1613 
L 2069 3678 
L 634 1613 
L 2069 1613 
z
" transform="scale(0.015625)"/>
       </defs>
       <use xlink:href="#ArialMT-34"/>
      </g>
     </g>
    </g>
    <g id="ytick_5">
     <g id="line2d_12">
      <g>
       <use xlink:href="#mab195a2536" x="38.451406" y="45.929488" style="stroke: #000000; stroke-width: 0.8"/>
      </g>
     </g>
     <g id="text_10">
      <!-- 6 -->
      <g transform="translate(26.446563 49.150504) scale(0.09 -0.09)">
       <defs>
        <path id="ArialMT-36" d="M 3184 3459 
L 2625 3416 
Q 2550 3747 2413 3897 
Q 2184 4138 1850 4138 
Q 1581 4138 1378 3988 
Q 1113 3794 959 3422 
Q 806 3050 800 2363 
Q 1003 2672 1297 2822 
Q 1591 2972 1913 2972 
Q 2475 2972 2870 2558 
Q 3266 2144 3266 1488 
Q 3266 1056 3080 686 
Q 2894 316 2569 119 
Q 2244 -78 1831 -78 
Q 1128 -78 684 439 
Q 241 956 241 2144 
Q 241 3472 731 4075 
Q 1159 4600 1884 4600 
Q 2425 4600 2770 4297 
Q 3116 3994 3184 3459 
z
M 888 1484 
Q 888 1194 1011 928 
Q 1134 663 1356 523 
Q 1578 384 1822 384 
Q 2178 384 2434 671 
Q 2691 959 2691 1453 
Q 2691 1928 2437 2201 
Q 2184 2475 1800 2475 
Q 1419 2475 1153 2201 
Q 888 1928 888 1484 
z
" transform="scale(0.015625)"/>
       </defs>
       <use xlink:href="#ArialMT-36"/>
      </g>
     </g>
    </g>
    <g id="text_11">
     <!-- Climate change impacts (kgCO$_\mathdefault{2}$e kg$^\mathdefault{-1}$) -->
     <g transform="translate(15.21 207.828379) rotate(-90) scale(0.09 -0.09)">
      <defs>
       <path id="ArialMT-6d" d="M 422 0 
L 422 3319 
L 925 3319 
L 925 2853 
Q 1081 3097 1340 3245 
Q 1600 3394 1931 3394 
Q 2300 3394 2536 3241 
Q 2772 3088 2869 2813 
Q 3263 3394 3894 3394 
Q 4388 3394 4653 3120 
Q 4919 2847 4919 2278 
L 4919 0 
L 4359 0 
L 4359 2091 
Q 4359 2428 4304 2576 
Q 4250 2725 4106 2815 
Q 3963 2906 3769 2906 
Q 3419 2906 3187 2673 
Q 2956 2441 2956 1928 
L 2956 0 
L 2394 0 
L 2394 2156 
Q 2394 2531 2256 2718 
Q 2119 2906 1806 2906 
Q 1569 2906 1367 2781 
Q 1166 2656 1075 2415 
Q 984 2175 984 1722 
L 984 0 
L 422 0 
z
" transform="scale(0.015625)"/>
       <path id="ArialMT-74" d="M 1650 503 
L 1731 6 
Q 1494 -44 1306 -44 
Q 1000 -44 831 53 
Q 663 150 594 308 
Q 525 466 525 972 
L 525 2881 
L 113 2881 
L 113 3319 
L 525 3319 
L 525 4141 
L 1084 4478 
L 1084 3319 
L 1650 3319 
L 1650 2881 
L 1084 2881 
L 1084 941 
Q 1084 700 1114 631 
Q 1144 563 1211 522 
Q 1278 481 1403 481 
Q 1497 481 1650 503 
z
" transform="scale(0.015625)"/>
       <path id="ArialMT-65" d="M 2694 1069 
L 3275 997 
Q 3138 488 2766 206 
Q 2394 -75 1816 -75 
Q 1088 -75 661 373 
Q 234 822 234 1631 
Q 234 2469 665 2931 
Q 1097 3394 1784 3394 
Q 2450 3394 2872 2941 
Q 3294 2488 3294 1666 
Q 3294 1616 3291 1516 
L 816 1516 
Q 847 969 1125 678 
Q 1403 388 1819 388 
Q 2128 388 2347 550 
Q 2566 713 2694 1069 
z
M 847 1978 
L 2700 1978 
Q 2663 2397 2488 2606 
Q 2219 2931 1791 2931 
Q 1403 2931 1139 2672 
Q 875 2413 847 1978 
z
" transform="scale(0.015625)"/>
       <path id="ArialMT-63" d="M 2588 1216 
L 3141 1144 
Q 3050 572 2676 248 
Q 2303 -75 1759 -75 
Q 1078 -75 664 370 
Q 250 816 250 1647 
Q 250 2184 428 2587 
Q 606 2991 970 3192 
Q 1334 3394 1763 3394 
Q 2303 3394 2647 3120 
Q 2991 2847 3088 2344 
L 2541 2259 
Q 2463 2594 2264 2762 
Q 2066 2931 1784 2931 
Q 1359 2931 1093 2626 
Q 828 2322 828 1663 
Q 828 994 1084 691 
Q 1341 388 1753 388 
Q 2084 388 2306 591 
Q 2528 794 2588 1216 
z
" transform="scale(0.015625)"/>
       <path id="ArialMT-68" d="M 422 0 
L 422 4581 
L 984 4581 
L 984 2938 
Q 1378 3394 1978 3394 
Q 2347 3394 2619 3248 
Q 2891 3103 3008 2847 
Q 3125 2591 3125 2103 
L 3125 0 
L 2563 0 
L 2563 2103 
Q 2563 2525 2380 2717 
Q 2197 2909 1863 2909 
Q 1613 2909 1392 2779 
Q 1172 2650 1078 2428 
Q 984 2206 984 1816 
L 984 0 
L 422 0 
z
" transform="scale(0.015625)"/>
       <path id="ArialMT-6e" d="M 422 0 
L 422 3319 
L 928 3319 
L 928 2847 
Q 1294 3394 1984 3394 
Q 2284 3394 2536 3286 
Q 2788 3178 2913 3003 
Q 3038 2828 3088 2588 
Q 3119 2431 3119 2041 
L 3119 0 
L 2556 0 
L 2556 2019 
Q 2556 2363 2490 2533 
Q 2425 2703 2258 2804 
Q 2091 2906 1866 2906 
Q 1506 2906 1245 2678 
Q 984 2450 984 1813 
L 984 0 
L 422 0 
z
" transform="scale(0.015625)"/>
       <path id="ArialMT-70" d="M 422 -1272 
L 422 3319 
L 934 3319 
L 934 2888 
Q 1116 3141 1344 3267 
Q 1572 3394 1897 3394 
Q 2322 3394 2647 3175 
Q 2972 2956 3137 2557 
Q 3303 2159 3303 1684 
Q 3303 1175 3120 767 
Q 2938 359 2589 142 
Q 2241 -75 1856 -75 
Q 1575 -75 1351 44 
Q 1128 163 984 344 
L 984 -1272 
L 422 -1272 
z
M 931 1641 
Q 931 1000 1190 694 
Q 1450 388 1819 388 
Q 2194 388 2461 705 
Q 2728 1022 2728 1688 
Q 2728 2322 2467 2637 
Q 2206 2953 1844 2953 
Q 1484 2953 1207 2617 
Q 931 2281 931 1641 
z
" transform="scale(0.015625)"/>
       <path id="ArialMT-28" d="M 1497 -1347 
Q 1031 -759 709 28 
Q 388 816 388 1659 
Q 388 2403 628 3084 
Q 909 3875 1497 4659 
L 1900 4659 
Q 1522 4009 1400 3731 
Q 1209 3300 1100 2831 
Q 966 2247 966 1656 
Q 966 153 1900 -1347 
L 1497 -1347 
z
" transform="scale(0.015625)"/>
       <path id="ArialMT-6b" d="M 425 0 
L 425 4581 
L 988 4581 
L 988 1969 
L 2319 3319 
L 3047 3319 
L 1778 2088 
L 3175 0 
L 2481 0 
L 1384 1697 
L 988 1316 
L 988 0 
L 425 0 
z
" transform="scale(0.015625)"/>
       <path id="ArialMT-31" d="M 2384 0 
L 1822 0 
L 1822 3584 
Q 1619 3391 1289 3197 
Q 959 3003 697 2906 
L 697 3450 
Q 1169 3672 1522 3987 
Q 1875 4303 2022 4600 
L 2384 4600 
L 2384 0 
z
" transform="scale(0.015625)"/>
       <path id="ArialMT-29" d="M 791 -1347 
L 388 -1347 
Q 1322 153 1322 1656 
Q 1322 2244 1188 2822 
Q 1081 3291 891 3722 
Q 769 4003 388 4659 
L 791 4659 
Q 1378 3875 1659 3084 
Q 1900 2403 1900 1659 
Q 1900 816 1576 28 
Q 1253 -759 791 -1347 
z
" transform="scale(0.015625)"/>
      </defs>
      <use xlink:href="#ArialMT-43" transform="translate(0 0.40625)"/>
      <use xlink:href="#ArialMT-6c" transform="translate(72.216797 0.40625)"/>
      <use xlink:href="#ArialMT-69" transform="translate(94.433594 0.40625)"/>
      <use xlink:href="#ArialMT-6d" transform="translate(116.650391 0.40625)"/>
      <use xlink:href="#ArialMT-61" transform="translate(199.951172 0.40625)"/>
      <use xlink:href="#ArialMT-74" transform="translate(255.566406 0.40625)"/>
      <use xlink:href="#ArialMT-65" transform="translate(283.349609 0.40625)"/>
      <use xlink:href="#ArialMT-20" transform="translate(338.964844 0.40625)"/>
      <use xlink:href="#ArialMT-63" transform="translate(366.748047 0.40625)"/>
      <use xlink:href="#ArialMT-68" transform="translate(416.748047 0.40625)"/>
      <use xlink:href="#ArialMT-61" transform="translate(472.363281 0.40625)"/>
      <use xlink:href="#ArialMT-6e" transform="translate(527.978516 0.40625)"/>
      <use xlink:href="#ArialMT-67" transform="translate(583.59375 0.40625)"/>
      <use xlink:href="#ArialMT-65" transform="translate(639.208984 0.40625)"/>
      <use xlink:href="#ArialMT-20" transform="translate(694.824219 0.40625)"/>
      <use xlink:href="#ArialMT-69" transform="translate(722.607422 0.40625)"/>
      <use xlink:href="#ArialMT-6d" transform="translate(744.824219 0.40625)"/>
      <use xlink:href="#ArialMT-70" transform="translate(828.125 0.40625)"/>
      <use xlink:href="#ArialMT-61" transform="translate(883.740234 0.40625)"/>
      <use xlink:href="#ArialMT-63" transform="translate(939.355469 0.40625)"/>
      <use xlink:href="#ArialMT-74" transform="translate(989.355469 0.40625)"/>
      <use xlink:href="#ArialMT-73" transform="translate(1017.138672 0.40625)"/>
      <use xlink:href="#ArialMT-20" transform="translate(1067.138672 0.40625)"/>
      <use xlink:href="#ArialMT-28" transform="translate(1094.921875 0.40625)"/>
      <use xlink:href="#ArialMT-6b" transform="translate(1128.222656 0.40625)"/>
      <use xlink:href="#ArialMT-67" transform="translate(1178.222656 0.40625)"/>
      <use xlink:href="#ArialMT-43" transform="translate(1233.837891 0.40625)"/>
      <use xlink:href="#ArialMT-4f" transform="translate(1306.054688 0.40625)"/>
      <use xlink:href="#ArialMT-32" transform="translate(1384.794922 -16) scale(0.7)"/>
      <use xlink:href="#ArialMT-65" transform="translate(1426.459961 0.40625)"/>
      <use xlink:href="#ArialMT-20" transform="translate(1482.075195 0.40625)"/>
      <use xlink:href="#ArialMT-6b" transform="translate(1509.858398 0.40625)"/>
      <use xlink:href="#ArialMT-67" transform="translate(1559.858398 0.40625)"/>
      <use xlink:href="#ArialMT-2212" transform="translate(1616.430664 38.6875) scale(0.7)"/>
      <use xlink:href="#ArialMT-31" transform="translate(1657.30957 38.6875) scale(0.7)"/>
      <use xlink:href="#ArialMT-29" transform="translate(1698.974609 0.40625)"/>
     </g>
    </g>
   </g>
   <g id="PathCollection_1">
    <defs>
     <path id="mbf99dbb8fd" d="M 0 3.872983 
C 1.027127 3.872983 2.012324 3.464901 2.738613 2.738613 
C 3.464901 2.012324 3.872983 1.027127 3.872983 0 
C 3.872983 -1.027127 3.464901 -2.012324 2.738613 -2.738613 
C 2.012324 -3.464901 1.027127 -3.872983 0 -3.872983 
C -1.027127 -3.872983 -2.012324 -3.464901 -2.738613 -2.738613 
C -3.464901 -2.012324 -3.872983 -1.027127 -3.872983 0 
C -3.872983 1.027127 -3.464901 2.012324 -2.738613 2.738613 
C -2.012324 3.464901 -1.027127 3.872983 0 3.872983 
z
" style="stroke: #000000"/>
    </defs>
    <g clip-path="url(#p8b8c8b244c)">
     <use xlink:href="#mbf99dbb8fd" x="81.435446" y="86.688618" style="fill: #ffffff; stroke: #000000"/>
     <use xlink:href="#mbf99dbb8fd" x="176.955535" y="158.237652" style="fill: #ffffff; stroke: #000000"/>
     <use xlink:href="#mbf99dbb8fd" x="272.475623" y="165.985787" style="fill: #ffffff; stroke: #000000"/>
     <use xlink:href="#mbf99dbb8fd" x="367.995712" y="205.231549" style="fill: #ffffff; stroke: #000000"/>
     <use xlink:href="#mbf99dbb8fd" x="463.5158" y="212.902119" style="fill: #ffffff; stroke: #000000"/>
    </g>
   </g>
   <g id="PathCollection_2">
    <defs>
     <path id="m3de2baf300" d="M 0 5.477226 
L 5.477226 0 
L 0 -5.477226 
L -5.477226 0 
z
" style="stroke: #ffffff"/>
    </defs>
    <g clip-path="url(#p8b8c8b244c)">
     <use xlink:href="#m3de2baf300" x="81.435446" y="117.369721" style="fill: #6e00a3; stroke: #ffffff"/>
     <use xlink:href="#m3de2baf300" x="176.955535" y="171.6155" style="fill: #6e00a3; stroke: #ffffff"/>
     <use xlink:href="#m3de2baf300" x="272.475623" y="177.918366" style="fill: #6e00a3; stroke: #ffffff"/>
     <use xlink:href="#m3de2baf300" x="367.995712" y="225.48265" style="fill: #6e00a3; stroke: #ffffff"/>
     <use xlink:href="#m3de2baf300" x="463.5158" y="231.696604" style="fill: #6e00a3; stroke: #ffffff"/>
    </g>
   </g>
   <g id="line2d_13">
    <path d="M 38.451406 200.847441 
L 506.49984 200.847441 
" clip-path="url(#p8b8c8b244c)" style="fill: none; stroke: #808080; stroke-width: 0.5; stroke-linecap: square"/>
   </g>
   <g id="line2d_14">
    <path d="M 129.19549 252.486758 
L 129.19549 7.2 
" clip-path="url(#p8b8c8b244c)" style="fill: none; stroke-dasharray: 3.7,1.6; stroke-dashoffset: 0; stroke: #808080"/>
   </g>
   <g id="line2d_15">
    <path d="M 320.235667 252.486758 
L 320.235667 7.2 
" clip-path="url(#p8b8c8b244c)" style="fill: none; stroke-dasharray: 3.7,1.6; stroke-dashoffset: 0; stroke: #808080"/>
   </g>
   <g id="patch_48">
    <path d="M 38.451406 252.486758 
L 38.451406 7.2 
" style="fill: none; stroke: #000000; stroke-width: 0.8; stroke-linejoin: miter; stroke-linecap: square"/>
   </g>
   <g id="patch_49">
    <path d="M 506.49984 252.486758 
L 506.49984 7.2 
" style="fill: none; stroke: #000000; stroke-width: 0.8; stroke-linejoin: miter; stroke-linecap: square"/>
   </g>
   <g id="patch_50">
    <path d="M 38.451406 252.486758 
L 506.49984 252.486758 
" style="fill: none; stroke: #000000; stroke-width: 0.8; stroke-linejoin: miter; stroke-linecap: square"/>
   </g>
   <g id="patch_51">
    <path d="M 38.451406 7.2 
L 506.49984 7.2 
" style="fill: none; stroke: #000000; stroke-width: 0.8; stroke-linejoin: miter; stroke-linecap: square"/>
   </g>
   <g id="text_12">
    <!-- Fossil ethylene -->
    <g transform="translate(194.702688 22.691795) scale(0.09 -0.09)">
     <defs>
      <path id="ArialMT-79" d="M 397 -1278 
L 334 -750 
Q 519 -800 656 -800 
Q 844 -800 956 -737 
Q 1069 -675 1141 -563 
Q 1194 -478 1313 -144 
Q 1328 -97 1363 -6 
L 103 3319 
L 709 3319 
L 1400 1397 
Q 1534 1031 1641 628 
Q 1738 1016 1872 1384 
L 2581 3319 
L 3144 3319 
L 1881 -56 
Q 1678 -603 1566 -809 
Q 1416 -1088 1222 -1217 
Q 1028 -1347 759 -1347 
Q 597 -1347 397 -1278 
z
" transform="scale(0.015625)"/>
     </defs>
     <use xlink:href="#ArialMT-46"/>
     <use xlink:href="#ArialMT-6f" x="61.083984"/>
     <use xlink:href="#ArialMT-73" x="116.699219"/>
     <use xlink:href="#ArialMT-73" x="166.699219"/>
     <use xlink:href="#ArialMT-69" x="216.699219"/>
     <use xlink:href="#ArialMT-6c" x="238.916016"/>
     <use xlink:href="#ArialMT-20" x="261.132812"/>
     <use xlink:href="#ArialMT-65" x="288.916016"/>
     <use xlink:href="#ArialMT-74" x="344.53125"/>
     <use xlink:href="#ArialMT-68" x="372.314453"/>
     <use xlink:href="#ArialMT-79" x="427.929688"/>
     <use xlink:href="#ArialMT-6c" x="477.929688"/>
     <use xlink:href="#ArialMT-65" x="500.146484"/>
     <use xlink:href="#ArialMT-6e" x="555.761719"/>
     <use xlink:href="#ArialMT-65" x="611.376953"/>
    </g>
   </g>
   <g id="text_13">
    <!-- Green ethylene -->
    <g transform="translate(384.987709 22.691795) scale(0.09 -0.09)">
     <defs>
      <path id="ArialMT-47" d="M 2638 1797 
L 2638 2334 
L 4578 2338 
L 4578 638 
Q 4131 281 3656 101 
Q 3181 -78 2681 -78 
Q 2006 -78 1454 211 
Q 903 500 622 1047 
Q 341 1594 341 2269 
Q 341 2938 620 3517 
Q 900 4097 1425 4378 
Q 1950 4659 2634 4659 
Q 3131 4659 3532 4498 
Q 3934 4338 4162 4050 
Q 4391 3763 4509 3300 
L 3963 3150 
Q 3859 3500 3706 3700 
Q 3553 3900 3268 4020 
Q 2984 4141 2638 4141 
Q 2222 4141 1919 4014 
Q 1616 3888 1430 3681 
Q 1244 3475 1141 3228 
Q 966 2803 966 2306 
Q 966 1694 1177 1281 
Q 1388 869 1791 669 
Q 2194 469 2647 469 
Q 3041 469 3416 620 
Q 3791 772 3984 944 
L 3984 1797 
L 2638 1797 
z
" transform="scale(0.015625)"/>
      <path id="ArialMT-72" d="M 416 0 
L 416 3319 
L 922 3319 
L 922 2816 
Q 1116 3169 1280 3281 
Q 1444 3394 1641 3394 
Q 1925 3394 2219 3213 
L 2025 2691 
Q 1819 2813 1613 2813 
Q 1428 2813 1281 2702 
Q 1134 2591 1072 2394 
Q 978 2094 978 1738 
L 978 0 
L 416 0 
z
" transform="scale(0.015625)"/>
     </defs>
     <use xlink:href="#ArialMT-47"/>
     <use xlink:href="#ArialMT-72" x="77.783203"/>
     <use xlink:href="#ArialMT-65" x="111.083984"/>
     <use xlink:href="#ArialMT-65" x="166.699219"/>
     <use xlink:href="#ArialMT-6e" x="222.314453"/>
     <use xlink:href="#ArialMT-20" x="277.929688"/>
     <use xlink:href="#ArialMT-65" x="305.712891"/>
     <use xlink:href="#ArialMT-74" x="361.328125"/>
     <use xlink:href="#ArialMT-68" x="389.111328"/>
     <use xlink:href="#ArialMT-79" x="444.726562"/>
     <use xlink:href="#ArialMT-6c" x="494.726562"/>
     <use xlink:href="#ArialMT-65" x="516.943359"/>
     <use xlink:href="#ArialMT-6e" x="572.558594"/>
     <use xlink:href="#ArialMT-65" x="628.173828"/>
    </g>
   </g>
   <g id="legend_1"/>
  </g>
  <g id="legend_2">
   <g id="line2d_16">
    <path d="M 68.810389 283.333779 
L 77.810389 283.333779 
L 86.810389 283.333779 
" style="fill: none"/>
    <defs>
     <path id="mfacabc8764" d="M 0 5 
C 1.326016 5 2.597899 4.473168 3.535534 3.535534 
C 4.473168 2.597899 5 1.326016 5 0 
C 5 -1.326016 4.473168 -2.597899 3.535534 -3.535534 
C 2.597899 -4.473168 1.326016 -5 0 -5 
C -1.326016 -5 -2.597899 -4.473168 -3.535534 -3.535534 
C -4.473168 -2.597899 -5 -1.326016 -5 0 
C -5 1.326016 -4.473168 2.597899 -3.535534 3.535534 
C -2.597899 4.473168 -1.326016 5 0 5 
z
" style="stroke: #ffffff; stroke-opacity: 0.8"/>
    </defs>
    <g>
     <use xlink:href="#mfacabc8764" x="77.810389" y="283.333779" style="fill: #808080; fill-opacity: 0.8; stroke: #ffffff; stroke-opacity: 0.8"/>
    </g>
   </g>
   <g id="text_14">
    <!-- Fossil -->
    <g transform="translate(87.710389 286.483779) scale(0.09 -0.09)">
     <use xlink:href="#ArialMT-46"/>
     <use xlink:href="#ArialMT-6f" x="61.083984"/>
     <use xlink:href="#ArialMT-73" x="116.699219"/>
     <use xlink:href="#ArialMT-73" x="166.699219"/>
     <use xlink:href="#ArialMT-69" x="216.699219"/>
     <use xlink:href="#ArialMT-6c" x="238.916016"/>
    </g>
   </g>
   <g id="line2d_17">
    <path d="M 68.810389 296.06456 
L 77.810389 296.06456 
L 86.810389 296.06456 
" style="fill: none"/>
    <defs>
     <path id="ma011ab0954" d="M 0 5 
C 1.326016 5 2.597899 4.473168 3.535534 3.535534 
C 4.473168 2.597899 5 1.326016 5 0 
C 5 -1.326016 4.473168 -2.597899 3.535534 -3.535534 
C 2.597899 -4.473168 1.326016 -5 0 -5 
C -1.326016 -5 -2.597899 -4.473168 -3.535534 -3.535534 
C -4.473168 -2.597899 -5 -1.326016 -5 0 
C -5 1.326016 -4.473168 2.597899 -3.535534 3.535534 
C -2.597899 4.473168 -1.326016 5 0 5 
z
" style="stroke: #ffffff; stroke-opacity: 0.8"/>
    </defs>
    <g>
     <use xlink:href="#ma011ab0954" x="77.810389" y="296.06456" style="fill: #f94144; fill-opacity: 0.8; stroke: #ffffff; stroke-opacity: 0.8"/>
    </g>
   </g>
   <g id="text_15">
    <!-- Ethylene -->
    <g transform="translate(87.710389 299.21456) scale(0.09 -0.09)">
     <defs>
      <path id="ArialMT-45" d="M 506 0 
L 506 4581 
L 3819 4581 
L 3819 4041 
L 1113 4041 
L 1113 2638 
L 3647 2638 
L 3647 2100 
L 1113 2100 
L 1113 541 
L 3925 541 
L 3925 0 
L 506 0 
z
" transform="scale(0.015625)"/>
     </defs>
     <use xlink:href="#ArialMT-45"/>
     <use xlink:href="#ArialMT-74" x="66.699219"/>
     <use xlink:href="#ArialMT-68" x="94.482422"/>
     <use xlink:href="#ArialMT-79" x="150.097656"/>
     <use xlink:href="#ArialMT-6c" x="200.097656"/>
     <use xlink:href="#ArialMT-65" x="222.314453"/>
     <use xlink:href="#ArialMT-6e" x="277.929688"/>
     <use xlink:href="#ArialMT-65" x="333.544922"/>
    </g>
   </g>
   <g id="line2d_18">
    <path d="M 140.733045 283.333779 
L 149.733045 283.333779 
L 158.733045 283.333779 
" style="fill: none"/>
    <defs>
     <path id="m4a1446429f" d="M 0 5 
C 1.326016 5 2.597899 4.473168 3.535534 3.535534 
C 4.473168 2.597899 5 1.326016 5 0 
C 5 -1.326016 4.473168 -2.597899 3.535534 -3.535534 
C 2.597899 -4.473168 1.326016 -5 0 -5 
C -1.326016 -5 -2.597899 -4.473168 -3.535534 -3.535534 
C -4.473168 -2.597899 -5 -1.326016 -5 0 
C -5 1.326016 -4.473168 2.597899 -3.535534 3.535534 
C -2.597899 4.473168 -1.326016 5 0 5 
z
" style="stroke: #ffffff; stroke-opacity: 0.8"/>
    </defs>
    <g>
     <use xlink:href="#m4a1446429f" x="149.733045" y="283.333779" style="fill: #f3722c; fill-opacity: 0.8; stroke: #ffffff; stroke-opacity: 0.8"/>
    </g>
   </g>
   <g id="text_16">
    <!-- Hydrogen -->
    <g transform="translate(159.633045 286.483779) scale(0.09 -0.09)">
     <defs>
      <path id="ArialMT-48" d="M 513 0 
L 513 4581 
L 1119 4581 
L 1119 2700 
L 3500 2700 
L 3500 4581 
L 4106 4581 
L 4106 0 
L 3500 0 
L 3500 2159 
L 1119 2159 
L 1119 0 
L 513 0 
z
" transform="scale(0.015625)"/>
      <path id="ArialMT-64" d="M 2575 0 
L 2575 419 
Q 2259 -75 1647 -75 
Q 1250 -75 917 144 
Q 584 363 401 755 
Q 219 1147 219 1656 
Q 219 2153 384 2558 
Q 550 2963 881 3178 
Q 1213 3394 1622 3394 
Q 1922 3394 2156 3267 
Q 2391 3141 2538 2938 
L 2538 4581 
L 3097 4581 
L 3097 0 
L 2575 0 
z
M 797 1656 
Q 797 1019 1065 703 
Q 1334 388 1700 388 
Q 2069 388 2326 689 
Q 2584 991 2584 1609 
Q 2584 2291 2321 2609 
Q 2059 2928 1675 2928 
Q 1300 2928 1048 2622 
Q 797 2316 797 1656 
z
" transform="scale(0.015625)"/>
     </defs>
     <use xlink:href="#ArialMT-48"/>
     <use xlink:href="#ArialMT-79" x="72.216797"/>
     <use xlink:href="#ArialMT-64" x="122.216797"/>
     <use xlink:href="#ArialMT-72" x="177.832031"/>
     <use xlink:href="#ArialMT-6f" x="211.132812"/>
     <use xlink:href="#ArialMT-67" x="266.748047"/>
     <use xlink:href="#ArialMT-65" x="322.363281"/>
     <use xlink:href="#ArialMT-6e" x="377.978516"/>
    </g>
   </g>
   <g id="line2d_19">
    <path d="M 140.733045 296.170029 
L 149.733045 296.170029 
L 158.733045 296.170029 
" style="fill: none"/>
    <defs>
     <path id="md1a5935622" d="M 0 5 
C 1.326016 5 2.597899 4.473168 3.535534 3.535534 
C 4.473168 2.597899 5 1.326016 5 0 
C 5 -1.326016 4.473168 -2.597899 3.535534 -3.535534 
C 2.597899 -4.473168 1.326016 -5 0 -5 
C -1.326016 -5 -2.597899 -4.473168 -3.535534 -3.535534 
C -4.473168 -2.597899 -5 -1.326016 -5 0 
C -5 1.326016 -4.473168 2.597899 -3.535534 3.535534 
C -2.597899 4.473168 -1.326016 5 0 5 
z
" style="stroke: #ffffff; stroke-opacity: 0.8"/>
    </defs>
    <g>
     <use xlink:href="#md1a5935622" x="149.733045" y="296.170029" style="fill: #f8961e; fill-opacity: 0.8; stroke: #ffffff; stroke-opacity: 0.8"/>
    </g>
   </g>
   <g id="text_17">
    <!-- DAC CO$_\mathdefault{2}$ -->
    <g transform="translate(159.633045 299.320029) scale(0.09 -0.09)">
     <use xlink:href="#ArialMT-44" transform="translate(0 0.140625)"/>
     <use xlink:href="#ArialMT-41" transform="translate(72.216797 0.140625)"/>
     <use xlink:href="#ArialMT-43" transform="translate(138.916016 0.140625)"/>
     <use xlink:href="#ArialMT-20" transform="translate(211.132812 0.140625)"/>
     <use xlink:href="#ArialMT-43" transform="translate(238.916016 0.140625)"/>
     <use xlink:href="#ArialMT-4f" transform="translate(311.132812 0.140625)"/>
     <use xlink:href="#ArialMT-32" transform="translate(389.873047 -16.265625) scale(0.7)"/>
    </g>
   </g>
   <g id="line2d_20">
    <path d="M 216.65367 283.333779 
L 225.65367 283.333779 
L 234.65367 283.333779 
" style="fill: none"/>
    <defs>
     <path id="mf35497116f" d="M 0 5 
C 1.326016 5 2.597899 4.473168 3.535534 3.535534 
C 4.473168 2.597899 5 1.326016 5 0 
C 5 -1.326016 4.473168 -2.597899 3.535534 -3.535534 
C 2.597899 -4.473168 1.326016 -5 0 -5 
C -1.326016 -5 -2.597899 -4.473168 -3.535534 -3.535534 
C -4.473168 -2.597899 -5 -1.326016 -5 0 
C -5 1.326016 -4.473168 2.597899 -3.535534 3.535534 
C -2.597899 4.473168 -1.326016 5 0 5 
z
" style="stroke: #ffffff; stroke-opacity: 0.8"/>
    </defs>
    <g>
     <use xlink:href="#mf35497116f" x="225.65367" y="283.333779" style="fill: #f9c74f; fill-opacity: 0.8; stroke: #ffffff; stroke-opacity: 0.8"/>
    </g>
   </g>
   <g id="text_18">
    <!-- Biogas -->
    <g transform="translate(235.55367 286.483779) scale(0.09 -0.09)">
     <use xlink:href="#ArialMT-42"/>
     <use xlink:href="#ArialMT-69" x="66.699219"/>
     <use xlink:href="#ArialMT-6f" x="88.916016"/>
     <use xlink:href="#ArialMT-67" x="144.53125"/>
     <use xlink:href="#ArialMT-61" x="200.146484"/>
     <use xlink:href="#ArialMT-73" x="255.761719"/>
    </g>
   </g>
   <g id="line2d_21">
    <path d="M 216.65367 296.170029 
L 225.65367 296.170029 
L 234.65367 296.170029 
" style="fill: none"/>
    <defs>
     <path id="mf25522d99e" d="M 0 5 
C 1.326016 5 2.597899 4.473168 3.535534 3.535534 
C 4.473168 2.597899 5 1.326016 5 0 
C 5 -1.326016 4.473168 -2.597899 3.535534 -3.535534 
C 2.597899 -4.473168 1.326016 -5 0 -5 
C -1.326016 -5 -2.597899 -4.473168 -3.535534 -3.535534 
C -4.473168 -2.597899 -5 -1.326016 -5 0 
C -5 1.326016 -4.473168 2.597899 -3.535534 3.535534 
C -2.597899 4.473168 -1.326016 5 0 5 
z
" style="stroke: #ffffff; stroke-opacity: 0.8"/>
    </defs>
    <g>
     <use xlink:href="#mf25522d99e" x="225.65367" y="296.170029" style="fill: #90be6d; fill-opacity: 0.8; stroke: #ffffff; stroke-opacity: 0.8"/>
    </g>
   </g>
   <g id="text_19">
    <!-- Electricity -->
    <g transform="translate(235.55367 299.320029) scale(0.09 -0.09)">
     <use xlink:href="#ArialMT-45"/>
     <use xlink:href="#ArialMT-6c" x="66.699219"/>
     <use xlink:href="#ArialMT-65" x="88.916016"/>
     <use xlink:href="#ArialMT-63" x="144.53125"/>
     <use xlink:href="#ArialMT-74" x="194.53125"/>
     <use xlink:href="#ArialMT-72" x="222.314453"/>
     <use xlink:href="#ArialMT-69" x="255.615234"/>
     <use xlink:href="#ArialMT-63" x="277.832031"/>
     <use xlink:href="#ArialMT-69" x="327.832031"/>
     <use xlink:href="#ArialMT-74" x="350.048828"/>
     <use xlink:href="#ArialMT-79" x="377.832031"/>
    </g>
   </g>
   <g id="line2d_22">
    <path d="M 292.058201 283.333779 
L 301.058201 283.333779 
L 310.058201 283.333779 
" style="fill: none"/>
    <defs>
     <path id="mbe249d3f6b" d="M 0 5 
C 1.326016 5 2.597899 4.473168 3.535534 3.535534 
C 4.473168 2.597899 5 1.326016 5 0 
C 5 -1.326016 4.473168 -2.597899 3.535534 -3.535534 
C 2.597899 -4.473168 1.326016 -5 0 -5 
C -1.326016 -5 -2.597899 -4.473168 -3.535534 -3.535534 
C -4.473168 -2.597899 -5 -1.326016 -5 0 
C -5 1.326016 -4.473168 2.597899 -3.535534 3.535534 
C -2.597899 4.473168 -1.326016 5 0 5 
z
" style="stroke: #ffffff; stroke-opacity: 0.8"/>
    </defs>
    <g>
     <use xlink:href="#mbe249d3f6b" x="301.058201" y="283.333779" style="fill: #43aa8b; fill-opacity: 0.8; stroke: #ffffff; stroke-opacity: 0.8"/>
    </g>
   </g>
   <g id="text_20">
    <!-- Heating -->
    <g transform="translate(310.958201 286.483779) scale(0.09 -0.09)">
     <use xlink:href="#ArialMT-48"/>
     <use xlink:href="#ArialMT-65" x="72.216797"/>
     <use xlink:href="#ArialMT-61" x="127.832031"/>
     <use xlink:href="#ArialMT-74" x="183.447266"/>
     <use xlink:href="#ArialMT-69" x="211.230469"/>
     <use xlink:href="#ArialMT-6e" x="233.447266"/>
     <use xlink:href="#ArialMT-67" x="289.0625"/>
    </g>
   </g>
   <g id="line2d_23">
    <path d="M 292.058201 296.279717 
L 301.058201 296.279717 
L 310.058201 296.279717 
" style="fill: none"/>
    <defs>
     <path id="me8695fa37b" d="M 0 5 
C 1.326016 5 2.597899 4.473168 3.535534 3.535534 
C 4.473168 2.597899 5 1.326016 5 0 
C 5 -1.326016 4.473168 -2.597899 3.535534 -3.535534 
C 2.597899 -4.473168 1.326016 -5 0 -5 
C -1.326016 -5 -2.597899 -4.473168 -3.535534 -3.535534 
C -4.473168 -2.597899 -5 -1.326016 -5 0 
C -5 1.326016 -4.473168 2.597899 -3.535534 3.535534 
C -2.597899 4.473168 -1.326016 5 0 5 
z
" style="stroke: #ffffff; stroke-opacity: 0.8"/>
    </defs>
    <g>
     <use xlink:href="#me8695fa37b" x="301.058201" y="296.279717" style="fill: #4d908e; fill-opacity: 0.8; stroke: #ffffff; stroke-opacity: 0.8"/>
    </g>
   </g>
   <g id="text_21">
    <!-- Cooling -->
    <g transform="translate(310.958201 299.429717) scale(0.09 -0.09)">
     <use xlink:href="#ArialMT-43"/>
     <use xlink:href="#ArialMT-6f" x="72.216797"/>
     <use xlink:href="#ArialMT-6f" x="127.832031"/>
     <use xlink:href="#ArialMT-6c" x="183.447266"/>
     <use xlink:href="#ArialMT-69" x="205.664062"/>
     <use xlink:href="#ArialMT-6e" x="227.880859"/>
     <use xlink:href="#ArialMT-67" x="283.496094"/>
    </g>
   </g>
   <g id="line2d_24">
    <path d="M 359.977264 283.333779 
L 368.977264 283.333779 
L 377.977264 283.333779 
" style="fill: none"/>
    <defs>
     <path id="m938d1727e9" d="M 0 5 
C 1.326016 5 2.597899 4.473168 3.535534 3.535534 
C 4.473168 2.597899 5 1.326016 5 0 
C 5 -1.326016 4.473168 -2.597899 3.535534 -3.535534 
C 2.597899 -4.473168 1.326016 -5 0 -5 
C -1.326016 -5 -2.597899 -4.473168 -3.535534 -3.535534 
C -4.473168 -2.597899 -5 -1.326016 -5 0 
C -5 1.326016 -4.473168 2.597899 -3.535534 3.535534 
C -2.597899 4.473168 -1.326016 5 0 5 
z
" style="stroke: #ffffff; stroke-opacity: 0.8"/>
    </defs>
    <g>
     <use xlink:href="#m938d1727e9" x="368.977264" y="283.333779" style="fill: #577590; fill-opacity: 0.8; stroke: #ffffff; stroke-opacity: 0.8"/>
    </g>
   </g>
   <g id="text_22">
    <!-- Direct emissions -->
    <g transform="translate(378.877264 286.483779) scale(0.09 -0.09)">
     <use xlink:href="#ArialMT-44"/>
     <use xlink:href="#ArialMT-69" x="72.216797"/>
     <use xlink:href="#ArialMT-72" x="94.433594"/>
     <use xlink:href="#ArialMT-65" x="127.734375"/>
     <use xlink:href="#ArialMT-63" x="183.349609"/>
     <use xlink:href="#ArialMT-74" x="233.349609"/>
     <use xlink:href="#ArialMT-20" x="261.132812"/>
     <use xlink:href="#ArialMT-65" x="288.916016"/>
     <use xlink:href="#ArialMT-6d" x="344.53125"/>
     <use xlink:href="#ArialMT-69" x="427.832031"/>
     <use xlink:href="#ArialMT-73" x="450.048828"/>
     <use xlink:href="#ArialMT-73" x="500.048828"/>
     <use xlink:href="#ArialMT-69" x="550.048828"/>
     <use xlink:href="#ArialMT-6f" x="572.265625"/>
     <use xlink:href="#ArialMT-6e" x="627.880859"/>
     <use xlink:href="#ArialMT-73" x="683.496094"/>
    </g>
   </g>
   <g id="line2d_25">
    <path d="M 359.977264 296.06456 
L 368.977264 296.06456 
L 377.977264 296.06456 
" style="fill: none"/>
    <defs>
     <path id="m85207af21f" d="M 0 4 
C 1.060812 4 2.078319 3.578535 2.828427 2.828427 
C 3.578535 2.078319 4 1.060812 4 0 
C 4 -1.060812 3.578535 -2.078319 2.828427 -2.828427 
C 2.078319 -3.578535 1.060812 -4 0 -4 
C -1.060812 -4 -2.078319 -3.578535 -2.828427 -2.828427 
C -3.578535 -2.078319 -4 -1.060812 -4 0 
C -4 1.060812 -3.578535 2.078319 -2.828427 2.828427 
C -2.078319 3.578535 -1.060812 4 0 4 
z
" style="stroke: #000000"/>
    </defs>
    <g>
     <use xlink:href="#m85207af21f" x="368.977264" y="296.06456" style="fill: #ffffff; stroke: #000000"/>
    </g>
   </g>
   <g id="text_23">
    <!-- Total -->
    <g transform="translate(378.877264 299.21456) scale(0.09 -0.09)">
     <defs>
      <path id="ArialMT-54" d="M 1659 0 
L 1659 4041 
L 150 4041 
L 150 4581 
L 3781 4581 
L 3781 4041 
L 2266 4041 
L 2266 0 
L 1659 0 
z
" transform="scale(0.015625)"/>
     </defs>
     <use xlink:href="#ArialMT-54"/>
     <use xlink:href="#ArialMT-6f" x="49.958984"/>
     <use xlink:href="#ArialMT-74" x="105.574219"/>
     <use xlink:href="#ArialMT-61" x="133.357422"/>
     <use xlink:href="#ArialMT-6c" x="188.972656"/>
    </g>
   </g>
  </g>
 </g>
 <defs>
  <clipPath id="p8b8c8b244c">
   <rect x="38.451406" y="7.2" width="468.048434" height="245.286758"/>
  </clipPath>
 </defs>
</svg>
