<?xml version="1.0" encoding="utf-8" standalone="no"?>
<!DOCTYPE svg PUBLIC "-//W3C//DTD SVG 1.1//EN"
  "http://www.w3.org/Graphics/SVG/1.1/DTD/svg11.dtd">
<svg xmlns:xlink="http://www.w3.org/1999/xlink" width="513.69984pt" height="312.123935pt" viewBox="0 0 513.69984 312.123935" xmlns="http://www.w3.org/2000/svg" version="1.1">
 <metadata>
  <rdf:RDF xmlns:dc="http://purl.org/dc/elements/1.1/" xmlns:cc="http://creativecommons.org/ns#" xmlns:rdf="http://www.w3.org/1999/02/22-rdf-syntax-ns#">
   <cc:Work>
    <dc:type rdf:resource="http://purl.org/dc/dcmitype/StillImage"/>
    <dc:date>2025-09-08T18:18:56.986447</dc:date>
    <dc:format>image/svg+xml</dc:format>
    <dc:creator>
     <cc:Agent>
      <dc:title>Matplotlib v3.9.2, https://matplotlib.org/</dc:title>
     </cc:Agent>
    </dc:creator>
   </cc:Work>
  </rdf:RDF>
 </metadata>
 <defs>
  <style type="text/css">*{stroke-linejoin: round; stroke-linecap: butt}</style>
 </defs>
 <g id="figure_1">
  <g id="patch_1">
   <path d="M 0 312.123935 
L 513.69984 312.123935 
L 513.69984 0 
L 0 0 
z
" style="fill: #ffffff"/>
  </g>
  <g id="axes_1">
   <g id="patch_2">
    <path d="M 40.7 252.486758 
L 506.49984 252.486758 
L 506.49984 10.421016 
L 40.7 10.421016 
z
" style="fill: #ffffff"/>
   </g>
   <g id="patch_3">
    <path d="M 64.465298 252.486758 
L 102.489775 252.486758 
L 102.489775 171.394734 
L 64.465298 171.394734 
z
" clip-path="url(#p924928d47f)" style="fill: #808080; opacity: 0.8"/>
   </g>
   <g id="patch_4">
    <path d="M 159.52649 252.486758 
L 197.550967 252.486758 
L 197.550967 252.486758 
L 159.52649 252.486758 
z
" clip-path="url(#p924928d47f)" style="fill: #808080; opacity: 0.8"/>
   </g>
   <g id="patch_5">
    <path d="M 254.587682 252.486758 
L 292.612158 252.486758 
L 292.612158 252.486758 
L 254.587682 252.486758 
z
" clip-path="url(#p924928d47f)" style="fill: #808080; opacity: 0.8"/>
   </g>
   <g id="patch_6">
    <path d="M 349.648873 252.486758 
L 387.67335 252.486758 
L 387.67335 252.486758 
L 349.648873 252.486758 
z
" clip-path="url(#p924928d47f)" style="fill: #808080; opacity: 0.8"/>
   </g>
   <g id="patch_7">
    <path d="M 444.710065 252.486758 
L 482.734542 252.486758 
L 482.734542 252.486758 
L 444.710065 252.486758 
z
" clip-path="url(#p924928d47f)" style="fill: #808080; opacity: 0.8"/>
   </g>
   <g id="patch_8">
    <path d="M 64.465298 252.486758 
L 102.489775 252.486758 
L 102.489775 252.486758 
L 64.465298 252.486758 
z
" clip-path="url(#p924928d47f)" style="fill: #f94144; opacity: 0.8"/>
   </g>
   <g id="patch_9">
    <path d="M 159.52649 252.486758 
L 197.550967 252.486758 
L 197.550967 226.668114 
L 159.52649 226.668114 
z
" clip-path="url(#p924928d47f)" style="fill: #f94144; opacity: 0.8"/>
   </g>
   <g id="patch_10">
    <path d="M 254.587682 252.486758 
L 292.612158 252.486758 
L 292.612158 226.710389 
L 254.587682 226.710389 
z
" clip-path="url(#p924928d47f)" style="fill: #f94144; opacity: 0.8"/>
   </g>
   <g id="patch_11">
    <path d="M 349.648873 252.486758 
L 387.67335 252.486758 
L 387.67335 132.084985 
L 349.648873 132.084985 
z
" clip-path="url(#p924928d47f)" style="fill: #f94144; opacity: 0.8"/>
   </g>
   <g id="patch_12">
    <path d="M 444.710065 252.486758 
L 482.734542 252.486758 
L 482.734542 132.282127 
L 444.710065 132.282127 
z
" clip-path="url(#p924928d47f)" style="fill: #f94144; opacity: 0.8"/>
   </g>
   <g id="patch_13">
    <path d="M 64.465298 252.486758 
L 102.489775 252.486758 
L 102.489775 252.486758 
L 64.465298 252.486758 
z
" clip-path="url(#p924928d47f)" style="fill: #f3722c; opacity: 0.8"/>
   </g>
   <g id="patch_14">
    <path d="M 159.52649 226.668114 
L 197.550967 226.668114 
L 197.550967 189.441481 
L 159.52649 189.441481 
z
" clip-path="url(#p924928d47f)" style="fill: #f3722c; opacity: 0.8"/>
   </g>
   <g id="patch_15">
    <path d="M 254.587682 226.710389 
L 292.612158 226.710389 
L 292.612158 214.067029 
L 254.587682 214.067029 
z
" clip-path="url(#p924928d47f)" style="fill: #f3722c; opacity: 0.8"/>
   </g>
   <g id="patch_16">
    <path d="M 349.648873 132.084985 
L 387.67335 132.084985 
L 387.67335 94.858351 
L 349.648873 94.858351 
z
" clip-path="url(#p924928d47f)" style="fill: #f3722c; opacity: 0.8"/>
   </g>
   <g id="patch_17">
    <path d="M 444.710065 132.282127 
L 482.734542 132.282127 
L 482.734542 119.638767 
L 444.710065 119.638767 
z
" clip-path="url(#p924928d47f)" style="fill: #f3722c; opacity: 0.8"/>
   </g>
   <g id="patch_18">
    <path d="M 64.465298 252.486758 
L 102.489775 252.486758 
L 102.489775 252.486758 
L 64.465298 252.486758 
z
" clip-path="url(#p924928d47f)" style="fill: #f8961e; opacity: 0.8"/>
   </g>
   <g id="patch_19">
    <path d="M 159.52649 189.441481 
L 197.550967 189.441481 
L 197.550967 173.079434 
L 159.52649 173.079434 
z
" clip-path="url(#p924928d47f)" style="fill: #f8961e; opacity: 0.8"/>
   </g>
   <g id="patch_20">
    <path d="M 254.587682 214.067029 
L 292.612158 214.067029 
L 292.612158 212.225262 
L 254.587682 212.225262 
z
" clip-path="url(#p924928d47f)" style="fill: #f8961e; opacity: 0.8"/>
   </g>
   <g id="patch_21">
    <path d="M 349.648873 94.858351 
L 387.67335 94.858351 
L 387.67335 78.496304 
L 349.648873 78.496304 
z
" clip-path="url(#p924928d47f)" style="fill: #f8961e; opacity: 0.8"/>
   </g>
   <g id="patch_22">
    <path d="M 444.710065 119.638767 
L 482.734542 119.638767 
L 482.734542 117.796999 
L 444.710065 117.796999 
z
" clip-path="url(#p924928d47f)" style="fill: #f8961e; opacity: 0.8"/>
   </g>
   <g id="patch_23">
    <path d="M 64.465298 252.486758 
L 102.489775 252.486758 
L 102.489775 252.486758 
L 64.465298 252.486758 
z
" clip-path="url(#p924928d47f)" style="fill: #f9c74f; opacity: 0.8"/>
   </g>
   <g id="patch_24">
    <path d="M 159.52649 252.486758 
L 197.550967 252.486758 
L 197.550967 252.486758 
L 159.52649 252.486758 
z
" clip-path="url(#p924928d47f)" style="fill: #f9c74f; opacity: 0.8"/>
   </g>
   <g id="patch_25">
    <path d="M 254.587682 212.225262 
L 292.612158 212.225262 
L 292.612158 204.79005 
L 254.587682 204.79005 
z
" clip-path="url(#p924928d47f)" style="fill: #f9c74f; opacity: 0.8"/>
   </g>
   <g id="patch_26">
    <path d="M 349.648873 252.486758 
L 387.67335 252.486758 
L 387.67335 252.486758 
L 349.648873 252.486758 
z
" clip-path="url(#p924928d47f)" style="fill: #f9c74f; opacity: 0.8"/>
   </g>
   <g id="patch_27">
    <path d="M 444.710065 117.796999 
L 482.734542 117.796999 
L 482.734542 110.361787 
L 444.710065 110.361787 
z
" clip-path="url(#p924928d47f)" style="fill: #f9c74f; opacity: 0.8"/>
   </g>
   <g id="patch_28">
    <path d="M 64.465298 252.486758 
L 102.489775 252.486758 
L 102.489775 252.486758 
L 64.465298 252.486758 
z
" clip-path="url(#p924928d47f)" style="fill: #90be6d; opacity: 0.8"/>
   </g>
   <g id="patch_29">
    <path d="M 159.52649 173.079434 
L 197.550967 173.079434 
L 197.550967 172.527595 
L 159.52649 172.527595 
z
" clip-path="url(#p924928d47f)" style="fill: #90be6d; opacity: 0.8"/>
   </g>
   <g id="patch_30">
    <path d="M 254.587682 204.79005 
L 292.612158 204.79005 
L 292.612158 203.809815 
L 254.587682 203.809815 
z
" clip-path="url(#p924928d47f)" style="fill: #90be6d; opacity: 0.8"/>
   </g>
   <g id="patch_31">
    <path d="M 349.648873 78.496304 
L 387.67335 78.496304 
L 387.67335 77.944466 
L 349.648873 77.944466 
z
" clip-path="url(#p924928d47f)" style="fill: #90be6d; opacity: 0.8"/>
   </g>
   <g id="patch_32">
    <path d="M 444.710065 110.361787 
L 482.734542 110.361787 
L 482.734542 109.381553 
L 444.710065 109.381553 
z
" clip-path="url(#p924928d47f)" style="fill: #90be6d; opacity: 0.8"/>
   </g>
   <g id="patch_33">
    <path d="M 64.465298 252.486758 
L 102.489775 252.486758 
L 102.489775 252.486758 
L 64.465298 252.486758 
z
" clip-path="url(#p924928d47f)" style="fill: #43aa8b; opacity: 0.8"/>
   </g>
   <g id="patch_34">
    <path d="M 159.52649 172.527595 
L 197.550967 172.527595 
L 197.550967 167.576703 
L 159.52649 167.576703 
z
" clip-path="url(#p924928d47f)" style="fill: #43aa8b; opacity: 0.8"/>
   </g>
   <g id="patch_35">
    <path d="M 254.587682 203.809815 
L 292.612158 203.809815 
L 292.612158 201.318323 
L 254.587682 201.318323 
z
" clip-path="url(#p924928d47f)" style="fill: #43aa8b; opacity: 0.8"/>
   </g>
   <g id="patch_36">
    <path d="M 349.648873 77.944466 
L 387.67335 77.944466 
L 387.67335 72.993574 
L 349.648873 72.993574 
z
" clip-path="url(#p924928d47f)" style="fill: #43aa8b; opacity: 0.8"/>
   </g>
   <g id="patch_37">
    <path d="M 444.710065 109.381553 
L 482.734542 109.381553 
L 482.734542 106.890061 
L 444.710065 106.890061 
z
" clip-path="url(#p924928d47f)" style="fill: #43aa8b; opacity: 0.8"/>
   </g>
   <g id="patch_38">
    <path d="M 64.465298 252.486758 
L 102.489775 252.486758 
L 102.489775 252.486758 
L 64.465298 252.486758 
z
" clip-path="url(#p924928d47f)" style="fill: #4d908e; opacity: 0.8"/>
   </g>
   <g id="patch_39">
    <path d="M 159.52649 167.576703 
L 197.550967 167.576703 
L 197.550967 167.2534 
L 159.52649 167.2534 
z
" clip-path="url(#p924928d47f)" style="fill: #4d908e; opacity: 0.8"/>
   </g>
   <g id="patch_40">
    <path d="M 254.587682 201.318323 
L 292.612158 201.318323 
L 292.612158 201.194728 
L 254.587682 201.194728 
z
" clip-path="url(#p924928d47f)" style="fill: #4d908e; opacity: 0.8"/>
   </g>
   <g id="patch_41">
    <path d="M 349.648873 72.993574 
L 387.67335 72.993574 
L 387.67335 72.670271 
L 349.648873 72.670271 
z
" clip-path="url(#p924928d47f)" style="fill: #4d908e; opacity: 0.8"/>
   </g>
   <g id="patch_42">
    <path d="M 444.710065 106.890061 
L 482.734542 106.890061 
L 482.734542 106.766466 
L 444.710065 106.766466 
z
" clip-path="url(#p924928d47f)" style="fill: #4d908e; opacity: 0.8"/>
   </g>
   <g id="patch_43">
    <path d="M 64.465298 252.486758 
L 102.489775 252.486758 
L 102.489775 252.486758 
L 64.465298 252.486758 
z
" clip-path="url(#p924928d47f)" style="fill: #577590; opacity: 0.8"/>
   </g>
   <g id="patch_44">
    <path d="M 159.52649 167.2534 
L 197.550967 167.2534 
L 197.550967 162.211681 
L 159.52649 162.211681 
z
" clip-path="url(#p924928d47f)" style="fill: #577590; opacity: 0.8"/>
   </g>
   <g id="patch_45">
    <path d="M 254.587682 201.194728 
L 292.612158 201.194728 
L 292.612158 195.638746 
L 254.587682 195.638746 
z
" clip-path="url(#p924928d47f)" style="fill: #577590; opacity: 0.8"/>
   </g>
   <g id="patch_46">
    <path d="M 349.648873 72.670271 
L 387.67335 72.670271 
L 387.67335 67.628552 
L 349.648873 67.628552 
z
" clip-path="url(#p924928d47f)" style="fill: #577590; opacity: 0.8"/>
   </g>
   <g id="patch_47">
    <path d="M 444.710065 106.766466 
L 482.734542 106.766466 
L 482.734542 101.210484 
L 444.710065 101.210484 
z
" clip-path="url(#p924928d47f)" style="fill: #577590; opacity: 0.8"/>
   </g>
   <g id="LineCollection_1">
    <path d="M 83.477536 198.62713 
L 83.477536 159.896612 
" clip-path="url(#p924928d47f)" style="fill: none; stroke: #000000"/>
    <path d="M 178.538728 181.743045 
L 178.538728 136.6583 
" clip-path="url(#p924928d47f)" style="fill: none; stroke: #000000"/>
    <path d="M 273.59992 209.580605 
L 273.59992 183.074406 
" clip-path="url(#p924928d47f)" style="fill: none; stroke: #000000"/>
    <path d="M 368.661112 79.228203 
L 368.661112 48.062239 
" clip-path="url(#p924928d47f)" style="fill: none; stroke: #000000"/>
    <path d="M 463.722304 107.247313 
L 463.722304 94.599378 
" clip-path="url(#p924928d47f)" style="fill: none; stroke: #000000"/>
   </g>
   <g id="line2d_1">
    <defs>
     <path id="m6b0876137b" d="M 5 0 
L -5 -0 
" style="stroke: #000000"/>
    </defs>
    <g clip-path="url(#p924928d47f)">
     <use xlink:href="#m6b0876137b" x="83.477536" y="198.62713" style="stroke: #000000"/>
     <use xlink:href="#m6b0876137b" x="178.538728" y="181.743045" style="stroke: #000000"/>
     <use xlink:href="#m6b0876137b" x="273.59992" y="209.580605" style="stroke: #000000"/>
     <use xlink:href="#m6b0876137b" x="368.661112" y="79.228203" style="stroke: #000000"/>
     <use xlink:href="#m6b0876137b" x="463.722304" y="107.247313" style="stroke: #000000"/>
    </g>
   </g>
   <g id="line2d_2">
    <g clip-path="url(#p924928d47f)">
     <use xlink:href="#m6b0876137b" x="83.477536" y="159.896612" style="stroke: #000000"/>
     <use xlink:href="#m6b0876137b" x="178.538728" y="136.6583" style="stroke: #000000"/>
     <use xlink:href="#m6b0876137b" x="273.59992" y="183.074406" style="stroke: #000000"/>
     <use xlink:href="#m6b0876137b" x="368.661112" y="48.062239" style="stroke: #000000"/>
     <use xlink:href="#m6b0876137b" x="463.722304" y="94.599378" style="stroke: #000000"/>
    </g>
   </g>
   <g id="matplotlib.axis_1">
    <g id="xtick_1">
     <g id="line2d_3">
      <defs>
       <path id="m0a399fc6b8" d="M 0 0 
L 0 3.5 
" style="stroke: #000000; stroke-width: 0.8"/>
      </defs>
      <g>
       <use xlink:href="#m0a399fc6b8" x="83.477536" y="252.486758" style="stroke: #000000; stroke-width: 0.8"/>
      </g>
     </g>
     <g id="text_1">
      <!-- Fossil -->
      <g transform="translate(71.726911 265.928789) scale(0.09 -0.09)">
       <defs>
        <path id="ArialMT-46" d="M 525 0 
L 525 4581 
L 3616 4581 
L 3616 4041 
L 1131 4041 
L 1131 2622 
L 3281 2622 
L 3281 2081 
L 1131 2081 
L 1131 0 
L 525 0 
z
" transform="scale(0.015625)"/>
        <path id="ArialMT-6f" d="M 213 1659 
Q 213 2581 725 3025 
Q 1153 3394 1769 3394 
Q 2453 3394 2887 2945 
Q 3322 2497 3322 1706 
Q 3322 1066 3130 698 
Q 2938 331 2570 128 
Q 2203 -75 1769 -75 
Q 1072 -75 642 372 
Q 213 819 213 1659 
z
M 791 1659 
Q 791 1022 1069 705 
Q 1347 388 1769 388 
Q 2188 388 2466 706 
Q 2744 1025 2744 1678 
Q 2744 2294 2464 2611 
Q 2184 2928 1769 2928 
Q 1347 2928 1069 2612 
Q 791 2297 791 1659 
z
" transform="scale(0.015625)"/>
        <path id="ArialMT-73" d="M 197 991 
L 753 1078 
Q 800 744 1014 566 
Q 1228 388 1613 388 
Q 2000 388 2187 545 
Q 2375 703 2375 916 
Q 2375 1106 2209 1216 
Q 2094 1291 1634 1406 
Q 1016 1563 777 1677 
Q 538 1791 414 1992 
Q 291 2194 291 2438 
Q 291 2659 392 2848 
Q 494 3038 669 3163 
Q 800 3259 1026 3326 
Q 1253 3394 1513 3394 
Q 1903 3394 2198 3281 
Q 2494 3169 2634 2976 
Q 2775 2784 2828 2463 
L 2278 2388 
Q 2241 2644 2061 2787 
Q 1881 2931 1553 2931 
Q 1166 2931 1000 2803 
Q 834 2675 834 2503 
Q 834 2394 903 2306 
Q 972 2216 1119 2156 
Q 1203 2125 1616 2013 
Q 2213 1853 2448 1751 
Q 2684 1650 2818 1456 
Q 2953 1263 2953 975 
Q 2953 694 2789 445 
Q 2625 197 2315 61 
Q 2006 -75 1616 -75 
Q 969 -75 630 194 
Q 291 463 197 991 
z
" transform="scale(0.015625)"/>
        <path id="ArialMT-69" d="M 425 3934 
L 425 4581 
L 988 4581 
L 988 3934 
L 425 3934 
z
M 425 0 
L 425 3319 
L 988 3319 
L 988 0 
L 425 0 
z
" transform="scale(0.015625)"/>
        <path id="ArialMT-6c" d="M 409 0 
L 409 4581 
L 972 4581 
L 972 0 
L 409 0 
z
" transform="scale(0.015625)"/>
       </defs>
       <use xlink:href="#ArialMT-46"/>
       <use xlink:href="#ArialMT-6f" x="61.083984"/>
       <use xlink:href="#ArialMT-73" x="116.699219"/>
       <use xlink:href="#ArialMT-73" x="166.699219"/>
       <use xlink:href="#ArialMT-69" x="216.699219"/>
       <use xlink:href="#ArialMT-6c" x="238.916016"/>
      </g>
     </g>
    </g>
    <g id="xtick_2">
     <g id="line2d_4">
      <g>
       <use xlink:href="#m0a399fc6b8" x="178.538728" y="252.486758" style="stroke: #000000; stroke-width: 0.8"/>
      </g>
     </g>
     <g id="text_2">
      <!-- DAC CO$_\mathdefault{2}$ -->
      <g transform="translate(159.098728 265.928789) scale(0.09 -0.09)">
       <defs>
        <path id="ArialMT-44" d="M 494 0 
L 494 4581 
L 2072 4581 
Q 2606 4581 2888 4516 
Q 3281 4425 3559 4188 
Q 3922 3881 4101 3404 
Q 4281 2928 4281 2316 
Q 4281 1794 4159 1391 
Q 4038 988 3847 723 
Q 3656 459 3429 307 
Q 3203 156 2883 78 
Q 2563 0 2147 0 
L 494 0 
z
M 1100 541 
L 2078 541 
Q 2531 541 2789 625 
Q 3047 709 3200 863 
Q 3416 1078 3536 1442 
Q 3656 1806 3656 2325 
Q 3656 3044 3420 3430 
Q 3184 3816 2847 3947 
Q 2603 4041 2063 4041 
L 1100 4041 
L 1100 541 
z
" transform="scale(0.015625)"/>
        <path id="ArialMT-41" d="M -9 0 
L 1750 4581 
L 2403 4581 
L 4278 0 
L 3588 0 
L 3053 1388 
L 1138 1388 
L 634 0 
L -9 0 
z
M 1313 1881 
L 2866 1881 
L 2388 3150 
Q 2169 3728 2063 4100 
Q 1975 3659 1816 3225 
L 1313 1881 
z
" transform="scale(0.015625)"/>
        <path id="ArialMT-43" d="M 3763 1606 
L 4369 1453 
Q 4178 706 3683 314 
Q 3188 -78 2472 -78 
Q 1731 -78 1267 223 
Q 803 525 561 1097 
Q 319 1669 319 2325 
Q 319 3041 592 3573 
Q 866 4106 1370 4382 
Q 1875 4659 2481 4659 
Q 3169 4659 3637 4309 
Q 4106 3959 4291 3325 
L 3694 3184 
Q 3534 3684 3231 3912 
Q 2928 4141 2469 4141 
Q 1941 4141 1586 3887 
Q 1231 3634 1087 3207 
Q 944 2781 944 2328 
Q 944 1744 1114 1308 
Q 1284 872 1643 656 
Q 2003 441 2422 441 
Q 2931 441 3284 734 
Q 3638 1028 3763 1606 
z
" transform="scale(0.015625)"/>
        <path id="ArialMT-20" transform="scale(0.015625)"/>
        <path id="ArialMT-4f" d="M 309 2231 
Q 309 3372 921 4017 
Q 1534 4663 2503 4663 
Q 3138 4663 3647 4359 
Q 4156 4056 4423 3514 
Q 4691 2972 4691 2284 
Q 4691 1588 4409 1038 
Q 4128 488 3612 205 
Q 3097 -78 2500 -78 
Q 1853 -78 1343 234 
Q 834 547 571 1087 
Q 309 1628 309 2231 
z
M 934 2222 
Q 934 1394 1379 917 
Q 1825 441 2497 441 
Q 3181 441 3623 922 
Q 4066 1403 4066 2288 
Q 4066 2847 3877 3264 
Q 3688 3681 3323 3911 
Q 2959 4141 2506 4141 
Q 1863 4141 1398 3698 
Q 934 3256 934 2222 
z
" transform="scale(0.015625)"/>
        <path id="ArialMT-32" d="M 3222 541 
L 3222 0 
L 194 0 
Q 188 203 259 391 
Q 375 700 629 1000 
Q 884 1300 1366 1694 
Q 2113 2306 2375 2664 
Q 2638 3022 2638 3341 
Q 2638 3675 2398 3904 
Q 2159 4134 1775 4134 
Q 1369 4134 1125 3890 
Q 881 3647 878 3216 
L 300 3275 
Q 359 3922 746 4261 
Q 1134 4600 1788 4600 
Q 2447 4600 2831 4234 
Q 3216 3869 3216 3328 
Q 3216 3053 3103 2787 
Q 2991 2522 2730 2228 
Q 2469 1934 1863 1422 
Q 1356 997 1212 845 
Q 1069 694 975 541 
L 3222 541 
z
" transform="scale(0.015625)"/>
       </defs>
       <use xlink:href="#ArialMT-44" transform="translate(0 0.140625)"/>
       <use xlink:href="#ArialMT-41" transform="translate(72.216797 0.140625)"/>
       <use xlink:href="#ArialMT-43" transform="translate(138.916016 0.140625)"/>
       <use xlink:href="#ArialMT-20" transform="translate(211.132812 0.140625)"/>
       <use xlink:href="#ArialMT-43" transform="translate(238.916016 0.140625)"/>
       <use xlink:href="#ArialMT-4f" transform="translate(311.132812 0.140625)"/>
       <use xlink:href="#ArialMT-32" transform="translate(389.873047 -16.265625) scale(0.7)"/>
      </g>
     </g>
    </g>
    <g id="xtick_3">
     <g id="line2d_5">
      <g>
       <use xlink:href="#m0a399fc6b8" x="273.59992" y="252.486758" style="stroke: #000000; stroke-width: 0.8"/>
      </g>
     </g>
     <g id="text_3">
      <!-- Biogas -->
      <g transform="translate(259.84117 265.928789) scale(0.09 -0.09)">
       <defs>
        <path id="ArialMT-42" d="M 469 0 
L 469 4581 
L 2188 4581 
Q 2713 4581 3030 4442 
Q 3347 4303 3526 4014 
Q 3706 3725 3706 3409 
Q 3706 3116 3547 2856 
Q 3388 2597 3066 2438 
Q 3481 2316 3704 2022 
Q 3928 1728 3928 1328 
Q 3928 1006 3792 729 
Q 3656 453 3456 303 
Q 3256 153 2954 76 
Q 2653 0 2216 0 
L 469 0 
z
M 1075 2656 
L 2066 2656 
Q 2469 2656 2644 2709 
Q 2875 2778 2992 2937 
Q 3109 3097 3109 3338 
Q 3109 3566 3000 3739 
Q 2891 3913 2687 3977 
Q 2484 4041 1991 4041 
L 1075 4041 
L 1075 2656 
z
M 1075 541 
L 2216 541 
Q 2509 541 2628 563 
Q 2838 600 2978 687 
Q 3119 775 3209 942 
Q 3300 1109 3300 1328 
Q 3300 1584 3169 1773 
Q 3038 1963 2805 2039 
Q 2572 2116 2134 2116 
L 1075 2116 
L 1075 541 
z
" transform="scale(0.015625)"/>
        <path id="ArialMT-67" d="M 319 -275 
L 866 -356 
Q 900 -609 1056 -725 
Q 1266 -881 1628 -881 
Q 2019 -881 2231 -725 
Q 2444 -569 2519 -288 
Q 2563 -116 2559 434 
Q 2191 0 1641 0 
Q 956 0 581 494 
Q 206 988 206 1678 
Q 206 2153 378 2554 
Q 550 2956 876 3175 
Q 1203 3394 1644 3394 
Q 2231 3394 2613 2919 
L 2613 3319 
L 3131 3319 
L 3131 450 
Q 3131 -325 2973 -648 
Q 2816 -972 2473 -1159 
Q 2131 -1347 1631 -1347 
Q 1038 -1347 672 -1080 
Q 306 -813 319 -275 
z
M 784 1719 
Q 784 1066 1043 766 
Q 1303 466 1694 466 
Q 2081 466 2343 764 
Q 2606 1063 2606 1700 
Q 2606 2309 2336 2618 
Q 2066 2928 1684 2928 
Q 1309 2928 1046 2623 
Q 784 2319 784 1719 
z
" transform="scale(0.015625)"/>
        <path id="ArialMT-61" d="M 2588 409 
Q 2275 144 1986 34 
Q 1697 -75 1366 -75 
Q 819 -75 525 192 
Q 231 459 231 875 
Q 231 1119 342 1320 
Q 453 1522 633 1644 
Q 813 1766 1038 1828 
Q 1203 1872 1538 1913 
Q 2219 1994 2541 2106 
Q 2544 2222 2544 2253 
Q 2544 2597 2384 2738 
Q 2169 2928 1744 2928 
Q 1347 2928 1158 2789 
Q 969 2650 878 2297 
L 328 2372 
Q 403 2725 575 2942 
Q 747 3159 1072 3276 
Q 1397 3394 1825 3394 
Q 2250 3394 2515 3294 
Q 2781 3194 2906 3042 
Q 3031 2891 3081 2659 
Q 3109 2516 3109 2141 
L 3109 1391 
Q 3109 606 3145 398 
Q 3181 191 3288 0 
L 2700 0 
Q 2613 175 2588 409 
z
M 2541 1666 
Q 2234 1541 1622 1453 
Q 1275 1403 1131 1340 
Q 988 1278 909 1158 
Q 831 1038 831 891 
Q 831 666 1001 516 
Q 1172 366 1500 366 
Q 1825 366 2078 508 
Q 2331 650 2450 897 
Q 2541 1088 2541 1459 
L 2541 1666 
z
" transform="scale(0.015625)"/>
       </defs>
       <use xlink:href="#ArialMT-42"/>
       <use xlink:href="#ArialMT-69" x="66.699219"/>
       <use xlink:href="#ArialMT-6f" x="88.916016"/>
       <use xlink:href="#ArialMT-67" x="144.53125"/>
       <use xlink:href="#ArialMT-61" x="200.146484"/>
       <use xlink:href="#ArialMT-73" x="255.761719"/>
      </g>
     </g>
    </g>
    <g id="xtick_4">
     <g id="line2d_6">
      <g>
       <use xlink:href="#m0a399fc6b8" x="368.661112" y="252.486758" style="stroke: #000000; stroke-width: 0.8"/>
      </g>
     </g>
     <g id="text_4">
      <!-- DAC CO$_\mathdefault{2}$ -->
      <g transform="translate(349.221112 265.928789) scale(0.09 -0.09)">
       <use xlink:href="#ArialMT-44" transform="translate(0 0.140625)"/>
       <use xlink:href="#ArialMT-41" transform="translate(72.216797 0.140625)"/>
       <use xlink:href="#ArialMT-43" transform="translate(138.916016 0.140625)"/>
       <use xlink:href="#ArialMT-20" transform="translate(211.132812 0.140625)"/>
       <use xlink:href="#ArialMT-43" transform="translate(238.916016 0.140625)"/>
       <use xlink:href="#ArialMT-4f" transform="translate(311.132812 0.140625)"/>
       <use xlink:href="#ArialMT-32" transform="translate(389.873047 -16.265625) scale(0.7)"/>
      </g>
     </g>
    </g>
    <g id="xtick_5">
     <g id="line2d_7">
      <g>
       <use xlink:href="#m0a399fc6b8" x="463.722304" y="252.486758" style="stroke: #000000; stroke-width: 0.8"/>
      </g>
     </g>
     <g id="text_5">
      <!-- Biogas -->
      <g transform="translate(449.963554 265.928789) scale(0.09 -0.09)">
       <use xlink:href="#ArialMT-42"/>
       <use xlink:href="#ArialMT-69" x="66.699219"/>
       <use xlink:href="#ArialMT-6f" x="88.916016"/>
       <use xlink:href="#ArialMT-67" x="144.53125"/>
       <use xlink:href="#ArialMT-61" x="200.146484"/>
       <use xlink:href="#ArialMT-73" x="255.761719"/>
      </g>
     </g>
    </g>
   </g>
   <g id="matplotlib.axis_2">
    <g id="ytick_1">
     <g id="line2d_8">
      <defs>
       <path id="m9f3054504d" d="M 0 0 
L -3.5 0 
" style="stroke: #000000; stroke-width: 0.8"/>
      </defs>
      <g>
       <use xlink:href="#m9f3054504d" x="40.7" y="252.486758" style="stroke: #000000; stroke-width: 0.8"/>
      </g>
     </g>
     <g id="text_6">
      <!-- 0.0 -->
      <g transform="translate(21.19 255.707774) scale(0.09 -0.09)">
       <defs>
        <path id="ArialMT-30" d="M 266 2259 
Q 266 3072 433 3567 
Q 600 4063 929 4331 
Q 1259 4600 1759 4600 
Q 2128 4600 2406 4451 
Q 2684 4303 2865 4023 
Q 3047 3744 3150 3342 
Q 3253 2941 3253 2259 
Q 3253 1453 3087 958 
Q 2922 463 2592 192 
Q 2263 -78 1759 -78 
Q 1097 -78 719 397 
Q 266 969 266 2259 
z
M 844 2259 
Q 844 1131 1108 757 
Q 1372 384 1759 384 
Q 2147 384 2411 759 
Q 2675 1134 2675 2259 
Q 2675 3391 2411 3762 
Q 2147 4134 1753 4134 
Q 1366 4134 1134 3806 
Q 844 3388 844 2259 
z
" transform="scale(0.015625)"/>
        <path id="ArialMT-2e" d="M 581 0 
L 581 641 
L 1222 641 
L 1222 0 
L 581 0 
z
" transform="scale(0.015625)"/>
       </defs>
       <use xlink:href="#ArialMT-30"/>
       <use xlink:href="#ArialMT-2e" x="55.615234"/>
       <use xlink:href="#ArialMT-30" x="83.398438"/>
      </g>
     </g>
    </g>
    <g id="ytick_2">
     <g id="line2d_9">
      <g>
       <use xlink:href="#m9f3054504d" x="40.7" y="204.07361" style="stroke: #000000; stroke-width: 0.8"/>
      </g>
     </g>
     <g id="text_7">
      <!-- 0.8 -->
      <g transform="translate(21.19 207.294625) scale(0.09 -0.09)">
       <defs>
        <path id="ArialMT-38" d="M 1131 2484 
Q 781 2613 612 2850 
Q 444 3088 444 3419 
Q 444 3919 803 4259 
Q 1163 4600 1759 4600 
Q 2359 4600 2725 4251 
Q 3091 3903 3091 3403 
Q 3091 3084 2923 2848 
Q 2756 2613 2416 2484 
Q 2838 2347 3058 2040 
Q 3278 1734 3278 1309 
Q 3278 722 2862 322 
Q 2447 -78 1769 -78 
Q 1091 -78 675 323 
Q 259 725 259 1325 
Q 259 1772 486 2073 
Q 713 2375 1131 2484 
z
M 1019 3438 
Q 1019 3113 1228 2906 
Q 1438 2700 1772 2700 
Q 2097 2700 2305 2904 
Q 2513 3109 2513 3406 
Q 2513 3716 2298 3927 
Q 2084 4138 1766 4138 
Q 1444 4138 1231 3931 
Q 1019 3725 1019 3438 
z
M 838 1322 
Q 838 1081 952 856 
Q 1066 631 1291 507 
Q 1516 384 1775 384 
Q 2178 384 2440 643 
Q 2703 903 2703 1303 
Q 2703 1709 2433 1975 
Q 2163 2241 1756 2241 
Q 1359 2241 1098 1978 
Q 838 1716 838 1322 
z
" transform="scale(0.015625)"/>
       </defs>
       <use xlink:href="#ArialMT-30"/>
       <use xlink:href="#ArialMT-2e" x="55.615234"/>
       <use xlink:href="#ArialMT-38" x="83.398438"/>
      </g>
     </g>
    </g>
    <g id="ytick_3">
     <g id="line2d_10">
      <g>
       <use xlink:href="#m9f3054504d" x="40.7" y="155.660461" style="stroke: #000000; stroke-width: 0.8"/>
      </g>
     </g>
     <g id="text_8">
      <!-- 1.6 -->
      <g transform="translate(21.19 158.881477) scale(0.09 -0.09)">
       <defs>
        <path id="ArialMT-31" d="M 2384 0 
L 1822 0 
L 1822 3584 
Q 1619 3391 1289 3197 
Q 959 3003 697 2906 
L 697 3450 
Q 1169 3672 1522 3987 
Q 1875 4303 2022 4600 
L 2384 4600 
L 2384 0 
z
" transform="scale(0.015625)"/>
        <path id="ArialMT-36" d="M 3184 3459 
L 2625 3416 
Q 2550 3747 2413 3897 
Q 2184 4138 1850 4138 
Q 1581 4138 1378 3988 
Q 1113 3794 959 3422 
Q 806 3050 800 2363 
Q 1003 2672 1297 2822 
Q 1591 2972 1913 2972 
Q 2475 2972 2870 2558 
Q 3266 2144 3266 1488 
Q 3266 1056 3080 686 
Q 2894 316 2569 119 
Q 2244 -78 1831 -78 
Q 1128 -78 684 439 
Q 241 956 241 2144 
Q 241 3472 731 4075 
Q 1159 4600 1884 4600 
Q 2425 4600 2770 4297 
Q 3116 3994 3184 3459 
z
M 888 1484 
Q 888 1194 1011 928 
Q 1134 663 1356 523 
Q 1578 384 1822 384 
Q 2178 384 2434 671 
Q 2691 959 2691 1453 
Q 2691 1928 2437 2201 
Q 2184 2475 1800 2475 
Q 1419 2475 1153 2201 
Q 888 1928 888 1484 
z
" transform="scale(0.015625)"/>
       </defs>
       <use xlink:href="#ArialMT-31"/>
       <use xlink:href="#ArialMT-2e" x="55.615234"/>
       <use xlink:href="#ArialMT-36" x="83.398438"/>
      </g>
     </g>
    </g>
    <g id="ytick_4">
     <g id="line2d_11">
      <g>
       <use xlink:href="#m9f3054504d" x="40.7" y="107.247313" style="stroke: #000000; stroke-width: 0.8"/>
      </g>
     </g>
     <g id="text_9">
      <!-- 2.4 -->
      <g transform="translate(21.19 110.468328) scale(0.09 -0.09)">
       <defs>
        <path id="ArialMT-34" d="M 2069 0 
L 2069 1097 
L 81 1097 
L 81 1613 
L 2172 4581 
L 2631 4581 
L 2631 1613 
L 3250 1613 
L 3250 1097 
L 2631 1097 
L 2631 0 
L 2069 0 
z
M 2069 1613 
L 2069 3678 
L 634 1613 
L 2069 1613 
z
" transform="scale(0.015625)"/>
       </defs>
       <use xlink:href="#ArialMT-32"/>
       <use xlink:href="#ArialMT-2e" x="55.615234"/>
       <use xlink:href="#ArialMT-34" x="83.398438"/>
      </g>
     </g>
    </g>
    <g id="ytick_5">
     <g id="line2d_12">
      <g>
       <use xlink:href="#m9f3054504d" x="40.7" y="58.834164" style="stroke: #000000; stroke-width: 0.8"/>
      </g>
     </g>
     <g id="text_10">
      <!-- 3.2 -->
      <g transform="translate(21.19 62.05518) scale(0.09 -0.09)">
       <defs>
        <path id="ArialMT-33" d="M 269 1209 
L 831 1284 
Q 928 806 1161 595 
Q 1394 384 1728 384 
Q 2125 384 2398 659 
Q 2672 934 2672 1341 
Q 2672 1728 2419 1979 
Q 2166 2231 1775 2231 
Q 1616 2231 1378 2169 
L 1441 2663 
Q 1497 2656 1531 2656 
Q 1891 2656 2178 2843 
Q 2466 3031 2466 3422 
Q 2466 3731 2256 3934 
Q 2047 4138 1716 4138 
Q 1388 4138 1169 3931 
Q 950 3725 888 3313 
L 325 3413 
Q 428 3978 793 4289 
Q 1159 4600 1703 4600 
Q 2078 4600 2393 4439 
Q 2709 4278 2876 4000 
Q 3044 3722 3044 3409 
Q 3044 3113 2884 2869 
Q 2725 2625 2413 2481 
Q 2819 2388 3044 2092 
Q 3269 1797 3269 1353 
Q 3269 753 2831 336 
Q 2394 -81 1725 -81 
Q 1122 -81 723 278 
Q 325 638 269 1209 
z
" transform="scale(0.015625)"/>
       </defs>
       <use xlink:href="#ArialMT-33"/>
       <use xlink:href="#ArialMT-2e" x="55.615234"/>
       <use xlink:href="#ArialMT-32" x="83.398438"/>
      </g>
     </g>
    </g>
    <g id="ytick_6">
     <g id="line2d_13">
      <g>
       <use xlink:href="#m9f3054504d" x="40.7" y="10.421016" style="stroke: #000000; stroke-width: 0.8"/>
      </g>
     </g>
     <g id="text_11">
      <!-- 4.0 -->
      <g transform="translate(21.19 13.642031) scale(0.09 -0.09)">
       <use xlink:href="#ArialMT-34"/>
       <use xlink:href="#ArialMT-2e" x="55.615234"/>
       <use xlink:href="#ArialMT-30" x="83.398438"/>
      </g>
     </g>
    </g>
    <g id="text_12">
     <!-- Production costs (USD kg$^\mathdefault{-1}$) -->
     <g transform="translate(15.21 188.243887) rotate(-90) scale(0.09 -0.09)">
      <defs>
       <path id="ArialMT-50" d="M 494 0 
L 494 4581 
L 2222 4581 
Q 2678 4581 2919 4538 
Q 3256 4481 3484 4323 
Q 3713 4166 3852 3881 
Q 3991 3597 3991 3256 
Q 3991 2672 3619 2267 
Q 3247 1863 2275 1863 
L 1100 1863 
L 1100 0 
L 494 0 
z
M 1100 2403 
L 2284 2403 
Q 2872 2403 3119 2622 
Q 3366 2841 3366 3238 
Q 3366 3525 3220 3729 
Q 3075 3934 2838 4000 
Q 2684 4041 2272 4041 
L 1100 4041 
L 1100 2403 
z
" transform="scale(0.015625)"/>
       <path id="ArialMT-72" d="M 416 0 
L 416 3319 
L 922 3319 
L 922 2816 
Q 1116 3169 1280 3281 
Q 1444 3394 1641 3394 
Q 1925 3394 2219 3213 
L 2025 2691 
Q 1819 2813 1613 2813 
Q 1428 2813 1281 2702 
Q 1134 2591 1072 2394 
Q 978 2094 978 1738 
L 978 0 
L 416 0 
z
" transform="scale(0.015625)"/>
       <path id="ArialMT-64" d="M 2575 0 
L 2575 419 
Q 2259 -75 1647 -75 
Q 1250 -75 917 144 
Q 584 363 401 755 
Q 219 1147 219 1656 
Q 219 2153 384 2558 
Q 550 2963 881 3178 
Q 1213 3394 1622 3394 
Q 1922 3394 2156 3267 
Q 2391 3141 2538 2938 
L 2538 4581 
L 3097 4581 
L 3097 0 
L 2575 0 
z
M 797 1656 
Q 797 1019 1065 703 
Q 1334 388 1700 388 
Q 2069 388 2326 689 
Q 2584 991 2584 1609 
Q 2584 2291 2321 2609 
Q 2059 2928 1675 2928 
Q 1300 2928 1048 2622 
Q 797 2316 797 1656 
z
" transform="scale(0.015625)"/>
       <path id="ArialMT-75" d="M 2597 0 
L 2597 488 
Q 2209 -75 1544 -75 
Q 1250 -75 995 37 
Q 741 150 617 320 
Q 494 491 444 738 
Q 409 903 409 1263 
L 409 3319 
L 972 3319 
L 972 1478 
Q 972 1038 1006 884 
Q 1059 663 1231 536 
Q 1403 409 1656 409 
Q 1909 409 2131 539 
Q 2353 669 2445 892 
Q 2538 1116 2538 1541 
L 2538 3319 
L 3100 3319 
L 3100 0 
L 2597 0 
z
" transform="scale(0.015625)"/>
       <path id="ArialMT-63" d="M 2588 1216 
L 3141 1144 
Q 3050 572 2676 248 
Q 2303 -75 1759 -75 
Q 1078 -75 664 370 
Q 250 816 250 1647 
Q 250 2184 428 2587 
Q 606 2991 970 3192 
Q 1334 3394 1763 3394 
Q 2303 3394 2647 3120 
Q 2991 2847 3088 2344 
L 2541 2259 
Q 2463 2594 2264 2762 
Q 2066 2931 1784 2931 
Q 1359 2931 1093 2626 
Q 828 2322 828 1663 
Q 828 994 1084 691 
Q 1341 388 1753 388 
Q 2084 388 2306 591 
Q 2528 794 2588 1216 
z
" transform="scale(0.015625)"/>
       <path id="ArialMT-74" d="M 1650 503 
L 1731 6 
Q 1494 -44 1306 -44 
Q 1000 -44 831 53 
Q 663 150 594 308 
Q 525 466 525 972 
L 525 2881 
L 113 2881 
L 113 3319 
L 525 3319 
L 525 4141 
L 1084 4478 
L 1084 3319 
L 1650 3319 
L 1650 2881 
L 1084 2881 
L 1084 941 
Q 1084 700 1114 631 
Q 1144 563 1211 522 
Q 1278 481 1403 481 
Q 1497 481 1650 503 
z
" transform="scale(0.015625)"/>
       <path id="ArialMT-6e" d="M 422 0 
L 422 3319 
L 928 3319 
L 928 2847 
Q 1294 3394 1984 3394 
Q 2284 3394 2536 3286 
Q 2788 3178 2913 3003 
Q 3038 2828 3088 2588 
Q 3119 2431 3119 2041 
L 3119 0 
L 2556 0 
L 2556 2019 
Q 2556 2363 2490 2533 
Q 2425 2703 2258 2804 
Q 2091 2906 1866 2906 
Q 1506 2906 1245 2678 
Q 984 2450 984 1813 
L 984 0 
L 422 0 
z
" transform="scale(0.015625)"/>
       <path id="ArialMT-28" d="M 1497 -1347 
Q 1031 -759 709 28 
Q 388 816 388 1659 
Q 388 2403 628 3084 
Q 909 3875 1497 4659 
L 1900 4659 
Q 1522 4009 1400 3731 
Q 1209 3300 1100 2831 
Q 966 2247 966 1656 
Q 966 153 1900 -1347 
L 1497 -1347 
z
" transform="scale(0.015625)"/>
       <path id="ArialMT-55" d="M 3500 4581 
L 4106 4581 
L 4106 1934 
Q 4106 1244 3950 837 
Q 3794 431 3386 176 
Q 2978 -78 2316 -78 
Q 1672 -78 1262 144 
Q 853 366 678 786 
Q 503 1206 503 1934 
L 503 4581 
L 1109 4581 
L 1109 1938 
Q 1109 1341 1220 1058 
Q 1331 775 1601 622 
Q 1872 469 2263 469 
Q 2931 469 3215 772 
Q 3500 1075 3500 1938 
L 3500 4581 
z
" transform="scale(0.015625)"/>
       <path id="ArialMT-53" d="M 288 1472 
L 859 1522 
Q 900 1178 1048 958 
Q 1197 738 1509 602 
Q 1822 466 2213 466 
Q 2559 466 2825 569 
Q 3091 672 3220 851 
Q 3350 1031 3350 1244 
Q 3350 1459 3225 1620 
Q 3100 1781 2813 1891 
Q 2628 1963 1997 2114 
Q 1366 2266 1113 2400 
Q 784 2572 623 2826 
Q 463 3081 463 3397 
Q 463 3744 659 4045 
Q 856 4347 1234 4503 
Q 1613 4659 2075 4659 
Q 2584 4659 2973 4495 
Q 3363 4331 3572 4012 
Q 3781 3694 3797 3291 
L 3216 3247 
Q 3169 3681 2898 3903 
Q 2628 4125 2100 4125 
Q 1550 4125 1298 3923 
Q 1047 3722 1047 3438 
Q 1047 3191 1225 3031 
Q 1400 2872 2139 2705 
Q 2878 2538 3153 2413 
Q 3553 2228 3743 1945 
Q 3934 1663 3934 1294 
Q 3934 928 3725 604 
Q 3516 281 3123 101 
Q 2731 -78 2241 -78 
Q 1619 -78 1198 103 
Q 778 284 539 648 
Q 300 1013 288 1472 
z
" transform="scale(0.015625)"/>
       <path id="ArialMT-6b" d="M 425 0 
L 425 4581 
L 988 4581 
L 988 1969 
L 2319 3319 
L 3047 3319 
L 1778 2088 
L 3175 0 
L 2481 0 
L 1384 1697 
L 988 1316 
L 988 0 
L 425 0 
z
" transform="scale(0.015625)"/>
       <path id="ArialMT-2212" d="M 3381 1997 
L 356 1997 
L 356 2522 
L 3381 2522 
L 3381 1997 
z
" transform="scale(0.015625)"/>
       <path id="ArialMT-29" d="M 791 -1347 
L 388 -1347 
Q 1322 153 1322 1656 
Q 1322 2244 1188 2822 
Q 1081 3291 891 3722 
Q 769 4003 388 4659 
L 791 4659 
Q 1378 3875 1659 3084 
Q 1900 2403 1900 1659 
Q 1900 816 1576 28 
Q 1253 -759 791 -1347 
z
" transform="scale(0.015625)"/>
      </defs>
      <use xlink:href="#ArialMT-50" transform="translate(0 0.40625)"/>
      <use xlink:href="#ArialMT-72" transform="translate(66.699219 0.40625)"/>
      <use xlink:href="#ArialMT-6f" transform="translate(100 0.40625)"/>
      <use xlink:href="#ArialMT-64" transform="translate(155.615234 0.40625)"/>
      <use xlink:href="#ArialMT-75" transform="translate(211.230469 0.40625)"/>
      <use xlink:href="#ArialMT-63" transform="translate(266.845703 0.40625)"/>
      <use xlink:href="#ArialMT-74" transform="translate(316.845703 0.40625)"/>
      <use xlink:href="#ArialMT-69" transform="translate(344.628906 0.40625)"/>
      <use xlink:href="#ArialMT-6f" transform="translate(366.845703 0.40625)"/>
      <use xlink:href="#ArialMT-6e" transform="translate(422.460938 0.40625)"/>
      <use xlink:href="#ArialMT-20" transform="translate(478.076172 0.40625)"/>
      <use xlink:href="#ArialMT-63" transform="translate(505.859375 0.40625)"/>
      <use xlink:href="#ArialMT-6f" transform="translate(555.859375 0.40625)"/>
      <use xlink:href="#ArialMT-73" transform="translate(611.474609 0.40625)"/>
      <use xlink:href="#ArialMT-74" transform="translate(661.474609 0.40625)"/>
      <use xlink:href="#ArialMT-73" transform="translate(689.257812 0.40625)"/>
      <use xlink:href="#ArialMT-20" transform="translate(739.257812 0.40625)"/>
      <use xlink:href="#ArialMT-28" transform="translate(767.041016 0.40625)"/>
      <use xlink:href="#ArialMT-55" transform="translate(800.341797 0.40625)"/>
      <use xlink:href="#ArialMT-53" transform="translate(872.558594 0.40625)"/>
      <use xlink:href="#ArialMT-44" transform="translate(939.257812 0.40625)"/>
      <use xlink:href="#ArialMT-20" transform="translate(1011.474609 0.40625)"/>
      <use xlink:href="#ArialMT-6b" transform="translate(1039.257812 0.40625)"/>
      <use xlink:href="#ArialMT-67" transform="translate(1089.257812 0.40625)"/>
      <use xlink:href="#ArialMT-2212" transform="translate(1145.830078 38.6875) scale(0.7)"/>
      <use xlink:href="#ArialMT-31" transform="translate(1186.708984 38.6875) scale(0.7)"/>
      <use xlink:href="#ArialMT-29" transform="translate(1228.374023 0.40625)"/>
     </g>
    </g>
   </g>
   <g id="PathCollection_1">
    <defs>
     <path id="m5e97a4c4c9" d="M 0 3.872983 
C 1.027127 3.872983 2.012324 3.464901 2.738613 2.738613 
C 3.464901 2.012324 3.872983 1.027127 3.872983 0 
C 3.872983 -1.027127 3.464901 -2.012324 2.738613 -2.738613 
C 2.012324 -3.464901 1.027127 -3.872983 0 -3.872983 
C -1.027127 -3.872983 -2.012324 -3.464901 -2.738613 -2.738613 
C -3.464901 -2.012324 -3.872983 -1.027127 -3.872983 0 
C -3.872983 1.027127 -3.464901 2.012324 -2.738613 2.738613 
C -2.012324 3.464901 -1.027127 3.872983 0 3.872983 
z
" style="stroke: #000000"/>
    </defs>
    <g clip-path="url(#p924928d47f)">
     <use xlink:href="#m5e97a4c4c9" x="83.477536" y="171.394734" style="fill: #ffffff; stroke: #000000"/>
     <use xlink:href="#m5e97a4c4c9" x="178.538728" y="162.211681" style="fill: #ffffff; stroke: #000000"/>
     <use xlink:href="#m5e97a4c4c9" x="273.59992" y="195.638746" style="fill: #ffffff; stroke: #000000"/>
     <use xlink:href="#m5e97a4c4c9" x="368.661112" y="67.628552" style="fill: #ffffff; stroke: #000000"/>
     <use xlink:href="#m5e97a4c4c9" x="463.722304" y="101.210484" style="fill: #ffffff; stroke: #000000"/>
    </g>
   </g>
   <g id="line2d_14">
    <path d="M 40.7 252.486758 
L 506.49984 252.486758 
" clip-path="url(#p924928d47f)" style="fill: none; stroke: #808080; stroke-linecap: square"/>
   </g>
   <g id="line2d_15">
    <path d="M 131.008132 252.486758 
L 131.008132 10.421016 
" clip-path="url(#p924928d47f)" style="fill: none; stroke-dasharray: 3.7,1.6; stroke-dashoffset: 0; stroke: #808080"/>
   </g>
   <g id="line2d_16">
    <path d="M 321.130516 252.486758 
L 321.130516 10.421016 
" clip-path="url(#p924928d47f)" style="fill: none; stroke-dasharray: 3.7,1.6; stroke-dashoffset: 0; stroke: #808080"/>
   </g>
   <g id="patch_48">
    <path d="M 40.7 252.486758 
L 40.7 10.421016 
" style="fill: none; stroke: #000000; stroke-width: 0.8; stroke-linejoin: miter; stroke-linecap: square"/>
   </g>
   <g id="patch_49">
    <path d="M 506.49984 252.486758 
L 506.49984 10.421016 
" style="fill: none; stroke: #000000; stroke-width: 0.8; stroke-linejoin: miter; stroke-linecap: square"/>
   </g>
   <g id="patch_50">
    <path d="M 40.7 252.486758 
L 506.49984 252.486758 
" style="fill: none; stroke: #000000; stroke-width: 0.8; stroke-linejoin: miter; stroke-linecap: square"/>
   </g>
   <g id="patch_51">
    <path d="M 40.7 10.421016 
L 506.49984 10.421016 
" style="fill: none; stroke: #000000; stroke-width: 0.8; stroke-linejoin: miter; stroke-linecap: square"/>
   </g>
   <g id="text_13">
    <!-- Fossil ethylene -->
    <g transform="translate(196.056433 29.786275) scale(0.09 -0.09)">
     <defs>
      <path id="ArialMT-65" d="M 2694 1069 
L 3275 997 
Q 3138 488 2766 206 
Q 2394 -75 1816 -75 
Q 1088 -75 661 373 
Q 234 822 234 1631 
Q 234 2469 665 2931 
Q 1097 3394 1784 3394 
Q 2450 3394 2872 2941 
Q 3294 2488 3294 1666 
Q 3294 1616 3291 1516 
L 816 1516 
Q 847 969 1125 678 
Q 1403 388 1819 388 
Q 2128 388 2347 550 
Q 2566 713 2694 1069 
z
M 847 1978 
L 2700 1978 
Q 2663 2397 2488 2606 
Q 2219 2931 1791 2931 
Q 1403 2931 1139 2672 
Q 875 2413 847 1978 
z
" transform="scale(0.015625)"/>
      <path id="ArialMT-68" d="M 422 0 
L 422 4581 
L 984 4581 
L 984 2938 
Q 1378 3394 1978 3394 
Q 2347 3394 2619 3248 
Q 2891 3103 3008 2847 
Q 3125 2591 3125 2103 
L 3125 0 
L 2563 0 
L 2563 2103 
Q 2563 2525 2380 2717 
Q 2197 2909 1863 2909 
Q 1613 2909 1392 2779 
Q 1172 2650 1078 2428 
Q 984 2206 984 1816 
L 984 0 
L 422 0 
z
" transform="scale(0.015625)"/>
      <path id="ArialMT-79" d="M 397 -1278 
L 334 -750 
Q 519 -800 656 -800 
Q 844 -800 956 -737 
Q 1069 -675 1141 -563 
Q 1194 -478 1313 -144 
Q 1328 -97 1363 -6 
L 103 3319 
L 709 3319 
L 1400 1397 
Q 1534 1031 1641 628 
Q 1738 1016 1872 1384 
L 2581 3319 
L 3144 3319 
L 1881 -56 
Q 1678 -603 1566 -809 
Q 1416 -1088 1222 -1217 
Q 1028 -1347 759 -1347 
Q 597 -1347 397 -1278 
z
" transform="scale(0.015625)"/>
     </defs>
     <use xlink:href="#ArialMT-46"/>
     <use xlink:href="#ArialMT-6f" x="61.083984"/>
     <use xlink:href="#ArialMT-73" x="116.699219"/>
     <use xlink:href="#ArialMT-73" x="166.699219"/>
     <use xlink:href="#ArialMT-69" x="216.699219"/>
     <use xlink:href="#ArialMT-6c" x="238.916016"/>
     <use xlink:href="#ArialMT-20" x="261.132812"/>
     <use xlink:href="#ArialMT-65" x="288.916016"/>
     <use xlink:href="#ArialMT-74" x="344.53125"/>
     <use xlink:href="#ArialMT-68" x="372.314453"/>
     <use xlink:href="#ArialMT-79" x="427.929688"/>
     <use xlink:href="#ArialMT-6c" x="477.929688"/>
     <use xlink:href="#ArialMT-65" x="500.146484"/>
     <use xlink:href="#ArialMT-6e" x="555.761719"/>
     <use xlink:href="#ArialMT-65" x="611.376953"/>
    </g>
   </g>
   <g id="text_14">
    <!-- Green ethylene -->
    <g transform="translate(385.423661 29.786275) scale(0.09 -0.09)">
     <defs>
      <path id="ArialMT-47" d="M 2638 1797 
L 2638 2334 
L 4578 2338 
L 4578 638 
Q 4131 281 3656 101 
Q 3181 -78 2681 -78 
Q 2006 -78 1454 211 
Q 903 500 622 1047 
Q 341 1594 341 2269 
Q 341 2938 620 3517 
Q 900 4097 1425 4378 
Q 1950 4659 2634 4659 
Q 3131 4659 3532 4498 
Q 3934 4338 4162 4050 
Q 4391 3763 4509 3300 
L 3963 3150 
Q 3859 3500 3706 3700 
Q 3553 3900 3268 4020 
Q 2984 4141 2638 4141 
Q 2222 4141 1919 4014 
Q 1616 3888 1430 3681 
Q 1244 3475 1141 3228 
Q 966 2803 966 2306 
Q 966 1694 1177 1281 
Q 1388 869 1791 669 
Q 2194 469 2647 469 
Q 3041 469 3416 620 
Q 3791 772 3984 944 
L 3984 1797 
L 2638 1797 
z
" transform="scale(0.015625)"/>
     </defs>
     <use xlink:href="#ArialMT-47"/>
     <use xlink:href="#ArialMT-72" x="77.783203"/>
     <use xlink:href="#ArialMT-65" x="111.083984"/>
     <use xlink:href="#ArialMT-65" x="166.699219"/>
     <use xlink:href="#ArialMT-6e" x="222.314453"/>
     <use xlink:href="#ArialMT-20" x="277.929688"/>
     <use xlink:href="#ArialMT-65" x="305.712891"/>
     <use xlink:href="#ArialMT-74" x="361.328125"/>
     <use xlink:href="#ArialMT-68" x="389.111328"/>
     <use xlink:href="#ArialMT-79" x="444.726562"/>
     <use xlink:href="#ArialMT-6c" x="494.726562"/>
     <use xlink:href="#ArialMT-65" x="516.943359"/>
     <use xlink:href="#ArialMT-6e" x="572.558594"/>
     <use xlink:href="#ArialMT-65" x="628.173828"/>
    </g>
   </g>
   <g id="legend_1"/>
  </g>
  <g id="legend_2">
   <g id="line2d_17">
    <path d="M 86.560076 283.333779 
L 95.560076 283.333779 
L 104.560076 283.333779 
" style="fill: none"/>
    <defs>
     <path id="ma0f0dbf6bf" d="M 0 5 
C 1.326016 5 2.597899 4.473168 3.535534 3.535534 
C 4.473168 2.597899 5 1.326016 5 0 
C 5 -1.326016 4.473168 -2.597899 3.535534 -3.535534 
C 2.597899 -4.473168 1.326016 -5 0 -5 
C -1.326016 -5 -2.597899 -4.473168 -3.535534 -3.535534 
C -4.473168 -2.597899 -5 -1.326016 -5 0 
C -5 1.326016 -4.473168 2.597899 -3.535534 3.535534 
C -2.597899 4.473168 -1.326016 5 0 5 
z
" style="stroke: #ffffff; stroke-opacity: 0.8"/>
    </defs>
    <g>
     <use xlink:href="#ma0f0dbf6bf" x="95.560076" y="283.333779" style="fill: #808080; fill-opacity: 0.8; stroke: #ffffff; stroke-opacity: 0.8"/>
    </g>
   </g>
   <g id="text_15">
    <!-- Fossil -->
    <g transform="translate(105.460076 286.483779) scale(0.09 -0.09)">
     <use xlink:href="#ArialMT-46"/>
     <use xlink:href="#ArialMT-6f" x="61.083984"/>
     <use xlink:href="#ArialMT-73" x="116.699219"/>
     <use xlink:href="#ArialMT-73" x="166.699219"/>
     <use xlink:href="#ArialMT-69" x="216.699219"/>
     <use xlink:href="#ArialMT-6c" x="238.916016"/>
    </g>
   </g>
   <g id="line2d_18">
    <path d="M 86.560076 296.06456 
L 95.560076 296.06456 
L 104.560076 296.06456 
" style="fill: none"/>
    <defs>
     <path id="mb383813620" d="M 0 5 
C 1.326016 5 2.597899 4.473168 3.535534 3.535534 
C 4.473168 2.597899 5 1.326016 5 0 
C 5 -1.326016 4.473168 -2.597899 3.535534 -3.535534 
C 2.597899 -4.473168 1.326016 -5 0 -5 
C -1.326016 -5 -2.597899 -4.473168 -3.535534 -3.535534 
C -4.473168 -2.597899 -5 -1.326016 -5 0 
C -5 1.326016 -4.473168 2.597899 -3.535534 3.535534 
C -2.597899 4.473168 -1.326016 5 0 5 
z
" style="stroke: #ffffff; stroke-opacity: 0.8"/>
    </defs>
    <g>
     <use xlink:href="#mb383813620" x="95.560076" y="296.06456" style="fill: #f94144; fill-opacity: 0.8; stroke: #ffffff; stroke-opacity: 0.8"/>
    </g>
   </g>
   <g id="text_16">
    <!-- Ethylene -->
    <g transform="translate(105.460076 299.21456) scale(0.09 -0.09)">
     <defs>
      <path id="ArialMT-45" d="M 506 0 
L 506 4581 
L 3819 4581 
L 3819 4041 
L 1113 4041 
L 1113 2638 
L 3647 2638 
L 3647 2100 
L 1113 2100 
L 1113 541 
L 3925 541 
L 3925 0 
L 506 0 
z
" transform="scale(0.015625)"/>
     </defs>
     <use xlink:href="#ArialMT-45"/>
     <use xlink:href="#ArialMT-74" x="66.699219"/>
     <use xlink:href="#ArialMT-68" x="94.482422"/>
     <use xlink:href="#ArialMT-79" x="150.097656"/>
     <use xlink:href="#ArialMT-6c" x="200.097656"/>
     <use xlink:href="#ArialMT-65" x="222.314453"/>
     <use xlink:href="#ArialMT-6e" x="277.929688"/>
     <use xlink:href="#ArialMT-65" x="333.544922"/>
    </g>
   </g>
   <g id="line2d_19">
    <path d="M 158.482732 283.333779 
L 167.482732 283.333779 
L 176.482732 283.333779 
" style="fill: none"/>
    <defs>
     <path id="m7580d5f01c" d="M 0 5 
C 1.326016 5 2.597899 4.473168 3.535534 3.535534 
C 4.473168 2.597899 5 1.326016 5 0 
C 5 -1.326016 4.473168 -2.597899 3.535534 -3.535534 
C 2.597899 -4.473168 1.326016 -5 0 -5 
C -1.326016 -5 -2.597899 -4.473168 -3.535534 -3.535534 
C -4.473168 -2.597899 -5 -1.326016 -5 0 
C -5 1.326016 -4.473168 2.597899 -3.535534 3.535534 
C -2.597899 4.473168 -1.326016 5 0 5 
z
" style="stroke: #ffffff; stroke-opacity: 0.8"/>
    </defs>
    <g>
     <use xlink:href="#m7580d5f01c" x="167.482732" y="283.333779" style="fill: #f3722c; fill-opacity: 0.8; stroke: #ffffff; stroke-opacity: 0.8"/>
    </g>
   </g>
   <g id="text_17">
    <!-- Hydrogen -->
    <g transform="translate(177.382732 286.483779) scale(0.09 -0.09)">
     <defs>
      <path id="ArialMT-48" d="M 513 0 
L 513 4581 
L 1119 4581 
L 1119 2700 
L 3500 2700 
L 3500 4581 
L 4106 4581 
L 4106 0 
L 3500 0 
L 3500 2159 
L 1119 2159 
L 1119 0 
L 513 0 
z
" transform="scale(0.015625)"/>
     </defs>
     <use xlink:href="#ArialMT-48"/>
     <use xlink:href="#ArialMT-79" x="72.216797"/>
     <use xlink:href="#ArialMT-64" x="122.216797"/>
     <use xlink:href="#ArialMT-72" x="177.832031"/>
     <use xlink:href="#ArialMT-6f" x="211.132812"/>
     <use xlink:href="#ArialMT-67" x="266.748047"/>
     <use xlink:href="#ArialMT-65" x="322.363281"/>
     <use xlink:href="#ArialMT-6e" x="377.978516"/>
    </g>
   </g>
   <g id="line2d_20">
    <path d="M 158.482732 296.170029 
L 167.482732 296.170029 
L 176.482732 296.170029 
" style="fill: none"/>
    <defs>
     <path id="m0f43fe70de" d="M 0 5 
C 1.326016 5 2.597899 4.473168 3.535534 3.535534 
C 4.473168 2.597899 5 1.326016 5 0 
C 5 -1.326016 4.473168 -2.597899 3.535534 -3.535534 
C 2.597899 -4.473168 1.326016 -5 0 -5 
C -1.326016 -5 -2.597899 -4.473168 -3.535534 -3.535534 
C -4.473168 -2.597899 -5 -1.326016 -5 0 
C -5 1.326016 -4.473168 2.597899 -3.535534 3.535534 
C -2.597899 4.473168 -1.326016 5 0 5 
z
" style="stroke: #ffffff; stroke-opacity: 0.8"/>
    </defs>
    <g>
     <use xlink:href="#m0f43fe70de" x="167.482732" y="296.170029" style="fill: #f8961e; fill-opacity: 0.8; stroke: #ffffff; stroke-opacity: 0.8"/>
    </g>
   </g>
   <g id="text_18">
    <!-- DAC CO$_\mathdefault{2}$ -->
    <g transform="translate(177.382732 299.320029) scale(0.09 -0.09)">
     <use xlink:href="#ArialMT-44" transform="translate(0 0.140625)"/>
     <use xlink:href="#ArialMT-41" transform="translate(72.216797 0.140625)"/>
     <use xlink:href="#ArialMT-43" transform="translate(138.916016 0.140625)"/>
     <use xlink:href="#ArialMT-20" transform="translate(211.132812 0.140625)"/>
     <use xlink:href="#ArialMT-43" transform="translate(238.916016 0.140625)"/>
     <use xlink:href="#ArialMT-4f" transform="translate(311.132812 0.140625)"/>
     <use xlink:href="#ArialMT-32" transform="translate(389.873047 -16.265625) scale(0.7)"/>
    </g>
   </g>
   <g id="line2d_21">
    <path d="M 234.403357 283.333779 
L 243.403357 283.333779 
L 252.403357 283.333779 
" style="fill: none"/>
    <defs>
     <path id="m27822df48f" d="M 0 5 
C 1.326016 5 2.597899 4.473168 3.535534 3.535534 
C 4.473168 2.597899 5 1.326016 5 0 
C 5 -1.326016 4.473168 -2.597899 3.535534 -3.535534 
C 2.597899 -4.473168 1.326016 -5 0 -5 
C -1.326016 -5 -2.597899 -4.473168 -3.535534 -3.535534 
C -4.473168 -2.597899 -5 -1.326016 -5 0 
C -5 1.326016 -4.473168 2.597899 -3.535534 3.535534 
C -2.597899 4.473168 -1.326016 5 0 5 
z
" style="stroke: #ffffff; stroke-opacity: 0.8"/>
    </defs>
    <g>
     <use xlink:href="#m27822df48f" x="243.403357" y="283.333779" style="fill: #f9c74f; fill-opacity: 0.8; stroke: #ffffff; stroke-opacity: 0.8"/>
    </g>
   </g>
   <g id="text_19">
    <!-- Biogas -->
    <g transform="translate(253.303357 286.483779) scale(0.09 -0.09)">
     <use xlink:href="#ArialMT-42"/>
     <use xlink:href="#ArialMT-69" x="66.699219"/>
     <use xlink:href="#ArialMT-6f" x="88.916016"/>
     <use xlink:href="#ArialMT-67" x="144.53125"/>
     <use xlink:href="#ArialMT-61" x="200.146484"/>
     <use xlink:href="#ArialMT-73" x="255.761719"/>
    </g>
   </g>
   <g id="line2d_22">
    <path d="M 234.403357 296.170029 
L 243.403357 296.170029 
L 252.403357 296.170029 
" style="fill: none"/>
    <defs>
     <path id="m79ea3c3d26" d="M 0 5 
C 1.326016 5 2.597899 4.473168 3.535534 3.535534 
C 4.473168 2.597899 5 1.326016 5 0 
C 5 -1.326016 4.473168 -2.597899 3.535534 -3.535534 
C 2.597899 -4.473168 1.326016 -5 0 -5 
C -1.326016 -5 -2.597899 -4.473168 -3.535534 -3.535534 
C -4.473168 -2.597899 -5 -1.326016 -5 0 
C -5 1.326016 -4.473168 2.597899 -3.535534 3.535534 
C -2.597899 4.473168 -1.326016 5 0 5 
z
" style="stroke: #ffffff; stroke-opacity: 0.8"/>
    </defs>
    <g>
     <use xlink:href="#m79ea3c3d26" x="243.403357" y="296.170029" style="fill: #90be6d; fill-opacity: 0.8; stroke: #ffffff; stroke-opacity: 0.8"/>
    </g>
   </g>
   <g id="text_20">
    <!-- Electricity -->
    <g transform="translate(253.303357 299.320029) scale(0.09 -0.09)">
     <use xlink:href="#ArialMT-45"/>
     <use xlink:href="#ArialMT-6c" x="66.699219"/>
     <use xlink:href="#ArialMT-65" x="88.916016"/>
     <use xlink:href="#ArialMT-63" x="144.53125"/>
     <use xlink:href="#ArialMT-74" x="194.53125"/>
     <use xlink:href="#ArialMT-72" x="222.314453"/>
     <use xlink:href="#ArialMT-69" x="255.615234"/>
     <use xlink:href="#ArialMT-63" x="277.832031"/>
     <use xlink:href="#ArialMT-69" x="327.832031"/>
     <use xlink:href="#ArialMT-74" x="350.048828"/>
     <use xlink:href="#ArialMT-79" x="377.832031"/>
    </g>
   </g>
   <g id="line2d_23">
    <path d="M 309.807889 283.333779 
L 318.807889 283.333779 
L 327.807889 283.333779 
" style="fill: none"/>
    <defs>
     <path id="mdbeb2f6f0d" d="M 0 5 
C 1.326016 5 2.597899 4.473168 3.535534 3.535534 
C 4.473168 2.597899 5 1.326016 5 0 
C 5 -1.326016 4.473168 -2.597899 3.535534 -3.535534 
C 2.597899 -4.473168 1.326016 -5 0 -5 
C -1.326016 -5 -2.597899 -4.473168 -3.535534 -3.535534 
C -4.473168 -2.597899 -5 -1.326016 -5 0 
C -5 1.326016 -4.473168 2.597899 -3.535534 3.535534 
C -2.597899 4.473168 -1.326016 5 0 5 
z
" style="stroke: #ffffff; stroke-opacity: 0.8"/>
    </defs>
    <g>
     <use xlink:href="#mdbeb2f6f0d" x="318.807889" y="283.333779" style="fill: #43aa8b; fill-opacity: 0.8; stroke: #ffffff; stroke-opacity: 0.8"/>
    </g>
   </g>
   <g id="text_21">
    <!-- Heating -->
    <g transform="translate(328.707889 286.483779) scale(0.09 -0.09)">
     <use xlink:href="#ArialMT-48"/>
     <use xlink:href="#ArialMT-65" x="72.216797"/>
     <use xlink:href="#ArialMT-61" x="127.832031"/>
     <use xlink:href="#ArialMT-74" x="183.447266"/>
     <use xlink:href="#ArialMT-69" x="211.230469"/>
     <use xlink:href="#ArialMT-6e" x="233.447266"/>
     <use xlink:href="#ArialMT-67" x="289.0625"/>
    </g>
   </g>
   <g id="line2d_24">
    <path d="M 309.807889 296.279717 
L 318.807889 296.279717 
L 327.807889 296.279717 
" style="fill: none"/>
    <defs>
     <path id="m4af117ceb6" d="M 0 5 
C 1.326016 5 2.597899 4.473168 3.535534 3.535534 
C 4.473168 2.597899 5 1.326016 5 0 
C 5 -1.326016 4.473168 -2.597899 3.535534 -3.535534 
C 2.597899 -4.473168 1.326016 -5 0 -5 
C -1.326016 -5 -2.597899 -4.473168 -3.535534 -3.535534 
C -4.473168 -2.597899 -5 -1.326016 -5 0 
C -5 1.326016 -4.473168 2.597899 -3.535534 3.535534 
C -2.597899 4.473168 -1.326016 5 0 5 
z
" style="stroke: #ffffff; stroke-opacity: 0.8"/>
    </defs>
    <g>
     <use xlink:href="#m4af117ceb6" x="318.807889" y="296.279717" style="fill: #4d908e; fill-opacity: 0.8; stroke: #ffffff; stroke-opacity: 0.8"/>
    </g>
   </g>
   <g id="text_22">
    <!-- Cooling -->
    <g transform="translate(328.707889 299.429717) scale(0.09 -0.09)">
     <use xlink:href="#ArialMT-43"/>
     <use xlink:href="#ArialMT-6f" x="72.216797"/>
     <use xlink:href="#ArialMT-6f" x="127.832031"/>
     <use xlink:href="#ArialMT-6c" x="183.447266"/>
     <use xlink:href="#ArialMT-69" x="205.664062"/>
     <use xlink:href="#ArialMT-6e" x="227.880859"/>
     <use xlink:href="#ArialMT-67" x="283.496094"/>
    </g>
   </g>
   <g id="line2d_25">
    <path d="M 377.726951 283.333779 
L 386.726951 283.333779 
L 395.726951 283.333779 
" style="fill: none"/>
    <defs>
     <path id="m0361d2e870" d="M 0 5 
C 1.326016 5 2.597899 4.473168 3.535534 3.535534 
C 4.473168 2.597899 5 1.326016 5 0 
C 5 -1.326016 4.473168 -2.597899 3.535534 -3.535534 
C 2.597899 -4.473168 1.326016 -5 0 -5 
C -1.326016 -5 -2.597899 -4.473168 -3.535534 -3.535534 
C -4.473168 -2.597899 -5 -1.326016 -5 0 
C -5 1.326016 -4.473168 2.597899 -3.535534 3.535534 
C -2.597899 4.473168 -1.326016 5 0 5 
z
" style="stroke: #ffffff; stroke-opacity: 0.8"/>
    </defs>
    <g>
     <use xlink:href="#m0361d2e870" x="386.726951" y="283.333779" style="fill: #577590; fill-opacity: 0.8; stroke: #ffffff; stroke-opacity: 0.8"/>
    </g>
   </g>
   <g id="text_23">
    <!-- CAPEX -->
    <g transform="translate(396.626951 286.483779) scale(0.09 -0.09)">
     <defs>
      <path id="ArialMT-58" d="M 28 0 
L 1800 2388 
L 238 4581 
L 959 4581 
L 1791 3406 
Q 2050 3041 2159 2844 
Q 2313 3094 2522 3366 
L 3444 4581 
L 4103 4581 
L 2494 2422 
L 4228 0 
L 3478 0 
L 2325 1634 
Q 2228 1775 2125 1941 
Q 1972 1691 1906 1597 
L 756 0 
L 28 0 
z
" transform="scale(0.015625)"/>
     </defs>
     <use xlink:href="#ArialMT-43"/>
     <use xlink:href="#ArialMT-41" x="72.216797"/>
     <use xlink:href="#ArialMT-50" x="138.916016"/>
     <use xlink:href="#ArialMT-45" x="205.615234"/>
     <use xlink:href="#ArialMT-58" x="272.314453"/>
    </g>
   </g>
   <g id="line2d_26">
    <path d="M 377.726951 296.06456 
L 386.726951 296.06456 
L 395.726951 296.06456 
" style="fill: none"/>
    <defs>
     <path id="m1778b11bd7" d="M 0 4 
C 1.060812 4 2.078319 3.578535 2.828427 2.828427 
C 3.578535 2.078319 4 1.060812 4 0 
C 4 -1.060812 3.578535 -2.078319 2.828427 -2.828427 
C 2.078319 -3.578535 1.060812 -4 0 -4 
C -1.060812 -4 -2.078319 -3.578535 -2.828427 -2.828427 
C -3.578535 -2.078319 -4 -1.060812 -4 0 
C -4 1.060812 -3.578535 2.078319 -2.828427 2.828427 
C -2.078319 3.578535 -1.060812 4 0 4 
z
" style="stroke: #000000"/>
    </defs>
    <g>
     <use xlink:href="#m1778b11bd7" x="386.726951" y="296.06456" style="fill: #ffffff; stroke: #000000"/>
    </g>
   </g>
   <g id="text_24">
    <!-- Total -->
    <g transform="translate(396.626951 299.21456) scale(0.09 -0.09)">
     <defs>
      <path id="ArialMT-54" d="M 1659 0 
L 1659 4041 
L 150 4041 
L 150 4581 
L 3781 4581 
L 3781 4041 
L 2266 4041 
L 2266 0 
L 1659 0 
z
" transform="scale(0.015625)"/>
     </defs>
     <use xlink:href="#ArialMT-54"/>
     <use xlink:href="#ArialMT-6f" x="49.958984"/>
     <use xlink:href="#ArialMT-74" x="105.574219"/>
     <use xlink:href="#ArialMT-61" x="133.357422"/>
     <use xlink:href="#ArialMT-6c" x="188.972656"/>
    </g>
   </g>
  </g>
 </g>
 <defs>
  <clipPath id="p924928d47f">
   <rect x="40.7" y="10.421016" width="465.79984" height="242.065742"/>
  </clipPath>
 </defs>
</svg>
