<?xml version="1.0" encoding="utf-8" standalone="no"?>
<!DOCTYPE svg PUBLIC "-//W3C//DTD SVG 1.1//EN"
  "http://www.w3.org/Graphics/SVG/1.1/DTD/svg11.dtd">
<svg xmlns:xlink="http://www.w3.org/1999/xlink" width="513.69984pt" height="240.015132pt" viewBox="0 0 513.69984 240.015132" xmlns="http://www.w3.org/2000/svg" version="1.1">
 <metadata>
  <rdf:RDF xmlns:dc="http://purl.org/dc/elements/1.1/" xmlns:cc="http://creativecommons.org/ns#" xmlns:rdf="http://www.w3.org/1999/02/22-rdf-syntax-ns#">
   <cc:Work>
    <dc:type rdf:resource="http://purl.org/dc/dcmitype/StillImage"/>
    <dc:date>2026-01-16T17:26:15.185093</dc:date>
    <dc:format>image/svg+xml</dc:format>
    <dc:creator>
     <cc:Agent>
      <dc:title>Matplotlib v3.9.2, https://matplotlib.org/</dc:title>
     </cc:Agent>
    </dc:creator>
   </cc:Work>
  </rdf:RDF>
 </metadata>
 <defs>
  <style type="text/css">*{stroke-linejoin: round; stroke-linecap: butt}</style>
 </defs>
 <g id="figure_1">
  <g id="patch_1">
   <path d="M 0 240.015132 
L 513.69984 240.015132 
L 513.69984 0 
L 0 0 
z
" style="fill: #ffffff"/>
  </g>
  <g id="axes_1">
   <g id="patch_2">
    <path d="M 36.545938 203.594351 
L 261.341657 203.594351 
L 261.341657 21.789375 
L 36.545938 21.789375 
z
" style="fill: #ffffff"/>
   </g>
   <g id="patch_3">
    <path d="M 46.763925 203.594351 
L 53.575916 203.594351 
L 53.575916 203.594351 
L 46.763925 203.594351 
z
" clip-path="url(#p0e023e1895)" style="fill: #7cc582; stroke: #414141; stroke-linejoin: miter"/>
   </g>
   <g id="patch_4">
    <path d="M 53.575916 203.594351 
L 60.387908 203.594351 
L 60.387908 203.594351 
L 53.575916 203.594351 
z
" clip-path="url(#p0e023e1895)" style="fill: #7cc582; stroke: #414141; stroke-linejoin: miter"/>
   </g>
   <g id="patch_5">
    <path d="M 60.387908 203.594351 
L 67.199899 203.594351 
L 67.199899 203.594351 
L 60.387908 203.594351 
z
" clip-path="url(#p0e023e1895)" style="fill: #7cc582; stroke: #414141; stroke-linejoin: miter"/>
   </g>
   <g id="patch_6">
    <path d="M 67.199899 203.594351 
L 74.011891 203.594351 
L 74.011891 203.594351 
L 67.199899 203.594351 
z
" clip-path="url(#p0e023e1895)" style="fill: #7cc582; stroke: #414141; stroke-linejoin: miter"/>
   </g>
   <g id="patch_7">
    <path d="M 74.011891 203.594351 
L 80.823882 203.594351 
L 80.823882 203.594351 
L 74.011891 203.594351 
z
" clip-path="url(#p0e023e1895)" style="fill: #7cc582; stroke: #414141; stroke-linejoin: miter"/>
   </g>
   <g id="patch_8">
    <path d="M 80.823882 203.594351 
L 87.635874 203.594351 
L 87.635874 203.594351 
L 80.823882 203.594351 
z
" clip-path="url(#p0e023e1895)" style="fill: #7cc582; stroke: #414141; stroke-linejoin: miter"/>
   </g>
   <g id="patch_9">
    <path d="M 87.635874 203.594351 
L 94.447865 203.594351 
L 94.447865 203.594351 
L 87.635874 203.594351 
z
" clip-path="url(#p0e023e1895)" style="fill: #7cc582; stroke: #414141; stroke-linejoin: miter"/>
   </g>
   <g id="patch_10">
    <path d="M 94.447865 203.594351 
L 101.259857 203.594351 
L 101.259857 200.502429 
L 94.447865 200.502429 
z
" clip-path="url(#p0e023e1895)" style="fill: #7cc582; stroke: #414141; stroke-linejoin: miter"/>
   </g>
   <g id="patch_11">
    <path d="M 101.259857 203.594351 
L 108.071848 203.594351 
L 108.071848 188.134744 
L 101.259857 188.134744 
z
" clip-path="url(#p0e023e1895)" style="fill: #7cc582; stroke: #414141; stroke-linejoin: miter"/>
   </g>
   <g id="patch_12">
    <path d="M 108.071848 203.594351 
L 114.88384 203.594351 
L 114.88384 178.85898 
L 108.071848 178.85898 
z
" clip-path="url(#p0e023e1895)" style="fill: #7cc582; stroke: #414141; stroke-linejoin: miter"/>
   </g>
   <g id="patch_13">
    <path d="M 114.88384 203.594351 
L 121.695831 203.594351 
L 121.695831 160.307452 
L 114.88384 160.307452 
z
" clip-path="url(#p0e023e1895)" style="fill: #7cc582; stroke: #414141; stroke-linejoin: miter"/>
   </g>
   <g id="patch_14">
    <path d="M 121.695831 203.594351 
L 128.507823 203.594351 
L 128.507823 157.21553 
L 121.695831 157.21553 
z
" clip-path="url(#p0e023e1895)" style="fill: #7cc582; stroke: #414141; stroke-linejoin: miter"/>
   </g>
   <g id="patch_15">
    <path d="M 128.507823 203.594351 
L 135.319814 203.594351 
L 135.319814 147.939766 
L 128.507823 147.939766 
z
" clip-path="url(#p0e023e1895)" style="fill: #7cc582; stroke: #414141; stroke-linejoin: miter"/>
   </g>
   <g id="patch_16">
    <path d="M 135.319814 203.594351 
L 142.131806 203.594351 
L 142.131806 138.664002 
L 135.319814 138.664002 
z
" clip-path="url(#p0e023e1895)" style="fill: #7cc582; stroke: #414141; stroke-linejoin: miter"/>
   </g>
   <g id="patch_17">
    <path d="M 142.131806 203.594351 
L 148.943797 203.594351 
L 148.943797 120.112474 
L 142.131806 120.112474 
z
" clip-path="url(#p0e023e1895)" style="fill: #ff8383; stroke: #414141; stroke-linejoin: miter"/>
   </g>
   <g id="patch_18">
    <path d="M 148.943797 203.594351 
L 155.755789 203.594351 
L 155.755789 123.204395 
L 148.943797 123.204395 
z
" clip-path="url(#p0e023e1895)" style="fill: #ff8383; stroke: #414141; stroke-linejoin: miter"/>
   </g>
   <g id="patch_19">
    <path d="M 155.755789 203.594351 
L 162.56778 203.594351 
L 162.56778 89.193261 
L 155.755789 89.193261 
z
" clip-path="url(#p0e023e1895)" style="fill: #ff8383; stroke: #414141; stroke-linejoin: miter"/>
   </g>
   <g id="patch_20">
    <path d="M 162.56778 203.594351 
L 169.379772 203.594351 
L 169.379772 83.009418 
L 162.56778 83.009418 
z
" clip-path="url(#p0e023e1895)" style="fill: #ff8383; stroke: #414141; stroke-linejoin: miter"/>
   </g>
   <g id="patch_21">
    <path d="M 169.379772 203.594351 
L 176.191763 203.594351 
L 176.191763 89.193261 
L 169.379772 89.193261 
z
" clip-path="url(#p0e023e1895)" style="fill: #ff8383; stroke: #414141; stroke-linejoin: miter"/>
   </g>
   <g id="patch_22">
    <path d="M 176.191763 203.594351 
L 183.003755 203.594351 
L 183.003755 67.549811 
L 176.191763 67.549811 
z
" clip-path="url(#p0e023e1895)" style="fill: #ff8383; stroke: #414141; stroke-linejoin: miter"/>
   </g>
   <g id="patch_23">
    <path d="M 183.003755 203.594351 
L 189.815746 203.594351 
L 189.815746 101.560946 
L 183.003755 101.560946 
z
" clip-path="url(#p0e023e1895)" style="fill: #ff8383; stroke: #414141; stroke-linejoin: miter"/>
   </g>
   <g id="patch_24">
    <path d="M 189.815746 203.594351 
L 196.627738 203.594351 
L 196.627738 107.744789 
L 189.815746 107.744789 
z
" clip-path="url(#p0e023e1895)" style="fill: #ff8383; stroke: #414141; stroke-linejoin: miter"/>
   </g>
   <g id="patch_25">
    <path d="M 196.627738 203.594351 
L 203.439729 203.594351 
L 203.439729 113.928631 
L 196.627738 113.928631 
z
" clip-path="url(#p0e023e1895)" style="fill: #ff8383; stroke: #414141; stroke-linejoin: miter"/>
   </g>
   <g id="patch_26">
    <path d="M 203.439729 203.594351 
L 210.251721 203.594351 
L 210.251721 110.83671 
L 203.439729 110.83671 
z
" clip-path="url(#p0e023e1895)" style="fill: #ff8383; stroke: #414141; stroke-linejoin: miter"/>
   </g>
   <g id="patch_27">
    <path d="M 210.251721 203.594351 
L 217.063712 203.594351 
L 217.063712 141.755924 
L 210.251721 141.755924 
z
" clip-path="url(#p0e023e1895)" style="fill: #ff8383; stroke: #414141; stroke-linejoin: miter"/>
   </g>
   <g id="patch_28">
    <path d="M 217.063712 203.594351 
L 223.875704 203.594351 
L 223.875704 129.388238 
L 217.063712 129.388238 
z
" clip-path="url(#p0e023e1895)" style="fill: #ff8383; stroke: #414141; stroke-linejoin: miter"/>
   </g>
   <g id="patch_29">
    <path d="M 223.875704 203.594351 
L 230.687695 203.594351 
L 230.687695 178.85898 
L 223.875704 178.85898 
z
" clip-path="url(#p0e023e1895)" style="fill: #ff8383; stroke: #414141; stroke-linejoin: miter"/>
   </g>
   <g id="patch_30">
    <path d="M 230.687695 203.594351 
L 237.499687 203.594351 
L 237.499687 157.21553 
L 230.687695 157.21553 
z
" clip-path="url(#p0e023e1895)" style="fill: #ff8383; stroke: #414141; stroke-linejoin: miter"/>
   </g>
   <g id="patch_31">
    <path d="M 237.499687 203.594351 
L 244.311678 203.594351 
L 244.311678 160.307452 
L 237.499687 160.307452 
z
" clip-path="url(#p0e023e1895)" style="fill: #ff8383; stroke: #414141; stroke-linejoin: miter"/>
   </g>
   <g id="patch_32">
    <path d="M 244.311678 203.594351 
L 251.12367 203.594351 
L 251.12367 191.226665 
L 244.311678 191.226665 
z
" clip-path="url(#p0e023e1895)" style="fill: #ff8383; stroke: #414141; stroke-linejoin: miter"/>
   </g>
   <g id="matplotlib.axis_1">
    <g id="xtick_1">
     <g id="line2d_1">
      <defs>
       <path id="m132cab0bc8" d="M 0 0 
L 0 3.5 
" style="stroke: #000000; stroke-width: 0.8"/>
      </defs>
      <g>
       <use xlink:href="#m132cab0bc8" x="46.716993" y="203.594351" style="stroke: #000000; stroke-width: 0.8"/>
      </g>
     </g>
     <g id="text_1">
      <!-- −0.8 -->
      <g transform="translate(37.833712 217.036382) scale(0.09 -0.09)">
       <defs>
        <path id="ArialMT-2212" d="M 3381 1997 
L 356 1997 
L 356 2522 
L 3381 2522 
L 3381 1997 
z
" transform="scale(0.015625)"/>
        <path id="ArialMT-30" d="M 266 2259 
Q 266 3072 433 3567 
Q 600 4063 929 4331 
Q 1259 4600 1759 4600 
Q 2128 4600 2406 4451 
Q 2684 4303 2865 4023 
Q 3047 3744 3150 3342 
Q 3253 2941 3253 2259 
Q 3253 1453 3087 958 
Q 2922 463 2592 192 
Q 2263 -78 1759 -78 
Q 1097 -78 719 397 
Q 266 969 266 2259 
z
M 844 2259 
Q 844 1131 1108 757 
Q 1372 384 1759 384 
Q 2147 384 2411 759 
Q 2675 1134 2675 2259 
Q 2675 3391 2411 3762 
Q 2147 4134 1753 4134 
Q 1366 4134 1134 3806 
Q 844 3388 844 2259 
z
" transform="scale(0.015625)"/>
        <path id="ArialMT-2e" d="M 581 0 
L 581 641 
L 1222 641 
L 1222 0 
L 581 0 
z
" transform="scale(0.015625)"/>
        <path id="ArialMT-38" d="M 1131 2484 
Q 781 2613 612 2850 
Q 444 3088 444 3419 
Q 444 3919 803 4259 
Q 1163 4600 1759 4600 
Q 2359 4600 2725 4251 
Q 3091 3903 3091 3403 
Q 3091 3084 2923 2848 
Q 2756 2613 2416 2484 
Q 2838 2347 3058 2040 
Q 3278 1734 3278 1309 
Q 3278 722 2862 322 
Q 2447 -78 1769 -78 
Q 1091 -78 675 323 
Q 259 725 259 1325 
Q 259 1772 486 2073 
Q 713 2375 1131 2484 
z
M 1019 3438 
Q 1019 3113 1228 2906 
Q 1438 2700 1772 2700 
Q 2097 2700 2305 2904 
Q 2513 3109 2513 3406 
Q 2513 3716 2298 3927 
Q 2084 4138 1766 4138 
Q 1444 4138 1231 3931 
Q 1019 3725 1019 3438 
z
M 838 1322 
Q 838 1081 952 856 
Q 1066 631 1291 507 
Q 1516 384 1775 384 
Q 2178 384 2440 643 
Q 2703 903 2703 1303 
Q 2703 1709 2433 1975 
Q 2163 2241 1756 2241 
Q 1359 2241 1098 1978 
Q 838 1716 838 1322 
z
" transform="scale(0.015625)"/>
       </defs>
       <use xlink:href="#ArialMT-2212"/>
       <use xlink:href="#ArialMT-30" x="58.398438"/>
       <use xlink:href="#ArialMT-2e" x="114.013672"/>
       <use xlink:href="#ArialMT-38" x="141.796875"/>
      </g>
     </g>
    </g>
    <g id="xtick_2">
     <g id="line2d_2">
      <g>
       <use xlink:href="#m132cab0bc8" x="92.312275" y="203.594351" style="stroke: #000000; stroke-width: 0.8"/>
      </g>
     </g>
     <g id="text_2">
      <!-- −0.4 -->
      <g transform="translate(83.428994 217.036382) scale(0.09 -0.09)">
       <defs>
        <path id="ArialMT-34" d="M 2069 0 
L 2069 1097 
L 81 1097 
L 81 1613 
L 2172 4581 
L 2631 4581 
L 2631 1613 
L 3250 1613 
L 3250 1097 
L 2631 1097 
L 2631 0 
L 2069 0 
z
M 2069 1613 
L 2069 3678 
L 634 1613 
L 2069 1613 
z
" transform="scale(0.015625)"/>
       </defs>
       <use xlink:href="#ArialMT-2212"/>
       <use xlink:href="#ArialMT-30" x="58.398438"/>
       <use xlink:href="#ArialMT-2e" x="114.013672"/>
       <use xlink:href="#ArialMT-34" x="141.796875"/>
      </g>
     </g>
    </g>
    <g id="xtick_3">
     <g id="line2d_3">
      <g>
       <use xlink:href="#m132cab0bc8" x="137.907556" y="203.594351" style="stroke: #000000; stroke-width: 0.8"/>
      </g>
     </g>
     <g id="text_3">
      <!-- 0.0 -->
      <g transform="translate(131.652556 217.036382) scale(0.09 -0.09)">
       <use xlink:href="#ArialMT-30"/>
       <use xlink:href="#ArialMT-2e" x="55.615234"/>
       <use xlink:href="#ArialMT-30" x="83.398438"/>
      </g>
     </g>
    </g>
    <g id="xtick_4">
     <g id="line2d_4">
      <g>
       <use xlink:href="#m132cab0bc8" x="183.502838" y="203.594351" style="stroke: #000000; stroke-width: 0.8"/>
      </g>
     </g>
     <g id="text_4">
      <!-- 0.4 -->
      <g transform="translate(177.247838 217.036382) scale(0.09 -0.09)">
       <use xlink:href="#ArialMT-30"/>
       <use xlink:href="#ArialMT-2e" x="55.615234"/>
       <use xlink:href="#ArialMT-34" x="83.398438"/>
      </g>
     </g>
    </g>
    <g id="xtick_5">
     <g id="line2d_5">
      <g>
       <use xlink:href="#m132cab0bc8" x="229.09812" y="203.594351" style="stroke: #000000; stroke-width: 0.8"/>
      </g>
     </g>
     <g id="text_5">
      <!-- 0.8 -->
      <g transform="translate(222.84312 217.036382) scale(0.09 -0.09)">
       <use xlink:href="#ArialMT-30"/>
       <use xlink:href="#ArialMT-2e" x="55.615234"/>
       <use xlink:href="#ArialMT-38" x="83.398438"/>
      </g>
     </g>
    </g>
    <g id="text_6">
     <!-- (A - B) Cost difference (USD kg$^\mathdefault{-1}$) -->
     <g transform="translate(80.903797 230.835132) scale(0.09 -0.09)">
      <defs>
       <path id="ArialMT-28" d="M 1497 -1347 
Q 1031 -759 709 28 
Q 388 816 388 1659 
Q 388 2403 628 3084 
Q 909 3875 1497 4659 
L 1900 4659 
Q 1522 4009 1400 3731 
Q 1209 3300 1100 2831 
Q 966 2247 966 1656 
Q 966 153 1900 -1347 
L 1497 -1347 
z
" transform="scale(0.015625)"/>
       <path id="ArialMT-41" d="M -9 0 
L 1750 4581 
L 2403 4581 
L 4278 0 
L 3588 0 
L 3053 1388 
L 1138 1388 
L 634 0 
L -9 0 
z
M 1313 1881 
L 2866 1881 
L 2388 3150 
Q 2169 3728 2063 4100 
Q 1975 3659 1816 3225 
L 1313 1881 
z
" transform="scale(0.015625)"/>
       <path id="ArialMT-20" transform="scale(0.015625)"/>
       <path id="ArialMT-2d" d="M 203 1375 
L 203 1941 
L 1931 1941 
L 1931 1375 
L 203 1375 
z
" transform="scale(0.015625)"/>
       <path id="ArialMT-42" d="M 469 0 
L 469 4581 
L 2188 4581 
Q 2713 4581 3030 4442 
Q 3347 4303 3526 4014 
Q 3706 3725 3706 3409 
Q 3706 3116 3547 2856 
Q 3388 2597 3066 2438 
Q 3481 2316 3704 2022 
Q 3928 1728 3928 1328 
Q 3928 1006 3792 729 
Q 3656 453 3456 303 
Q 3256 153 2954 76 
Q 2653 0 2216 0 
L 469 0 
z
M 1075 2656 
L 2066 2656 
Q 2469 2656 2644 2709 
Q 2875 2778 2992 2937 
Q 3109 3097 3109 3338 
Q 3109 3566 3000 3739 
Q 2891 3913 2687 3977 
Q 2484 4041 1991 4041 
L 1075 4041 
L 1075 2656 
z
M 1075 541 
L 2216 541 
Q 2509 541 2628 563 
Q 2838 600 2978 687 
Q 3119 775 3209 942 
Q 3300 1109 3300 1328 
Q 3300 1584 3169 1773 
Q 3038 1963 2805 2039 
Q 2572 2116 2134 2116 
L 1075 2116 
L 1075 541 
z
" transform="scale(0.015625)"/>
       <path id="ArialMT-29" d="M 791 -1347 
L 388 -1347 
Q 1322 153 1322 1656 
Q 1322 2244 1188 2822 
Q 1081 3291 891 3722 
Q 769 4003 388 4659 
L 791 4659 
Q 1378 3875 1659 3084 
Q 1900 2403 1900 1659 
Q 1900 816 1576 28 
Q 1253 -759 791 -1347 
z
" transform="scale(0.015625)"/>
       <path id="ArialMT-43" d="M 3763 1606 
L 4369 1453 
Q 4178 706 3683 314 
Q 3188 -78 2472 -78 
Q 1731 -78 1267 223 
Q 803 525 561 1097 
Q 319 1669 319 2325 
Q 319 3041 592 3573 
Q 866 4106 1370 4382 
Q 1875 4659 2481 4659 
Q 3169 4659 3637 4309 
Q 4106 3959 4291 3325 
L 3694 3184 
Q 3534 3684 3231 3912 
Q 2928 4141 2469 4141 
Q 1941 4141 1586 3887 
Q 1231 3634 1087 3207 
Q 944 2781 944 2328 
Q 944 1744 1114 1308 
Q 1284 872 1643 656 
Q 2003 441 2422 441 
Q 2931 441 3284 734 
Q 3638 1028 3763 1606 
z
" transform="scale(0.015625)"/>
       <path id="ArialMT-6f" d="M 213 1659 
Q 213 2581 725 3025 
Q 1153 3394 1769 3394 
Q 2453 3394 2887 2945 
Q 3322 2497 3322 1706 
Q 3322 1066 3130 698 
Q 2938 331 2570 128 
Q 2203 -75 1769 -75 
Q 1072 -75 642 372 
Q 213 819 213 1659 
z
M 791 1659 
Q 791 1022 1069 705 
Q 1347 388 1769 388 
Q 2188 388 2466 706 
Q 2744 1025 2744 1678 
Q 2744 2294 2464 2611 
Q 2184 2928 1769 2928 
Q 1347 2928 1069 2612 
Q 791 2297 791 1659 
z
" transform="scale(0.015625)"/>
       <path id="ArialMT-73" d="M 197 991 
L 753 1078 
Q 800 744 1014 566 
Q 1228 388 1613 388 
Q 2000 388 2187 545 
Q 2375 703 2375 916 
Q 2375 1106 2209 1216 
Q 2094 1291 1634 1406 
Q 1016 1563 777 1677 
Q 538 1791 414 1992 
Q 291 2194 291 2438 
Q 291 2659 392 2848 
Q 494 3038 669 3163 
Q 800 3259 1026 3326 
Q 1253 3394 1513 3394 
Q 1903 3394 2198 3281 
Q 2494 3169 2634 2976 
Q 2775 2784 2828 2463 
L 2278 2388 
Q 2241 2644 2061 2787 
Q 1881 2931 1553 2931 
Q 1166 2931 1000 2803 
Q 834 2675 834 2503 
Q 834 2394 903 2306 
Q 972 2216 1119 2156 
Q 1203 2125 1616 2013 
Q 2213 1853 2448 1751 
Q 2684 1650 2818 1456 
Q 2953 1263 2953 975 
Q 2953 694 2789 445 
Q 2625 197 2315 61 
Q 2006 -75 1616 -75 
Q 969 -75 630 194 
Q 291 463 197 991 
z
" transform="scale(0.015625)"/>
       <path id="ArialMT-74" d="M 1650 503 
L 1731 6 
Q 1494 -44 1306 -44 
Q 1000 -44 831 53 
Q 663 150 594 308 
Q 525 466 525 972 
L 525 2881 
L 113 2881 
L 113 3319 
L 525 3319 
L 525 4141 
L 1084 4478 
L 1084 3319 
L 1650 3319 
L 1650 2881 
L 1084 2881 
L 1084 941 
Q 1084 700 1114 631 
Q 1144 563 1211 522 
Q 1278 481 1403 481 
Q 1497 481 1650 503 
z
" transform="scale(0.015625)"/>
       <path id="ArialMT-64" d="M 2575 0 
L 2575 419 
Q 2259 -75 1647 -75 
Q 1250 -75 917 144 
Q 584 363 401 755 
Q 219 1147 219 1656 
Q 219 2153 384 2558 
Q 550 2963 881 3178 
Q 1213 3394 1622 3394 
Q 1922 3394 2156 3267 
Q 2391 3141 2538 2938 
L 2538 4581 
L 3097 4581 
L 3097 0 
L 2575 0 
z
M 797 1656 
Q 797 1019 1065 703 
Q 1334 388 1700 388 
Q 2069 388 2326 689 
Q 2584 991 2584 1609 
Q 2584 2291 2321 2609 
Q 2059 2928 1675 2928 
Q 1300 2928 1048 2622 
Q 797 2316 797 1656 
z
" transform="scale(0.015625)"/>
       <path id="ArialMT-69" d="M 425 3934 
L 425 4581 
L 988 4581 
L 988 3934 
L 425 3934 
z
M 425 0 
L 425 3319 
L 988 3319 
L 988 0 
L 425 0 
z
" transform="scale(0.015625)"/>
       <path id="ArialMT-66" d="M 556 0 
L 556 2881 
L 59 2881 
L 59 3319 
L 556 3319 
L 556 3672 
Q 556 4006 616 4169 
Q 697 4388 901 4523 
Q 1106 4659 1475 4659 
Q 1713 4659 2000 4603 
L 1916 4113 
Q 1741 4144 1584 4144 
Q 1328 4144 1222 4034 
Q 1116 3925 1116 3625 
L 1116 3319 
L 1763 3319 
L 1763 2881 
L 1116 2881 
L 1116 0 
L 556 0 
z
" transform="scale(0.015625)"/>
       <path id="ArialMT-65" d="M 2694 1069 
L 3275 997 
Q 3138 488 2766 206 
Q 2394 -75 1816 -75 
Q 1088 -75 661 373 
Q 234 822 234 1631 
Q 234 2469 665 2931 
Q 1097 3394 1784 3394 
Q 2450 3394 2872 2941 
Q 3294 2488 3294 1666 
Q 3294 1616 3291 1516 
L 816 1516 
Q 847 969 1125 678 
Q 1403 388 1819 388 
Q 2128 388 2347 550 
Q 2566 713 2694 1069 
z
M 847 1978 
L 2700 1978 
Q 2663 2397 2488 2606 
Q 2219 2931 1791 2931 
Q 1403 2931 1139 2672 
Q 875 2413 847 1978 
z
" transform="scale(0.015625)"/>
       <path id="ArialMT-72" d="M 416 0 
L 416 3319 
L 922 3319 
L 922 2816 
Q 1116 3169 1280 3281 
Q 1444 3394 1641 3394 
Q 1925 3394 2219 3213 
L 2025 2691 
Q 1819 2813 1613 2813 
Q 1428 2813 1281 2702 
Q 1134 2591 1072 2394 
Q 978 2094 978 1738 
L 978 0 
L 416 0 
z
" transform="scale(0.015625)"/>
       <path id="ArialMT-6e" d="M 422 0 
L 422 3319 
L 928 3319 
L 928 2847 
Q 1294 3394 1984 3394 
Q 2284 3394 2536 3286 
Q 2788 3178 2913 3003 
Q 3038 2828 3088 2588 
Q 3119 2431 3119 2041 
L 3119 0 
L 2556 0 
L 2556 2019 
Q 2556 2363 2490 2533 
Q 2425 2703 2258 2804 
Q 2091 2906 1866 2906 
Q 1506 2906 1245 2678 
Q 984 2450 984 1813 
L 984 0 
L 422 0 
z
" transform="scale(0.015625)"/>
       <path id="ArialMT-63" d="M 2588 1216 
L 3141 1144 
Q 3050 572 2676 248 
Q 2303 -75 1759 -75 
Q 1078 -75 664 370 
Q 250 816 250 1647 
Q 250 2184 428 2587 
Q 606 2991 970 3192 
Q 1334 3394 1763 3394 
Q 2303 3394 2647 3120 
Q 2991 2847 3088 2344 
L 2541 2259 
Q 2463 2594 2264 2762 
Q 2066 2931 1784 2931 
Q 1359 2931 1093 2626 
Q 828 2322 828 1663 
Q 828 994 1084 691 
Q 1341 388 1753 388 
Q 2084 388 2306 591 
Q 2528 794 2588 1216 
z
" transform="scale(0.015625)"/>
       <path id="ArialMT-55" d="M 3500 4581 
L 4106 4581 
L 4106 1934 
Q 4106 1244 3950 837 
Q 3794 431 3386 176 
Q 2978 -78 2316 -78 
Q 1672 -78 1262 144 
Q 853 366 678 786 
Q 503 1206 503 1934 
L 503 4581 
L 1109 4581 
L 1109 1938 
Q 1109 1341 1220 1058 
Q 1331 775 1601 622 
Q 1872 469 2263 469 
Q 2931 469 3215 772 
Q 3500 1075 3500 1938 
L 3500 4581 
z
" transform="scale(0.015625)"/>
       <path id="ArialMT-53" d="M 288 1472 
L 859 1522 
Q 900 1178 1048 958 
Q 1197 738 1509 602 
Q 1822 466 2213 466 
Q 2559 466 2825 569 
Q 3091 672 3220 851 
Q 3350 1031 3350 1244 
Q 3350 1459 3225 1620 
Q 3100 1781 2813 1891 
Q 2628 1963 1997 2114 
Q 1366 2266 1113 2400 
Q 784 2572 623 2826 
Q 463 3081 463 3397 
Q 463 3744 659 4045 
Q 856 4347 1234 4503 
Q 1613 4659 2075 4659 
Q 2584 4659 2973 4495 
Q 3363 4331 3572 4012 
Q 3781 3694 3797 3291 
L 3216 3247 
Q 3169 3681 2898 3903 
Q 2628 4125 2100 4125 
Q 1550 4125 1298 3923 
Q 1047 3722 1047 3438 
Q 1047 3191 1225 3031 
Q 1400 2872 2139 2705 
Q 2878 2538 3153 2413 
Q 3553 2228 3743 1945 
Q 3934 1663 3934 1294 
Q 3934 928 3725 604 
Q 3516 281 3123 101 
Q 2731 -78 2241 -78 
Q 1619 -78 1198 103 
Q 778 284 539 648 
Q 300 1013 288 1472 
z
" transform="scale(0.015625)"/>
       <path id="ArialMT-44" d="M 494 0 
L 494 4581 
L 2072 4581 
Q 2606 4581 2888 4516 
Q 3281 4425 3559 4188 
Q 3922 3881 4101 3404 
Q 4281 2928 4281 2316 
Q 4281 1794 4159 1391 
Q 4038 988 3847 723 
Q 3656 459 3429 307 
Q 3203 156 2883 78 
Q 2563 0 2147 0 
L 494 0 
z
M 1100 541 
L 2078 541 
Q 2531 541 2789 625 
Q 3047 709 3200 863 
Q 3416 1078 3536 1442 
Q 3656 1806 3656 2325 
Q 3656 3044 3420 3430 
Q 3184 3816 2847 3947 
Q 2603 4041 2063 4041 
L 1100 4041 
L 1100 541 
z
" transform="scale(0.015625)"/>
       <path id="ArialMT-6b" d="M 425 0 
L 425 4581 
L 988 4581 
L 988 1969 
L 2319 3319 
L 3047 3319 
L 1778 2088 
L 3175 0 
L 2481 0 
L 1384 1697 
L 988 1316 
L 988 0 
L 425 0 
z
" transform="scale(0.015625)"/>
       <path id="ArialMT-67" d="M 319 -275 
L 866 -356 
Q 900 -609 1056 -725 
Q 1266 -881 1628 -881 
Q 2019 -881 2231 -725 
Q 2444 -569 2519 -288 
Q 2563 -116 2559 434 
Q 2191 0 1641 0 
Q 956 0 581 494 
Q 206 988 206 1678 
Q 206 2153 378 2554 
Q 550 2956 876 3175 
Q 1203 3394 1644 3394 
Q 2231 3394 2613 2919 
L 2613 3319 
L 3131 3319 
L 3131 450 
Q 3131 -325 2973 -648 
Q 2816 -972 2473 -1159 
Q 2131 -1347 1631 -1347 
Q 1038 -1347 672 -1080 
Q 306 -813 319 -275 
z
M 784 1719 
Q 784 1066 1043 766 
Q 1303 466 1694 466 
Q 2081 466 2343 764 
Q 2606 1063 2606 1700 
Q 2606 2309 2336 2618 
Q 2066 2928 1684 2928 
Q 1309 2928 1046 2623 
Q 784 2319 784 1719 
z
" transform="scale(0.015625)"/>
       <path id="ArialMT-31" d="M 2384 0 
L 1822 0 
L 1822 3584 
Q 1619 3391 1289 3197 
Q 959 3003 697 2906 
L 697 3450 
Q 1169 3672 1522 3987 
Q 1875 4303 2022 4600 
L 2384 4600 
L 2384 0 
z
" transform="scale(0.015625)"/>
      </defs>
      <use xlink:href="#ArialMT-28" transform="translate(0 0.40625)"/>
      <use xlink:href="#ArialMT-41" transform="translate(33.300781 0.40625)"/>
      <use xlink:href="#ArialMT-20" transform="translate(100 0.40625)"/>
      <use xlink:href="#ArialMT-2d" transform="translate(127.783203 0.40625)"/>
      <use xlink:href="#ArialMT-20" transform="translate(161.083984 0.40625)"/>
      <use xlink:href="#ArialMT-42" transform="translate(188.867188 0.40625)"/>
      <use xlink:href="#ArialMT-29" transform="translate(255.566406 0.40625)"/>
      <use xlink:href="#ArialMT-20" transform="translate(288.867188 0.40625)"/>
      <use xlink:href="#ArialMT-43" transform="translate(316.650391 0.40625)"/>
      <use xlink:href="#ArialMT-6f" transform="translate(388.867188 0.40625)"/>
      <use xlink:href="#ArialMT-73" transform="translate(444.482422 0.40625)"/>
      <use xlink:href="#ArialMT-74" transform="translate(494.482422 0.40625)"/>
      <use xlink:href="#ArialMT-20" transform="translate(522.265625 0.40625)"/>
      <use xlink:href="#ArialMT-64" transform="translate(550.048828 0.40625)"/>
      <use xlink:href="#ArialMT-69" transform="translate(605.664062 0.40625)"/>
      <use xlink:href="#ArialMT-66" transform="translate(627.880859 0.40625)"/>
      <use xlink:href="#ArialMT-66" transform="translate(655.664062 0.40625)"/>
      <use xlink:href="#ArialMT-65" transform="translate(683.447266 0.40625)"/>
      <use xlink:href="#ArialMT-72" transform="translate(739.0625 0.40625)"/>
      <use xlink:href="#ArialMT-65" transform="translate(772.363281 0.40625)"/>
      <use xlink:href="#ArialMT-6e" transform="translate(827.978516 0.40625)"/>
      <use xlink:href="#ArialMT-63" transform="translate(883.59375 0.40625)"/>
      <use xlink:href="#ArialMT-65" transform="translate(933.59375 0.40625)"/>
      <use xlink:href="#ArialMT-20" transform="translate(989.208984 0.40625)"/>
      <use xlink:href="#ArialMT-28" transform="translate(1016.992188 0.40625)"/>
      <use xlink:href="#ArialMT-55" transform="translate(1050.292969 0.40625)"/>
      <use xlink:href="#ArialMT-53" transform="translate(1122.509766 0.40625)"/>
      <use xlink:href="#ArialMT-44" transform="translate(1189.208984 0.40625)"/>
      <use xlink:href="#ArialMT-20" transform="translate(1261.425781 0.40625)"/>
      <use xlink:href="#ArialMT-6b" transform="translate(1289.208984 0.40625)"/>
      <use xlink:href="#ArialMT-67" transform="translate(1339.208984 0.40625)"/>
      <use xlink:href="#ArialMT-2212" transform="translate(1395.78125 38.6875) scale(0.7)"/>
      <use xlink:href="#ArialMT-31" transform="translate(1436.660156 38.6875) scale(0.7)"/>
      <use xlink:href="#ArialMT-29" transform="translate(1478.325195 0.40625)"/>
     </g>
    </g>
   </g>
   <g id="matplotlib.axis_2">
    <g id="ytick_1">
     <g id="line2d_6">
      <defs>
       <path id="m1789830475" d="M 0 0 
L -3.5 0 
" style="stroke: #000000; stroke-width: 0.8"/>
      </defs>
      <g>
       <use xlink:href="#m1789830475" x="36.545938" y="203.594351" style="stroke: #000000; stroke-width: 0.8"/>
      </g>
     </g>
     <g id="text_7">
      <!-- 0 -->
      <g transform="translate(24.541094 206.815366) scale(0.09 -0.09)">
       <use xlink:href="#ArialMT-30"/>
      </g>
     </g>
    </g>
    <g id="ytick_2">
     <g id="line2d_7">
      <g>
       <use xlink:href="#m1789830475" x="36.545938" y="157.21553" style="stroke: #000000; stroke-width: 0.8"/>
      </g>
     </g>
     <g id="text_8">
      <!-- 15 -->
      <g transform="translate(19.53625 160.436546) scale(0.09 -0.09)">
       <defs>
        <path id="ArialMT-35" d="M 266 1200 
L 856 1250 
Q 922 819 1161 601 
Q 1400 384 1738 384 
Q 2144 384 2425 690 
Q 2706 997 2706 1503 
Q 2706 1984 2436 2262 
Q 2166 2541 1728 2541 
Q 1456 2541 1237 2417 
Q 1019 2294 894 2097 
L 366 2166 
L 809 4519 
L 3088 4519 
L 3088 3981 
L 1259 3981 
L 1013 2750 
Q 1425 3038 1878 3038 
Q 2478 3038 2890 2622 
Q 3303 2206 3303 1553 
Q 3303 931 2941 478 
Q 2500 -78 1738 -78 
Q 1113 -78 717 272 
Q 322 622 266 1200 
z
" transform="scale(0.015625)"/>
       </defs>
       <use xlink:href="#ArialMT-31"/>
       <use xlink:href="#ArialMT-35" x="55.615234"/>
      </g>
     </g>
    </g>
    <g id="ytick_3">
     <g id="line2d_8">
      <g>
       <use xlink:href="#m1789830475" x="36.545938" y="110.83671" style="stroke: #000000; stroke-width: 0.8"/>
      </g>
     </g>
     <g id="text_9">
      <!-- 30 -->
      <g transform="translate(19.53625 114.057726) scale(0.09 -0.09)">
       <defs>
        <path id="ArialMT-33" d="M 269 1209 
L 831 1284 
Q 928 806 1161 595 
Q 1394 384 1728 384 
Q 2125 384 2398 659 
Q 2672 934 2672 1341 
Q 2672 1728 2419 1979 
Q 2166 2231 1775 2231 
Q 1616 2231 1378 2169 
L 1441 2663 
Q 1497 2656 1531 2656 
Q 1891 2656 2178 2843 
Q 2466 3031 2466 3422 
Q 2466 3731 2256 3934 
Q 2047 4138 1716 4138 
Q 1388 4138 1169 3931 
Q 950 3725 888 3313 
L 325 3413 
Q 428 3978 793 4289 
Q 1159 4600 1703 4600 
Q 2078 4600 2393 4439 
Q 2709 4278 2876 4000 
Q 3044 3722 3044 3409 
Q 3044 3113 2884 2869 
Q 2725 2625 2413 2481 
Q 2819 2388 3044 2092 
Q 3269 1797 3269 1353 
Q 3269 753 2831 336 
Q 2394 -81 1725 -81 
Q 1122 -81 723 278 
Q 325 638 269 1209 
z
" transform="scale(0.015625)"/>
       </defs>
       <use xlink:href="#ArialMT-33"/>
       <use xlink:href="#ArialMT-30" x="55.615234"/>
      </g>
     </g>
    </g>
    <g id="ytick_4">
     <g id="line2d_9">
      <g>
       <use xlink:href="#m1789830475" x="36.545938" y="64.45789" style="stroke: #000000; stroke-width: 0.8"/>
      </g>
     </g>
     <g id="text_10">
      <!-- 45 -->
      <g transform="translate(19.53625 67.678905) scale(0.09 -0.09)">
       <use xlink:href="#ArialMT-34"/>
       <use xlink:href="#ArialMT-35" x="55.615234"/>
      </g>
     </g>
    </g>
    <g id="text_11">
     <!-- Frequency -->
     <g transform="translate(13.642031 133.950847) rotate(-90) scale(0.09 -0.09)">
      <defs>
       <path id="ArialMT-46" d="M 525 0 
L 525 4581 
L 3616 4581 
L 3616 4041 
L 1131 4041 
L 1131 2622 
L 3281 2622 
L 3281 2081 
L 1131 2081 
L 1131 0 
L 525 0 
z
" transform="scale(0.015625)"/>
       <path id="ArialMT-71" d="M 2538 -1272 
L 2538 353 
Q 2406 169 2170 47 
Q 1934 -75 1669 -75 
Q 1078 -75 651 397 
Q 225 869 225 1691 
Q 225 2191 398 2587 
Q 572 2984 901 3189 
Q 1231 3394 1625 3394 
Q 2241 3394 2594 2875 
L 2594 3319 
L 3100 3319 
L 3100 -1272 
L 2538 -1272 
z
M 803 1669 
Q 803 1028 1072 708 
Q 1341 388 1716 388 
Q 2075 388 2334 692 
Q 2594 997 2594 1619 
Q 2594 2281 2320 2615 
Q 2047 2950 1678 2950 
Q 1313 2950 1058 2639 
Q 803 2328 803 1669 
z
" transform="scale(0.015625)"/>
       <path id="ArialMT-75" d="M 2597 0 
L 2597 488 
Q 2209 -75 1544 -75 
Q 1250 -75 995 37 
Q 741 150 617 320 
Q 494 491 444 738 
Q 409 903 409 1263 
L 409 3319 
L 972 3319 
L 972 1478 
Q 972 1038 1006 884 
Q 1059 663 1231 536 
Q 1403 409 1656 409 
Q 1909 409 2131 539 
Q 2353 669 2445 892 
Q 2538 1116 2538 1541 
L 2538 3319 
L 3100 3319 
L 3100 0 
L 2597 0 
z
" transform="scale(0.015625)"/>
       <path id="ArialMT-79" d="M 397 -1278 
L 334 -750 
Q 519 -800 656 -800 
Q 844 -800 956 -737 
Q 1069 -675 1141 -563 
Q 1194 -478 1313 -144 
Q 1328 -97 1363 -6 
L 103 3319 
L 709 3319 
L 1400 1397 
Q 1534 1031 1641 628 
Q 1738 1016 1872 1384 
L 2581 3319 
L 3144 3319 
L 1881 -56 
Q 1678 -603 1566 -809 
Q 1416 -1088 1222 -1217 
Q 1028 -1347 759 -1347 
Q 597 -1347 397 -1278 
z
" transform="scale(0.015625)"/>
      </defs>
      <use xlink:href="#ArialMT-46"/>
      <use xlink:href="#ArialMT-72" x="61.083984"/>
      <use xlink:href="#ArialMT-65" x="94.384766"/>
      <use xlink:href="#ArialMT-71" x="150"/>
      <use xlink:href="#ArialMT-75" x="205.615234"/>
      <use xlink:href="#ArialMT-65" x="261.230469"/>
      <use xlink:href="#ArialMT-6e" x="316.845703"/>
      <use xlink:href="#ArialMT-63" x="372.460938"/>
      <use xlink:href="#ArialMT-79" x="422.460938"/>
     </g>
    </g>
   </g>
   <g id="patch_33">
    <path d="M 36.545938 203.594351 
L 36.545938 21.789375 
" style="fill: none; stroke: #000000; stroke-width: 0.8; stroke-linejoin: miter; stroke-linecap: square"/>
   </g>
   <g id="patch_34">
    <path d="M 261.341657 203.594351 
L 261.341657 21.789375 
" style="fill: none; stroke: #000000; stroke-width: 0.8; stroke-linejoin: miter; stroke-linecap: square"/>
   </g>
   <g id="patch_35">
    <path d="M 36.545938 203.594351 
L 261.341657 203.594351 
" style="fill: none; stroke: #000000; stroke-width: 0.8; stroke-linejoin: miter; stroke-linecap: square"/>
   </g>
   <g id="patch_36">
    <path d="M 36.545938 21.789375 
L 261.341657 21.789375 
" style="fill: none; stroke: #000000; stroke-width: 0.8; stroke-linejoin: miter; stroke-linecap: square"/>
   </g>
   <g id="text_12">
    <!-- P(A &gt; B): 0.86 -->
    <g transform="translate(45.537766 37.431343) scale(0.09 -0.09)">
     <defs>
      <path id="ArialMT-50" d="M 494 0 
L 494 4581 
L 2222 4581 
Q 2678 4581 2919 4538 
Q 3256 4481 3484 4323 
Q 3713 4166 3852 3881 
Q 3991 3597 3991 3256 
Q 3991 2672 3619 2267 
Q 3247 1863 2275 1863 
L 1100 1863 
L 1100 0 
L 494 0 
z
M 1100 2403 
L 2284 2403 
Q 2872 2403 3119 2622 
Q 3366 2841 3366 3238 
Q 3366 3525 3220 3729 
Q 3075 3934 2838 4000 
Q 2684 4041 2272 4041 
L 1100 4041 
L 1100 2403 
z
" transform="scale(0.015625)"/>
      <path id="ArialMT-3e" d="M 3384 2003 
L 350 706 
L 350 1266 
L 2753 2263 
L 350 3250 
L 350 3809 
L 3384 2528 
L 3384 2003 
z
" transform="scale(0.015625)"/>
      <path id="ArialMT-3a" d="M 578 2678 
L 578 3319 
L 1219 3319 
L 1219 2678 
L 578 2678 
z
M 578 0 
L 578 641 
L 1219 641 
L 1219 0 
L 578 0 
z
" transform="scale(0.015625)"/>
      <path id="ArialMT-36" d="M 3184 3459 
L 2625 3416 
Q 2550 3747 2413 3897 
Q 2184 4138 1850 4138 
Q 1581 4138 1378 3988 
Q 1113 3794 959 3422 
Q 806 3050 800 2363 
Q 1003 2672 1297 2822 
Q 1591 2972 1913 2972 
Q 2475 2972 2870 2558 
Q 3266 2144 3266 1488 
Q 3266 1056 3080 686 
Q 2894 316 2569 119 
Q 2244 -78 1831 -78 
Q 1128 -78 684 439 
Q 241 956 241 2144 
Q 241 3472 731 4075 
Q 1159 4600 1884 4600 
Q 2425 4600 2770 4297 
Q 3116 3994 3184 3459 
z
M 888 1484 
Q 888 1194 1011 928 
Q 1134 663 1356 523 
Q 1578 384 1822 384 
Q 2178 384 2434 671 
Q 2691 959 2691 1453 
Q 2691 1928 2437 2201 
Q 2184 2475 1800 2475 
Q 1419 2475 1153 2201 
Q 888 1928 888 1484 
z
" transform="scale(0.015625)"/>
     </defs>
     <use xlink:href="#ArialMT-50"/>
     <use xlink:href="#ArialMT-28" x="66.699219"/>
     <use xlink:href="#ArialMT-41" x="100"/>
     <use xlink:href="#ArialMT-20" x="161.199219"/>
     <use xlink:href="#ArialMT-3e" x="188.982422"/>
     <use xlink:href="#ArialMT-20" x="247.380859"/>
     <use xlink:href="#ArialMT-42" x="275.164062"/>
     <use xlink:href="#ArialMT-29" x="341.863281"/>
     <use xlink:href="#ArialMT-3a" x="375.164062"/>
     <use xlink:href="#ArialMT-20" x="402.947266"/>
     <use xlink:href="#ArialMT-30" x="430.730469"/>
     <use xlink:href="#ArialMT-2e" x="486.345703"/>
     <use xlink:href="#ArialMT-38" x="514.128906"/>
     <use xlink:href="#ArialMT-36" x="569.744141"/>
    </g>
   </g>
   <g id="text_13">
    <!-- DAC + fossil ethylene vs. Fossil -->
    <g transform="translate(85.79825 15.789375) scale(0.09 -0.09)">
     <defs>
      <path id="ArialMT-2b" d="M 1603 741 
L 1603 1997 
L 356 1997 
L 356 2522 
L 1603 2522 
L 1603 3769 
L 2134 3769 
L 2134 2522 
L 3381 2522 
L 3381 1997 
L 2134 1997 
L 2134 741 
L 1603 741 
z
" transform="scale(0.015625)"/>
      <path id="ArialMT-6c" d="M 409 0 
L 409 4581 
L 972 4581 
L 972 0 
L 409 0 
z
" transform="scale(0.015625)"/>
      <path id="ArialMT-68" d="M 422 0 
L 422 4581 
L 984 4581 
L 984 2938 
Q 1378 3394 1978 3394 
Q 2347 3394 2619 3248 
Q 2891 3103 3008 2847 
Q 3125 2591 3125 2103 
L 3125 0 
L 2563 0 
L 2563 2103 
Q 2563 2525 2380 2717 
Q 2197 2909 1863 2909 
Q 1613 2909 1392 2779 
Q 1172 2650 1078 2428 
Q 984 2206 984 1816 
L 984 0 
L 422 0 
z
" transform="scale(0.015625)"/>
      <path id="ArialMT-76" d="M 1344 0 
L 81 3319 
L 675 3319 
L 1388 1331 
Q 1503 1009 1600 663 
Q 1675 925 1809 1294 
L 2547 3319 
L 3125 3319 
L 1869 0 
L 1344 0 
z
" transform="scale(0.015625)"/>
     </defs>
     <use xlink:href="#ArialMT-44"/>
     <use xlink:href="#ArialMT-41" x="72.216797"/>
     <use xlink:href="#ArialMT-43" x="138.916016"/>
     <use xlink:href="#ArialMT-20" x="211.132812"/>
     <use xlink:href="#ArialMT-2b" x="238.916016"/>
     <use xlink:href="#ArialMT-20" x="297.314453"/>
     <use xlink:href="#ArialMT-66" x="325.097656"/>
     <use xlink:href="#ArialMT-6f" x="352.880859"/>
     <use xlink:href="#ArialMT-73" x="408.496094"/>
     <use xlink:href="#ArialMT-73" x="458.496094"/>
     <use xlink:href="#ArialMT-69" x="508.496094"/>
     <use xlink:href="#ArialMT-6c" x="530.712891"/>
     <use xlink:href="#ArialMT-20" x="552.929688"/>
     <use xlink:href="#ArialMT-65" x="580.712891"/>
     <use xlink:href="#ArialMT-74" x="636.328125"/>
     <use xlink:href="#ArialMT-68" x="664.111328"/>
     <use xlink:href="#ArialMT-79" x="719.726562"/>
     <use xlink:href="#ArialMT-6c" x="769.726562"/>
     <use xlink:href="#ArialMT-65" x="791.943359"/>
     <use xlink:href="#ArialMT-6e" x="847.558594"/>
     <use xlink:href="#ArialMT-65" x="903.173828"/>
     <use xlink:href="#ArialMT-20" x="958.789062"/>
     <use xlink:href="#ArialMT-76" x="986.572266"/>
     <use xlink:href="#ArialMT-73" x="1036.572266"/>
     <use xlink:href="#ArialMT-2e" x="1086.572266"/>
     <use xlink:href="#ArialMT-20" x="1114.355469"/>
     <use xlink:href="#ArialMT-46" x="1142.138672"/>
     <use xlink:href="#ArialMT-6f" x="1203.222656"/>
     <use xlink:href="#ArialMT-73" x="1258.837891"/>
     <use xlink:href="#ArialMT-73" x="1308.837891"/>
     <use xlink:href="#ArialMT-69" x="1358.837891"/>
     <use xlink:href="#ArialMT-6c" x="1381.054688"/>
    </g>
   </g>
   <g id="text_14">
    <!-- b -->
    <g transform="translate(23.058194 15.789375) scale(0.12 -0.12)">
     <defs>
      <path id="Arial-BoldMT-62" d="M 422 0 
L 422 4581 
L 1300 4581 
L 1300 2931 
Q 1706 3394 2263 3394 
Q 2869 3394 3266 2955 
Q 3663 2516 3663 1694 
Q 3663 844 3258 384 
Q 2853 -75 2275 -75 
Q 1991 -75 1714 67 
Q 1438 209 1238 488 
L 1238 0 
L 422 0 
z
M 1294 1731 
Q 1294 1216 1456 969 
Q 1684 619 2063 619 
Q 2353 619 2558 867 
Q 2763 1116 2763 1650 
Q 2763 2219 2556 2470 
Q 2350 2722 2028 2722 
Q 1713 2722 1503 2476 
Q 1294 2231 1294 1731 
z
" transform="scale(0.015625)"/>
     </defs>
     <use xlink:href="#Arial-BoldMT-62"/>
    </g>
   </g>
  </g>
  <g id="axes_2">
   <g id="patch_37">
    <path d="M 281.704121 203.594351 
L 506.49984 203.594351 
L 506.49984 21.789375 
L 281.704121 21.789375 
z
" style="fill: #ffffff"/>
   </g>
   <g id="patch_38">
    <path d="M 291.922108 203.594351 
L 298.734099 203.594351 
L 298.734099 185.042823 
L 291.922108 185.042823 
z
" clip-path="url(#p837ebd0204)" style="fill: #7cc582; stroke: #414141; stroke-linejoin: miter"/>
   </g>
   <g id="patch_39">
    <path d="M 298.734099 203.594351 
L 305.546091 203.594351 
L 305.546091 172.675137 
L 298.734099 172.675137 
z
" clip-path="url(#p837ebd0204)" style="fill: #7cc582; stroke: #414141; stroke-linejoin: miter"/>
   </g>
   <g id="patch_40">
    <path d="M 305.546091 203.594351 
L 312.358082 203.594351 
L 312.358082 141.755924 
L 305.546091 141.755924 
z
" clip-path="url(#p837ebd0204)" style="fill: #7cc582; stroke: #414141; stroke-linejoin: miter"/>
   </g>
   <g id="patch_41">
    <path d="M 312.358082 203.594351 
L 319.170074 203.594351 
L 319.170074 113.928631 
L 312.358082 113.928631 
z
" clip-path="url(#p837ebd0204)" style="fill: #7cc582; stroke: #414141; stroke-linejoin: miter"/>
   </g>
   <g id="patch_42">
    <path d="M 319.170074 203.594351 
L 325.982065 203.594351 
L 325.982065 126.296317 
L 319.170074 126.296317 
z
" clip-path="url(#p837ebd0204)" style="fill: #7cc582; stroke: #414141; stroke-linejoin: miter"/>
   </g>
   <g id="patch_43">
    <path d="M 325.982065 203.594351 
L 332.794057 203.594351 
L 332.794057 83.009418 
L 325.982065 83.009418 
z
" clip-path="url(#p837ebd0204)" style="fill: #7cc582; stroke: #414141; stroke-linejoin: miter"/>
   </g>
   <g id="patch_44">
    <path d="M 332.794057 203.594351 
L 339.606048 203.594351 
L 339.606048 55.182126 
L 332.794057 55.182126 
z
" clip-path="url(#p837ebd0204)" style="fill: #7cc582; stroke: #414141; stroke-linejoin: miter"/>
   </g>
   <g id="patch_45">
    <path d="M 339.606048 203.594351 
L 346.41804 203.594351 
L 346.41804 55.182126 
L 339.606048 55.182126 
z
" clip-path="url(#p837ebd0204)" style="fill: #7cc582; stroke: #414141; stroke-linejoin: miter"/>
   </g>
   <g id="patch_46">
    <path d="M 346.41804 203.594351 
L 353.230031 203.594351 
L 353.230031 73.733654 
L 346.41804 73.733654 
z
" clip-path="url(#p837ebd0204)" style="fill: #7cc582; stroke: #414141; stroke-linejoin: miter"/>
   </g>
   <g id="patch_47">
    <path d="M 353.230031 203.594351 
L 360.042023 203.594351 
L 360.042023 30.446755 
L 353.230031 30.446755 
z
" clip-path="url(#p837ebd0204)" style="fill: #7cc582; stroke: #414141; stroke-linejoin: miter"/>
   </g>
   <g id="patch_48">
    <path d="M 360.042023 203.594351 
L 366.854014 203.594351 
L 366.854014 98.469025 
L 360.042023 98.469025 
z
" clip-path="url(#p837ebd0204)" style="fill: #7cc582; stroke: #414141; stroke-linejoin: miter"/>
   </g>
   <g id="patch_49">
    <path d="M 366.854014 203.594351 
L 373.666006 203.594351 
L 373.666006 104.652867 
L 366.854014 104.652867 
z
" clip-path="url(#p837ebd0204)" style="fill: #7cc582; stroke: #414141; stroke-linejoin: miter"/>
   </g>
   <g id="patch_50">
    <path d="M 373.666006 203.594351 
L 380.477997 203.594351 
L 380.477997 98.469025 
L 373.666006 98.469025 
z
" clip-path="url(#p837ebd0204)" style="fill: #7cc582; stroke: #414141; stroke-linejoin: miter"/>
   </g>
   <g id="patch_51">
    <path d="M 380.477997 203.594351 
L 387.289989 203.594351 
L 387.289989 138.664002 
L 380.477997 138.664002 
z
" clip-path="url(#p837ebd0204)" style="fill: #7cc582; stroke: #414141; stroke-linejoin: miter"/>
   </g>
   <g id="patch_52">
    <path d="M 387.289989 203.594351 
L 394.10198 203.594351 
L 394.10198 126.296317 
L 387.289989 126.296317 
z
" clip-path="url(#p837ebd0204)" style="fill: #ff8383; stroke: #414141; stroke-linejoin: miter"/>
   </g>
   <g id="patch_53">
    <path d="M 394.10198 203.594351 
L 400.913972 203.594351 
L 400.913972 151.031688 
L 394.10198 151.031688 
z
" clip-path="url(#p837ebd0204)" style="fill: #ff8383; stroke: #414141; stroke-linejoin: miter"/>
   </g>
   <g id="patch_54">
    <path d="M 400.913972 203.594351 
L 407.725963 203.594351 
L 407.725963 169.583216 
L 400.913972 169.583216 
z
" clip-path="url(#p837ebd0204)" style="fill: #ff8383; stroke: #414141; stroke-linejoin: miter"/>
   </g>
   <g id="patch_55">
    <path d="M 407.725963 203.594351 
L 414.537955 203.594351 
L 414.537955 194.318587 
L 407.725963 194.318587 
z
" clip-path="url(#p837ebd0204)" style="fill: #ff8383; stroke: #414141; stroke-linejoin: miter"/>
   </g>
   <g id="patch_56">
    <path d="M 414.537955 203.594351 
L 421.349946 203.594351 
L 421.349946 203.594351 
L 414.537955 203.594351 
z
" clip-path="url(#p837ebd0204)" style="fill: #ff8383; stroke: #414141; stroke-linejoin: miter"/>
   </g>
   <g id="patch_57">
    <path d="M 421.349946 203.594351 
L 428.161938 203.594351 
L 428.161938 203.594351 
L 421.349946 203.594351 
z
" clip-path="url(#p837ebd0204)" style="fill: #ff8383; stroke: #414141; stroke-linejoin: miter"/>
   </g>
   <g id="patch_58">
    <path d="M 428.161938 203.594351 
L 434.973929 203.594351 
L 434.973929 203.594351 
L 428.161938 203.594351 
z
" clip-path="url(#p837ebd0204)" style="fill: #ff8383; stroke: #414141; stroke-linejoin: miter"/>
   </g>
   <g id="patch_59">
    <path d="M 434.973929 203.594351 
L 441.785921 203.594351 
L 441.785921 203.594351 
L 434.973929 203.594351 
z
" clip-path="url(#p837ebd0204)" style="fill: #ff8383; stroke: #414141; stroke-linejoin: miter"/>
   </g>
   <g id="patch_60">
    <path d="M 441.785921 203.594351 
L 448.597912 203.594351 
L 448.597912 203.594351 
L 441.785921 203.594351 
z
" clip-path="url(#p837ebd0204)" style="fill: #ff8383; stroke: #414141; stroke-linejoin: miter"/>
   </g>
   <g id="patch_61">
    <path d="M 448.597912 203.594351 
L 455.409904 203.594351 
L 455.409904 203.594351 
L 448.597912 203.594351 
z
" clip-path="url(#p837ebd0204)" style="fill: #ff8383; stroke: #414141; stroke-linejoin: miter"/>
   </g>
   <g id="patch_62">
    <path d="M 455.409904 203.594351 
L 462.221895 203.594351 
L 462.221895 203.594351 
L 455.409904 203.594351 
z
" clip-path="url(#p837ebd0204)" style="fill: #ff8383; stroke: #414141; stroke-linejoin: miter"/>
   </g>
   <g id="patch_63">
    <path d="M 462.221895 203.594351 
L 469.033887 203.594351 
L 469.033887 203.594351 
L 462.221895 203.594351 
z
" clip-path="url(#p837ebd0204)" style="fill: #ff8383; stroke: #414141; stroke-linejoin: miter"/>
   </g>
   <g id="patch_64">
    <path d="M 469.033887 203.594351 
L 475.845878 203.594351 
L 475.845878 203.594351 
L 469.033887 203.594351 
z
" clip-path="url(#p837ebd0204)" style="fill: #ff8383; stroke: #414141; stroke-linejoin: miter"/>
   </g>
   <g id="patch_65">
    <path d="M 475.845878 203.594351 
L 482.65787 203.594351 
L 482.65787 203.594351 
L 475.845878 203.594351 
z
" clip-path="url(#p837ebd0204)" style="fill: #ff8383; stroke: #414141; stroke-linejoin: miter"/>
   </g>
   <g id="patch_66">
    <path d="M 482.65787 203.594351 
L 489.469861 203.594351 
L 489.469861 203.594351 
L 482.65787 203.594351 
z
" clip-path="url(#p837ebd0204)" style="fill: #ff8383; stroke: #414141; stroke-linejoin: miter"/>
   </g>
   <g id="patch_67">
    <path d="M 489.469861 203.594351 
L 496.281853 203.594351 
L 496.281853 203.594351 
L 489.469861 203.594351 
z
" clip-path="url(#p837ebd0204)" style="fill: #ff8383; stroke: #414141; stroke-linejoin: miter"/>
   </g>
   <g id="matplotlib.axis_3">
    <g id="xtick_6">
     <g id="line2d_10">
      <g>
       <use xlink:href="#m132cab0bc8" x="291.875176" y="203.594351" style="stroke: #000000; stroke-width: 0.8"/>
      </g>
     </g>
     <g id="text_15">
      <!-- −0.8 -->
      <g transform="translate(282.991895 217.036382) scale(0.09 -0.09)">
       <use xlink:href="#ArialMT-2212"/>
       <use xlink:href="#ArialMT-30" x="58.398438"/>
       <use xlink:href="#ArialMT-2e" x="114.013672"/>
       <use xlink:href="#ArialMT-38" x="141.796875"/>
      </g>
     </g>
    </g>
    <g id="xtick_7">
     <g id="line2d_11">
      <g>
       <use xlink:href="#m132cab0bc8" x="337.470458" y="203.594351" style="stroke: #000000; stroke-width: 0.8"/>
      </g>
     </g>
     <g id="text_16">
      <!-- −0.4 -->
      <g transform="translate(328.587177 217.036382) scale(0.09 -0.09)">
       <use xlink:href="#ArialMT-2212"/>
       <use xlink:href="#ArialMT-30" x="58.398438"/>
       <use xlink:href="#ArialMT-2e" x="114.013672"/>
       <use xlink:href="#ArialMT-34" x="141.796875"/>
      </g>
     </g>
    </g>
    <g id="xtick_8">
     <g id="line2d_12">
      <g>
       <use xlink:href="#m132cab0bc8" x="383.06574" y="203.594351" style="stroke: #000000; stroke-width: 0.8"/>
      </g>
     </g>
     <g id="text_17">
      <!-- 0.0 -->
      <g transform="translate(376.81074 217.036382) scale(0.09 -0.09)">
       <use xlink:href="#ArialMT-30"/>
       <use xlink:href="#ArialMT-2e" x="55.615234"/>
       <use xlink:href="#ArialMT-30" x="83.398438"/>
      </g>
     </g>
    </g>
    <g id="xtick_9">
     <g id="line2d_13">
      <g>
       <use xlink:href="#m132cab0bc8" x="428.661021" y="203.594351" style="stroke: #000000; stroke-width: 0.8"/>
      </g>
     </g>
     <g id="text_18">
      <!-- 0.4 -->
      <g transform="translate(422.406021 217.036382) scale(0.09 -0.09)">
       <use xlink:href="#ArialMT-30"/>
       <use xlink:href="#ArialMT-2e" x="55.615234"/>
       <use xlink:href="#ArialMT-34" x="83.398438"/>
      </g>
     </g>
    </g>
    <g id="xtick_10">
     <g id="line2d_14">
      <g>
       <use xlink:href="#m132cab0bc8" x="474.256303" y="203.594351" style="stroke: #000000; stroke-width: 0.8"/>
      </g>
     </g>
     <g id="text_19">
      <!-- 0.8 -->
      <g transform="translate(468.001303 217.036382) scale(0.09 -0.09)">
       <use xlink:href="#ArialMT-30"/>
       <use xlink:href="#ArialMT-2e" x="55.615234"/>
       <use xlink:href="#ArialMT-38" x="83.398438"/>
      </g>
     </g>
    </g>
    <g id="text_20">
     <!-- (A - B) Cost difference (USD kg$^\mathdefault{-1}$) -->
     <g transform="translate(326.06198 230.835132) scale(0.09 -0.09)">
      <use xlink:href="#ArialMT-28" transform="translate(0 0.40625)"/>
      <use xlink:href="#ArialMT-41" transform="translate(33.300781 0.40625)"/>
      <use xlink:href="#ArialMT-20" transform="translate(100 0.40625)"/>
      <use xlink:href="#ArialMT-2d" transform="translate(127.783203 0.40625)"/>
      <use xlink:href="#ArialMT-20" transform="translate(161.083984 0.40625)"/>
      <use xlink:href="#ArialMT-42" transform="translate(188.867188 0.40625)"/>
      <use xlink:href="#ArialMT-29" transform="translate(255.566406 0.40625)"/>
      <use xlink:href="#ArialMT-20" transform="translate(288.867188 0.40625)"/>
      <use xlink:href="#ArialMT-43" transform="translate(316.650391 0.40625)"/>
      <use xlink:href="#ArialMT-6f" transform="translate(388.867188 0.40625)"/>
      <use xlink:href="#ArialMT-73" transform="translate(444.482422 0.40625)"/>
      <use xlink:href="#ArialMT-74" transform="translate(494.482422 0.40625)"/>
      <use xlink:href="#ArialMT-20" transform="translate(522.265625 0.40625)"/>
      <use xlink:href="#ArialMT-64" transform="translate(550.048828 0.40625)"/>
      <use xlink:href="#ArialMT-69" transform="translate(605.664062 0.40625)"/>
      <use xlink:href="#ArialMT-66" transform="translate(627.880859 0.40625)"/>
      <use xlink:href="#ArialMT-66" transform="translate(655.664062 0.40625)"/>
      <use xlink:href="#ArialMT-65" transform="translate(683.447266 0.40625)"/>
      <use xlink:href="#ArialMT-72" transform="translate(739.0625 0.40625)"/>
      <use xlink:href="#ArialMT-65" transform="translate(772.363281 0.40625)"/>
      <use xlink:href="#ArialMT-6e" transform="translate(827.978516 0.40625)"/>
      <use xlink:href="#ArialMT-63" transform="translate(883.59375 0.40625)"/>
      <use xlink:href="#ArialMT-65" transform="translate(933.59375 0.40625)"/>
      <use xlink:href="#ArialMT-20" transform="translate(989.208984 0.40625)"/>
      <use xlink:href="#ArialMT-28" transform="translate(1016.992188 0.40625)"/>
      <use xlink:href="#ArialMT-55" transform="translate(1050.292969 0.40625)"/>
      <use xlink:href="#ArialMT-53" transform="translate(1122.509766 0.40625)"/>
      <use xlink:href="#ArialMT-44" transform="translate(1189.208984 0.40625)"/>
      <use xlink:href="#ArialMT-20" transform="translate(1261.425781 0.40625)"/>
      <use xlink:href="#ArialMT-6b" transform="translate(1289.208984 0.40625)"/>
      <use xlink:href="#ArialMT-67" transform="translate(1339.208984 0.40625)"/>
      <use xlink:href="#ArialMT-2212" transform="translate(1395.78125 38.6875) scale(0.7)"/>
      <use xlink:href="#ArialMT-31" transform="translate(1436.660156 38.6875) scale(0.7)"/>
      <use xlink:href="#ArialMT-29" transform="translate(1478.325195 0.40625)"/>
     </g>
    </g>
   </g>
   <g id="matplotlib.axis_4">
    <g id="ytick_5">
     <g id="line2d_15">
      <g>
       <use xlink:href="#m1789830475" x="281.704121" y="203.594351" style="stroke: #000000; stroke-width: 0.8"/>
      </g>
     </g>
    </g>
    <g id="ytick_6">
     <g id="line2d_16">
      <g>
       <use xlink:href="#m1789830475" x="281.704121" y="157.21553" style="stroke: #000000; stroke-width: 0.8"/>
      </g>
     </g>
    </g>
    <g id="ytick_7">
     <g id="line2d_17">
      <g>
       <use xlink:href="#m1789830475" x="281.704121" y="110.83671" style="stroke: #000000; stroke-width: 0.8"/>
      </g>
     </g>
    </g>
    <g id="ytick_8">
     <g id="line2d_18">
      <g>
       <use xlink:href="#m1789830475" x="281.704121" y="64.45789" style="stroke: #000000; stroke-width: 0.8"/>
      </g>
     </g>
    </g>
   </g>
   <g id="patch_68">
    <path d="M 281.704121 203.594351 
L 281.704121 21.789375 
" style="fill: none; stroke: #000000; stroke-width: 0.8; stroke-linejoin: miter; stroke-linecap: square"/>
   </g>
   <g id="patch_69">
    <path d="M 506.49984 203.594351 
L 506.49984 21.789375 
" style="fill: none; stroke: #000000; stroke-width: 0.8; stroke-linejoin: miter; stroke-linecap: square"/>
   </g>
   <g id="patch_70">
    <path d="M 281.704121 203.594351 
L 506.49984 203.594351 
" style="fill: none; stroke: #000000; stroke-width: 0.8; stroke-linejoin: miter; stroke-linecap: square"/>
   </g>
   <g id="patch_71">
    <path d="M 281.704121 21.789375 
L 506.49984 21.789375 
" style="fill: none; stroke: #000000; stroke-width: 0.8; stroke-linejoin: miter; stroke-linecap: square"/>
   </g>
   <g id="text_21">
    <!-- P(A &gt; B): 0.14 -->
    <g transform="translate(290.695949 37.431343) scale(0.09 -0.09)">
     <use xlink:href="#ArialMT-50"/>
     <use xlink:href="#ArialMT-28" x="66.699219"/>
     <use xlink:href="#ArialMT-41" x="100"/>
     <use xlink:href="#ArialMT-20" x="161.199219"/>
     <use xlink:href="#ArialMT-3e" x="188.982422"/>
     <use xlink:href="#ArialMT-20" x="247.380859"/>
     <use xlink:href="#ArialMT-42" x="275.164062"/>
     <use xlink:href="#ArialMT-29" x="341.863281"/>
     <use xlink:href="#ArialMT-3a" x="375.164062"/>
     <use xlink:href="#ArialMT-20" x="402.947266"/>
     <use xlink:href="#ArialMT-30" x="430.730469"/>
     <use xlink:href="#ArialMT-2e" x="486.345703"/>
     <use xlink:href="#ArialMT-31" x="514.128906"/>
     <use xlink:href="#ArialMT-34" x="569.744141"/>
    </g>
   </g>
   <g id="text_22">
    <!-- Biogas + fossil ethylene vs. Fossil -->
    <g transform="translate(326.699012 15.789375) scale(0.09 -0.09)">
     <defs>
      <path id="ArialMT-61" d="M 2588 409 
Q 2275 144 1986 34 
Q 1697 -75 1366 -75 
Q 819 -75 525 192 
Q 231 459 231 875 
Q 231 1119 342 1320 
Q 453 1522 633 1644 
Q 813 1766 1038 1828 
Q 1203 1872 1538 1913 
Q 2219 1994 2541 2106 
Q 2544 2222 2544 2253 
Q 2544 2597 2384 2738 
Q 2169 2928 1744 2928 
Q 1347 2928 1158 2789 
Q 969 2650 878 2297 
L 328 2372 
Q 403 2725 575 2942 
Q 747 3159 1072 3276 
Q 1397 3394 1825 3394 
Q 2250 3394 2515 3294 
Q 2781 3194 2906 3042 
Q 3031 2891 3081 2659 
Q 3109 2516 3109 2141 
L 3109 1391 
Q 3109 606 3145 398 
Q 3181 191 3288 0 
L 2700 0 
Q 2613 175 2588 409 
z
M 2541 1666 
Q 2234 1541 1622 1453 
Q 1275 1403 1131 1340 
Q 988 1278 909 1158 
Q 831 1038 831 891 
Q 831 666 1001 516 
Q 1172 366 1500 366 
Q 1825 366 2078 508 
Q 2331 650 2450 897 
Q 2541 1088 2541 1459 
L 2541 1666 
z
" transform="scale(0.015625)"/>
     </defs>
     <use xlink:href="#ArialMT-42"/>
     <use xlink:href="#ArialMT-69" x="66.699219"/>
     <use xlink:href="#ArialMT-6f" x="88.916016"/>
     <use xlink:href="#ArialMT-67" x="144.53125"/>
     <use xlink:href="#ArialMT-61" x="200.146484"/>
     <use xlink:href="#ArialMT-73" x="255.761719"/>
     <use xlink:href="#ArialMT-20" x="305.761719"/>
     <use xlink:href="#ArialMT-2b" x="333.544922"/>
     <use xlink:href="#ArialMT-20" x="391.943359"/>
     <use xlink:href="#ArialMT-66" x="419.726562"/>
     <use xlink:href="#ArialMT-6f" x="447.509766"/>
     <use xlink:href="#ArialMT-73" x="503.125"/>
     <use xlink:href="#ArialMT-73" x="553.125"/>
     <use xlink:href="#ArialMT-69" x="603.125"/>
     <use xlink:href="#ArialMT-6c" x="625.341797"/>
     <use xlink:href="#ArialMT-20" x="647.558594"/>
     <use xlink:href="#ArialMT-65" x="675.341797"/>
     <use xlink:href="#ArialMT-74" x="730.957031"/>
     <use xlink:href="#ArialMT-68" x="758.740234"/>
     <use xlink:href="#ArialMT-79" x="814.355469"/>
     <use xlink:href="#ArialMT-6c" x="864.355469"/>
     <use xlink:href="#ArialMT-65" x="886.572266"/>
     <use xlink:href="#ArialMT-6e" x="942.1875"/>
     <use xlink:href="#ArialMT-65" x="997.802734"/>
     <use xlink:href="#ArialMT-20" x="1053.417969"/>
     <use xlink:href="#ArialMT-76" x="1081.201172"/>
     <use xlink:href="#ArialMT-73" x="1131.201172"/>
     <use xlink:href="#ArialMT-2e" x="1181.201172"/>
     <use xlink:href="#ArialMT-20" x="1208.984375"/>
     <use xlink:href="#ArialMT-46" x="1236.767578"/>
     <use xlink:href="#ArialMT-6f" x="1297.851562"/>
     <use xlink:href="#ArialMT-73" x="1353.466797"/>
     <use xlink:href="#ArialMT-73" x="1403.466797"/>
     <use xlink:href="#ArialMT-69" x="1453.466797"/>
     <use xlink:href="#ArialMT-6c" x="1475.683594"/>
    </g>
   </g>
   <g id="text_23">
    <!-- c -->
    <g transform="translate(268.216377 15.789375) scale(0.12 -0.12)">
     <defs>
      <path id="Arial-BoldMT-63" d="M 3353 2338 
L 2488 2181 
Q 2444 2441 2289 2572 
Q 2134 2703 1888 2703 
Q 1559 2703 1364 2476 
Q 1169 2250 1169 1719 
Q 1169 1128 1367 884 
Q 1566 641 1900 641 
Q 2150 641 2309 783 
Q 2469 925 2534 1272 
L 3397 1125 
Q 3263 531 2881 228 
Q 2500 -75 1859 -75 
Q 1131 -75 698 384 
Q 266 844 266 1656 
Q 266 2478 700 2936 
Q 1134 3394 1875 3394 
Q 2481 3394 2839 3133 
Q 3197 2872 3353 2338 
z
" transform="scale(0.015625)"/>
     </defs>
     <use xlink:href="#Arial-BoldMT-63"/>
    </g>
   </g>
  </g>
 </g>
 <defs>
  <clipPath id="p0e023e1895">
   <rect x="36.545938" y="21.789375" width="224.795719" height="181.804976"/>
  </clipPath>
  <clipPath id="p837ebd0204">
   <rect x="281.704121" y="21.789375" width="224.795719" height="181.804976"/>
  </clipPath>
 </defs>
</svg>
