<?xml version="1.0" encoding="utf-8" standalone="no"?>
<!DOCTYPE svg PUBLIC "-//W3C//DTD SVG 1.1//EN"
  "http://www.w3.org/Graphics/SVG/1.1/DTD/svg11.dtd">
<svg xmlns:xlink="http://www.w3.org/1999/xlink" width="513.34527pt" height="241.620186pt" viewBox="0 0 513.34527 241.620186" xmlns="http://www.w3.org/2000/svg" version="1.1">
 <metadata>
  <rdf:RDF xmlns:dc="http://purl.org/dc/elements/1.1/" xmlns:cc="http://creativecommons.org/ns#" xmlns:rdf="http://www.w3.org/1999/02/22-rdf-syntax-ns#">
   <cc:Work>
    <dc:type rdf:resource="http://purl.org/dc/dcmitype/StillImage"/>
    <dc:date>2025-10-17T12:24:00.161062</dc:date>
    <dc:format>image/svg+xml</dc:format>
    <dc:creator>
     <cc:Agent>
      <dc:title>Matplotlib v3.9.2, https://matplotlib.org/</dc:title>
     </cc:Agent>
    </dc:creator>
   </cc:Work>
  </rdf:RDF>
 </metadata>
 <defs>
  <style type="text/css">*{stroke-linejoin: round; stroke-linecap: butt}</style>
 </defs>
 <g id="figure_1">
  <g id="patch_1">
   <path d="M 0 241.620186 
L 513.34527 241.620186 
L 513.34527 0 
L 0 0 
z
" style="fill: #ffffff"/>
  </g>
  <g id="axes_1">
   <g id="patch_2">
    <path d="M 26.8 167.566421 
L 166.217421 167.566421 
L 166.217421 21.21 
L 26.8 21.21 
z
" style="fill: #ffffff"/>
   </g>
   <g id="patch_3">
    <path d="M 45.144397 167.566421 
L 74.495433 167.566421 
L 74.495433 28.179353 
L 45.144397 28.179353 
z
" clip-path="url(#p119a012b86)" style="fill: #808080; opacity: 0.8"/>
   </g>
   <g id="patch_4">
    <path d="M 118.521987 167.566421 
L 147.873023 167.566421 
L 147.873023 167.566421 
L 118.521987 167.566421 
z
" clip-path="url(#p119a012b86)" style="fill: #808080; opacity: 0.8"/>
   </g>
   <g id="patch_5">
    <path d="M 45.144397 167.566421 
L 74.495433 167.566421 
L 74.495433 167.566421 
L 45.144397 167.566421 
z
" clip-path="url(#p119a012b86)" style="fill: #f94144; opacity: 0.8"/>
   </g>
   <g id="patch_6">
    <path d="M 118.521987 167.566421 
L 147.873023 167.566421 
L 147.873023 132.839579 
L 118.521987 132.839579 
z
" clip-path="url(#p119a012b86)" style="fill: #f94144; opacity: 0.8"/>
   </g>
   <g id="patch_7">
    <path d="M 45.144397 167.566421 
L 74.495433 167.566421 
L 74.495433 167.566421 
L 45.144397 167.566421 
z
" clip-path="url(#p119a012b86)" style="fill: #f3722c; opacity: 0.8"/>
   </g>
   <g id="patch_8">
    <path d="M 118.521987 132.839579 
L 147.873023 132.839579 
L 147.873023 127.970175 
L 118.521987 127.970175 
z
" clip-path="url(#p119a012b86)" style="fill: #f3722c; opacity: 0.8"/>
   </g>
   <g id="patch_9">
    <path d="M 45.144397 167.566421 
L 74.495433 167.566421 
L 74.495433 167.566421 
L 45.144397 167.566421 
z
" clip-path="url(#p119a012b86)" style="fill: #f8961e; opacity: 0.8"/>
   </g>
   <g id="patch_10">
    <path d="M 118.521987 127.970175 
L 147.873023 127.970175 
L 147.873023 127.640106 
L 118.521987 127.640106 
z
" clip-path="url(#p119a012b86)" style="fill: #f8961e; opacity: 0.8"/>
   </g>
   <g id="patch_11">
    <path d="M 45.144397 167.566421 
L 74.495433 167.566421 
L 74.495433 167.566421 
L 45.144397 167.566421 
z
" clip-path="url(#p119a012b86)" style="fill: #f9c74f; opacity: 0.8"/>
   </g>
   <g id="patch_12">
    <path d="M 118.521987 127.640106 
L 147.873023 127.640106 
L 147.873023 121.498025 
L 118.521987 121.498025 
z
" clip-path="url(#p119a012b86)" style="fill: #f9c74f; opacity: 0.8"/>
   </g>
   <g id="patch_13">
    <path d="M 45.144397 167.566421 
L 74.495433 167.566421 
L 74.495433 167.566421 
L 45.144397 167.566421 
z
" clip-path="url(#p119a012b86)" style="fill: #90be6d; opacity: 0.8"/>
   </g>
   <g id="patch_14">
    <path d="M 118.521987 121.498025 
L 147.873023 121.498025 
L 147.873023 116.468999 
L 118.521987 116.468999 
z
" clip-path="url(#p119a012b86)" style="fill: #90be6d; opacity: 0.8"/>
   </g>
   <g id="patch_15">
    <path d="M 45.144397 167.566421 
L 74.495433 167.566421 
L 74.495433 167.566421 
L 45.144397 167.566421 
z
" clip-path="url(#p119a012b86)" style="fill: #43aa8b; opacity: 0.8"/>
   </g>
   <g id="patch_16">
    <path d="M 118.521987 116.468999 
L 147.873023 116.468999 
L 147.873023 109.674103 
L 118.521987 109.674103 
z
" clip-path="url(#p119a012b86)" style="fill: #43aa8b; opacity: 0.8"/>
   </g>
   <g id="patch_17">
    <path d="M 45.144397 167.566421 
L 74.495433 167.566421 
L 74.495433 167.566421 
L 45.144397 167.566421 
z
" clip-path="url(#p119a012b86)" style="fill: #4d908e; opacity: 0.8"/>
   </g>
   <g id="patch_18">
    <path d="M 118.521987 109.674103 
L 147.873023 109.674103 
L 147.873023 108.447295 
L 118.521987 108.447295 
z
" clip-path="url(#p119a012b86)" style="fill: #4d908e; opacity: 0.8"/>
   </g>
   <g id="patch_19">
    <path d="M 45.144397 167.566421 
L 74.495433 167.566421 
L 74.495433 167.566421 
L 45.144397 167.566421 
z
" clip-path="url(#p119a012b86)" style="fill: #577590; opacity: 0.8"/>
   </g>
   <g id="patch_20">
    <path d="M 118.521987 108.447295 
L 147.873023 108.447295 
L 147.873023 107.432631 
L 118.521987 107.432631 
z
" clip-path="url(#p119a012b86)" style="fill: #577590; opacity: 0.8"/>
   </g>
   <g id="patch_21">
    <path d="M 45.144397 167.566421 
L 74.495433 167.566421 
L 74.495433 167.566421 
L 45.144397 167.566421 
z
" clip-path="url(#p119a012b86)" style="fill: #277da1; opacity: 0.8"/>
   </g>
   <g id="patch_22">
    <path d="M 118.521987 107.432631 
L 147.873023 107.432631 
L 147.873023 102.864631 
L 118.521987 102.864631 
z
" clip-path="url(#p119a012b86)" style="fill: #277da1; opacity: 0.8"/>
   </g>
   <g id="matplotlib.axis_1">
    <g id="xtick_1">
     <g id="line2d_1">
      <defs>
       <path id="mf41679f089" d="M 0 0 
L 0 3.5 
" style="stroke: #000000; stroke-width: 0.8"/>
      </defs>
      <g>
       <use xlink:href="#mf41679f089" x="59.819915" y="167.566421" style="stroke: #000000; stroke-width: 0.8"/>
      </g>
     </g>
     <g id="text_1">
      <!-- Fossil -->
      <g transform="translate(48.06929 181.008452) scale(0.09 -0.09)">
       <defs>
        <path id="ArialMT-46" d="M 525 0 
L 525 4581 
L 3616 4581 
L 3616 4041 
L 1131 4041 
L 1131 2622 
L 3281 2622 
L 3281 2081 
L 1131 2081 
L 1131 0 
L 525 0 
z
" transform="scale(0.015625)"/>
        <path id="ArialMT-6f" d="M 213 1659 
Q 213 2581 725 3025 
Q 1153 3394 1769 3394 
Q 2453 3394 2887 2945 
Q 3322 2497 3322 1706 
Q 3322 1066 3130 698 
Q 2938 331 2570 128 
Q 2203 -75 1769 -75 
Q 1072 -75 642 372 
Q 213 819 213 1659 
z
M 791 1659 
Q 791 1022 1069 705 
Q 1347 388 1769 388 
Q 2188 388 2466 706 
Q 2744 1025 2744 1678 
Q 2744 2294 2464 2611 
Q 2184 2928 1769 2928 
Q 1347 2928 1069 2612 
Q 791 2297 791 1659 
z
" transform="scale(0.015625)"/>
        <path id="ArialMT-73" d="M 197 991 
L 753 1078 
Q 800 744 1014 566 
Q 1228 388 1613 388 
Q 2000 388 2187 545 
Q 2375 703 2375 916 
Q 2375 1106 2209 1216 
Q 2094 1291 1634 1406 
Q 1016 1563 777 1677 
Q 538 1791 414 1992 
Q 291 2194 291 2438 
Q 291 2659 392 2848 
Q 494 3038 669 3163 
Q 800 3259 1026 3326 
Q 1253 3394 1513 3394 
Q 1903 3394 2198 3281 
Q 2494 3169 2634 2976 
Q 2775 2784 2828 2463 
L 2278 2388 
Q 2241 2644 2061 2787 
Q 1881 2931 1553 2931 
Q 1166 2931 1000 2803 
Q 834 2675 834 2503 
Q 834 2394 903 2306 
Q 972 2216 1119 2156 
Q 1203 2125 1616 2013 
Q 2213 1853 2448 1751 
Q 2684 1650 2818 1456 
Q 2953 1263 2953 975 
Q 2953 694 2789 445 
Q 2625 197 2315 61 
Q 2006 -75 1616 -75 
Q 969 -75 630 194 
Q 291 463 197 991 
z
" transform="scale(0.015625)"/>
        <path id="ArialMT-69" d="M 425 3934 
L 425 4581 
L 988 4581 
L 988 3934 
L 425 3934 
z
M 425 0 
L 425 3319 
L 988 3319 
L 988 0 
L 425 0 
z
" transform="scale(0.015625)"/>
        <path id="ArialMT-6c" d="M 409 0 
L 409 4581 
L 972 4581 
L 972 0 
L 409 0 
z
" transform="scale(0.015625)"/>
       </defs>
       <use xlink:href="#ArialMT-46"/>
       <use xlink:href="#ArialMT-6f" x="61.083984"/>
       <use xlink:href="#ArialMT-73" x="116.699219"/>
       <use xlink:href="#ArialMT-73" x="166.699219"/>
       <use xlink:href="#ArialMT-69" x="216.699219"/>
       <use xlink:href="#ArialMT-6c" x="238.916016"/>
      </g>
     </g>
    </g>
    <g id="xtick_2">
     <g id="line2d_2">
      <g>
       <use xlink:href="#mf41679f089" x="133.197505" y="167.566421" style="stroke: #000000; stroke-width: 0.8"/>
      </g>
     </g>
     <g id="text_2">
      <!-- Biogas -->
      <g transform="translate(119.438755 181.008452) scale(0.09 -0.09)">
       <defs>
        <path id="ArialMT-42" d="M 469 0 
L 469 4581 
L 2188 4581 
Q 2713 4581 3030 4442 
Q 3347 4303 3526 4014 
Q 3706 3725 3706 3409 
Q 3706 3116 3547 2856 
Q 3388 2597 3066 2438 
Q 3481 2316 3704 2022 
Q 3928 1728 3928 1328 
Q 3928 1006 3792 729 
Q 3656 453 3456 303 
Q 3256 153 2954 76 
Q 2653 0 2216 0 
L 469 0 
z
M 1075 2656 
L 2066 2656 
Q 2469 2656 2644 2709 
Q 2875 2778 2992 2937 
Q 3109 3097 3109 3338 
Q 3109 3566 3000 3739 
Q 2891 3913 2687 3977 
Q 2484 4041 1991 4041 
L 1075 4041 
L 1075 2656 
z
M 1075 541 
L 2216 541 
Q 2509 541 2628 563 
Q 2838 600 2978 687 
Q 3119 775 3209 942 
Q 3300 1109 3300 1328 
Q 3300 1584 3169 1773 
Q 3038 1963 2805 2039 
Q 2572 2116 2134 2116 
L 1075 2116 
L 1075 541 
z
" transform="scale(0.015625)"/>
        <path id="ArialMT-67" d="M 319 -275 
L 866 -356 
Q 900 -609 1056 -725 
Q 1266 -881 1628 -881 
Q 2019 -881 2231 -725 
Q 2444 -569 2519 -288 
Q 2563 -116 2559 434 
Q 2191 0 1641 0 
Q 956 0 581 494 
Q 206 988 206 1678 
Q 206 2153 378 2554 
Q 550 2956 876 3175 
Q 1203 3394 1644 3394 
Q 2231 3394 2613 2919 
L 2613 3319 
L 3131 3319 
L 3131 450 
Q 3131 -325 2973 -648 
Q 2816 -972 2473 -1159 
Q 2131 -1347 1631 -1347 
Q 1038 -1347 672 -1080 
Q 306 -813 319 -275 
z
M 784 1719 
Q 784 1066 1043 766 
Q 1303 466 1694 466 
Q 2081 466 2343 764 
Q 2606 1063 2606 1700 
Q 2606 2309 2336 2618 
Q 2066 2928 1684 2928 
Q 1309 2928 1046 2623 
Q 784 2319 784 1719 
z
" transform="scale(0.015625)"/>
        <path id="ArialMT-61" d="M 2588 409 
Q 2275 144 1986 34 
Q 1697 -75 1366 -75 
Q 819 -75 525 192 
Q 231 459 231 875 
Q 231 1119 342 1320 
Q 453 1522 633 1644 
Q 813 1766 1038 1828 
Q 1203 1872 1538 1913 
Q 2219 1994 2541 2106 
Q 2544 2222 2544 2253 
Q 2544 2597 2384 2738 
Q 2169 2928 1744 2928 
Q 1347 2928 1158 2789 
Q 969 2650 878 2297 
L 328 2372 
Q 403 2725 575 2942 
Q 747 3159 1072 3276 
Q 1397 3394 1825 3394 
Q 2250 3394 2515 3294 
Q 2781 3194 2906 3042 
Q 3031 2891 3081 2659 
Q 3109 2516 3109 2141 
L 3109 1391 
Q 3109 606 3145 398 
Q 3181 191 3288 0 
L 2700 0 
Q 2613 175 2588 409 
z
M 2541 1666 
Q 2234 1541 1622 1453 
Q 1275 1403 1131 1340 
Q 988 1278 909 1158 
Q 831 1038 831 891 
Q 831 666 1001 516 
Q 1172 366 1500 366 
Q 1825 366 2078 508 
Q 2331 650 2450 897 
Q 2541 1088 2541 1459 
L 2541 1666 
z
" transform="scale(0.015625)"/>
       </defs>
       <use xlink:href="#ArialMT-42"/>
       <use xlink:href="#ArialMT-69" x="66.699219"/>
       <use xlink:href="#ArialMT-6f" x="88.916016"/>
       <use xlink:href="#ArialMT-67" x="144.53125"/>
       <use xlink:href="#ArialMT-61" x="200.146484"/>
       <use xlink:href="#ArialMT-73" x="255.761719"/>
      </g>
     </g>
    </g>
   </g>
   <g id="matplotlib.axis_2">
    <g id="ytick_1">
     <g id="line2d_3">
      <defs>
       <path id="mbe59fe08e4" d="M 0 0 
L -3.5 0 
" style="stroke: #000000; stroke-width: 0.8"/>
      </defs>
      <g>
       <use xlink:href="#mbe59fe08e4" x="26.8" y="167.566421" style="stroke: #000000; stroke-width: 0.8"/>
      </g>
     </g>
     <g id="text_3">
      <!-- $\mathdefault{0.0}$ -->
      <g transform="translate(7.2 170.787436) scale(0.09 -0.09)">
       <defs>
        <path id="ArialMT-30" d="M 266 2259 
Q 266 3072 433 3567 
Q 600 4063 929 4331 
Q 1259 4600 1759 4600 
Q 2128 4600 2406 4451 
Q 2684 4303 2865 4023 
Q 3047 3744 3150 3342 
Q 3253 2941 3253 2259 
Q 3253 1453 3087 958 
Q 2922 463 2592 192 
Q 2263 -78 1759 -78 
Q 1097 -78 719 397 
Q 266 969 266 2259 
z
M 844 2259 
Q 844 1131 1108 757 
Q 1372 384 1759 384 
Q 2147 384 2411 759 
Q 2675 1134 2675 2259 
Q 2675 3391 2411 3762 
Q 2147 4134 1753 4134 
Q 1366 4134 1134 3806 
Q 844 3388 844 2259 
z
" transform="scale(0.015625)"/>
        <path id="ArialMT-2e" d="M 581 0 
L 581 641 
L 1222 641 
L 1222 0 
L 581 0 
z
" transform="scale(0.015625)"/>
       </defs>
       <use xlink:href="#ArialMT-30" transform="translate(0 0.125)"/>
       <use xlink:href="#ArialMT-2e" transform="translate(55.615234 0.125)"/>
       <use xlink:href="#ArialMT-30" transform="translate(83.398438 0.125)"/>
      </g>
     </g>
    </g>
    <g id="ytick_2">
     <g id="line2d_4">
      <g>
       <use xlink:href="#mbe59fe08e4" x="26.8" y="136.333883" style="stroke: #000000; stroke-width: 0.8"/>
      </g>
     </g>
     <g id="text_4">
      <!-- $\mathdefault{1.5}$ -->
      <g transform="translate(7.2 139.554899) scale(0.09 -0.09)">
       <defs>
        <path id="ArialMT-31" d="M 2384 0 
L 1822 0 
L 1822 3584 
Q 1619 3391 1289 3197 
Q 959 3003 697 2906 
L 697 3450 
Q 1169 3672 1522 3987 
Q 1875 4303 2022 4600 
L 2384 4600 
L 2384 0 
z
" transform="scale(0.015625)"/>
        <path id="ArialMT-35" d="M 266 1200 
L 856 1250 
Q 922 819 1161 601 
Q 1400 384 1738 384 
Q 2144 384 2425 690 
Q 2706 997 2706 1503 
Q 2706 1984 2436 2262 
Q 2166 2541 1728 2541 
Q 1456 2541 1237 2417 
Q 1019 2294 894 2097 
L 366 2166 
L 809 4519 
L 3088 4519 
L 3088 3981 
L 1259 3981 
L 1013 2750 
Q 1425 3038 1878 3038 
Q 2478 3038 2890 2622 
Q 3303 2206 3303 1553 
Q 3303 931 2941 478 
Q 2500 -78 1738 -78 
Q 1113 -78 717 272 
Q 322 622 266 1200 
z
" transform="scale(0.015625)"/>
       </defs>
       <use xlink:href="#ArialMT-31" transform="translate(0 0.125)"/>
       <use xlink:href="#ArialMT-2e" transform="translate(55.615234 0.125)"/>
       <use xlink:href="#ArialMT-35" transform="translate(83.398438 0.125)"/>
      </g>
     </g>
    </g>
    <g id="ytick_3">
     <g id="line2d_5">
      <g>
       <use xlink:href="#mbe59fe08e4" x="26.8" y="105.101345" style="stroke: #000000; stroke-width: 0.8"/>
      </g>
     </g>
     <g id="text_5">
      <!-- $\mathdefault{3.0}$ -->
      <g transform="translate(7.2 108.322361) scale(0.09 -0.09)">
       <defs>
        <path id="ArialMT-33" d="M 269 1209 
L 831 1284 
Q 928 806 1161 595 
Q 1394 384 1728 384 
Q 2125 384 2398 659 
Q 2672 934 2672 1341 
Q 2672 1728 2419 1979 
Q 2166 2231 1775 2231 
Q 1616 2231 1378 2169 
L 1441 2663 
Q 1497 2656 1531 2656 
Q 1891 2656 2178 2843 
Q 2466 3031 2466 3422 
Q 2466 3731 2256 3934 
Q 2047 4138 1716 4138 
Q 1388 4138 1169 3931 
Q 950 3725 888 3313 
L 325 3413 
Q 428 3978 793 4289 
Q 1159 4600 1703 4600 
Q 2078 4600 2393 4439 
Q 2709 4278 2876 4000 
Q 3044 3722 3044 3409 
Q 3044 3113 2884 2869 
Q 2725 2625 2413 2481 
Q 2819 2388 3044 2092 
Q 3269 1797 3269 1353 
Q 3269 753 2831 336 
Q 2394 -81 1725 -81 
Q 1122 -81 723 278 
Q 325 638 269 1209 
z
" transform="scale(0.015625)"/>
       </defs>
       <use xlink:href="#ArialMT-33" transform="translate(0 0.125)"/>
       <use xlink:href="#ArialMT-2e" transform="translate(55.615234 0.125)"/>
       <use xlink:href="#ArialMT-30" transform="translate(83.398438 0.125)"/>
      </g>
     </g>
    </g>
    <g id="ytick_4">
     <g id="line2d_6">
      <g>
       <use xlink:href="#mbe59fe08e4" x="26.8" y="73.868808" style="stroke: #000000; stroke-width: 0.8"/>
      </g>
     </g>
     <g id="text_6">
      <!-- $\mathdefault{4.5}$ -->
      <g transform="translate(7.2 77.089824) scale(0.09 -0.09)">
       <defs>
        <path id="ArialMT-34" d="M 2069 0 
L 2069 1097 
L 81 1097 
L 81 1613 
L 2172 4581 
L 2631 4581 
L 2631 1613 
L 3250 1613 
L 3250 1097 
L 2631 1097 
L 2631 0 
L 2069 0 
z
M 2069 1613 
L 2069 3678 
L 634 1613 
L 2069 1613 
z
" transform="scale(0.015625)"/>
       </defs>
       <use xlink:href="#ArialMT-34" transform="translate(0 0.421875)"/>
       <use xlink:href="#ArialMT-2e" transform="translate(55.615234 0.421875)"/>
       <use xlink:href="#ArialMT-35" transform="translate(83.398438 0.421875)"/>
      </g>
     </g>
    </g>
    <g id="ytick_5">
     <g id="line2d_7">
      <g>
       <use xlink:href="#mbe59fe08e4" x="26.8" y="42.63627" style="stroke: #000000; stroke-width: 0.8"/>
      </g>
     </g>
     <g id="text_7">
      <!-- $\mathdefault{6.0}$ -->
      <g transform="translate(7.2 45.857286) scale(0.09 -0.09)">
       <defs>
        <path id="ArialMT-36" d="M 3184 3459 
L 2625 3416 
Q 2550 3747 2413 3897 
Q 2184 4138 1850 4138 
Q 1581 4138 1378 3988 
Q 1113 3794 959 3422 
Q 806 3050 800 2363 
Q 1003 2672 1297 2822 
Q 1591 2972 1913 2972 
Q 2475 2972 2870 2558 
Q 3266 2144 3266 1488 
Q 3266 1056 3080 686 
Q 2894 316 2569 119 
Q 2244 -78 1831 -78 
Q 1128 -78 684 439 
Q 241 956 241 2144 
Q 241 3472 731 4075 
Q 1159 4600 1884 4600 
Q 2425 4600 2770 4297 
Q 3116 3994 3184 3459 
z
M 888 1484 
Q 888 1194 1011 928 
Q 1134 663 1356 523 
Q 1578 384 1822 384 
Q 2178 384 2434 671 
Q 2691 959 2691 1453 
Q 2691 1928 2437 2201 
Q 2184 2475 1800 2475 
Q 1419 2475 1153 2201 
Q 888 1928 888 1484 
z
" transform="scale(0.015625)"/>
       </defs>
       <use xlink:href="#ArialMT-36" transform="translate(0 0.125)"/>
       <use xlink:href="#ArialMT-2e" transform="translate(55.615234 0.125)"/>
       <use xlink:href="#ArialMT-30" transform="translate(83.398438 0.125)"/>
      </g>
     </g>
    </g>
   </g>
   <g id="PathCollection_1">
    <defs>
     <path id="mff54034113" d="M 0 3.872983 
C 1.027127 3.872983 2.012324 3.464901 2.738613 2.738613 
C 3.464901 2.012324 3.872983 1.027127 3.872983 0 
C 3.872983 -1.027127 3.464901 -2.012324 2.738613 -2.738613 
C 2.012324 -3.464901 1.027127 -3.872983 0 -3.872983 
C -1.027127 -3.872983 -2.012324 -3.464901 -2.738613 -2.738613 
C -3.464901 -2.012324 -3.872983 -1.027127 -3.872983 0 
C -3.872983 1.027127 -3.464901 2.012324 -2.738613 2.738613 
C -2.012324 3.464901 -1.027127 3.872983 0 3.872983 
z
" style="stroke: #000000"/>
    </defs>
    <g clip-path="url(#p119a012b86)">
     <use xlink:href="#mff54034113" x="59.819915" y="28.179353" style="fill: #ffffff; stroke: #000000"/>
     <use xlink:href="#mff54034113" x="133.197505" y="102.864631" style="fill: #ffffff; stroke: #000000"/>
    </g>
   </g>
   <g id="PathCollection_2">
    <defs>
     <path id="mc0bf0ada62" d="M 0 4.472136 
L 4.472136 0 
L 0 -4.472136 
L -4.472136 0 
z
" style="stroke: #ffffff"/>
    </defs>
    <g clip-path="url(#p119a012b86)">
     <use xlink:href="#mc0bf0ada62" x="59.819915" y="56.360753" style="fill: #6e00a3; stroke: #ffffff"/>
     <use xlink:href="#mc0bf0ada62" x="133.197505" y="117.401559" style="fill: #6e00a3; stroke: #ffffff"/>
    </g>
   </g>
   <g id="line2d_8">
    <path d="M 96.50871 167.566421 
L 96.50871 21.21 
" clip-path="url(#p119a012b86)" style="fill: none; stroke-dasharray: 3.7,1.6; stroke-dashoffset: 0; stroke: #808080"/>
   </g>
   <g id="patch_23">
    <path d="M 26.8 167.566421 
L 26.8 21.21 
" style="fill: none; stroke: #000000; stroke-width: 0.8; stroke-linejoin: miter; stroke-linecap: square"/>
   </g>
   <g id="patch_24">
    <path d="M 166.217421 167.566421 
L 166.217421 21.21 
" style="fill: none; stroke: #000000; stroke-width: 0.8; stroke-linejoin: miter; stroke-linecap: square"/>
   </g>
   <g id="patch_25">
    <path d="M 26.8 167.566421 
L 166.217421 167.566421 
" style="fill: none; stroke: #000000; stroke-width: 0.8; stroke-linejoin: miter; stroke-linecap: square"/>
   </g>
   <g id="patch_26">
    <path d="M 26.8 21.21 
L 166.217421 21.21 
" style="fill: none; stroke: #000000; stroke-width: 0.8; stroke-linejoin: miter; stroke-linecap: square"/>
   </g>
   <g id="text_8">
    <!-- Human health (DALY kg$^\mathdefault{-1}$) -->
    <g transform="translate(42.68871 15.21) scale(0.09 -0.09)">
     <defs>
      <path id="ArialMT-48" d="M 513 0 
L 513 4581 
L 1119 4581 
L 1119 2700 
L 3500 2700 
L 3500 4581 
L 4106 4581 
L 4106 0 
L 3500 0 
L 3500 2159 
L 1119 2159 
L 1119 0 
L 513 0 
z
" transform="scale(0.015625)"/>
      <path id="ArialMT-75" d="M 2597 0 
L 2597 488 
Q 2209 -75 1544 -75 
Q 1250 -75 995 37 
Q 741 150 617 320 
Q 494 491 444 738 
Q 409 903 409 1263 
L 409 3319 
L 972 3319 
L 972 1478 
Q 972 1038 1006 884 
Q 1059 663 1231 536 
Q 1403 409 1656 409 
Q 1909 409 2131 539 
Q 2353 669 2445 892 
Q 2538 1116 2538 1541 
L 2538 3319 
L 3100 3319 
L 3100 0 
L 2597 0 
z
" transform="scale(0.015625)"/>
      <path id="ArialMT-6d" d="M 422 0 
L 422 3319 
L 925 3319 
L 925 2853 
Q 1081 3097 1340 3245 
Q 1600 3394 1931 3394 
Q 2300 3394 2536 3241 
Q 2772 3088 2869 2813 
Q 3263 3394 3894 3394 
Q 4388 3394 4653 3120 
Q 4919 2847 4919 2278 
L 4919 0 
L 4359 0 
L 4359 2091 
Q 4359 2428 4304 2576 
Q 4250 2725 4106 2815 
Q 3963 2906 3769 2906 
Q 3419 2906 3187 2673 
Q 2956 2441 2956 1928 
L 2956 0 
L 2394 0 
L 2394 2156 
Q 2394 2531 2256 2718 
Q 2119 2906 1806 2906 
Q 1569 2906 1367 2781 
Q 1166 2656 1075 2415 
Q 984 2175 984 1722 
L 984 0 
L 422 0 
z
" transform="scale(0.015625)"/>
      <path id="ArialMT-6e" d="M 422 0 
L 422 3319 
L 928 3319 
L 928 2847 
Q 1294 3394 1984 3394 
Q 2284 3394 2536 3286 
Q 2788 3178 2913 3003 
Q 3038 2828 3088 2588 
Q 3119 2431 3119 2041 
L 3119 0 
L 2556 0 
L 2556 2019 
Q 2556 2363 2490 2533 
Q 2425 2703 2258 2804 
Q 2091 2906 1866 2906 
Q 1506 2906 1245 2678 
Q 984 2450 984 1813 
L 984 0 
L 422 0 
z
" transform="scale(0.015625)"/>
      <path id="ArialMT-20" transform="scale(0.015625)"/>
      <path id="ArialMT-68" d="M 422 0 
L 422 4581 
L 984 4581 
L 984 2938 
Q 1378 3394 1978 3394 
Q 2347 3394 2619 3248 
Q 2891 3103 3008 2847 
Q 3125 2591 3125 2103 
L 3125 0 
L 2563 0 
L 2563 2103 
Q 2563 2525 2380 2717 
Q 2197 2909 1863 2909 
Q 1613 2909 1392 2779 
Q 1172 2650 1078 2428 
Q 984 2206 984 1816 
L 984 0 
L 422 0 
z
" transform="scale(0.015625)"/>
      <path id="ArialMT-65" d="M 2694 1069 
L 3275 997 
Q 3138 488 2766 206 
Q 2394 -75 1816 -75 
Q 1088 -75 661 373 
Q 234 822 234 1631 
Q 234 2469 665 2931 
Q 1097 3394 1784 3394 
Q 2450 3394 2872 2941 
Q 3294 2488 3294 1666 
Q 3294 1616 3291 1516 
L 816 1516 
Q 847 969 1125 678 
Q 1403 388 1819 388 
Q 2128 388 2347 550 
Q 2566 713 2694 1069 
z
M 847 1978 
L 2700 1978 
Q 2663 2397 2488 2606 
Q 2219 2931 1791 2931 
Q 1403 2931 1139 2672 
Q 875 2413 847 1978 
z
" transform="scale(0.015625)"/>
      <path id="ArialMT-74" d="M 1650 503 
L 1731 6 
Q 1494 -44 1306 -44 
Q 1000 -44 831 53 
Q 663 150 594 308 
Q 525 466 525 972 
L 525 2881 
L 113 2881 
L 113 3319 
L 525 3319 
L 525 4141 
L 1084 4478 
L 1084 3319 
L 1650 3319 
L 1650 2881 
L 1084 2881 
L 1084 941 
Q 1084 700 1114 631 
Q 1144 563 1211 522 
Q 1278 481 1403 481 
Q 1497 481 1650 503 
z
" transform="scale(0.015625)"/>
      <path id="ArialMT-28" d="M 1497 -1347 
Q 1031 -759 709 28 
Q 388 816 388 1659 
Q 388 2403 628 3084 
Q 909 3875 1497 4659 
L 1900 4659 
Q 1522 4009 1400 3731 
Q 1209 3300 1100 2831 
Q 966 2247 966 1656 
Q 966 153 1900 -1347 
L 1497 -1347 
z
" transform="scale(0.015625)"/>
      <path id="ArialMT-44" d="M 494 0 
L 494 4581 
L 2072 4581 
Q 2606 4581 2888 4516 
Q 3281 4425 3559 4188 
Q 3922 3881 4101 3404 
Q 4281 2928 4281 2316 
Q 4281 1794 4159 1391 
Q 4038 988 3847 723 
Q 3656 459 3429 307 
Q 3203 156 2883 78 
Q 2563 0 2147 0 
L 494 0 
z
M 1100 541 
L 2078 541 
Q 2531 541 2789 625 
Q 3047 709 3200 863 
Q 3416 1078 3536 1442 
Q 3656 1806 3656 2325 
Q 3656 3044 3420 3430 
Q 3184 3816 2847 3947 
Q 2603 4041 2063 4041 
L 1100 4041 
L 1100 541 
z
" transform="scale(0.015625)"/>
      <path id="ArialMT-41" d="M -9 0 
L 1750 4581 
L 2403 4581 
L 4278 0 
L 3588 0 
L 3053 1388 
L 1138 1388 
L 634 0 
L -9 0 
z
M 1313 1881 
L 2866 1881 
L 2388 3150 
Q 2169 3728 2063 4100 
Q 1975 3659 1816 3225 
L 1313 1881 
z
" transform="scale(0.015625)"/>
      <path id="ArialMT-4c" d="M 469 0 
L 469 4581 
L 1075 4581 
L 1075 541 
L 3331 541 
L 3331 0 
L 469 0 
z
" transform="scale(0.015625)"/>
      <path id="ArialMT-59" d="M 1784 0 
L 1784 1941 
L 19 4581 
L 756 4581 
L 1659 3200 
Q 1909 2813 2125 2425 
Q 2331 2784 2625 3234 
L 3513 4581 
L 4219 4581 
L 2391 1941 
L 2391 0 
L 1784 0 
z
" transform="scale(0.015625)"/>
      <path id="ArialMT-6b" d="M 425 0 
L 425 4581 
L 988 4581 
L 988 1969 
L 2319 3319 
L 3047 3319 
L 1778 2088 
L 3175 0 
L 2481 0 
L 1384 1697 
L 988 1316 
L 988 0 
L 425 0 
z
" transform="scale(0.015625)"/>
      <path id="ArialMT-2212" d="M 3381 1997 
L 356 1997 
L 356 2522 
L 3381 2522 
L 3381 1997 
z
" transform="scale(0.015625)"/>
      <path id="ArialMT-29" d="M 791 -1347 
L 388 -1347 
Q 1322 153 1322 1656 
Q 1322 2244 1188 2822 
Q 1081 3291 891 3722 
Q 769 4003 388 4659 
L 791 4659 
Q 1378 3875 1659 3084 
Q 1900 2403 1900 1659 
Q 1900 816 1576 28 
Q 1253 -759 791 -1347 
z
" transform="scale(0.015625)"/>
     </defs>
     <use xlink:href="#ArialMT-48" transform="translate(0 0.40625)"/>
     <use xlink:href="#ArialMT-75" transform="translate(72.216797 0.40625)"/>
     <use xlink:href="#ArialMT-6d" transform="translate(127.832031 0.40625)"/>
     <use xlink:href="#ArialMT-61" transform="translate(211.132812 0.40625)"/>
     <use xlink:href="#ArialMT-6e" transform="translate(266.748047 0.40625)"/>
     <use xlink:href="#ArialMT-20" transform="translate(322.363281 0.40625)"/>
     <use xlink:href="#ArialMT-68" transform="translate(350.146484 0.40625)"/>
     <use xlink:href="#ArialMT-65" transform="translate(405.761719 0.40625)"/>
     <use xlink:href="#ArialMT-61" transform="translate(461.376953 0.40625)"/>
     <use xlink:href="#ArialMT-6c" transform="translate(516.992188 0.40625)"/>
     <use xlink:href="#ArialMT-74" transform="translate(539.208984 0.40625)"/>
     <use xlink:href="#ArialMT-68" transform="translate(566.992188 0.40625)"/>
     <use xlink:href="#ArialMT-20" transform="translate(622.607422 0.40625)"/>
     <use xlink:href="#ArialMT-28" transform="translate(650.390625 0.40625)"/>
     <use xlink:href="#ArialMT-44" transform="translate(683.691406 0.40625)"/>
     <use xlink:href="#ArialMT-41" transform="translate(755.908203 0.40625)"/>
     <use xlink:href="#ArialMT-4c" transform="translate(822.607422 0.40625)"/>
     <use xlink:href="#ArialMT-59" transform="translate(878.222656 0.40625)"/>
     <use xlink:href="#ArialMT-20" transform="translate(944.921875 0.40625)"/>
     <use xlink:href="#ArialMT-6b" transform="translate(972.705078 0.40625)"/>
     <use xlink:href="#ArialMT-67" transform="translate(1022.705078 0.40625)"/>
     <use xlink:href="#ArialMT-2212" transform="translate(1079.277344 38.6875) scale(0.7)"/>
     <use xlink:href="#ArialMT-31" transform="translate(1120.15625 38.6875) scale(0.7)"/>
     <use xlink:href="#ArialMT-29" transform="translate(1161.821289 0.40625)"/>
    </g>
   </g>
   <g id="legend_1"/>
  </g>
  <g id="axes_2">
   <g id="patch_27">
    <path d="M 196.47328 167.566421 
L 335.890701 167.566421 
L 335.890701 21.21 
L 196.47328 21.21 
z
" style="fill: #ffffff"/>
   </g>
   <g id="patch_28">
    <path d="M 214.817677 167.566421 
L 244.168713 167.566421 
L 244.168713 28.179353 
L 214.817677 28.179353 
z
" clip-path="url(#p413bb950dc)" style="fill: #808080; opacity: 0.8"/>
   </g>
   <g id="patch_29">
    <path d="M 288.195267 167.566421 
L 317.546303 167.566421 
L 317.546303 167.566421 
L 288.195267 167.566421 
z
" clip-path="url(#p413bb950dc)" style="fill: #808080; opacity: 0.8"/>
   </g>
   <g id="patch_30">
    <path d="M 214.817677 167.566421 
L 244.168713 167.566421 
L 244.168713 167.566421 
L 214.817677 167.566421 
z
" clip-path="url(#p413bb950dc)" style="fill: #f94144; opacity: 0.8"/>
   </g>
   <g id="patch_31">
    <path d="M 288.195267 167.566421 
L 317.546303 167.566421 
L 317.546303 135.59269 
L 288.195267 135.59269 
z
" clip-path="url(#p413bb950dc)" style="fill: #f94144; opacity: 0.8"/>
   </g>
   <g id="patch_32">
    <path d="M 214.817677 167.566421 
L 244.168713 167.566421 
L 244.168713 167.566421 
L 214.817677 167.566421 
z
" clip-path="url(#p413bb950dc)" style="fill: #f3722c; opacity: 0.8"/>
   </g>
   <g id="patch_33">
    <path d="M 288.195267 135.59269 
L 317.546303 135.59269 
L 317.546303 132.202872 
L 288.195267 132.202872 
z
" clip-path="url(#p413bb950dc)" style="fill: #f3722c; opacity: 0.8"/>
   </g>
   <g id="patch_34">
    <path d="M 214.817677 167.566421 
L 244.168713 167.566421 
L 244.168713 167.566421 
L 214.817677 167.566421 
z
" clip-path="url(#p413bb950dc)" style="fill: #f8961e; opacity: 0.8"/>
   </g>
   <g id="patch_35">
    <path d="M 288.195267 132.202872 
L 317.546303 132.202872 
L 317.546303 131.951065 
L 288.195267 131.951065 
z
" clip-path="url(#p413bb950dc)" style="fill: #f8961e; opacity: 0.8"/>
   </g>
   <g id="patch_36">
    <path d="M 214.817677 167.566421 
L 244.168713 167.566421 
L 244.168713 167.566421 
L 214.817677 167.566421 
z
" clip-path="url(#p413bb950dc)" style="fill: #f9c74f; opacity: 0.8"/>
   </g>
   <g id="patch_37">
    <path d="M 288.195267 131.951065 
L 317.546303 131.951065 
L 317.546303 125.599882 
L 288.195267 125.599882 
z
" clip-path="url(#p413bb950dc)" style="fill: #f9c74f; opacity: 0.8"/>
   </g>
   <g id="patch_38">
    <path d="M 214.817677 167.566421 
L 244.168713 167.566421 
L 244.168713 167.566421 
L 214.817677 167.566421 
z
" clip-path="url(#p413bb950dc)" style="fill: #90be6d; opacity: 0.8"/>
   </g>
   <g id="patch_39">
    <path d="M 288.195267 125.599882 
L 317.546303 125.599882 
L 317.546303 121.739343 
L 288.195267 121.739343 
z
" clip-path="url(#p413bb950dc)" style="fill: #90be6d; opacity: 0.8"/>
   </g>
   <g id="patch_40">
    <path d="M 214.817677 167.566421 
L 244.168713 167.566421 
L 244.168713 167.566421 
L 214.817677 167.566421 
z
" clip-path="url(#p413bb950dc)" style="fill: #43aa8b; opacity: 0.8"/>
   </g>
   <g id="patch_41">
    <path d="M 288.195267 121.739343 
L 317.546303 121.739343 
L 317.546303 114.774749 
L 288.195267 114.774749 
z
" clip-path="url(#p413bb950dc)" style="fill: #43aa8b; opacity: 0.8"/>
   </g>
   <g id="patch_42">
    <path d="M 214.817677 167.566421 
L 244.168713 167.566421 
L 244.168713 167.566421 
L 214.817677 167.566421 
z
" clip-path="url(#p413bb950dc)" style="fill: #4d908e; opacity: 0.8"/>
   </g>
   <g id="patch_43">
    <path d="M 288.195267 114.774749 
L 317.546303 114.774749 
L 317.546303 112.264567 
L 288.195267 112.264567 
z
" clip-path="url(#p413bb950dc)" style="fill: #4d908e; opacity: 0.8"/>
   </g>
   <g id="patch_44">
    <path d="M 214.817677 167.566421 
L 244.168713 167.566421 
L 244.168713 167.566421 
L 214.817677 167.566421 
z
" clip-path="url(#p413bb950dc)" style="fill: #577590; opacity: 0.8"/>
   </g>
   <g id="patch_45">
    <path d="M 288.195267 112.264567 
L 317.546303 112.264567 
L 317.546303 111.312137 
L 288.195267 111.312137 
z
" clip-path="url(#p413bb950dc)" style="fill: #577590; opacity: 0.8"/>
   </g>
   <g id="patch_46">
    <path d="M 214.817677 167.566421 
L 244.168713 167.566421 
L 244.168713 167.566421 
L 214.817677 167.566421 
z
" clip-path="url(#p413bb950dc)" style="fill: #277da1; opacity: 0.8"/>
   </g>
   <g id="patch_47">
    <path d="M 288.195267 111.312137 
L 317.546303 111.312137 
L 317.546303 106.351754 
L 288.195267 106.351754 
z
" clip-path="url(#p413bb950dc)" style="fill: #277da1; opacity: 0.8"/>
   </g>
   <g id="matplotlib.axis_3">
    <g id="xtick_3">
     <g id="line2d_9">
      <g>
       <use xlink:href="#mf41679f089" x="229.493195" y="167.566421" style="stroke: #000000; stroke-width: 0.8"/>
      </g>
     </g>
     <g id="text_9">
      <!-- Fossil -->
      <g transform="translate(217.74257 181.008452) scale(0.09 -0.09)">
       <use xlink:href="#ArialMT-46"/>
       <use xlink:href="#ArialMT-6f" x="61.083984"/>
       <use xlink:href="#ArialMT-73" x="116.699219"/>
       <use xlink:href="#ArialMT-73" x="166.699219"/>
       <use xlink:href="#ArialMT-69" x="216.699219"/>
       <use xlink:href="#ArialMT-6c" x="238.916016"/>
      </g>
     </g>
    </g>
    <g id="xtick_4">
     <g id="line2d_10">
      <g>
       <use xlink:href="#mf41679f089" x="302.870785" y="167.566421" style="stroke: #000000; stroke-width: 0.8"/>
      </g>
     </g>
     <g id="text_10">
      <!-- Biogas -->
      <g transform="translate(289.112035 181.008452) scale(0.09 -0.09)">
       <use xlink:href="#ArialMT-42"/>
       <use xlink:href="#ArialMT-69" x="66.699219"/>
       <use xlink:href="#ArialMT-6f" x="88.916016"/>
       <use xlink:href="#ArialMT-67" x="144.53125"/>
       <use xlink:href="#ArialMT-61" x="200.146484"/>
       <use xlink:href="#ArialMT-73" x="255.761719"/>
      </g>
     </g>
    </g>
   </g>
   <g id="matplotlib.axis_4">
    <g id="ytick_6">
     <g id="line2d_11">
      <g>
       <use xlink:href="#mbe59fe08e4" x="196.47328" y="167.566421" style="stroke: #000000; stroke-width: 0.8"/>
      </g>
     </g>
     <g id="text_11">
      <!-- $\mathdefault{0.0}$ -->
      <g transform="translate(176.87328 170.787436) scale(0.09 -0.09)">
       <use xlink:href="#ArialMT-30" transform="translate(0 0.125)"/>
       <use xlink:href="#ArialMT-2e" transform="translate(55.615234 0.125)"/>
       <use xlink:href="#ArialMT-30" transform="translate(83.398438 0.125)"/>
      </g>
     </g>
    </g>
    <g id="ytick_7">
     <g id="line2d_12">
      <g>
       <use xlink:href="#mbe59fe08e4" x="196.47328" y="131.407075" style="stroke: #000000; stroke-width: 0.8"/>
      </g>
     </g>
     <g id="text_12">
      <!-- $\mathdefault{0.5}$ -->
      <g transform="translate(176.87328 134.628091) scale(0.09 -0.09)">
       <use xlink:href="#ArialMT-30" transform="translate(0 0.125)"/>
       <use xlink:href="#ArialMT-2e" transform="translate(55.615234 0.125)"/>
       <use xlink:href="#ArialMT-35" transform="translate(83.398438 0.125)"/>
      </g>
     </g>
    </g>
    <g id="ytick_8">
     <g id="line2d_13">
      <g>
       <use xlink:href="#mbe59fe08e4" x="196.47328" y="95.24773" style="stroke: #000000; stroke-width: 0.8"/>
      </g>
     </g>
     <g id="text_13">
      <!-- $\mathdefault{1.0}$ -->
      <g transform="translate(176.87328 98.468745) scale(0.09 -0.09)">
       <use xlink:href="#ArialMT-31" transform="translate(0 0.125)"/>
       <use xlink:href="#ArialMT-2e" transform="translate(55.615234 0.125)"/>
       <use xlink:href="#ArialMT-30" transform="translate(83.398438 0.125)"/>
      </g>
     </g>
    </g>
    <g id="ytick_9">
     <g id="line2d_14">
      <g>
       <use xlink:href="#mbe59fe08e4" x="196.47328" y="59.088384" style="stroke: #000000; stroke-width: 0.8"/>
      </g>
     </g>
     <g id="text_14">
      <!-- $\mathdefault{1.5}$ -->
      <g transform="translate(176.87328 62.3094) scale(0.09 -0.09)">
       <use xlink:href="#ArialMT-31" transform="translate(0 0.125)"/>
       <use xlink:href="#ArialMT-2e" transform="translate(55.615234 0.125)"/>
       <use xlink:href="#ArialMT-35" transform="translate(83.398438 0.125)"/>
      </g>
     </g>
    </g>
    <g id="ytick_10">
     <g id="line2d_15">
      <g>
       <use xlink:href="#mbe59fe08e4" x="196.47328" y="22.929039" style="stroke: #000000; stroke-width: 0.8"/>
      </g>
     </g>
     <g id="text_15">
      <!-- $\mathdefault{2.0}$ -->
      <g transform="translate(176.87328 26.150055) scale(0.09 -0.09)">
       <defs>
        <path id="ArialMT-32" d="M 3222 541 
L 3222 0 
L 194 0 
Q 188 203 259 391 
Q 375 700 629 1000 
Q 884 1300 1366 1694 
Q 2113 2306 2375 2664 
Q 2638 3022 2638 3341 
Q 2638 3675 2398 3904 
Q 2159 4134 1775 4134 
Q 1369 4134 1125 3890 
Q 881 3647 878 3216 
L 300 3275 
Q 359 3922 746 4261 
Q 1134 4600 1788 4600 
Q 2447 4600 2831 4234 
Q 3216 3869 3216 3328 
Q 3216 3053 3103 2787 
Q 2991 2522 2730 2228 
Q 2469 1934 1863 1422 
Q 1356 997 1212 845 
Q 1069 694 975 541 
L 3222 541 
z
" transform="scale(0.015625)"/>
       </defs>
       <use xlink:href="#ArialMT-32" transform="translate(0 0.125)"/>
       <use xlink:href="#ArialMT-2e" transform="translate(55.615234 0.125)"/>
       <use xlink:href="#ArialMT-30" transform="translate(83.398438 0.125)"/>
      </g>
     </g>
    </g>
   </g>
   <g id="PathCollection_3">
    <g clip-path="url(#p413bb950dc)">
     <use xlink:href="#mff54034113" x="229.493195" y="28.179353" style="fill: #ffffff; stroke: #000000"/>
     <use xlink:href="#mff54034113" x="302.870785" y="106.351754" style="fill: #ffffff; stroke: #000000"/>
    </g>
   </g>
   <g id="PathCollection_4">
    <g clip-path="url(#p413bb950dc)">
     <use xlink:href="#mc0bf0ada62" x="229.493195" y="53.056282" style="fill: #6e00a3; stroke: #ffffff"/>
     <use xlink:href="#mc0bf0ada62" x="302.870785" y="117.15076" style="fill: #6e00a3; stroke: #ffffff"/>
    </g>
   </g>
   <g id="line2d_16">
    <path d="M 266.18199 167.566421 
L 266.18199 21.21 
" clip-path="url(#p413bb950dc)" style="fill: none; stroke-dasharray: 3.7,1.6; stroke-dashoffset: 0; stroke: #808080"/>
   </g>
   <g id="patch_48">
    <path d="M 196.47328 167.566421 
L 196.47328 21.21 
" style="fill: none; stroke: #000000; stroke-width: 0.8; stroke-linejoin: miter; stroke-linecap: square"/>
   </g>
   <g id="patch_49">
    <path d="M 335.890701 167.566421 
L 335.890701 21.21 
" style="fill: none; stroke: #000000; stroke-width: 0.8; stroke-linejoin: miter; stroke-linecap: square"/>
   </g>
   <g id="patch_50">
    <path d="M 196.47328 167.566421 
L 335.890701 167.566421 
" style="fill: none; stroke: #000000; stroke-width: 0.8; stroke-linejoin: miter; stroke-linecap: square"/>
   </g>
   <g id="patch_51">
    <path d="M 196.47328 21.21 
L 335.890701 21.21 
" style="fill: none; stroke: #000000; stroke-width: 0.8; stroke-linejoin: miter; stroke-linecap: square"/>
   </g>
   <g id="text_16">
    <!-- Ecosystem quality (species.yr kg$^\mathdefault{-1}$) -->
    <g transform="translate(195.62199 15.21) scale(0.09 -0.09)">
     <defs>
      <path id="ArialMT-45" d="M 506 0 
L 506 4581 
L 3819 4581 
L 3819 4041 
L 1113 4041 
L 1113 2638 
L 3647 2638 
L 3647 2100 
L 1113 2100 
L 1113 541 
L 3925 541 
L 3925 0 
L 506 0 
z
" transform="scale(0.015625)"/>
      <path id="ArialMT-63" d="M 2588 1216 
L 3141 1144 
Q 3050 572 2676 248 
Q 2303 -75 1759 -75 
Q 1078 -75 664 370 
Q 250 816 250 1647 
Q 250 2184 428 2587 
Q 606 2991 970 3192 
Q 1334 3394 1763 3394 
Q 2303 3394 2647 3120 
Q 2991 2847 3088 2344 
L 2541 2259 
Q 2463 2594 2264 2762 
Q 2066 2931 1784 2931 
Q 1359 2931 1093 2626 
Q 828 2322 828 1663 
Q 828 994 1084 691 
Q 1341 388 1753 388 
Q 2084 388 2306 591 
Q 2528 794 2588 1216 
z
" transform="scale(0.015625)"/>
      <path id="ArialMT-79" d="M 397 -1278 
L 334 -750 
Q 519 -800 656 -800 
Q 844 -800 956 -737 
Q 1069 -675 1141 -563 
Q 1194 -478 1313 -144 
Q 1328 -97 1363 -6 
L 103 3319 
L 709 3319 
L 1400 1397 
Q 1534 1031 1641 628 
Q 1738 1016 1872 1384 
L 2581 3319 
L 3144 3319 
L 1881 -56 
Q 1678 -603 1566 -809 
Q 1416 -1088 1222 -1217 
Q 1028 -1347 759 -1347 
Q 597 -1347 397 -1278 
z
" transform="scale(0.015625)"/>
      <path id="ArialMT-71" d="M 2538 -1272 
L 2538 353 
Q 2406 169 2170 47 
Q 1934 -75 1669 -75 
Q 1078 -75 651 397 
Q 225 869 225 1691 
Q 225 2191 398 2587 
Q 572 2984 901 3189 
Q 1231 3394 1625 3394 
Q 2241 3394 2594 2875 
L 2594 3319 
L 3100 3319 
L 3100 -1272 
L 2538 -1272 
z
M 803 1669 
Q 803 1028 1072 708 
Q 1341 388 1716 388 
Q 2075 388 2334 692 
Q 2594 997 2594 1619 
Q 2594 2281 2320 2615 
Q 2047 2950 1678 2950 
Q 1313 2950 1058 2639 
Q 803 2328 803 1669 
z
" transform="scale(0.015625)"/>
      <path id="ArialMT-70" d="M 422 -1272 
L 422 3319 
L 934 3319 
L 934 2888 
Q 1116 3141 1344 3267 
Q 1572 3394 1897 3394 
Q 2322 3394 2647 3175 
Q 2972 2956 3137 2557 
Q 3303 2159 3303 1684 
Q 3303 1175 3120 767 
Q 2938 359 2589 142 
Q 2241 -75 1856 -75 
Q 1575 -75 1351 44 
Q 1128 163 984 344 
L 984 -1272 
L 422 -1272 
z
M 931 1641 
Q 931 1000 1190 694 
Q 1450 388 1819 388 
Q 2194 388 2461 705 
Q 2728 1022 2728 1688 
Q 2728 2322 2467 2637 
Q 2206 2953 1844 2953 
Q 1484 2953 1207 2617 
Q 931 2281 931 1641 
z
" transform="scale(0.015625)"/>
      <path id="ArialMT-72" d="M 416 0 
L 416 3319 
L 922 3319 
L 922 2816 
Q 1116 3169 1280 3281 
Q 1444 3394 1641 3394 
Q 1925 3394 2219 3213 
L 2025 2691 
Q 1819 2813 1613 2813 
Q 1428 2813 1281 2702 
Q 1134 2591 1072 2394 
Q 978 2094 978 1738 
L 978 0 
L 416 0 
z
" transform="scale(0.015625)"/>
     </defs>
     <use xlink:href="#ArialMT-45" transform="translate(0 0.40625)"/>
     <use xlink:href="#ArialMT-63" transform="translate(66.699219 0.40625)"/>
     <use xlink:href="#ArialMT-6f" transform="translate(116.699219 0.40625)"/>
     <use xlink:href="#ArialMT-73" transform="translate(172.314453 0.40625)"/>
     <use xlink:href="#ArialMT-79" transform="translate(222.314453 0.40625)"/>
     <use xlink:href="#ArialMT-73" transform="translate(272.314453 0.40625)"/>
     <use xlink:href="#ArialMT-74" transform="translate(322.314453 0.40625)"/>
     <use xlink:href="#ArialMT-65" transform="translate(350.097656 0.40625)"/>
     <use xlink:href="#ArialMT-6d" transform="translate(405.712891 0.40625)"/>
     <use xlink:href="#ArialMT-20" transform="translate(489.013672 0.40625)"/>
     <use xlink:href="#ArialMT-71" transform="translate(516.796875 0.40625)"/>
     <use xlink:href="#ArialMT-75" transform="translate(572.412109 0.40625)"/>
     <use xlink:href="#ArialMT-61" transform="translate(628.027344 0.40625)"/>
     <use xlink:href="#ArialMT-6c" transform="translate(683.642578 0.40625)"/>
     <use xlink:href="#ArialMT-69" transform="translate(705.859375 0.40625)"/>
     <use xlink:href="#ArialMT-74" transform="translate(728.076172 0.40625)"/>
     <use xlink:href="#ArialMT-79" transform="translate(755.859375 0.40625)"/>
     <use xlink:href="#ArialMT-20" transform="translate(805.859375 0.40625)"/>
     <use xlink:href="#ArialMT-28" transform="translate(833.642578 0.40625)"/>
     <use xlink:href="#ArialMT-73" transform="translate(866.943359 0.40625)"/>
     <use xlink:href="#ArialMT-70" transform="translate(916.943359 0.40625)"/>
     <use xlink:href="#ArialMT-65" transform="translate(972.558594 0.40625)"/>
     <use xlink:href="#ArialMT-63" transform="translate(1028.173828 0.40625)"/>
     <use xlink:href="#ArialMT-69" transform="translate(1078.173828 0.40625)"/>
     <use xlink:href="#ArialMT-65" transform="translate(1100.390625 0.40625)"/>
     <use xlink:href="#ArialMT-73" transform="translate(1156.005859 0.40625)"/>
     <use xlink:href="#ArialMT-2e" transform="translate(1206.005859 0.40625)"/>
     <use xlink:href="#ArialMT-79" transform="translate(1233.789062 0.40625)"/>
     <use xlink:href="#ArialMT-72" transform="translate(1283.789062 0.40625)"/>
     <use xlink:href="#ArialMT-20" transform="translate(1317.089844 0.40625)"/>
     <use xlink:href="#ArialMT-6b" transform="translate(1344.873047 0.40625)"/>
     <use xlink:href="#ArialMT-67" transform="translate(1394.873047 0.40625)"/>
     <use xlink:href="#ArialMT-2212" transform="translate(1451.445312 38.6875) scale(0.7)"/>
     <use xlink:href="#ArialMT-31" transform="translate(1492.324219 38.6875) scale(0.7)"/>
     <use xlink:href="#ArialMT-29" transform="translate(1533.989258 0.40625)"/>
    </g>
   </g>
   <g id="legend_2"/>
  </g>
  <g id="axes_3">
   <g id="patch_52">
    <path d="M 366.14656 167.566421 
L 505.563981 167.566421 
L 505.563981 21.21 
L 366.14656 21.21 
z
" style="fill: #ffffff"/>
   </g>
   <g id="patch_53">
    <path d="M 384.490957 167.566421 
L 413.841993 167.566421 
L 413.841993 28.179353 
L 384.490957 28.179353 
z
" clip-path="url(#pce3ab5a836)" style="fill: #808080; opacity: 0.8"/>
   </g>
   <g id="patch_54">
    <path d="M 457.868547 167.566421 
L 487.219583 167.566421 
L 487.219583 167.566421 
L 457.868547 167.566421 
z
" clip-path="url(#pce3ab5a836)" style="fill: #808080; opacity: 0.8"/>
   </g>
   <g id="patch_55">
    <path d="M 384.490957 167.566421 
L 413.841993 167.566421 
L 413.841993 167.566421 
L 384.490957 167.566421 
z
" clip-path="url(#pce3ab5a836)" style="fill: #f94144; opacity: 0.8"/>
   </g>
   <g id="patch_56">
    <path d="M 457.868547 167.566421 
L 487.219583 167.566421 
L 487.219583 111.679395 
L 457.868547 111.679395 
z
" clip-path="url(#pce3ab5a836)" style="fill: #f94144; opacity: 0.8"/>
   </g>
   <g id="patch_57">
    <path d="M 384.490957 167.566421 
L 413.841993 167.566421 
L 413.841993 167.566421 
L 384.490957 167.566421 
z
" clip-path="url(#pce3ab5a836)" style="fill: #f3722c; opacity: 0.8"/>
   </g>
   <g id="patch_58">
    <path d="M 457.868547 111.679395 
L 487.219583 111.679395 
L 487.219583 110.417102 
L 457.868547 110.417102 
z
" clip-path="url(#pce3ab5a836)" style="fill: #f3722c; opacity: 0.8"/>
   </g>
   <g id="patch_59">
    <path d="M 384.490957 167.566421 
L 413.841993 167.566421 
L 413.841993 167.566421 
L 384.490957 167.566421 
z
" clip-path="url(#pce3ab5a836)" style="fill: #f8961e; opacity: 0.8"/>
   </g>
   <g id="patch_60">
    <path d="M 457.868547 110.417102 
L 487.219583 110.417102 
L 487.219583 110.324773 
L 457.868547 110.324773 
z
" clip-path="url(#pce3ab5a836)" style="fill: #f8961e; opacity: 0.8"/>
   </g>
   <g id="patch_61">
    <path d="M 384.490957 167.566421 
L 413.841993 167.566421 
L 413.841993 167.566421 
L 384.490957 167.566421 
z
" clip-path="url(#pce3ab5a836)" style="fill: #f9c74f; opacity: 0.8"/>
   </g>
   <g id="patch_62">
    <path d="M 457.868547 110.324773 
L 487.219583 110.324773 
L 487.219583 109.283916 
L 457.868547 109.283916 
z
" clip-path="url(#pce3ab5a836)" style="fill: #f9c74f; opacity: 0.8"/>
   </g>
   <g id="patch_63">
    <path d="M 384.490957 167.566421 
L 413.841993 167.566421 
L 413.841993 167.566421 
L 384.490957 167.566421 
z
" clip-path="url(#pce3ab5a836)" style="fill: #90be6d; opacity: 0.8"/>
   </g>
   <g id="patch_64">
    <path d="M 457.868547 109.283916 
L 487.219583 109.283916 
L 487.219583 108.350773 
L 457.868547 108.350773 
z
" clip-path="url(#pce3ab5a836)" style="fill: #90be6d; opacity: 0.8"/>
   </g>
   <g id="patch_65">
    <path d="M 384.490957 167.566421 
L 413.841993 167.566421 
L 413.841993 167.566421 
L 384.490957 167.566421 
z
" clip-path="url(#pce3ab5a836)" style="fill: #43aa8b; opacity: 0.8"/>
   </g>
   <g id="patch_66">
    <path d="M 457.868547 108.350773 
L 487.219583 108.350773 
L 487.219583 100.664885 
L 457.868547 100.664885 
z
" clip-path="url(#pce3ab5a836)" style="fill: #43aa8b; opacity: 0.8"/>
   </g>
   <g id="patch_67">
    <path d="M 384.490957 167.566421 
L 413.841993 167.566421 
L 413.841993 167.566421 
L 384.490957 167.566421 
z
" clip-path="url(#pce3ab5a836)" style="fill: #4d908e; opacity: 0.8"/>
   </g>
   <g id="patch_68">
    <path d="M 457.868547 100.664885 
L 487.219583 100.664885 
L 487.219583 100.653695 
L 457.868547 100.653695 
z
" clip-path="url(#pce3ab5a836)" style="fill: #4d908e; opacity: 0.8"/>
   </g>
   <g id="patch_69">
    <path d="M 384.490957 167.566421 
L 413.841993 167.566421 
L 413.841993 167.566421 
L 384.490957 167.566421 
z
" clip-path="url(#pce3ab5a836)" style="fill: #577590; opacity: 0.8"/>
   </g>
   <g id="patch_70">
    <path d="M 457.868547 100.653695 
L 487.219583 100.653695 
L 487.219583 99.835726 
L 457.868547 99.835726 
z
" clip-path="url(#pce3ab5a836)" style="fill: #577590; opacity: 0.8"/>
   </g>
   <g id="patch_71">
    <path d="M 384.490957 167.566421 
L 413.841993 167.566421 
L 413.841993 167.566421 
L 384.490957 167.566421 
z
" clip-path="url(#pce3ab5a836)" style="fill: #277da1; opacity: 0.8"/>
   </g>
   <g id="patch_72">
    <path d="M 457.868547 167.566421 
L 487.219583 167.566421 
L 487.219583 167.566421 
L 457.868547 167.566421 
z
" clip-path="url(#pce3ab5a836)" style="fill: #277da1; opacity: 0.8"/>
   </g>
   <g id="matplotlib.axis_5">
    <g id="xtick_5">
     <g id="line2d_17">
      <g>
       <use xlink:href="#mf41679f089" x="399.166475" y="167.566421" style="stroke: #000000; stroke-width: 0.8"/>
      </g>
     </g>
     <g id="text_17">
      <!-- Fossil -->
      <g transform="translate(387.41585 181.008452) scale(0.09 -0.09)">
       <use xlink:href="#ArialMT-46"/>
       <use xlink:href="#ArialMT-6f" x="61.083984"/>
       <use xlink:href="#ArialMT-73" x="116.699219"/>
       <use xlink:href="#ArialMT-73" x="166.699219"/>
       <use xlink:href="#ArialMT-69" x="216.699219"/>
       <use xlink:href="#ArialMT-6c" x="238.916016"/>
      </g>
     </g>
    </g>
    <g id="xtick_6">
     <g id="line2d_18">
      <g>
       <use xlink:href="#mf41679f089" x="472.544065" y="167.566421" style="stroke: #000000; stroke-width: 0.8"/>
      </g>
     </g>
     <g id="text_18">
      <!-- Biogas -->
      <g transform="translate(458.785315 181.008452) scale(0.09 -0.09)">
       <use xlink:href="#ArialMT-42"/>
       <use xlink:href="#ArialMT-69" x="66.699219"/>
       <use xlink:href="#ArialMT-6f" x="88.916016"/>
       <use xlink:href="#ArialMT-67" x="144.53125"/>
       <use xlink:href="#ArialMT-61" x="200.146484"/>
       <use xlink:href="#ArialMT-73" x="255.761719"/>
      </g>
     </g>
    </g>
   </g>
   <g id="matplotlib.axis_6">
    <g id="ytick_11">
     <g id="line2d_19">
      <g>
       <use xlink:href="#mbe59fe08e4" x="366.14656" y="167.566421" style="stroke: #000000; stroke-width: 0.8"/>
      </g>
     </g>
     <g id="text_19">
      <!-- $\mathdefault{0.0}$ -->
      <g transform="translate(346.54656 170.787436) scale(0.09 -0.09)">
       <use xlink:href="#ArialMT-30" transform="translate(0 0.125)"/>
       <use xlink:href="#ArialMT-2e" transform="translate(55.615234 0.125)"/>
       <use xlink:href="#ArialMT-30" transform="translate(83.398438 0.125)"/>
      </g>
     </g>
    </g>
    <g id="ytick_12">
     <g id="line2d_20">
      <g>
       <use xlink:href="#mbe59fe08e4" x="366.14656" y="129.713495" style="stroke: #000000; stroke-width: 0.8"/>
      </g>
     </g>
     <g id="text_20">
      <!-- $\mathdefault{0.2}$ -->
      <g transform="translate(346.54656 132.934511) scale(0.09 -0.09)">
       <use xlink:href="#ArialMT-30" transform="translate(0 0.125)"/>
       <use xlink:href="#ArialMT-2e" transform="translate(55.615234 0.125)"/>
       <use xlink:href="#ArialMT-32" transform="translate(83.398438 0.125)"/>
      </g>
     </g>
    </g>
    <g id="ytick_13">
     <g id="line2d_21">
      <g>
       <use xlink:href="#mbe59fe08e4" x="366.14656" y="91.86057" style="stroke: #000000; stroke-width: 0.8"/>
      </g>
     </g>
     <g id="text_21">
      <!-- $\mathdefault{0.4}$ -->
      <g transform="translate(346.54656 95.081585) scale(0.09 -0.09)">
       <use xlink:href="#ArialMT-30" transform="translate(0 0.125)"/>
       <use xlink:href="#ArialMT-2e" transform="translate(55.615234 0.125)"/>
       <use xlink:href="#ArialMT-34" transform="translate(83.398438 0.125)"/>
      </g>
     </g>
    </g>
    <g id="ytick_14">
     <g id="line2d_22">
      <g>
       <use xlink:href="#mbe59fe08e4" x="366.14656" y="54.007644" style="stroke: #000000; stroke-width: 0.8"/>
      </g>
     </g>
     <g id="text_22">
      <!-- $\mathdefault{0.6}$ -->
      <g transform="translate(346.54656 57.22866) scale(0.09 -0.09)">
       <use xlink:href="#ArialMT-30" transform="translate(0 0.125)"/>
       <use xlink:href="#ArialMT-2e" transform="translate(55.615234 0.125)"/>
       <use xlink:href="#ArialMT-36" transform="translate(83.398438 0.125)"/>
      </g>
     </g>
    </g>
   </g>
   <g id="PathCollection_5">
    <g clip-path="url(#pce3ab5a836)">
     <use xlink:href="#mff54034113" x="399.166475" y="28.179353" style="fill: #ffffff; stroke: #000000"/>
     <use xlink:href="#mff54034113" x="472.544065" y="99.835726" style="fill: #ffffff; stroke: #000000"/>
    </g>
   </g>
   <g id="PathCollection_6">
    <g clip-path="url(#pce3ab5a836)">
     <use xlink:href="#mc0bf0ada62" x="399.166475" y="30.926763" style="fill: #6e00a3; stroke: #ffffff"/>
     <use xlink:href="#mc0bf0ada62" x="472.544065" y="101.338281" style="fill: #6e00a3; stroke: #ffffff"/>
    </g>
   </g>
   <g id="line2d_23">
    <path d="M 435.85527 167.566421 
L 435.85527 21.21 
" clip-path="url(#pce3ab5a836)" style="fill: none; stroke-dasharray: 3.7,1.6; stroke-dashoffset: 0; stroke: #808080"/>
   </g>
   <g id="patch_73">
    <path d="M 366.14656 167.566421 
L 366.14656 21.21 
" style="fill: none; stroke: #000000; stroke-width: 0.8; stroke-linejoin: miter; stroke-linecap: square"/>
   </g>
   <g id="patch_74">
    <path d="M 505.563981 167.566421 
L 505.563981 21.21 
" style="fill: none; stroke: #000000; stroke-width: 0.8; stroke-linejoin: miter; stroke-linecap: square"/>
   </g>
   <g id="patch_75">
    <path d="M 366.14656 167.566421 
L 505.563981 167.566421 
" style="fill: none; stroke: #000000; stroke-width: 0.8; stroke-linejoin: miter; stroke-linecap: square"/>
   </g>
   <g id="patch_76">
    <path d="M 366.14656 21.21 
L 505.563981 21.21 
" style="fill: none; stroke: #000000; stroke-width: 0.8; stroke-linejoin: miter; stroke-linecap: square"/>
   </g>
   <g id="text_23">
    <!-- Natural resources (USD 2013 kg$^\mathdefault{-1}$) -->
    <g transform="translate(365.56527 15.21) scale(0.09 -0.09)">
     <defs>
      <path id="ArialMT-4e" d="M 488 0 
L 488 4581 
L 1109 4581 
L 3516 984 
L 3516 4581 
L 4097 4581 
L 4097 0 
L 3475 0 
L 1069 3600 
L 1069 0 
L 488 0 
z
" transform="scale(0.015625)"/>
      <path id="ArialMT-55" d="M 3500 4581 
L 4106 4581 
L 4106 1934 
Q 4106 1244 3950 837 
Q 3794 431 3386 176 
Q 2978 -78 2316 -78 
Q 1672 -78 1262 144 
Q 853 366 678 786 
Q 503 1206 503 1934 
L 503 4581 
L 1109 4581 
L 1109 1938 
Q 1109 1341 1220 1058 
Q 1331 775 1601 622 
Q 1872 469 2263 469 
Q 2931 469 3215 772 
Q 3500 1075 3500 1938 
L 3500 4581 
z
" transform="scale(0.015625)"/>
      <path id="ArialMT-53" d="M 288 1472 
L 859 1522 
Q 900 1178 1048 958 
Q 1197 738 1509 602 
Q 1822 466 2213 466 
Q 2559 466 2825 569 
Q 3091 672 3220 851 
Q 3350 1031 3350 1244 
Q 3350 1459 3225 1620 
Q 3100 1781 2813 1891 
Q 2628 1963 1997 2114 
Q 1366 2266 1113 2400 
Q 784 2572 623 2826 
Q 463 3081 463 3397 
Q 463 3744 659 4045 
Q 856 4347 1234 4503 
Q 1613 4659 2075 4659 
Q 2584 4659 2973 4495 
Q 3363 4331 3572 4012 
Q 3781 3694 3797 3291 
L 3216 3247 
Q 3169 3681 2898 3903 
Q 2628 4125 2100 4125 
Q 1550 4125 1298 3923 
Q 1047 3722 1047 3438 
Q 1047 3191 1225 3031 
Q 1400 2872 2139 2705 
Q 2878 2538 3153 2413 
Q 3553 2228 3743 1945 
Q 3934 1663 3934 1294 
Q 3934 928 3725 604 
Q 3516 281 3123 101 
Q 2731 -78 2241 -78 
Q 1619 -78 1198 103 
Q 778 284 539 648 
Q 300 1013 288 1472 
z
" transform="scale(0.015625)"/>
     </defs>
     <use xlink:href="#ArialMT-4e" transform="translate(0 0.40625)"/>
     <use xlink:href="#ArialMT-61" transform="translate(72.216797 0.40625)"/>
     <use xlink:href="#ArialMT-74" transform="translate(127.832031 0.40625)"/>
     <use xlink:href="#ArialMT-75" transform="translate(155.615234 0.40625)"/>
     <use xlink:href="#ArialMT-72" transform="translate(211.230469 0.40625)"/>
     <use xlink:href="#ArialMT-61" transform="translate(244.53125 0.40625)"/>
     <use xlink:href="#ArialMT-6c" transform="translate(300.146484 0.40625)"/>
     <use xlink:href="#ArialMT-20" transform="translate(322.363281 0.40625)"/>
     <use xlink:href="#ArialMT-72" transform="translate(350.146484 0.40625)"/>
     <use xlink:href="#ArialMT-65" transform="translate(383.447266 0.40625)"/>
     <use xlink:href="#ArialMT-73" transform="translate(439.0625 0.40625)"/>
     <use xlink:href="#ArialMT-6f" transform="translate(489.0625 0.40625)"/>
     <use xlink:href="#ArialMT-75" transform="translate(544.677734 0.40625)"/>
     <use xlink:href="#ArialMT-72" transform="translate(600.292969 0.40625)"/>
     <use xlink:href="#ArialMT-63" transform="translate(633.59375 0.40625)"/>
     <use xlink:href="#ArialMT-65" transform="translate(683.59375 0.40625)"/>
     <use xlink:href="#ArialMT-73" transform="translate(739.208984 0.40625)"/>
     <use xlink:href="#ArialMT-20" transform="translate(789.208984 0.40625)"/>
     <use xlink:href="#ArialMT-28" transform="translate(816.992188 0.40625)"/>
     <use xlink:href="#ArialMT-55" transform="translate(850.292969 0.40625)"/>
     <use xlink:href="#ArialMT-53" transform="translate(922.509766 0.40625)"/>
     <use xlink:href="#ArialMT-44" transform="translate(989.208984 0.40625)"/>
     <use xlink:href="#ArialMT-20" transform="translate(1061.425781 0.40625)"/>
     <use xlink:href="#ArialMT-32" transform="translate(1089.208984 0.40625)"/>
     <use xlink:href="#ArialMT-30" transform="translate(1144.824219 0.40625)"/>
     <use xlink:href="#ArialMT-31" transform="translate(1200.439453 0.40625)"/>
     <use xlink:href="#ArialMT-33" transform="translate(1256.054688 0.40625)"/>
     <use xlink:href="#ArialMT-20" transform="translate(1311.669922 0.40625)"/>
     <use xlink:href="#ArialMT-6b" transform="translate(1339.453125 0.40625)"/>
     <use xlink:href="#ArialMT-67" transform="translate(1389.453125 0.40625)"/>
     <use xlink:href="#ArialMT-2212" transform="translate(1446.025391 38.6875) scale(0.7)"/>
     <use xlink:href="#ArialMT-31" transform="translate(1486.904297 38.6875) scale(0.7)"/>
     <use xlink:href="#ArialMT-29" transform="translate(1528.569336 0.40625)"/>
    </g>
   </g>
   <g id="legend_3"/>
  </g>
  <g id="legend_4">
   <g id="line2d_24">
    <path d="M 19.917186 212.83003 
L 28.917186 212.83003 
L 37.917186 212.83003 
" style="fill: none"/>
    <defs>
     <path id="mbaf5acdd06" d="M 0 5 
C 1.326016 5 2.597899 4.473168 3.535534 3.535534 
C 4.473168 2.597899 5 1.326016 5 0 
C 5 -1.326016 4.473168 -2.597899 3.535534 -3.535534 
C 2.597899 -4.473168 1.326016 -5 0 -5 
C -1.326016 -5 -2.597899 -4.473168 -3.535534 -3.535534 
C -4.473168 -2.597899 -5 -1.326016 -5 0 
C -5 1.326016 -4.473168 2.597899 -3.535534 3.535534 
C -2.597899 4.473168 -1.326016 5 0 5 
z
" style="stroke: #ffffff; stroke-opacity: 0.8"/>
    </defs>
    <g>
     <use xlink:href="#mbaf5acdd06" x="28.917186" y="212.83003" style="fill: #808080; fill-opacity: 0.8; stroke: #ffffff; stroke-opacity: 0.8"/>
    </g>
   </g>
   <g id="text_24">
    <!-- Fossil -->
    <g transform="translate(38.817186 215.98003) scale(0.09 -0.09)">
     <use xlink:href="#ArialMT-46"/>
     <use xlink:href="#ArialMT-6f" x="61.083984"/>
     <use xlink:href="#ArialMT-73" x="116.699219"/>
     <use xlink:href="#ArialMT-73" x="166.699219"/>
     <use xlink:href="#ArialMT-69" x="216.699219"/>
     <use xlink:href="#ArialMT-6c" x="238.916016"/>
    </g>
   </g>
   <g id="line2d_25">
    <path d="M 19.917186 225.560811 
L 28.917186 225.560811 
L 37.917186 225.560811 
" style="fill: none"/>
    <defs>
     <path id="m27e8e8dec0" d="M 0 5 
C 1.326016 5 2.597899 4.473168 3.535534 3.535534 
C 4.473168 2.597899 5 1.326016 5 0 
C 5 -1.326016 4.473168 -2.597899 3.535534 -3.535534 
C 2.597899 -4.473168 1.326016 -5 0 -5 
C -1.326016 -5 -2.597899 -4.473168 -3.535534 -3.535534 
C -4.473168 -2.597899 -5 -1.326016 -5 0 
C -5 1.326016 -4.473168 2.597899 -3.535534 3.535534 
C -2.597899 4.473168 -1.326016 5 0 5 
z
" style="stroke: #ffffff; stroke-opacity: 0.8"/>
    </defs>
    <g>
     <use xlink:href="#m27e8e8dec0" x="28.917186" y="225.560811" style="fill: #f94144; fill-opacity: 0.8; stroke: #ffffff; stroke-opacity: 0.8"/>
    </g>
   </g>
   <g id="text_25">
    <!-- Ethylene -->
    <g transform="translate(38.817186 228.710811) scale(0.09 -0.09)">
     <use xlink:href="#ArialMT-45"/>
     <use xlink:href="#ArialMT-74" x="66.699219"/>
     <use xlink:href="#ArialMT-68" x="94.482422"/>
     <use xlink:href="#ArialMT-79" x="150.097656"/>
     <use xlink:href="#ArialMT-6c" x="200.097656"/>
     <use xlink:href="#ArialMT-65" x="222.314453"/>
     <use xlink:href="#ArialMT-6e" x="277.929688"/>
     <use xlink:href="#ArialMT-65" x="333.544922"/>
    </g>
   </g>
   <g id="line2d_26">
    <path d="M 91.839842 212.83003 
L 100.839842 212.83003 
L 109.839842 212.83003 
" style="fill: none"/>
    <defs>
     <path id="m5ae1f6d1ac" d="M 0 5 
C 1.326016 5 2.597899 4.473168 3.535534 3.535534 
C 4.473168 2.597899 5 1.326016 5 0 
C 5 -1.326016 4.473168 -2.597899 3.535534 -3.535534 
C 2.597899 -4.473168 1.326016 -5 0 -5 
C -1.326016 -5 -2.597899 -4.473168 -3.535534 -3.535534 
C -4.473168 -2.597899 -5 -1.326016 -5 0 
C -5 1.326016 -4.473168 2.597899 -3.535534 3.535534 
C -2.597899 4.473168 -1.326016 5 0 5 
z
" style="stroke: #ffffff; stroke-opacity: 0.8"/>
    </defs>
    <g>
     <use xlink:href="#m5ae1f6d1ac" x="100.839842" y="212.83003" style="fill: #f3722c; fill-opacity: 0.8; stroke: #ffffff; stroke-opacity: 0.8"/>
    </g>
   </g>
   <g id="text_26">
    <!-- Hydrogen -->
    <g transform="translate(110.739842 215.98003) scale(0.09 -0.09)">
     <defs>
      <path id="ArialMT-64" d="M 2575 0 
L 2575 419 
Q 2259 -75 1647 -75 
Q 1250 -75 917 144 
Q 584 363 401 755 
Q 219 1147 219 1656 
Q 219 2153 384 2558 
Q 550 2963 881 3178 
Q 1213 3394 1622 3394 
Q 1922 3394 2156 3267 
Q 2391 3141 2538 2938 
L 2538 4581 
L 3097 4581 
L 3097 0 
L 2575 0 
z
M 797 1656 
Q 797 1019 1065 703 
Q 1334 388 1700 388 
Q 2069 388 2326 689 
Q 2584 991 2584 1609 
Q 2584 2291 2321 2609 
Q 2059 2928 1675 2928 
Q 1300 2928 1048 2622 
Q 797 2316 797 1656 
z
" transform="scale(0.015625)"/>
     </defs>
     <use xlink:href="#ArialMT-48"/>
     <use xlink:href="#ArialMT-79" x="72.216797"/>
     <use xlink:href="#ArialMT-64" x="122.216797"/>
     <use xlink:href="#ArialMT-72" x="177.832031"/>
     <use xlink:href="#ArialMT-6f" x="211.132812"/>
     <use xlink:href="#ArialMT-67" x="266.748047"/>
     <use xlink:href="#ArialMT-65" x="322.363281"/>
     <use xlink:href="#ArialMT-6e" x="377.978516"/>
    </g>
   </g>
   <g id="line2d_27">
    <path d="M 91.839842 225.66628 
L 100.839842 225.66628 
L 109.839842 225.66628 
" style="fill: none"/>
    <defs>
     <path id="mec12962449" d="M 0 5 
C 1.326016 5 2.597899 4.473168 3.535534 3.535534 
C 4.473168 2.597899 5 1.326016 5 0 
C 5 -1.326016 4.473168 -2.597899 3.535534 -3.535534 
C 2.597899 -4.473168 1.326016 -5 0 -5 
C -1.326016 -5 -2.597899 -4.473168 -3.535534 -3.535534 
C -4.473168 -2.597899 -5 -1.326016 -5 0 
C -5 1.326016 -4.473168 2.597899 -3.535534 3.535534 
C -2.597899 4.473168 -1.326016 5 0 5 
z
" style="stroke: #ffffff; stroke-opacity: 0.8"/>
    </defs>
    <g>
     <use xlink:href="#mec12962449" x="100.839842" y="225.66628" style="fill: #f8961e; fill-opacity: 0.8; stroke: #ffffff; stroke-opacity: 0.8"/>
    </g>
   </g>
   <g id="text_27">
    <!-- DAC CO$_\mathdefault{2}$ -->
    <g transform="translate(110.739842 228.81628) scale(0.09 -0.09)">
     <defs>
      <path id="ArialMT-43" d="M 3763 1606 
L 4369 1453 
Q 4178 706 3683 314 
Q 3188 -78 2472 -78 
Q 1731 -78 1267 223 
Q 803 525 561 1097 
Q 319 1669 319 2325 
Q 319 3041 592 3573 
Q 866 4106 1370 4382 
Q 1875 4659 2481 4659 
Q 3169 4659 3637 4309 
Q 4106 3959 4291 3325 
L 3694 3184 
Q 3534 3684 3231 3912 
Q 2928 4141 2469 4141 
Q 1941 4141 1586 3887 
Q 1231 3634 1087 3207 
Q 944 2781 944 2328 
Q 944 1744 1114 1308 
Q 1284 872 1643 656 
Q 2003 441 2422 441 
Q 2931 441 3284 734 
Q 3638 1028 3763 1606 
z
" transform="scale(0.015625)"/>
      <path id="ArialMT-4f" d="M 309 2231 
Q 309 3372 921 4017 
Q 1534 4663 2503 4663 
Q 3138 4663 3647 4359 
Q 4156 4056 4423 3514 
Q 4691 2972 4691 2284 
Q 4691 1588 4409 1038 
Q 4128 488 3612 205 
Q 3097 -78 2500 -78 
Q 1853 -78 1343 234 
Q 834 547 571 1087 
Q 309 1628 309 2231 
z
M 934 2222 
Q 934 1394 1379 917 
Q 1825 441 2497 441 
Q 3181 441 3623 922 
Q 4066 1403 4066 2288 
Q 4066 2847 3877 3264 
Q 3688 3681 3323 3911 
Q 2959 4141 2506 4141 
Q 1863 4141 1398 3698 
Q 934 3256 934 2222 
z
" transform="scale(0.015625)"/>
     </defs>
     <use xlink:href="#ArialMT-44" transform="translate(0 0.140625)"/>
     <use xlink:href="#ArialMT-41" transform="translate(72.216797 0.140625)"/>
     <use xlink:href="#ArialMT-43" transform="translate(138.916016 0.140625)"/>
     <use xlink:href="#ArialMT-20" transform="translate(211.132812 0.140625)"/>
     <use xlink:href="#ArialMT-43" transform="translate(238.916016 0.140625)"/>
     <use xlink:href="#ArialMT-4f" transform="translate(311.132812 0.140625)"/>
     <use xlink:href="#ArialMT-32" transform="translate(389.873047 -16.265625) scale(0.7)"/>
    </g>
   </g>
   <g id="line2d_28">
    <path d="M 167.760467 212.83003 
L 176.760467 212.83003 
L 185.760467 212.83003 
" style="fill: none"/>
    <defs>
     <path id="m7710762e80" d="M 0 5 
C 1.326016 5 2.597899 4.473168 3.535534 3.535534 
C 4.473168 2.597899 5 1.326016 5 0 
C 5 -1.326016 4.473168 -2.597899 3.535534 -3.535534 
C 2.597899 -4.473168 1.326016 -5 0 -5 
C -1.326016 -5 -2.597899 -4.473168 -3.535534 -3.535534 
C -4.473168 -2.597899 -5 -1.326016 -5 0 
C -5 1.326016 -4.473168 2.597899 -3.535534 3.535534 
C -2.597899 4.473168 -1.326016 5 0 5 
z
" style="stroke: #ffffff; stroke-opacity: 0.8"/>
    </defs>
    <g>
     <use xlink:href="#m7710762e80" x="176.760467" y="212.83003" style="fill: #f9c74f; fill-opacity: 0.8; stroke: #ffffff; stroke-opacity: 0.8"/>
    </g>
   </g>
   <g id="text_28">
    <!-- Biogas -->
    <g transform="translate(186.660467 215.98003) scale(0.09 -0.09)">
     <use xlink:href="#ArialMT-42"/>
     <use xlink:href="#ArialMT-69" x="66.699219"/>
     <use xlink:href="#ArialMT-6f" x="88.916016"/>
     <use xlink:href="#ArialMT-67" x="144.53125"/>
     <use xlink:href="#ArialMT-61" x="200.146484"/>
     <use xlink:href="#ArialMT-73" x="255.761719"/>
    </g>
   </g>
   <g id="line2d_29">
    <path d="M 167.760467 225.66628 
L 176.760467 225.66628 
L 185.760467 225.66628 
" style="fill: none"/>
    <defs>
     <path id="mf1498ea89a" d="M 0 5 
C 1.326016 5 2.597899 4.473168 3.535534 3.535534 
C 4.473168 2.597899 5 1.326016 5 0 
C 5 -1.326016 4.473168 -2.597899 3.535534 -3.535534 
C 2.597899 -4.473168 1.326016 -5 0 -5 
C -1.326016 -5 -2.597899 -4.473168 -3.535534 -3.535534 
C -4.473168 -2.597899 -5 -1.326016 -5 0 
C -5 1.326016 -4.473168 2.597899 -3.535534 3.535534 
C -2.597899 4.473168 -1.326016 5 0 5 
z
" style="stroke: #ffffff; stroke-opacity: 0.8"/>
    </defs>
    <g>
     <use xlink:href="#mf1498ea89a" x="176.760467" y="225.66628" style="fill: #90be6d; fill-opacity: 0.8; stroke: #ffffff; stroke-opacity: 0.8"/>
    </g>
   </g>
   <g id="text_29">
    <!-- Electricity -->
    <g transform="translate(186.660467 228.81628) scale(0.09 -0.09)">
     <use xlink:href="#ArialMT-45"/>
     <use xlink:href="#ArialMT-6c" x="66.699219"/>
     <use xlink:href="#ArialMT-65" x="88.916016"/>
     <use xlink:href="#ArialMT-63" x="144.53125"/>
     <use xlink:href="#ArialMT-74" x="194.53125"/>
     <use xlink:href="#ArialMT-72" x="222.314453"/>
     <use xlink:href="#ArialMT-69" x="255.615234"/>
     <use xlink:href="#ArialMT-63" x="277.832031"/>
     <use xlink:href="#ArialMT-69" x="327.832031"/>
     <use xlink:href="#ArialMT-74" x="350.048828"/>
     <use xlink:href="#ArialMT-79" x="377.832031"/>
    </g>
   </g>
   <g id="line2d_30">
    <path d="M 243.164998 212.83003 
L 252.164998 212.83003 
L 261.164998 212.83003 
" style="fill: none"/>
    <defs>
     <path id="m30cb3192d4" d="M 0 5 
C 1.326016 5 2.597899 4.473168 3.535534 3.535534 
C 4.473168 2.597899 5 1.326016 5 0 
C 5 -1.326016 4.473168 -2.597899 3.535534 -3.535534 
C 2.597899 -4.473168 1.326016 -5 0 -5 
C -1.326016 -5 -2.597899 -4.473168 -3.535534 -3.535534 
C -4.473168 -2.597899 -5 -1.326016 -5 0 
C -5 1.326016 -4.473168 2.597899 -3.535534 3.535534 
C -2.597899 4.473168 -1.326016 5 0 5 
z
" style="stroke: #ffffff; stroke-opacity: 0.8"/>
    </defs>
    <g>
     <use xlink:href="#m30cb3192d4" x="252.164998" y="212.83003" style="fill: #43aa8b; fill-opacity: 0.8; stroke: #ffffff; stroke-opacity: 0.8"/>
    </g>
   </g>
   <g id="text_30">
    <!-- Heating -->
    <g transform="translate(262.064998 215.98003) scale(0.09 -0.09)">
     <use xlink:href="#ArialMT-48"/>
     <use xlink:href="#ArialMT-65" x="72.216797"/>
     <use xlink:href="#ArialMT-61" x="127.832031"/>
     <use xlink:href="#ArialMT-74" x="183.447266"/>
     <use xlink:href="#ArialMT-69" x="211.230469"/>
     <use xlink:href="#ArialMT-6e" x="233.447266"/>
     <use xlink:href="#ArialMT-67" x="289.0625"/>
    </g>
   </g>
   <g id="line2d_31">
    <path d="M 243.164998 225.775967 
L 252.164998 225.775967 
L 261.164998 225.775967 
" style="fill: none"/>
    <defs>
     <path id="m8bd5de7f69" d="M 0 5 
C 1.326016 5 2.597899 4.473168 3.535534 3.535534 
C 4.473168 2.597899 5 1.326016 5 0 
C 5 -1.326016 4.473168 -2.597899 3.535534 -3.535534 
C 2.597899 -4.473168 1.326016 -5 0 -5 
C -1.326016 -5 -2.597899 -4.473168 -3.535534 -3.535534 
C -4.473168 -2.597899 -5 -1.326016 -5 0 
C -5 1.326016 -4.473168 2.597899 -3.535534 3.535534 
C -2.597899 4.473168 -1.326016 5 0 5 
z
" style="stroke: #ffffff; stroke-opacity: 0.8"/>
    </defs>
    <g>
     <use xlink:href="#m8bd5de7f69" x="252.164998" y="225.775967" style="fill: #4d908e; fill-opacity: 0.8; stroke: #ffffff; stroke-opacity: 0.8"/>
    </g>
   </g>
   <g id="text_31">
    <!-- Cooling -->
    <g transform="translate(262.064998 228.925967) scale(0.09 -0.09)">
     <use xlink:href="#ArialMT-43"/>
     <use xlink:href="#ArialMT-6f" x="72.216797"/>
     <use xlink:href="#ArialMT-6f" x="127.832031"/>
     <use xlink:href="#ArialMT-6c" x="183.447266"/>
     <use xlink:href="#ArialMT-69" x="205.664062"/>
     <use xlink:href="#ArialMT-6e" x="227.880859"/>
     <use xlink:href="#ArialMT-67" x="283.496094"/>
    </g>
   </g>
   <g id="line2d_32">
    <path d="M 311.084061 212.83003 
L 320.084061 212.83003 
L 329.084061 212.83003 
" style="fill: none"/>
    <defs>
     <path id="m2ebcb0bde0" d="M 0 5 
C 1.326016 5 2.597899 4.473168 3.535534 3.535534 
C 4.473168 2.597899 5 1.326016 5 0 
C 5 -1.326016 4.473168 -2.597899 3.535534 -3.535534 
C 2.597899 -4.473168 1.326016 -5 0 -5 
C -1.326016 -5 -2.597899 -4.473168 -3.535534 -3.535534 
C -4.473168 -2.597899 -5 -1.326016 -5 0 
C -5 1.326016 -4.473168 2.597899 -3.535534 3.535534 
C -2.597899 4.473168 -1.326016 5 0 5 
z
" style="stroke: #ffffff; stroke-opacity: 0.8"/>
    </defs>
    <g>
     <use xlink:href="#m2ebcb0bde0" x="320.084061" y="212.83003" style="fill: #577590; fill-opacity: 0.8; stroke: #ffffff; stroke-opacity: 0.8"/>
    </g>
   </g>
   <g id="text_32">
    <!-- Other -->
    <g transform="translate(329.984061 215.98003) scale(0.09 -0.09)">
     <use xlink:href="#ArialMT-4f"/>
     <use xlink:href="#ArialMT-74" x="77.783203"/>
     <use xlink:href="#ArialMT-68" x="105.566406"/>
     <use xlink:href="#ArialMT-65" x="161.181641"/>
     <use xlink:href="#ArialMT-72" x="216.796875"/>
    </g>
   </g>
   <g id="line2d_33">
    <path d="M 311.084061 225.560811 
L 320.084061 225.560811 
L 329.084061 225.560811 
" style="fill: none"/>
    <defs>
     <path id="m2470371253" d="M 0 5 
C 1.326016 5 2.597899 4.473168 3.535534 3.535534 
C 4.473168 2.597899 5 1.326016 5 0 
C 5 -1.326016 4.473168 -2.597899 3.535534 -3.535534 
C 2.597899 -4.473168 1.326016 -5 0 -5 
C -1.326016 -5 -2.597899 -4.473168 -3.535534 -3.535534 
C -4.473168 -2.597899 -5 -1.326016 -5 0 
C -5 1.326016 -4.473168 2.597899 -3.535534 3.535534 
C -2.597899 4.473168 -1.326016 5 0 5 
z
" style="stroke: #ffffff; stroke-opacity: 0.8"/>
    </defs>
    <g>
     <use xlink:href="#m2470371253" x="320.084061" y="225.560811" style="fill: #277da1; fill-opacity: 0.8; stroke: #ffffff; stroke-opacity: 0.8"/>
    </g>
   </g>
   <g id="text_33">
    <!-- Direct emissions -->
    <g transform="translate(329.984061 228.710811) scale(0.09 -0.09)">
     <use xlink:href="#ArialMT-44"/>
     <use xlink:href="#ArialMT-69" x="72.216797"/>
     <use xlink:href="#ArialMT-72" x="94.433594"/>
     <use xlink:href="#ArialMT-65" x="127.734375"/>
     <use xlink:href="#ArialMT-63" x="183.349609"/>
     <use xlink:href="#ArialMT-74" x="233.349609"/>
     <use xlink:href="#ArialMT-20" x="261.132812"/>
     <use xlink:href="#ArialMT-65" x="288.916016"/>
     <use xlink:href="#ArialMT-6d" x="344.53125"/>
     <use xlink:href="#ArialMT-69" x="427.832031"/>
     <use xlink:href="#ArialMT-73" x="450.048828"/>
     <use xlink:href="#ArialMT-73" x="500.048828"/>
     <use xlink:href="#ArialMT-69" x="550.048828"/>
     <use xlink:href="#ArialMT-6f" x="572.265625"/>
     <use xlink:href="#ArialMT-6e" x="627.880859"/>
     <use xlink:href="#ArialMT-73" x="683.496094"/>
    </g>
   </g>
   <g id="line2d_34">
    <path d="M 413.996248 212.83003 
L 422.996248 212.83003 
L 431.996248 212.83003 
" style="fill: none"/>
    <defs>
     <path id="mdcd13ec17b" d="M 0 4 
C 1.060812 4 2.078319 3.578535 2.828427 2.828427 
C 3.578535 2.078319 4 1.060812 4 0 
C 4 -1.060812 3.578535 -2.078319 2.828427 -2.828427 
C 2.078319 -3.578535 1.060812 -4 0 -4 
C -1.060812 -4 -2.078319 -3.578535 -2.828427 -2.828427 
C -3.578535 -2.078319 -4 -1.060812 -4 0 
C -4 1.060812 -3.578535 2.078319 -2.828427 2.828427 
C -2.078319 3.578535 -1.060812 4 0 4 
z
" style="stroke: #000000"/>
    </defs>
    <g>
     <use xlink:href="#mdcd13ec17b" x="422.996248" y="212.83003" style="fill: #ffffff; stroke: #000000"/>
    </g>
   </g>
   <g id="text_34">
    <!-- Current impact -->
    <g transform="translate(432.896248 215.98003) scale(0.09 -0.09)">
     <use xlink:href="#ArialMT-43"/>
     <use xlink:href="#ArialMT-75" x="72.216797"/>
     <use xlink:href="#ArialMT-72" x="127.832031"/>
     <use xlink:href="#ArialMT-72" x="161.132812"/>
     <use xlink:href="#ArialMT-65" x="194.433594"/>
     <use xlink:href="#ArialMT-6e" x="250.048828"/>
     <use xlink:href="#ArialMT-74" x="305.664062"/>
     <use xlink:href="#ArialMT-20" x="333.447266"/>
     <use xlink:href="#ArialMT-69" x="361.230469"/>
     <use xlink:href="#ArialMT-6d" x="383.447266"/>
     <use xlink:href="#ArialMT-70" x="466.748047"/>
     <use xlink:href="#ArialMT-61" x="522.363281"/>
     <use xlink:href="#ArialMT-63" x="577.978516"/>
     <use xlink:href="#ArialMT-74" x="627.978516"/>
    </g>
   </g>
   <g id="line2d_35">
    <path d="M 413.996248 225.560811 
L 422.996248 225.560811 
L 431.996248 225.560811 
" style="fill: none"/>
    <defs>
     <path id="md6d220c38f" d="M 0 4.949747 
L 4.949747 0 
L 0 -4.949747 
L -4.949747 0 
z
" style="stroke: #ffffff; stroke-linejoin: miter"/>
    </defs>
    <g>
     <use xlink:href="#md6d220c38f" x="422.996248" y="225.560811" style="fill: #6e00a3; stroke: #ffffff; stroke-linejoin: miter"/>
    </g>
   </g>
   <g id="text_35">
    <!-- Future impact -->
    <g transform="translate(432.896248 228.710811) scale(0.09 -0.09)">
     <use xlink:href="#ArialMT-46"/>
     <use xlink:href="#ArialMT-75" x="61.083984"/>
     <use xlink:href="#ArialMT-74" x="116.699219"/>
     <use xlink:href="#ArialMT-75" x="144.482422"/>
     <use xlink:href="#ArialMT-72" x="200.097656"/>
     <use xlink:href="#ArialMT-65" x="233.398438"/>
     <use xlink:href="#ArialMT-20" x="289.013672"/>
     <use xlink:href="#ArialMT-69" x="316.796875"/>
     <use xlink:href="#ArialMT-6d" x="339.013672"/>
     <use xlink:href="#ArialMT-70" x="422.314453"/>
     <use xlink:href="#ArialMT-61" x="477.929688"/>
     <use xlink:href="#ArialMT-63" x="533.544922"/>
     <use xlink:href="#ArialMT-74" x="583.544922"/>
    </g>
   </g>
  </g>
 </g>
 <defs>
  <clipPath id="p119a012b86">
   <rect x="26.8" y="21.21" width="139.417421" height="146.356421"/>
  </clipPath>
  <clipPath id="p413bb950dc">
   <rect x="196.47328" y="21.21" width="139.417421" height="146.356421"/>
  </clipPath>
  <clipPath id="pce3ab5a836">
   <rect x="366.14656" y="21.21" width="139.417421" height="146.356421"/>
  </clipPath>
 </defs>
</svg>
